ISO-10303-21;
HEADER;

/* File generated by Shapr3D Version 26.50.0.10685 */

FILE_DESCRIPTION(('HOOPS Exchange Step'),'2;1');

FILE_NAME('/Users/georgewhite/Library/Containers/com.shapr3d.shapr/Data/tmp/export/temp_export',
'2026-04-13T15:36:52-04:00',
('georgewhite'),
('Shapr3D Limited'),
'HOOPS Exchange 2025.9',
'Shapr3D',
'Authorized');

FILE_SCHEMA( ('AP242_MANAGED_MODEL_BASED_3D_ENGINEERING_MIM_LF {1 0 10303 442 1 1 4}') );

ENDSEC;

DATA;
#3=(NAMED_UNIT(*)PLANE_ANGLE_UNIT()SI_UNIT($,.RADIAN.));
#4=PLANE_ANGLE_MEASURE_WITH_UNIT(PLANE_ANGLE_MEASURE(0.0174532925),#3);
#5=(CONVERSION_BASED_UNIT('DEGREE',#4)NAMED_UNIT(#6)PLANE_ANGLE_UNIT());
#6=DIMENSIONAL_EXPONENTS(0.,0.,0.,0.,0.,0.,0.);
#7=(NAMED_UNIT(*)SI_UNIT($,.STERADIAN.)SOLID_ANGLE_UNIT());
#8=(LENGTH_UNIT()NAMED_UNIT(*)SI_UNIT(.MILLI.,.METRE.));
#9=UNCERTAINTY_MEASURE_WITH_UNIT(LENGTH_MEASURE(1.000000E-05),#8,'DISTANCE_ACCURACY_VALUE','Maximum Tolerance applied to model');
#10=(GEOMETRIC_REPRESENTATION_CONTEXT(3)GLOBAL_UNCERTAINTY_ASSIGNED_CONTEXT((#9))GLOBAL_UNIT_ASSIGNED_CONTEXT((#8,#5,#7))REPRESENTATION_CONTEXT('','front plate'));
#12=CARTESIAN_POINT('',(0.,0.,0.));
#13=DIRECTION('',(0.,0.,1.));
#14=DIRECTION('',(1.,0.,0.));
#15=AXIS2_PLACEMENT_3D('TS3D_PRODUCT_CSYS',#12,#13,#14);
#27=CARTESIAN_POINT('',(0.,3.,0.));
#28=DIRECTION('',(0.,1.,0.));
#29=DIRECTION('',(0.,0.,-1.));
#30=AXIS2_PLACEMENT_3D('',#27,#28,#29);
#31=PLANE('',#30);
#32=CARTESIAN_POINT('',(0.,3.,8.509));
#33=VERTEX_POINT('',#32);
#34=CARTESIAN_POINT('',(0.,3.,10.16));
#35=DIRECTION('',(0.,-1.,0.));
#36=DIRECTION('',(0.,0.,-1.));
#37=AXIS2_PLACEMENT_3D('',#34,#35,#36);
#38=CIRCLE('',#37,1.651);
#39=EDGE_CURVE('',#33,#33,#38,.T.);
#40=ORIENTED_EDGE('',*,*,#39,.F.);
#41=EDGE_LOOP('',(#40));
#42=FACE_BOUND('',#41,.T.);
#43=CARTESIAN_POINT('',(0.,3.,-11.811));
#44=VERTEX_POINT('',#43);
#45=CARTESIAN_POINT('',(0.,3.,-10.16));
#46=DIRECTION('',(0.,-1.,0.));
#47=DIRECTION('',(0.,0.,-1.));
#48=AXIS2_PLACEMENT_3D('',#45,#46,#47);
#49=CIRCLE('',#48,1.651);
#50=EDGE_CURVE('',#44,#44,#49,.T.);
#51=ORIENTED_EDGE('',*,*,#50,.F.);
#52=EDGE_LOOP('',(#51));
#53=FACE_BOUND('',#52,.T.);
#54=CARTESIAN_POINT('',(19.3,3.,11.811));
#55=VERTEX_POINT('',#54);
#56=CARTESIAN_POINT('',(19.3,3.,10.16));
#57=DIRECTION('',(0.,1.,0.));
#58=DIRECTION('',(0.,-0.,1.));
#59=AXIS2_PLACEMENT_3D('',#56,#57,#58);
#60=CIRCLE('',#59,1.651);
#61=EDGE_CURVE('',#55,#55,#60,.T.);
#62=ORIENTED_EDGE('',*,*,#61,.T.);
#63=EDGE_LOOP('',(#62));
#64=FACE_BOUND('',#63,.T.);
#65=CARTESIAN_POINT('',(44.7,3.,-8.509));
#66=VERTEX_POINT('',#65);
#67=CARTESIAN_POINT('',(44.7,3.,-10.16));
#68=DIRECTION('',(0.,1.,0.));
#69=DIRECTION('',(0.,-0.,1.));
#70=AXIS2_PLACEMENT_3D('',#67,#68,#69);
#71=CIRCLE('',#70,1.651);
#72=EDGE_CURVE('',#66,#66,#71,.T.);
#73=ORIENTED_EDGE('',*,*,#72,.T.);
#74=EDGE_LOOP('',(#73));
#75=FACE_BOUND('',#74,.T.);
#76=CARTESIAN_POINT('',(52.75,3.,11.299038106));
#77=VERTEX_POINT('',#76);
#78=CARTESIAN_POINT('',(51.25,3.,11.299038106));
#79=VERTEX_POINT('',#78);
#80=CARTESIAN_POINT('',(52.75,3.,11.299038106));
#81=DIRECTION('',(-1.,0.,0.));
#82=VECTOR('',#81,1.5);
#83=LINE('',#80,#82);
#84=EDGE_CURVE('',#77,#79,#83,.T.);
#85=ORIENTED_EDGE('',*,*,#84,.F.);
#86=CARTESIAN_POINT('',(53.5,3.,10.));
#87=VERTEX_POINT('',#86);
#88=CARTESIAN_POINT('',(53.5,3.,10.));
#89=DIRECTION('',(-0.5,0.,0.866025404));
#90=VECTOR('',#89,1.5);
#91=LINE('',#88,#90);
#92=EDGE_CURVE('',#87,#77,#91,.T.);
#93=ORIENTED_EDGE('',*,*,#92,.F.);
#94=CARTESIAN_POINT('',(52.75,3.,8.700961894));
#95=VERTEX_POINT('',#94);
#96=CARTESIAN_POINT('',(52.75,3.,8.700961894));
#97=DIRECTION('',(0.5,0.,0.866025404));
#98=VECTOR('',#97,1.5);
#99=LINE('',#96,#98);
#100=EDGE_CURVE('',#95,#87,#99,.T.);
#101=ORIENTED_EDGE('',*,*,#100,.F.);
#102=CARTESIAN_POINT('',(51.25,3.,8.700961894));
#103=VERTEX_POINT('',#102);
#104=CARTESIAN_POINT('',(51.25,3.,8.700961894));
#105=DIRECTION('',(1.,0.,-0.));
#106=VECTOR('',#105,1.5);
#107=LINE('',#104,#106);
#108=EDGE_CURVE('',#103,#95,#107,.T.);
#109=ORIENTED_EDGE('',*,*,#108,.F.);
#110=CARTESIAN_POINT('',(50.5,3.,10.));
#111=VERTEX_POINT('',#110);
#112=CARTESIAN_POINT('',(50.5,3.,10.));
#113=DIRECTION('',(0.5,0.,-0.866025404));
#114=VECTOR('',#113,1.5);
#115=LINE('',#112,#114);
#116=EDGE_CURVE('',#111,#103,#115,.T.);
#117=ORIENTED_EDGE('',*,*,#116,.F.);
#118=CARTESIAN_POINT('',(51.25,3.,11.299038106));
#119=DIRECTION('',(-0.5,0.,-0.866025404));
#120=VECTOR('',#119,1.5);
#121=LINE('',#118,#120);
#122=EDGE_CURVE('',#79,#111,#121,.T.);
#123=ORIENTED_EDGE('',*,*,#122,.F.);
#124=EDGE_LOOP('',(#85,#93,#101,#109,#117,#123));
#125=FACE_BOUND('',#124,.T.);
#126=CARTESIAN_POINT('',(51.25,3.,-8.700961894));
#127=VERTEX_POINT('',#126);
#128=CARTESIAN_POINT('',(52.75,3.,-8.700961894));
#129=VERTEX_POINT('',#128);
#130=CARTESIAN_POINT('',(51.25,3.,-8.700961894));
#131=DIRECTION('',(1.,0.,0.));
#132=VECTOR('',#131,1.5);
#133=LINE('',#130,#132);
#134=EDGE_CURVE('',#127,#129,#133,.T.);
#135=ORIENTED_EDGE('',*,*,#134,.T.);
#136=CARTESIAN_POINT('',(53.5,3.,-10.));
#137=VERTEX_POINT('',#136);
#138=CARTESIAN_POINT('',(52.75,3.,-8.700961894));
#139=DIRECTION('',(0.5,0.,-0.866025404));
#140=VECTOR('',#139,1.5);
#141=LINE('',#138,#140);
#142=EDGE_CURVE('',#129,#137,#141,.T.);
#143=ORIENTED_EDGE('',*,*,#142,.T.);
#144=CARTESIAN_POINT('',(52.75,3.,-11.299038106));
#145=VERTEX_POINT('',#144);
#146=CARTESIAN_POINT('',(53.5,3.,-10.));
#147=DIRECTION('',(-0.5,0.,-0.866025404));
#148=VECTOR('',#147,1.5);
#149=LINE('',#146,#148);
#150=EDGE_CURVE('',#137,#145,#149,.T.);
#151=ORIENTED_EDGE('',*,*,#150,.T.);
#152=CARTESIAN_POINT('',(51.25,3.,-11.299038106));
#153=VERTEX_POINT('',#152);
#154=CARTESIAN_POINT('',(52.75,3.,-11.299038106));
#155=DIRECTION('',(-1.,0.,-0.));
#156=VECTOR('',#155,1.5);
#157=LINE('',#154,#156);
#158=EDGE_CURVE('',#145,#153,#157,.T.);
#159=ORIENTED_EDGE('',*,*,#158,.T.);
#160=CARTESIAN_POINT('',(50.5,3.,-10.));
#161=VERTEX_POINT('',#160);
#162=CARTESIAN_POINT('',(51.25,3.,-11.299038106));
#163=DIRECTION('',(-0.5,0.,0.866025404));
#164=VECTOR('',#163,1.5);
#165=LINE('',#162,#164);
#166=EDGE_CURVE('',#153,#161,#165,.T.);
#167=ORIENTED_EDGE('',*,*,#166,.T.);
#168=CARTESIAN_POINT('',(50.5,3.,-10.));
#169=DIRECTION('',(0.5,0.,0.866025404));
#170=VECTOR('',#169,1.5);
#171=LINE('',#168,#170);
#172=EDGE_CURVE('',#161,#127,#171,.T.);
#173=ORIENTED_EDGE('',*,*,#172,.T.);
#174=EDGE_LOOP('',(#135,#143,#151,#159,#167,#173));
#175=FACE_BOUND('',#174,.T.);
#176=CARTESIAN_POINT('',(-51.25,3.,-8.700961894));
#177=VERTEX_POINT('',#176);
#178=CARTESIAN_POINT('',(-52.75,3.,-8.700961894));
#179=VERTEX_POINT('',#178);
#180=CARTESIAN_POINT('',(-51.25,3.,-8.700961894));
#181=DIRECTION('',(-1.,0.,0.));
#182=VECTOR('',#181,1.5);
#183=LINE('',#180,#182);
#184=EDGE_CURVE('',#177,#179,#183,.T.);
#185=ORIENTED_EDGE('',*,*,#184,.F.);
#186=CARTESIAN_POINT('',(-50.5,3.,-10.));
#187=VERTEX_POINT('',#186);
#188=CARTESIAN_POINT('',(-50.5,3.,-10.));
#189=DIRECTION('',(-0.5,0.,0.866025404));
#190=VECTOR('',#189,1.5);
#191=LINE('',#188,#190);
#192=EDGE_CURVE('',#187,#177,#191,.T.);
#193=ORIENTED_EDGE('',*,*,#192,.F.);
#194=CARTESIAN_POINT('',(-51.25,3.,-11.299038106));
#195=VERTEX_POINT('',#194);
#196=CARTESIAN_POINT('',(-51.25,3.,-11.299038106));
#197=DIRECTION('',(0.5,0.,0.866025404));
#198=VECTOR('',#197,1.5);
#199=LINE('',#196,#198);
#200=EDGE_CURVE('',#195,#187,#199,.T.);
#201=ORIENTED_EDGE('',*,*,#200,.F.);
#202=CARTESIAN_POINT('',(-52.75,3.,-11.299038106));
#203=VERTEX_POINT('',#202);
#204=CARTESIAN_POINT('',(-52.75,3.,-11.299038106));
#205=DIRECTION('',(1.,0.,-0.));
#206=VECTOR('',#205,1.5);
#207=LINE('',#204,#206);
#208=EDGE_CURVE('',#203,#195,#207,.T.);
#209=ORIENTED_EDGE('',*,*,#208,.F.);
#210=CARTESIAN_POINT('',(-53.5,3.,-10.));
#211=VERTEX_POINT('',#210);
#212=CARTESIAN_POINT('',(-53.5,3.,-10.));
#213=DIRECTION('',(0.5,0.,-0.866025404));
#214=VECTOR('',#213,1.5);
#215=LINE('',#212,#214);
#216=EDGE_CURVE('',#211,#203,#215,.T.);
#217=ORIENTED_EDGE('',*,*,#216,.F.);
#218=CARTESIAN_POINT('',(-52.75,3.,-8.700961894));
#219=DIRECTION('',(-0.5,0.,-0.866025404));
#220=VECTOR('',#219,1.5);
#221=LINE('',#218,#220);
#222=EDGE_CURVE('',#179,#211,#221,.T.);
#223=ORIENTED_EDGE('',*,*,#222,.F.);
#224=EDGE_LOOP('',(#185,#193,#201,#209,#217,#223));
#225=FACE_BOUND('',#224,.T.);
#226=CARTESIAN_POINT('',(-24.,3.,1.625));
#227=VERTEX_POINT('',#226);
#228=CARTESIAN_POINT('',(-24.,3.,-0.));
#229=DIRECTION('',(0.,-1.,0.));
#230=DIRECTION('',(-0.,0.,1.));
#231=AXIS2_PLACEMENT_3D('',#228,#229,#230);
#232=CIRCLE('',#231,1.625);
#233=EDGE_CURVE('',#227,#227,#232,.T.);
#234=ORIENTED_EDGE('',*,*,#233,.F.);
#235=EDGE_LOOP('',(#234));
#236=FACE_BOUND('',#235,.T.);
#237=CARTESIAN_POINT('',(-40.,3.,1.625));
#238=VERTEX_POINT('',#237);
#239=CARTESIAN_POINT('',(-40.,3.,-0.));
#240=DIRECTION('',(0.,-1.,0.));
#241=DIRECTION('',(-0.,0.,1.));
#242=AXIS2_PLACEMENT_3D('',#239,#240,#241);
#243=CIRCLE('',#242,1.625);
#244=EDGE_CURVE('',#238,#238,#243,.T.);
#245=ORIENTED_EDGE('',*,*,#244,.F.);
#246=EDGE_LOOP('',(#245));
#247=FACE_BOUND('',#246,.T.);
#248=CARTESIAN_POINT('',(32.,3.,4.25));
#249=VERTEX_POINT('',#248);
#250=CARTESIAN_POINT('',(32.,3.,0.));
#251=DIRECTION('',(0.,-1.,0.));
#252=DIRECTION('',(-0.,0.,1.));
#253=AXIS2_PLACEMENT_3D('',#250,#251,#252);
#254=CIRCLE('',#253,4.25);
#255=EDGE_CURVE('',#249,#249,#254,.T.);
#256=ORIENTED_EDGE('',*,*,#255,.F.);
#257=EDGE_LOOP('',(#256));
#258=FACE_BOUND('',#257,.T.);
#259=CARTESIAN_POINT('',(-12.5,3.,1.5));
#260=VERTEX_POINT('',#259);
#261=CARTESIAN_POINT('',(-12.5,3.,-1.5));
#262=VERTEX_POINT('',#261);
#263=CARTESIAN_POINT('',(-12.5,3.,1.5));
#264=DIRECTION('',(0.,0.,-1.));
#265=VECTOR('',#264,3.);
#266=LINE('',#263,#265);
#267=EDGE_CURVE('',#260,#262,#266,.T.);
#268=ORIENTED_EDGE('',*,*,#267,.F.);
#269=CARTESIAN_POINT('',(-10.,3.,4.));
#270=VERTEX_POINT('',#269);
#271=CARTESIAN_POINT('',(-10.,3.,1.5));
#272=DIRECTION('',(0.,1.,0.));
#273=DIRECTION('',(0.,0.,-1.));
#274=AXIS2_PLACEMENT_3D('',#271,#272,#273);
#275=CIRCLE('',#274,2.5);
#276=EDGE_CURVE('',#260,#270,#275,.T.);
#277=ORIENTED_EDGE('',*,*,#276,.T.);
#278=CARTESIAN_POINT('',(10.,3.,4.));
#279=VERTEX_POINT('',#278);
#280=CARTESIAN_POINT('',(10.,3.,4.));
#281=DIRECTION('',(-1.,0.,-0.));
#282=VECTOR('',#281,20.);
#283=LINE('',#280,#282);
#284=EDGE_CURVE('',#279,#270,#283,.T.);
#285=ORIENTED_EDGE('',*,*,#284,.F.);
#286=CARTESIAN_POINT('',(12.5,3.,1.5));
#287=VERTEX_POINT('',#286);
#288=CARTESIAN_POINT('',(10.,3.,1.5));
#289=DIRECTION('',(0.,1.,0.));
#290=DIRECTION('',(0.,0.,-1.));
#291=AXIS2_PLACEMENT_3D('',#288,#289,#290);
#292=CIRCLE('',#291,2.5);
#293=EDGE_CURVE('',#279,#287,#292,.T.);
#294=ORIENTED_EDGE('',*,*,#293,.T.);
#295=CARTESIAN_POINT('',(12.5,3.,-1.5));
#296=VERTEX_POINT('',#295);
#297=CARTESIAN_POINT('',(12.5,3.,-1.5));
#298=DIRECTION('',(-0.,0.,1.));
#299=VECTOR('',#298,3.);
#300=LINE('',#297,#299);
#301=EDGE_CURVE('',#296,#287,#300,.T.);
#302=ORIENTED_EDGE('',*,*,#301,.F.);
#303=CARTESIAN_POINT('',(10.,3.,-4.));
#304=VERTEX_POINT('',#303);
#305=CARTESIAN_POINT('',(10.,3.,-1.5));
#306=DIRECTION('',(0.,1.,0.));
#307=DIRECTION('',(0.,0.,-1.));
#308=AXIS2_PLACEMENT_3D('',#305,#306,#307);
#309=CIRCLE('',#308,2.5);
#310=EDGE_CURVE('',#296,#304,#309,.T.);
#311=ORIENTED_EDGE('',*,*,#310,.T.);
#312=CARTESIAN_POINT('',(-10.,3.,-4.));
#313=VERTEX_POINT('',#312);
#314=CARTESIAN_POINT('',(-10.,3.,-4.));
#315=DIRECTION('',(1.,0.,0.));
#316=VECTOR('',#315,20.);
#317=LINE('',#314,#316);
#318=EDGE_CURVE('',#313,#304,#317,.T.);
#319=ORIENTED_EDGE('',*,*,#318,.F.);
#320=CARTESIAN_POINT('',(-10.,3.,-1.5));
#321=DIRECTION('',(0.,1.,0.));
#322=DIRECTION('',(0.,0.,-1.));
#323=AXIS2_PLACEMENT_3D('',#320,#321,#322);
#324=CIRCLE('',#323,2.5);
#325=EDGE_CURVE('',#313,#262,#324,.T.);
#326=ORIENTED_EDGE('',*,*,#325,.T.);
#327=EDGE_LOOP('',(#268,#277,#285,#294,#302,#311,#319,#326));
#328=FACE_BOUND('',#327,.T.);
#329=CARTESIAN_POINT('',(58.,3.,-10.));
#330=VERTEX_POINT('',#329);
#331=CARTESIAN_POINT('',(52.,3.,-16.));
#332=VERTEX_POINT('',#331);
#333=CARTESIAN_POINT('',(52.,3.,-10.));
#334=DIRECTION('',(0.,1.,0.));
#335=DIRECTION('',(0.,0.,-1.));
#336=AXIS2_PLACEMENT_3D('',#333,#334,#335);
#337=CIRCLE('',#336,6.);
#338=EDGE_CURVE('',#330,#332,#337,.T.);
#339=ORIENTED_EDGE('',*,*,#338,.F.);
#340=CARTESIAN_POINT('',(58.,3.,10.));
#341=VERTEX_POINT('',#340);
#342=CARTESIAN_POINT('',(58.,3.,10.));
#343=DIRECTION('',(0.,0.,-1.));
#344=VECTOR('',#343,20.);
#345=LINE('',#342,#344);
#346=EDGE_CURVE('',#341,#330,#345,.T.);
#347=ORIENTED_EDGE('',*,*,#346,.F.);
#348=CARTESIAN_POINT('',(52.,3.,16.));
#349=VERTEX_POINT('',#348);
#350=CARTESIAN_POINT('',(52.,3.,10.));
#351=DIRECTION('',(0.,1.,0.));
#352=DIRECTION('',(0.,0.,-1.));
#353=AXIS2_PLACEMENT_3D('',#350,#351,#352);
#354=CIRCLE('',#353,6.);
#355=EDGE_CURVE('',#349,#341,#354,.T.);
#356=ORIENTED_EDGE('',*,*,#355,.F.);
#357=CARTESIAN_POINT('',(-52.,3.,16.));
#358=VERTEX_POINT('',#357);
#359=CARTESIAN_POINT('',(-52.,3.,16.));
#360=DIRECTION('',(1.,0.,0.));
#361=VECTOR('',#360,104.);
#362=LINE('',#359,#361);
#363=EDGE_CURVE('',#358,#349,#362,.T.);
#364=ORIENTED_EDGE('',*,*,#363,.F.);
#365=CARTESIAN_POINT('',(-58.,3.,10.));
#366=VERTEX_POINT('',#365);
#367=CARTESIAN_POINT('',(-52.,3.,10.));
#368=DIRECTION('',(0.,1.,0.));
#369=DIRECTION('',(0.,0.,-1.));
#370=AXIS2_PLACEMENT_3D('',#367,#368,#369);
#371=CIRCLE('',#370,6.);
#372=EDGE_CURVE('',#366,#358,#371,.T.);
#373=ORIENTED_EDGE('',*,*,#372,.F.);
#374=CARTESIAN_POINT('',(-58.,3.,-10.));
#375=VERTEX_POINT('',#374);
#376=CARTESIAN_POINT('',(-58.,3.,-10.));
#377=DIRECTION('',(-0.,0.,1.));
#378=VECTOR('',#377,20.);
#379=LINE('',#376,#378);
#380=EDGE_CURVE('',#375,#366,#379,.T.);
#381=ORIENTED_EDGE('',*,*,#380,.F.);
#382=CARTESIAN_POINT('',(-52.,3.,-16.));
#383=VERTEX_POINT('',#382);
#384=CARTESIAN_POINT('',(-52.,3.,-10.));
#385=DIRECTION('',(0.,1.,0.));
#386=DIRECTION('',(0.,0.,-1.));
#387=AXIS2_PLACEMENT_3D('',#384,#385,#386);
#388=CIRCLE('',#387,6.);
#389=EDGE_CURVE('',#383,#375,#388,.T.);
#390=ORIENTED_EDGE('',*,*,#389,.F.);
#391=CARTESIAN_POINT('',(52.,3.,-16.));
#392=DIRECTION('',(-1.,0.,0.));
#393=VECTOR('',#392,104.);
#394=LINE('',#391,#393);
#395=EDGE_CURVE('',#332,#383,#394,.T.);
#396=ORIENTED_EDGE('',*,*,#395,.F.);
#397=EDGE_LOOP('',(#339,#347,#356,#364,#373,#381,#390,#396));
#398=FACE_BOUND('',#397,.T.);
#399=CARTESIAN_POINT('',(-52.75,3.,11.299038106));
#400=VERTEX_POINT('',#399);
#401=CARTESIAN_POINT('',(-51.25,3.,11.299038106));
#402=VERTEX_POINT('',#401);
#403=CARTESIAN_POINT('',(-52.75,3.,11.299038106));
#404=DIRECTION('',(1.,0.,0.));
#405=VECTOR('',#404,1.5);
#406=LINE('',#403,#405);
#407=EDGE_CURVE('',#400,#402,#406,.T.);
#408=ORIENTED_EDGE('',*,*,#407,.T.);
#409=CARTESIAN_POINT('',(-50.5,3.,10.));
#410=VERTEX_POINT('',#409);
#411=CARTESIAN_POINT('',(-51.25,3.,11.299038106));
#412=DIRECTION('',(0.5,0.,-0.866025404));
#413=VECTOR('',#412,1.5);
#414=LINE('',#411,#413);
#415=EDGE_CURVE('',#402,#410,#414,.T.);
#416=ORIENTED_EDGE('',*,*,#415,.T.);
#417=CARTESIAN_POINT('',(-51.25,3.,8.700961894));
#418=VERTEX_POINT('',#417);
#419=CARTESIAN_POINT('',(-50.5,3.,10.));
#420=DIRECTION('',(-0.5,0.,-0.866025404));
#421=VECTOR('',#420,1.5);
#422=LINE('',#419,#421);
#423=EDGE_CURVE('',#410,#418,#422,.T.);
#424=ORIENTED_EDGE('',*,*,#423,.T.);
#425=CARTESIAN_POINT('',(-52.75,3.,8.700961894));
#426=VERTEX_POINT('',#425);
#427=CARTESIAN_POINT('',(-51.25,3.,8.700961894));
#428=DIRECTION('',(-1.,0.,-0.));
#429=VECTOR('',#428,1.5);
#430=LINE('',#427,#429);
#431=EDGE_CURVE('',#418,#426,#430,.T.);
#432=ORIENTED_EDGE('',*,*,#431,.T.);
#433=CARTESIAN_POINT('',(-53.5,3.,10.));
#434=VERTEX_POINT('',#433);
#435=CARTESIAN_POINT('',(-52.75,3.,8.700961894));
#436=DIRECTION('',(-0.5,0.,0.866025404));
#437=VECTOR('',#436,1.5);
#438=LINE('',#435,#437);
#439=EDGE_CURVE('',#426,#434,#438,.T.);
#440=ORIENTED_EDGE('',*,*,#439,.T.);
#441=CARTESIAN_POINT('',(-53.5,3.,10.));
#442=DIRECTION('',(0.5,0.,0.866025404));
#443=VECTOR('',#442,1.5);
#444=LINE('',#441,#443);
#445=EDGE_CURVE('',#434,#400,#444,.T.);
#446=ORIENTED_EDGE('',*,*,#445,.T.);
#447=EDGE_LOOP('',(#408,#416,#424,#432,#440,#446));
#448=FACE_BOUND('',#447,.T.);
#449=ADVANCED_FACE('',(#42,#53,#64,#75,#125,#175,#225,#236,#247,#258,#328,#398,#448),#31,.F.);
#450=CARTESIAN_POINT('',(0.,5.,0.));
#451=DIRECTION('',(0.,1.,0.));
#452=DIRECTION('',(0.,0.,-1.));
#453=AXIS2_PLACEMENT_3D('',#450,#451,#452);
#454=PLANE('',#453);
#455=CARTESIAN_POINT('',(0.,5.,8.509));
#456=VERTEX_POINT('',#455);
#457=CARTESIAN_POINT('',(0.,5.,11.811));
#458=VERTEX_POINT('',#457);
#459=CARTESIAN_POINT('',(0.,5.,10.16));
#460=DIRECTION('',(0.,1.,0.));
#461=DIRECTION('',(0.,-0.,1.));
#462=AXIS2_PLACEMENT_3D('',#459,#460,#461);
#463=CIRCLE('',#462,1.651);
#464=EDGE_CURVE('',#456,#458,#463,.T.);
#465=ORIENTED_EDGE('',*,*,#464,.F.);
#466=CARTESIAN_POINT('',(0.,5.,10.16));
#467=DIRECTION('',(0.,1.,0.));
#468=DIRECTION('',(0.,-0.,1.));
#469=AXIS2_PLACEMENT_3D('',#466,#467,#468);
#470=CIRCLE('',#469,1.651);
#471=EDGE_CURVE('',#458,#456,#470,.T.);
#472=ORIENTED_EDGE('',*,*,#471,.F.);
#473=EDGE_LOOP('',(#465,#472));
#474=FACE_BOUND('',#473,.T.);
#475=CARTESIAN_POINT('',(0.,5.,-11.811));
#476=VERTEX_POINT('',#475);
#477=CARTESIAN_POINT('',(0.,5.,-8.509));
#478=VERTEX_POINT('',#477);
#479=CARTESIAN_POINT('',(0.,5.,-10.16));
#480=DIRECTION('',(0.,1.,0.));
#481=DIRECTION('',(0.,-0.,1.));
#482=AXIS2_PLACEMENT_3D('',#479,#480,#481);
#483=CIRCLE('',#482,1.651);
#484=EDGE_CURVE('',#476,#478,#483,.T.);
#485=ORIENTED_EDGE('',*,*,#484,.F.);
#486=CARTESIAN_POINT('',(0.,5.,-10.16));
#487=DIRECTION('',(0.,1.,0.));
#488=DIRECTION('',(0.,-0.,1.));
#489=AXIS2_PLACEMENT_3D('',#486,#487,#488);
#490=CIRCLE('',#489,1.651);
#491=EDGE_CURVE('',#478,#476,#490,.T.);
#492=ORIENTED_EDGE('',*,*,#491,.F.);
#493=EDGE_LOOP('',(#485,#492));
#494=FACE_BOUND('',#493,.T.);
#495=CARTESIAN_POINT('',(19.3,5.,11.811));
#496=VERTEX_POINT('',#495);
#497=CARTESIAN_POINT('',(19.3,5.,10.16));
#498=DIRECTION('',(0.,1.,0.));
#499=DIRECTION('',(0.,-0.,1.));
#500=AXIS2_PLACEMENT_3D('',#497,#498,#499);
#501=CIRCLE('',#500,1.651);
#502=EDGE_CURVE('',#496,#496,#501,.T.);
#503=ORIENTED_EDGE('',*,*,#502,.F.);
#504=EDGE_LOOP('',(#503));
#505=FACE_BOUND('',#504,.T.);
#506=CARTESIAN_POINT('',(44.7,5.,-8.509));
#507=VERTEX_POINT('',#506);
#508=CARTESIAN_POINT('',(44.7,5.,-10.16));
#509=DIRECTION('',(0.,1.,0.));
#510=DIRECTION('',(0.,-0.,1.));
#511=AXIS2_PLACEMENT_3D('',#508,#509,#510);
#512=CIRCLE('',#511,1.651);
#513=EDGE_CURVE('',#507,#507,#512,.T.);
#514=ORIENTED_EDGE('',*,*,#513,.F.);
#515=EDGE_LOOP('',(#514));
#516=FACE_BOUND('',#515,.T.);
#517=CARTESIAN_POINT('',(52.75,5.,11.299038106));
#518=VERTEX_POINT('',#517);
#519=CARTESIAN_POINT('',(53.5,5.,10.));
#520=VERTEX_POINT('',#519);
#521=CARTESIAN_POINT('',(52.75,5.,11.299038106));
#522=DIRECTION('',(0.5,0.,-0.866025404));
#523=VECTOR('',#522,1.5);
#524=LINE('',#521,#523);
#525=EDGE_CURVE('',#518,#520,#524,.T.);
#526=ORIENTED_EDGE('',*,*,#525,.F.);
#527=CARTESIAN_POINT('',(51.25,5.,11.299038106));
#528=VERTEX_POINT('',#527);
#529=CARTESIAN_POINT('',(51.25,5.,11.299038106));
#530=DIRECTION('',(1.,0.,-0.));
#531=VECTOR('',#530,1.5);
#532=LINE('',#529,#531);
#533=EDGE_CURVE('',#528,#518,#532,.T.);
#534=ORIENTED_EDGE('',*,*,#533,.F.);
#535=CARTESIAN_POINT('',(50.5,5.,10.));
#536=VERTEX_POINT('',#535);
#537=CARTESIAN_POINT('',(50.5,5.,10.));
#538=DIRECTION('',(0.5,0.,0.866025404));
#539=VECTOR('',#538,1.5);
#540=LINE('',#537,#539);
#541=EDGE_CURVE('',#536,#528,#540,.T.);
#542=ORIENTED_EDGE('',*,*,#541,.F.);
#543=CARTESIAN_POINT('',(51.25,5.,8.700961894));
#544=VERTEX_POINT('',#543);
#545=CARTESIAN_POINT('',(51.25,5.,8.700961894));
#546=DIRECTION('',(-0.5,0.,0.866025404));
#547=VECTOR('',#546,1.5);
#548=LINE('',#545,#547);
#549=EDGE_CURVE('',#544,#536,#548,.T.);
#550=ORIENTED_EDGE('',*,*,#549,.F.);
#551=CARTESIAN_POINT('',(52.75,5.,8.700961894));
#552=VERTEX_POINT('',#551);
#553=CARTESIAN_POINT('',(52.75,5.,8.700961894));
#554=DIRECTION('',(-1.,0.,0.));
#555=VECTOR('',#554,1.5);
#556=LINE('',#553,#555);
#557=EDGE_CURVE('',#552,#544,#556,.T.);
#558=ORIENTED_EDGE('',*,*,#557,.F.);
#559=CARTESIAN_POINT('',(53.5,5.,10.));
#560=DIRECTION('',(-0.5,0.,-0.866025404));
#561=VECTOR('',#560,1.5);
#562=LINE('',#559,#561);
#563=EDGE_CURVE('',#520,#552,#562,.T.);
#564=ORIENTED_EDGE('',*,*,#563,.F.);
#565=EDGE_LOOP('',(#526,#534,#542,#550,#558,#564));
#566=FACE_BOUND('',#565,.T.);
#567=CARTESIAN_POINT('',(-51.25,5.,-8.700961894));
#568=VERTEX_POINT('',#567);
#569=CARTESIAN_POINT('',(-50.5,5.,-10.));
#570=VERTEX_POINT('',#569);
#571=CARTESIAN_POINT('',(-51.25,5.,-8.700961894));
#572=DIRECTION('',(0.5,0.,-0.866025404));
#573=VECTOR('',#572,1.5);
#574=LINE('',#571,#573);
#575=EDGE_CURVE('',#568,#570,#574,.T.);
#576=ORIENTED_EDGE('',*,*,#575,.F.);
#577=CARTESIAN_POINT('',(-52.75,5.,-8.700961894));
#578=VERTEX_POINT('',#577);
#579=CARTESIAN_POINT('',(-52.75,5.,-8.700961894));
#580=DIRECTION('',(1.,0.,-0.));
#581=VECTOR('',#580,1.5);
#582=LINE('',#579,#581);
#583=EDGE_CURVE('',#578,#568,#582,.T.);
#584=ORIENTED_EDGE('',*,*,#583,.F.);
#585=CARTESIAN_POINT('',(-53.5,5.,-10.));
#586=VERTEX_POINT('',#585);
#587=CARTESIAN_POINT('',(-53.5,5.,-10.));
#588=DIRECTION('',(0.5,0.,0.866025404));
#589=VECTOR('',#588,1.5);
#590=LINE('',#587,#589);
#591=EDGE_CURVE('',#586,#578,#590,.T.);
#592=ORIENTED_EDGE('',*,*,#591,.F.);
#593=CARTESIAN_POINT('',(-52.75,5.,-11.299038106));
#594=VERTEX_POINT('',#593);
#595=CARTESIAN_POINT('',(-52.75,5.,-11.299038106));
#596=DIRECTION('',(-0.5,0.,0.866025404));
#597=VECTOR('',#596,1.5);
#598=LINE('',#595,#597);
#599=EDGE_CURVE('',#594,#586,#598,.T.);
#600=ORIENTED_EDGE('',*,*,#599,.F.);
#601=CARTESIAN_POINT('',(-51.25,5.,-11.299038106));
#602=VERTEX_POINT('',#601);
#603=CARTESIAN_POINT('',(-51.25,5.,-11.299038106));
#604=DIRECTION('',(-1.,0.,0.));
#605=VECTOR('',#604,1.5);
#606=LINE('',#603,#605);
#607=EDGE_CURVE('',#602,#594,#606,.T.);
#608=ORIENTED_EDGE('',*,*,#607,.F.);
#609=CARTESIAN_POINT('',(-50.5,5.,-10.));
#610=DIRECTION('',(-0.5,0.,-0.866025404));
#611=VECTOR('',#610,1.5);
#612=LINE('',#609,#611);
#613=EDGE_CURVE('',#570,#602,#612,.T.);
#614=ORIENTED_EDGE('',*,*,#613,.F.);
#615=EDGE_LOOP('',(#576,#584,#592,#600,#608,#614));
#616=FACE_BOUND('',#615,.T.);
#617=CARTESIAN_POINT('',(-24.,5.,1.625));
#618=VERTEX_POINT('',#617);
#619=CARTESIAN_POINT('',(-24.,5.,-1.625));
#620=VERTEX_POINT('',#619);
#621=CARTESIAN_POINT('',(-24.,5.,-0.));
#622=DIRECTION('',(0.,1.,0.));
#623=DIRECTION('',(0.,0.,-1.));
#624=AXIS2_PLACEMENT_3D('',#621,#622,#623);
#625=CIRCLE('',#624,1.625);
#626=EDGE_CURVE('',#618,#620,#625,.T.);
#627=ORIENTED_EDGE('',*,*,#626,.F.);
#628=CARTESIAN_POINT('',(-24.,5.,-0.));
#629=DIRECTION('',(0.,1.,0.));
#630=DIRECTION('',(0.,0.,-1.));
#631=AXIS2_PLACEMENT_3D('',#628,#629,#630);
#632=CIRCLE('',#631,1.625);
#633=EDGE_CURVE('',#620,#618,#632,.T.);
#634=ORIENTED_EDGE('',*,*,#633,.F.);
#635=EDGE_LOOP('',(#627,#634));
#636=FACE_BOUND('',#635,.T.);
#637=CARTESIAN_POINT('',(-40.,5.,1.625));
#638=VERTEX_POINT('',#637);
#639=CARTESIAN_POINT('',(-40.,5.,-1.625));
#640=VERTEX_POINT('',#639);
#641=CARTESIAN_POINT('',(-40.,5.,-0.));
#642=DIRECTION('',(0.,1.,0.));
#643=DIRECTION('',(0.,0.,-1.));
#644=AXIS2_PLACEMENT_3D('',#641,#642,#643);
#645=CIRCLE('',#644,1.625);
#646=EDGE_CURVE('',#638,#640,#645,.T.);
#647=ORIENTED_EDGE('',*,*,#646,.F.);
#648=CARTESIAN_POINT('',(-40.,5.,-0.));
#649=DIRECTION('',(0.,1.,0.));
#650=DIRECTION('',(0.,0.,-1.));
#651=AXIS2_PLACEMENT_3D('',#648,#649,#650);
#652=CIRCLE('',#651,1.625);
#653=EDGE_CURVE('',#640,#638,#652,.T.);
#654=ORIENTED_EDGE('',*,*,#653,.F.);
#655=EDGE_LOOP('',(#647,#654));
#656=FACE_BOUND('',#655,.T.);
#657=CARTESIAN_POINT('',(32.,5.,4.25));
#658=VERTEX_POINT('',#657);
#659=CARTESIAN_POINT('',(32.,5.,-4.25));
#660=VERTEX_POINT('',#659);
#661=CARTESIAN_POINT('',(32.,5.,0.));
#662=DIRECTION('',(0.,1.,0.));
#663=DIRECTION('',(0.,0.,-1.));
#664=AXIS2_PLACEMENT_3D('',#661,#662,#663);
#665=CIRCLE('',#664,4.25);
#666=EDGE_CURVE('',#658,#660,#665,.T.);
#667=ORIENTED_EDGE('',*,*,#666,.F.);
#668=CARTESIAN_POINT('',(32.,5.,0.));
#669=DIRECTION('',(0.,1.,0.));
#670=DIRECTION('',(0.,0.,-1.));
#671=AXIS2_PLACEMENT_3D('',#668,#669,#670);
#672=CIRCLE('',#671,4.25);
#673=EDGE_CURVE('',#660,#658,#672,.T.);
#674=ORIENTED_EDGE('',*,*,#673,.F.);
#675=EDGE_LOOP('',(#667,#674));
#676=FACE_BOUND('',#675,.T.);
#677=CARTESIAN_POINT('',(-10.,5.,4.));
#678=VERTEX_POINT('',#677);
#679=CARTESIAN_POINT('',(10.,5.,4.));
#680=VERTEX_POINT('',#679);
#681=CARTESIAN_POINT('',(-10.,5.,4.));
#682=DIRECTION('',(1.,0.,0.));
#683=VECTOR('',#682,20.);
#684=LINE('',#681,#683);
#685=EDGE_CURVE('',#678,#680,#684,.T.);
#686=ORIENTED_EDGE('',*,*,#685,.F.);
#687=CARTESIAN_POINT('',(-12.5,5.,1.5));
#688=VERTEX_POINT('',#687);
#689=CARTESIAN_POINT('',(-10.,5.,1.5));
#690=DIRECTION('',(-0.,-1.,-0.));
#691=DIRECTION('',(0.,0.,-1.));
#692=AXIS2_PLACEMENT_3D('',#689,#690,#691);
#693=CIRCLE('',#692,2.5);
#694=EDGE_CURVE('',#678,#688,#693,.T.);
#695=ORIENTED_EDGE('',*,*,#694,.T.);
#696=CARTESIAN_POINT('',(-12.5,5.,-1.5));
#697=VERTEX_POINT('',#696);
#698=CARTESIAN_POINT('',(-12.5,5.,-1.5));
#699=DIRECTION('',(-0.,0.,1.));
#700=VECTOR('',#699,3.);
#701=LINE('',#698,#700);
#702=EDGE_CURVE('',#697,#688,#701,.T.);
#703=ORIENTED_EDGE('',*,*,#702,.F.);
#704=CARTESIAN_POINT('',(-10.,5.,-4.));
#705=VERTEX_POINT('',#704);
#706=CARTESIAN_POINT('',(-10.,5.,-1.5));
#707=DIRECTION('',(-0.,-1.,-0.));
#708=DIRECTION('',(0.,0.,-1.));
#709=AXIS2_PLACEMENT_3D('',#706,#707,#708);
#710=CIRCLE('',#709,2.5);
#711=EDGE_CURVE('',#697,#705,#710,.T.);
#712=ORIENTED_EDGE('',*,*,#711,.T.);
#713=CARTESIAN_POINT('',(10.,5.,-4.));
#714=VERTEX_POINT('',#713);
#715=CARTESIAN_POINT('',(10.,5.,-4.));
#716=DIRECTION('',(-1.,0.,-0.));
#717=VECTOR('',#716,20.);
#718=LINE('',#715,#717);
#719=EDGE_CURVE('',#714,#705,#718,.T.);
#720=ORIENTED_EDGE('',*,*,#719,.F.);
#721=CARTESIAN_POINT('',(12.5,5.,-1.5));
#722=VERTEX_POINT('',#721);
#723=CARTESIAN_POINT('',(10.,5.,-1.5));
#724=DIRECTION('',(-0.,-1.,-0.));
#725=DIRECTION('',(0.,0.,-1.));
#726=AXIS2_PLACEMENT_3D('',#723,#724,#725);
#727=CIRCLE('',#726,2.5);
#728=EDGE_CURVE('',#714,#722,#727,.T.);
#729=ORIENTED_EDGE('',*,*,#728,.T.);
#730=CARTESIAN_POINT('',(12.5,5.,1.5));
#731=VERTEX_POINT('',#730);
#732=CARTESIAN_POINT('',(12.5,5.,1.5));
#733=DIRECTION('',(0.,0.,-1.));
#734=VECTOR('',#733,3.);
#735=LINE('',#732,#734);
#736=EDGE_CURVE('',#731,#722,#735,.T.);
#737=ORIENTED_EDGE('',*,*,#736,.F.);
#738=CARTESIAN_POINT('',(10.,5.,1.5));
#739=DIRECTION('',(-0.,-1.,-0.));
#740=DIRECTION('',(0.,0.,-1.));
#741=AXIS2_PLACEMENT_3D('',#738,#739,#740);
#742=CIRCLE('',#741,2.5);
#743=EDGE_CURVE('',#731,#680,#742,.T.);
#744=ORIENTED_EDGE('',*,*,#743,.T.);
#745=EDGE_LOOP('',(#686,#695,#703,#712,#720,#729,#737,#744));
#746=FACE_BOUND('',#745,.T.);
#747=CARTESIAN_POINT('',(58.,5.,-10.));
#748=VERTEX_POINT('',#747);
#749=CARTESIAN_POINT('',(52.,5.,-16.));
#750=VERTEX_POINT('',#749);
#751=CARTESIAN_POINT('',(52.,5.,-10.));
#752=DIRECTION('',(0.,1.,0.));
#753=DIRECTION('',(0.,0.,-1.));
#754=AXIS2_PLACEMENT_3D('',#751,#752,#753);
#755=CIRCLE('',#754,6.);
#756=EDGE_CURVE('',#748,#750,#755,.T.);
#757=ORIENTED_EDGE('',*,*,#756,.T.);
#758=CARTESIAN_POINT('',(-52.,5.,-16.));
#759=VERTEX_POINT('',#758);
#760=CARTESIAN_POINT('',(52.,5.,-16.));
#761=DIRECTION('',(-1.,0.,0.));
#762=VECTOR('',#761,104.);
#763=LINE('',#760,#762);
#764=EDGE_CURVE('',#750,#759,#763,.T.);
#765=ORIENTED_EDGE('',*,*,#764,.T.);
#766=CARTESIAN_POINT('',(-58.,5.,-10.));
#767=VERTEX_POINT('',#766);
#768=CARTESIAN_POINT('',(-52.,5.,-10.));
#769=DIRECTION('',(0.,1.,0.));
#770=DIRECTION('',(0.,0.,-1.));
#771=AXIS2_PLACEMENT_3D('',#768,#769,#770);
#772=CIRCLE('',#771,6.);
#773=EDGE_CURVE('',#759,#767,#772,.T.);
#774=ORIENTED_EDGE('',*,*,#773,.T.);
#775=CARTESIAN_POINT('',(-58.,5.,10.));
#776=VERTEX_POINT('',#775);
#777=CARTESIAN_POINT('',(-58.,5.,-10.));
#778=DIRECTION('',(-0.,0.,1.));
#779=VECTOR('',#778,20.);
#780=LINE('',#777,#779);
#781=EDGE_CURVE('',#767,#776,#780,.T.);
#782=ORIENTED_EDGE('',*,*,#781,.T.);
#783=CARTESIAN_POINT('',(-52.,5.,16.));
#784=VERTEX_POINT('',#783);
#785=CARTESIAN_POINT('',(-52.,5.,10.));
#786=DIRECTION('',(0.,1.,0.));
#787=DIRECTION('',(0.,0.,-1.));
#788=AXIS2_PLACEMENT_3D('',#785,#786,#787);
#789=CIRCLE('',#788,6.);
#790=EDGE_CURVE('',#776,#784,#789,.T.);
#791=ORIENTED_EDGE('',*,*,#790,.T.);
#792=CARTESIAN_POINT('',(52.,5.,16.));
#793=VERTEX_POINT('',#792);
#794=CARTESIAN_POINT('',(-52.,5.,16.));
#795=DIRECTION('',(1.,0.,0.));
#796=VECTOR('',#795,104.);
#797=LINE('',#794,#796);
#798=EDGE_CURVE('',#784,#793,#797,.T.);
#799=ORIENTED_EDGE('',*,*,#798,.T.);
#800=CARTESIAN_POINT('',(58.,5.,10.));
#801=VERTEX_POINT('',#800);
#802=CARTESIAN_POINT('',(52.,5.,10.));
#803=DIRECTION('',(0.,1.,0.));
#804=DIRECTION('',(0.,0.,-1.));
#805=AXIS2_PLACEMENT_3D('',#802,#803,#804);
#806=CIRCLE('',#805,6.);
#807=EDGE_CURVE('',#793,#801,#806,.T.);
#808=ORIENTED_EDGE('',*,*,#807,.T.);
#809=CARTESIAN_POINT('',(58.,5.,10.));
#810=DIRECTION('',(0.,0.,-1.));
#811=VECTOR('',#810,20.);
#812=LINE('',#809,#811);
#813=EDGE_CURVE('',#801,#748,#812,.T.);
#814=ORIENTED_EDGE('',*,*,#813,.T.);
#815=EDGE_LOOP('',(#757,#765,#774,#782,#791,#799,#808,#814));
#816=FACE_BOUND('',#815,.T.);
#817=CARTESIAN_POINT('',(53.5,5.,-10.));
#818=VERTEX_POINT('',#817);
#819=CARTESIAN_POINT('',(52.75,5.,-8.700961894));
#820=VERTEX_POINT('',#819);
#821=CARTESIAN_POINT('',(53.5,5.,-10.));
#822=DIRECTION('',(-0.5,0.,0.866025404));
#823=VECTOR('',#822,1.5);
#824=LINE('',#821,#823);
#825=EDGE_CURVE('',#818,#820,#824,.T.);
#826=ORIENTED_EDGE('',*,*,#825,.T.);
#827=CARTESIAN_POINT('',(51.25,5.,-8.700961894));
#828=VERTEX_POINT('',#827);
#829=CARTESIAN_POINT('',(52.75,5.,-8.700961894));
#830=DIRECTION('',(-1.,0.,-0.));
#831=VECTOR('',#830,1.5);
#832=LINE('',#829,#831);
#833=EDGE_CURVE('',#820,#828,#832,.T.);
#834=ORIENTED_EDGE('',*,*,#833,.T.);
#835=CARTESIAN_POINT('',(50.5,5.,-10.));
#836=VERTEX_POINT('',#835);
#837=CARTESIAN_POINT('',(51.25,5.,-8.700961894));
#838=DIRECTION('',(-0.5,0.,-0.866025404));
#839=VECTOR('',#838,1.5);
#840=LINE('',#837,#839);
#841=EDGE_CURVE('',#828,#836,#840,.T.);
#842=ORIENTED_EDGE('',*,*,#841,.T.);
#843=CARTESIAN_POINT('',(51.25,5.,-11.299038106));
#844=VERTEX_POINT('',#843);
#845=CARTESIAN_POINT('',(50.5,5.,-10.));
#846=DIRECTION('',(0.5,0.,-0.866025404));
#847=VECTOR('',#846,1.5);
#848=LINE('',#845,#847);
#849=EDGE_CURVE('',#836,#844,#848,.T.);
#850=ORIENTED_EDGE('',*,*,#849,.T.);
#851=CARTESIAN_POINT('',(52.75,5.,-11.299038106));
#852=VERTEX_POINT('',#851);
#853=CARTESIAN_POINT('',(51.25,5.,-11.299038106));
#854=DIRECTION('',(1.,0.,0.));
#855=VECTOR('',#854,1.5);
#856=LINE('',#853,#855);
#857=EDGE_CURVE('',#844,#852,#856,.T.);
#858=ORIENTED_EDGE('',*,*,#857,.T.);
#859=CARTESIAN_POINT('',(52.75,5.,-11.299038106));
#860=DIRECTION('',(0.5,0.,0.866025404));
#861=VECTOR('',#860,1.5);
#862=LINE('',#859,#861);
#863=EDGE_CURVE('',#852,#818,#862,.T.);
#864=ORIENTED_EDGE('',*,*,#863,.T.);
#865=EDGE_LOOP('',(#826,#834,#842,#850,#858,#864));
#866=FACE_BOUND('',#865,.T.);
#867=CARTESIAN_POINT('',(-50.5,5.,10.));
#868=VERTEX_POINT('',#867);
#869=CARTESIAN_POINT('',(-51.25,5.,11.299038106));
#870=VERTEX_POINT('',#869);
#871=CARTESIAN_POINT('',(-50.5,5.,10.));
#872=DIRECTION('',(-0.5,0.,0.866025404));
#873=VECTOR('',#872,1.5);
#874=LINE('',#871,#873);
#875=EDGE_CURVE('',#868,#870,#874,.T.);
#876=ORIENTED_EDGE('',*,*,#875,.T.);
#877=CARTESIAN_POINT('',(-52.75,5.,11.299038106));
#878=VERTEX_POINT('',#877);
#879=CARTESIAN_POINT('',(-51.25,5.,11.299038106));
#880=DIRECTION('',(-1.,0.,-0.));
#881=VECTOR('',#880,1.5);
#882=LINE('',#879,#881);
#883=EDGE_CURVE('',#870,#878,#882,.T.);
#884=ORIENTED_EDGE('',*,*,#883,.T.);
#885=CARTESIAN_POINT('',(-53.5,5.,10.));
#886=VERTEX_POINT('',#885);
#887=CARTESIAN_POINT('',(-52.75,5.,11.299038106));
#888=DIRECTION('',(-0.5,0.,-0.866025404));
#889=VECTOR('',#888,1.5);
#890=LINE('',#887,#889);
#891=EDGE_CURVE('',#878,#886,#890,.T.);
#892=ORIENTED_EDGE('',*,*,#891,.T.);
#893=CARTESIAN_POINT('',(-52.75,5.,8.700961894));
#894=VERTEX_POINT('',#893);
#895=CARTESIAN_POINT('',(-53.5,5.,10.));
#896=DIRECTION('',(0.5,0.,-0.866025404));
#897=VECTOR('',#896,1.5);
#898=LINE('',#895,#897);
#899=EDGE_CURVE('',#886,#894,#898,.T.);
#900=ORIENTED_EDGE('',*,*,#899,.T.);
#901=CARTESIAN_POINT('',(-51.25,5.,8.700961894));
#902=VERTEX_POINT('',#901);
#903=CARTESIAN_POINT('',(-52.75,5.,8.700961894));
#904=DIRECTION('',(1.,0.,0.));
#905=VECTOR('',#904,1.5);
#906=LINE('',#903,#905);
#907=EDGE_CURVE('',#894,#902,#906,.T.);
#908=ORIENTED_EDGE('',*,*,#907,.T.);
#909=CARTESIAN_POINT('',(-51.25,5.,8.700961894));
#910=DIRECTION('',(0.5,0.,0.866025404));
#911=VECTOR('',#910,1.5);
#912=LINE('',#909,#911);
#913=EDGE_CURVE('',#902,#868,#912,.T.);
#914=ORIENTED_EDGE('',*,*,#913,.T.);
#915=EDGE_LOOP('',(#876,#884,#892,#900,#908,#914));
#916=FACE_BOUND('',#915,.T.);
#917=ADVANCED_FACE('',(#474,#494,#505,#516,#566,#616,#636,#656,#676,#746,#816,#866,#916),#454,.T.);
#918=CARTESIAN_POINT('',(52.,3.,-10.));
#919=DIRECTION('',(0.,1.,0.));
#920=DIRECTION('',(0.,0.,-1.));
#921=AXIS2_PLACEMENT_3D('',#918,#919,#920);
#922=CYLINDRICAL_SURFACE('',#921,6.);
#923=ORIENTED_EDGE('',*,*,#756,.F.);
#924=CARTESIAN_POINT('',(58.,3.,-10.));
#925=DIRECTION('',(0.,1.,0.));
#926=VECTOR('',#925,2.);
#927=LINE('',#924,#926);
#928=EDGE_CURVE('',#330,#748,#927,.T.);
#929=ORIENTED_EDGE('',*,*,#928,.F.);
#930=ORIENTED_EDGE('',*,*,#338,.T.);
#931=CARTESIAN_POINT('',(52.,3.,-16.));
#932=DIRECTION('',(0.,1.,0.));
#933=VECTOR('',#932,2.);
#934=LINE('',#931,#933);
#935=EDGE_CURVE('',#332,#750,#934,.T.);
#936=ORIENTED_EDGE('',*,*,#935,.T.);
#937=EDGE_LOOP('',(#923,#929,#930,#936));
#938=FACE_BOUND('',#937,.T.);
#939=ADVANCED_FACE('',(#938),#922,.T.);
#940=CARTESIAN_POINT('',(0.,3.,-16.));
#941=DIRECTION('',(-0.,0.,-1.));
#942=DIRECTION('',(-1.,0.,0.));
#943=AXIS2_PLACEMENT_3D('',#940,#941,#942);
#944=PLANE('',#943);
#945=ORIENTED_EDGE('',*,*,#764,.F.);
#946=ORIENTED_EDGE('',*,*,#935,.F.);
#947=ORIENTED_EDGE('',*,*,#395,.T.);
#948=CARTESIAN_POINT('',(-52.,3.,-16.));
#949=DIRECTION('',(0.,1.,0.));
#950=VECTOR('',#949,2.);
#951=LINE('',#948,#950);
#952=EDGE_CURVE('',#383,#759,#951,.T.);
#953=ORIENTED_EDGE('',*,*,#952,.T.);
#954=EDGE_LOOP('',(#945,#946,#947,#953));
#955=FACE_BOUND('',#954,.T.);
#956=ADVANCED_FACE('',(#955),#944,.T.);
#957=CARTESIAN_POINT('',(-52.,3.,-10.));
#958=DIRECTION('',(0.,1.,0.));
#959=DIRECTION('',(0.,0.,-1.));
#960=AXIS2_PLACEMENT_3D('',#957,#958,#959);
#961=CYLINDRICAL_SURFACE('',#960,6.);
#962=ORIENTED_EDGE('',*,*,#773,.F.);
#963=ORIENTED_EDGE('',*,*,#952,.F.);
#964=ORIENTED_EDGE('',*,*,#389,.T.);
#965=CARTESIAN_POINT('',(-58.,3.,-10.));
#966=DIRECTION('',(0.,1.,0.));
#967=VECTOR('',#966,2.);
#968=LINE('',#965,#967);
#969=EDGE_CURVE('',#375,#767,#968,.T.);
#970=ORIENTED_EDGE('',*,*,#969,.T.);
#971=EDGE_LOOP('',(#962,#963,#964,#970));
#972=FACE_BOUND('',#971,.T.);
#973=ADVANCED_FACE('',(#972),#961,.T.);
#974=CARTESIAN_POINT('',(-58.,3.,-0.));
#975=DIRECTION('',(-1.,0.,-0.));
#976=DIRECTION('',(-0.,0.,1.));
#977=AXIS2_PLACEMENT_3D('',#974,#975,#976);
#978=PLANE('',#977);
#979=ORIENTED_EDGE('',*,*,#781,.F.);
#980=ORIENTED_EDGE('',*,*,#969,.F.);
#981=ORIENTED_EDGE('',*,*,#380,.T.);
#982=CARTESIAN_POINT('',(-58.,3.,10.));
#983=DIRECTION('',(0.,1.,0.));
#984=VECTOR('',#983,2.);
#985=LINE('',#982,#984);
#986=EDGE_CURVE('',#366,#776,#985,.T.);
#987=ORIENTED_EDGE('',*,*,#986,.T.);
#988=EDGE_LOOP('',(#979,#980,#981,#987));
#989=FACE_BOUND('',#988,.T.);
#990=ADVANCED_FACE('',(#989),#978,.T.);
#991=CARTESIAN_POINT('',(-52.,3.,10.));
#992=DIRECTION('',(0.,1.,0.));
#993=DIRECTION('',(0.,0.,-1.));
#994=AXIS2_PLACEMENT_3D('',#991,#992,#993);
#995=CYLINDRICAL_SURFACE('',#994,6.);
#996=ORIENTED_EDGE('',*,*,#790,.F.);
#997=ORIENTED_EDGE('',*,*,#986,.F.);
#998=ORIENTED_EDGE('',*,*,#372,.T.);
#999=CARTESIAN_POINT('',(-52.,3.,16.));
#1000=DIRECTION('',(0.,1.,0.));
#1001=VECTOR('',#1000,2.);
#1002=LINE('',#999,#1001);
#1003=EDGE_CURVE('',#358,#784,#1002,.T.);
#1004=ORIENTED_EDGE('',*,*,#1003,.T.);
#1005=EDGE_LOOP('',(#996,#997,#998,#1004));
#1006=FACE_BOUND('',#1005,.T.);
#1007=ADVANCED_FACE('',(#1006),#995,.T.);
#1008=CARTESIAN_POINT('',(-0.,3.,16.));
#1009=DIRECTION('',(-0.,0.,1.));
#1010=DIRECTION('',(1.,0.,0.));
#1011=AXIS2_PLACEMENT_3D('',#1008,#1009,#1010);
#1012=PLANE('',#1011);
#1013=ORIENTED_EDGE('',*,*,#798,.F.);
#1014=ORIENTED_EDGE('',*,*,#1003,.F.);
#1015=ORIENTED_EDGE('',*,*,#363,.T.);
#1016=CARTESIAN_POINT('',(52.,3.,16.));
#1017=DIRECTION('',(0.,1.,0.));
#1018=VECTOR('',#1017,2.);
#1019=LINE('',#1016,#1018);
#1020=EDGE_CURVE('',#349,#793,#1019,.T.);
#1021=ORIENTED_EDGE('',*,*,#1020,.T.);
#1022=EDGE_LOOP('',(#1013,#1014,#1015,#1021));
#1023=FACE_BOUND('',#1022,.T.);
#1024=ADVANCED_FACE('',(#1023),#1012,.T.);
#1025=CARTESIAN_POINT('',(52.,3.,10.));
#1026=DIRECTION('',(0.,1.,0.));
#1027=DIRECTION('',(0.,0.,-1.));
#1028=AXIS2_PLACEMENT_3D('',#1025,#1026,#1027);
#1029=CYLINDRICAL_SURFACE('',#1028,6.);
#1030=ORIENTED_EDGE('',*,*,#807,.F.);
#1031=ORIENTED_EDGE('',*,*,#1020,.F.);
#1032=ORIENTED_EDGE('',*,*,#355,.T.);
#1033=CARTESIAN_POINT('',(58.,3.,10.));
#1034=DIRECTION('',(0.,1.,0.));
#1035=VECTOR('',#1034,2.);
#1036=LINE('',#1033,#1035);
#1037=EDGE_CURVE('',#341,#801,#1036,.T.);
#1038=ORIENTED_EDGE('',*,*,#1037,.T.);
#1039=EDGE_LOOP('',(#1030,#1031,#1032,#1038));
#1040=FACE_BOUND('',#1039,.T.);
#1041=ADVANCED_FACE('',(#1040),#1029,.T.);
#1042=CARTESIAN_POINT('',(58.,3.,0.));
#1043=DIRECTION('',(1.,0.,0.));
#1044=DIRECTION('',(0.,0.,-1.));
#1045=AXIS2_PLACEMENT_3D('',#1042,#1043,#1044);
#1046=PLANE('',#1045);
#1047=ORIENTED_EDGE('',*,*,#813,.F.);
#1048=ORIENTED_EDGE('',*,*,#1037,.F.);
#1049=ORIENTED_EDGE('',*,*,#346,.T.);
#1050=ORIENTED_EDGE('',*,*,#928,.T.);
#1051=EDGE_LOOP('',(#1047,#1048,#1049,#1050));
#1052=FACE_BOUND('',#1051,.T.);
#1053=ADVANCED_FACE('',(#1052),#1046,.T.);
#1054=CARTESIAN_POINT('',(-0.,6.,4.));
#1055=DIRECTION('',(-0.,0.,1.));
#1056=DIRECTION('',(1.,0.,0.));
#1057=AXIS2_PLACEMENT_3D('',#1054,#1055,#1056);
#1058=PLANE('',#1057);
#1059=ORIENTED_EDGE('',*,*,#685,.T.);
#1060=CARTESIAN_POINT('',(10.,5.,4.));
#1061=DIRECTION('',(0.,-1.,0.));
#1062=VECTOR('',#1061,2.);
#1063=LINE('',#1060,#1062);
#1064=EDGE_CURVE('',#680,#279,#1063,.T.);
#1065=ORIENTED_EDGE('',*,*,#1064,.T.);
#1066=ORIENTED_EDGE('',*,*,#284,.T.);
#1067=CARTESIAN_POINT('',(-10.,3.,4.));
#1068=DIRECTION('',(-0.,1.,-0.));
#1069=VECTOR('',#1068,2.);
#1070=LINE('',#1067,#1069);
#1071=EDGE_CURVE('',#270,#678,#1070,.T.);
#1072=ORIENTED_EDGE('',*,*,#1071,.T.);
#1073=EDGE_LOOP('',(#1059,#1065,#1066,#1072));
#1074=FACE_BOUND('',#1073,.T.);
#1075=ADVANCED_FACE('',(#1074),#1058,.F.);
#1076=CARTESIAN_POINT('',(-12.5,6.,-0.));
#1077=DIRECTION('',(-1.,0.,-0.));
#1078=DIRECTION('',(-0.,0.,1.));
#1079=AXIS2_PLACEMENT_3D('',#1076,#1077,#1078);
#1080=PLANE('',#1079);
#1081=ORIENTED_EDGE('',*,*,#267,.T.);
#1082=CARTESIAN_POINT('',(-12.5,3.,-1.5));
#1083=DIRECTION('',(-0.,1.,-0.));
#1084=VECTOR('',#1083,2.);
#1085=LINE('',#1082,#1084);
#1086=EDGE_CURVE('',#262,#697,#1085,.T.);
#1087=ORIENTED_EDGE('',*,*,#1086,.T.);
#1088=ORIENTED_EDGE('',*,*,#702,.T.);
#1089=CARTESIAN_POINT('',(-12.5,5.,1.5));
#1090=DIRECTION('',(0.,-1.,0.));
#1091=VECTOR('',#1090,2.);
#1092=LINE('',#1089,#1091);
#1093=EDGE_CURVE('',#688,#260,#1092,.T.);
#1094=ORIENTED_EDGE('',*,*,#1093,.T.);
#1095=EDGE_LOOP('',(#1081,#1087,#1088,#1094));
#1096=FACE_BOUND('',#1095,.T.);
#1097=ADVANCED_FACE('',(#1096),#1080,.F.);
#1098=CARTESIAN_POINT('',(-0.,6.,-4.));
#1099=DIRECTION('',(0.,0.,-1.));
#1100=DIRECTION('',(-1.,0.,-0.));
#1101=AXIS2_PLACEMENT_3D('',#1098,#1099,#1100);
#1102=PLANE('',#1101);
#1103=ORIENTED_EDGE('',*,*,#719,.T.);
#1104=CARTESIAN_POINT('',(-10.,5.,-4.));
#1105=DIRECTION('',(0.,-1.,0.));
#1106=VECTOR('',#1105,2.);
#1107=LINE('',#1104,#1106);
#1108=EDGE_CURVE('',#705,#313,#1107,.T.);
#1109=ORIENTED_EDGE('',*,*,#1108,.T.);
#1110=ORIENTED_EDGE('',*,*,#318,.T.);
#1111=CARTESIAN_POINT('',(10.,3.,-4.));
#1112=DIRECTION('',(-0.,1.,-0.));
#1113=VECTOR('',#1112,2.);
#1114=LINE('',#1111,#1113);
#1115=EDGE_CURVE('',#304,#714,#1114,.T.);
#1116=ORIENTED_EDGE('',*,*,#1115,.T.);
#1117=EDGE_LOOP('',(#1103,#1109,#1110,#1116));
#1118=FACE_BOUND('',#1117,.T.);
#1119=ADVANCED_FACE('',(#1118),#1102,.F.);
#1120=CARTESIAN_POINT('',(12.5,6.,-0.));
#1121=DIRECTION('',(1.,0.,0.));
#1122=DIRECTION('',(0.,0.,-1.));
#1123=AXIS2_PLACEMENT_3D('',#1120,#1121,#1122);
#1124=PLANE('',#1123);
#1125=ORIENTED_EDGE('',*,*,#736,.T.);
#1126=CARTESIAN_POINT('',(12.5,5.,-1.5));
#1127=DIRECTION('',(0.,-1.,0.));
#1128=VECTOR('',#1127,2.);
#1129=LINE('',#1126,#1128);
#1130=EDGE_CURVE('',#722,#296,#1129,.T.);
#1131=ORIENTED_EDGE('',*,*,#1130,.T.);
#1132=ORIENTED_EDGE('',*,*,#301,.T.);
#1133=CARTESIAN_POINT('',(12.5,3.,1.5));
#1134=DIRECTION('',(-0.,1.,-0.));
#1135=VECTOR('',#1134,2.);
#1136=LINE('',#1133,#1135);
#1137=EDGE_CURVE('',#287,#731,#1136,.T.);
#1138=ORIENTED_EDGE('',*,*,#1137,.T.);
#1139=EDGE_LOOP('',(#1125,#1131,#1132,#1138));
#1140=FACE_BOUND('',#1139,.T.);
#1141=ADVANCED_FACE('',(#1140),#1124,.F.);
#1142=CARTESIAN_POINT('',(32.,6.,0.));
#1143=DIRECTION('',(0.,-1.,0.));
#1144=DIRECTION('',(-0.,0.,1.));
#1145=AXIS2_PLACEMENT_3D('',#1142,#1143,#1144);
#1146=CYLINDRICAL_SURFACE('',#1145,4.25);
#1147=CARTESIAN_POINT('',(32.,3.,4.25));
#1148=DIRECTION('',(-0.,1.,-0.));
#1149=VECTOR('',#1148,2.);
#1150=LINE('',#1147,#1149);
#1151=EDGE_CURVE('',#249,#658,#1150,.T.);
#1152=ORIENTED_EDGE('',*,*,#1151,.F.);
#1153=ORIENTED_EDGE('',*,*,#255,.T.);
#1154=ORIENTED_EDGE('',*,*,#1151,.T.);
#1155=ORIENTED_EDGE('',*,*,#666,.T.);
#1156=ORIENTED_EDGE('',*,*,#673,.T.);
#1157=EDGE_LOOP('',(#1152,#1153,#1154,#1155,#1156));
#1158=FACE_BOUND('',#1157,.T.);
#1159=ADVANCED_FACE('',(#1158),#1146,.F.);
#1160=CARTESIAN_POINT('',(-40.,6.,-0.));
#1161=DIRECTION('',(0.,-1.,0.));
#1162=DIRECTION('',(-0.,0.,1.));
#1163=AXIS2_PLACEMENT_3D('',#1160,#1161,#1162);
#1164=CYLINDRICAL_SURFACE('',#1163,1.625);
#1165=CARTESIAN_POINT('',(-40.,3.,1.625));
#1166=DIRECTION('',(-0.,1.,-0.));
#1167=VECTOR('',#1166,2.);
#1168=LINE('',#1165,#1167);
#1169=EDGE_CURVE('',#238,#638,#1168,.T.);
#1170=ORIENTED_EDGE('',*,*,#1169,.F.);
#1171=ORIENTED_EDGE('',*,*,#244,.T.);
#1172=ORIENTED_EDGE('',*,*,#1169,.T.);
#1173=ORIENTED_EDGE('',*,*,#646,.T.);
#1174=ORIENTED_EDGE('',*,*,#653,.T.);
#1175=EDGE_LOOP('',(#1170,#1171,#1172,#1173,#1174));
#1176=FACE_BOUND('',#1175,.T.);
#1177=ADVANCED_FACE('',(#1176),#1164,.F.);
#1178=CARTESIAN_POINT('',(-24.,6.,-0.));
#1179=DIRECTION('',(0.,-1.,0.));
#1180=DIRECTION('',(-0.,0.,1.));
#1181=AXIS2_PLACEMENT_3D('',#1178,#1179,#1180);
#1182=CYLINDRICAL_SURFACE('',#1181,1.625);
#1183=CARTESIAN_POINT('',(-24.,3.,1.625));
#1184=DIRECTION('',(-0.,1.,-0.));
#1185=VECTOR('',#1184,2.);
#1186=LINE('',#1183,#1185);
#1187=EDGE_CURVE('',#227,#618,#1186,.T.);
#1188=ORIENTED_EDGE('',*,*,#1187,.F.);
#1189=ORIENTED_EDGE('',*,*,#233,.T.);
#1190=ORIENTED_EDGE('',*,*,#1187,.T.);
#1191=ORIENTED_EDGE('',*,*,#626,.T.);
#1192=ORIENTED_EDGE('',*,*,#633,.T.);
#1193=EDGE_LOOP('',(#1188,#1189,#1190,#1191,#1192));
#1194=FACE_BOUND('',#1193,.T.);
#1195=ADVANCED_FACE('',(#1194),#1182,.F.);
#1196=CARTESIAN_POINT('',(-10.,6.,-1.5));
#1197=DIRECTION('',(0.,1.,0.));
#1198=DIRECTION('',(0.,0.,-1.));
#1199=AXIS2_PLACEMENT_3D('',#1196,#1197,#1198);
#1200=CYLINDRICAL_SURFACE('',#1199,2.5);
#1201=ORIENTED_EDGE('',*,*,#711,.F.);
#1202=ORIENTED_EDGE('',*,*,#1086,.F.);
#1203=ORIENTED_EDGE('',*,*,#325,.F.);
#1204=ORIENTED_EDGE('',*,*,#1108,.F.);
#1205=EDGE_LOOP('',(#1201,#1202,#1203,#1204));
#1206=FACE_BOUND('',#1205,.T.);
#1207=ADVANCED_FACE('',(#1206),#1200,.F.);
#1208=CARTESIAN_POINT('',(10.,6.,-1.5));
#1209=DIRECTION('',(0.,1.,0.));
#1210=DIRECTION('',(0.,0.,-1.));
#1211=AXIS2_PLACEMENT_3D('',#1208,#1209,#1210);
#1212=CYLINDRICAL_SURFACE('',#1211,2.5);
#1213=ORIENTED_EDGE('',*,*,#728,.F.);
#1214=ORIENTED_EDGE('',*,*,#1115,.F.);
#1215=ORIENTED_EDGE('',*,*,#310,.F.);
#1216=ORIENTED_EDGE('',*,*,#1130,.F.);
#1217=EDGE_LOOP('',(#1213,#1214,#1215,#1216));
#1218=FACE_BOUND('',#1217,.T.);
#1219=ADVANCED_FACE('',(#1218),#1212,.F.);
#1220=CARTESIAN_POINT('',(10.,6.,1.5));
#1221=DIRECTION('',(0.,1.,0.));
#1222=DIRECTION('',(0.,0.,-1.));
#1223=AXIS2_PLACEMENT_3D('',#1220,#1221,#1222);
#1224=CYLINDRICAL_SURFACE('',#1223,2.5);
#1225=ORIENTED_EDGE('',*,*,#743,.F.);
#1226=ORIENTED_EDGE('',*,*,#1137,.F.);
#1227=ORIENTED_EDGE('',*,*,#293,.F.);
#1228=ORIENTED_EDGE('',*,*,#1064,.F.);
#1229=EDGE_LOOP('',(#1225,#1226,#1227,#1228));
#1230=FACE_BOUND('',#1229,.T.);
#1231=ADVANCED_FACE('',(#1230),#1224,.F.);
#1232=CARTESIAN_POINT('',(-10.,6.,1.5));
#1233=DIRECTION('',(0.,1.,0.));
#1234=DIRECTION('',(0.,0.,-1.));
#1235=AXIS2_PLACEMENT_3D('',#1232,#1233,#1234);
#1236=CYLINDRICAL_SURFACE('',#1235,2.5);
#1237=ORIENTED_EDGE('',*,*,#694,.F.);
#1238=ORIENTED_EDGE('',*,*,#1071,.F.);
#1239=ORIENTED_EDGE('',*,*,#276,.F.);
#1240=ORIENTED_EDGE('',*,*,#1093,.F.);
#1241=EDGE_LOOP('',(#1237,#1238,#1239,#1240));
#1242=FACE_BOUND('',#1241,.T.);
#1243=ADVANCED_FACE('',(#1242),#1236,.F.);
#1244=CARTESIAN_POINT('',(-50.875,113.,-9.350480947));
#1245=DIRECTION('',(0.866025404,0.,0.5));
#1246=DIRECTION('',(0.5,0.,-0.866025404));
#1247=AXIS2_PLACEMENT_3D('',#1244,#1245,#1246);
#1248=PLANE('',#1247);
#1249=ORIENTED_EDGE('',*,*,#575,.T.);
#1250=CARTESIAN_POINT('',(-50.5,5.,-10.));
#1251=DIRECTION('',(0.,-1.,0.));
#1252=VECTOR('',#1251,2.);
#1253=LINE('',#1250,#1252);
#1254=EDGE_CURVE('',#570,#187,#1253,.T.);
#1255=ORIENTED_EDGE('',*,*,#1254,.T.);
#1256=ORIENTED_EDGE('',*,*,#192,.T.);
#1257=CARTESIAN_POINT('',(-51.25,5.,-8.700961894));
#1258=DIRECTION('',(0.,-1.,0.));
#1259=VECTOR('',#1258,2.);
#1260=LINE('',#1257,#1259);
#1261=EDGE_CURVE('',#568,#177,#1260,.T.);
#1262=ORIENTED_EDGE('',*,*,#1261,.F.);
#1263=EDGE_LOOP('',(#1249,#1255,#1256,#1262));
#1264=FACE_BOUND('',#1263,.T.);
#1265=ADVANCED_FACE('',(#1264),#1248,.F.);
#1266=CARTESIAN_POINT('',(-52.,113.,-8.700961894));
#1267=DIRECTION('',(0.,0.,1.));
#1268=DIRECTION('',(1.,0.,-0.));
#1269=AXIS2_PLACEMENT_3D('',#1266,#1267,#1268);
#1270=PLANE('',#1269);
#1271=ORIENTED_EDGE('',*,*,#583,.T.);
#1272=ORIENTED_EDGE('',*,*,#1261,.T.);
#1273=ORIENTED_EDGE('',*,*,#184,.T.);
#1274=CARTESIAN_POINT('',(-52.75,5.,-8.700961894));
#1275=DIRECTION('',(0.,-1.,0.));
#1276=VECTOR('',#1275,2.);
#1277=LINE('',#1274,#1276);
#1278=EDGE_CURVE('',#578,#179,#1277,.T.);
#1279=ORIENTED_EDGE('',*,*,#1278,.F.);
#1280=EDGE_LOOP('',(#1271,#1272,#1273,#1279));
#1281=FACE_BOUND('',#1280,.T.);
#1282=ADVANCED_FACE('',(#1281),#1270,.F.);
#1283=CARTESIAN_POINT('',(-53.125,113.,-9.350480947));
#1284=DIRECTION('',(-0.866025404,0.,0.5));
#1285=DIRECTION('',(0.5,0.,0.866025404));
#1286=AXIS2_PLACEMENT_3D('',#1283,#1284,#1285);
#1287=PLANE('',#1286);
#1288=ORIENTED_EDGE('',*,*,#591,.T.);
#1289=ORIENTED_EDGE('',*,*,#1278,.T.);
#1290=ORIENTED_EDGE('',*,*,#222,.T.);
#1291=CARTESIAN_POINT('',(-53.5,5.,-10.));
#1292=DIRECTION('',(0.,-1.,0.));
#1293=VECTOR('',#1292,2.);
#1294=LINE('',#1291,#1293);
#1295=EDGE_CURVE('',#586,#211,#1294,.T.);
#1296=ORIENTED_EDGE('',*,*,#1295,.F.);
#1297=EDGE_LOOP('',(#1288,#1289,#1290,#1296));
#1298=FACE_BOUND('',#1297,.T.);
#1299=ADVANCED_FACE('',(#1298),#1287,.F.);
#1300=CARTESIAN_POINT('',(-53.125,113.,-10.649519053));
#1301=DIRECTION('',(-0.866025404,0.,-0.5));
#1302=DIRECTION('',(-0.5,0.,0.866025404));
#1303=AXIS2_PLACEMENT_3D('',#1300,#1301,#1302);
#1304=PLANE('',#1303);
#1305=ORIENTED_EDGE('',*,*,#599,.T.);
#1306=ORIENTED_EDGE('',*,*,#1295,.T.);
#1307=ORIENTED_EDGE('',*,*,#216,.T.);
#1308=CARTESIAN_POINT('',(-52.75,5.,-11.299038106));
#1309=DIRECTION('',(0.,-1.,0.));
#1310=VECTOR('',#1309,2.);
#1311=LINE('',#1308,#1310);
#1312=EDGE_CURVE('',#594,#203,#1311,.T.);
#1313=ORIENTED_EDGE('',*,*,#1312,.F.);
#1314=EDGE_LOOP('',(#1305,#1306,#1307,#1313));
#1315=FACE_BOUND('',#1314,.T.);
#1316=ADVANCED_FACE('',(#1315),#1304,.F.);
#1317=CARTESIAN_POINT('',(-52.,113.,-11.299038106));
#1318=DIRECTION('',(-0.,0.,-1.));
#1319=DIRECTION('',(-1.,0.,0.));
#1320=AXIS2_PLACEMENT_3D('',#1317,#1318,#1319);
#1321=PLANE('',#1320);
#1322=ORIENTED_EDGE('',*,*,#607,.T.);
#1323=ORIENTED_EDGE('',*,*,#1312,.T.);
#1324=ORIENTED_EDGE('',*,*,#208,.T.);
#1325=CARTESIAN_POINT('',(-51.25,5.,-11.299038106));
#1326=DIRECTION('',(0.,-1.,0.));
#1327=VECTOR('',#1326,2.);
#1328=LINE('',#1325,#1327);
#1329=EDGE_CURVE('',#602,#195,#1328,.T.);
#1330=ORIENTED_EDGE('',*,*,#1329,.F.);
#1331=EDGE_LOOP('',(#1322,#1323,#1324,#1330));
#1332=FACE_BOUND('',#1331,.T.);
#1333=ADVANCED_FACE('',(#1332),#1321,.F.);
#1334=CARTESIAN_POINT('',(-50.875,113.,-10.649519053));
#1335=DIRECTION('',(0.866025404,0.,-0.5));
#1336=DIRECTION('',(-0.5,0.,-0.866025404));
#1337=AXIS2_PLACEMENT_3D('',#1334,#1335,#1336);
#1338=PLANE('',#1337);
#1339=ORIENTED_EDGE('',*,*,#613,.T.);
#1340=ORIENTED_EDGE('',*,*,#1329,.T.);
#1341=ORIENTED_EDGE('',*,*,#200,.T.);
#1342=ORIENTED_EDGE('',*,*,#1254,.F.);
#1343=EDGE_LOOP('',(#1339,#1340,#1341,#1342));
#1344=FACE_BOUND('',#1343,.T.);
#1345=ADVANCED_FACE('',(#1344),#1338,.F.);
#1346=CARTESIAN_POINT('',(52.,113.,-8.700961894));
#1347=DIRECTION('',(0.,0.,-1.));
#1348=DIRECTION('',(-1.,0.,-0.));
#1349=AXIS2_PLACEMENT_3D('',#1346,#1347,#1348);
#1350=PLANE('',#1349);
#1351=CARTESIAN_POINT('',(52.75,5.,-8.700961894));
#1352=DIRECTION('',(0.,-1.,0.));
#1353=VECTOR('',#1352,2.);
#1354=LINE('',#1351,#1353);
#1355=EDGE_CURVE('',#820,#129,#1354,.T.);
#1356=ORIENTED_EDGE('',*,*,#1355,.T.);
#1357=ORIENTED_EDGE('',*,*,#134,.F.);
#1358=CARTESIAN_POINT('',(51.25,5.,-8.700961894));
#1359=DIRECTION('',(0.,-1.,0.));
#1360=VECTOR('',#1359,2.);
#1361=LINE('',#1358,#1360);
#1362=EDGE_CURVE('',#828,#127,#1361,.T.);
#1363=ORIENTED_EDGE('',*,*,#1362,.F.);
#1364=ORIENTED_EDGE('',*,*,#833,.F.);
#1365=EDGE_LOOP('',(#1356,#1357,#1363,#1364));
#1366=FACE_BOUND('',#1365,.T.);
#1367=ADVANCED_FACE('',(#1366),#1350,.T.);
#1368=CARTESIAN_POINT('',(50.875,113.,-9.350480947));
#1369=DIRECTION('',(0.866025404,0.,-0.5));
#1370=DIRECTION('',(-0.5,0.,-0.866025404));
#1371=AXIS2_PLACEMENT_3D('',#1368,#1369,#1370);
#1372=PLANE('',#1371);
#1373=ORIENTED_EDGE('',*,*,#1362,.T.);
#1374=ORIENTED_EDGE('',*,*,#172,.F.);
#1375=CARTESIAN_POINT('',(50.5,5.,-10.));
#1376=DIRECTION('',(0.,-1.,0.));
#1377=VECTOR('',#1376,2.);
#1378=LINE('',#1375,#1377);
#1379=EDGE_CURVE('',#836,#161,#1378,.T.);
#1380=ORIENTED_EDGE('',*,*,#1379,.F.);
#1381=ORIENTED_EDGE('',*,*,#841,.F.);
#1382=EDGE_LOOP('',(#1373,#1374,#1380,#1381));
#1383=FACE_BOUND('',#1382,.T.);
#1384=ADVANCED_FACE('',(#1383),#1372,.T.);
#1385=CARTESIAN_POINT('',(50.875,113.,-10.649519053));
#1386=DIRECTION('',(0.866025404,0.,0.5));
#1387=DIRECTION('',(0.5,0.,-0.866025404));
#1388=AXIS2_PLACEMENT_3D('',#1385,#1386,#1387);
#1389=PLANE('',#1388);
#1390=ORIENTED_EDGE('',*,*,#1379,.T.);
#1391=ORIENTED_EDGE('',*,*,#166,.F.);
#1392=CARTESIAN_POINT('',(51.25,5.,-11.299038106));
#1393=DIRECTION('',(0.,-1.,0.));
#1394=VECTOR('',#1393,2.);
#1395=LINE('',#1392,#1394);
#1396=EDGE_CURVE('',#844,#153,#1395,.T.);
#1397=ORIENTED_EDGE('',*,*,#1396,.F.);
#1398=ORIENTED_EDGE('',*,*,#849,.F.);
#1399=EDGE_LOOP('',(#1390,#1391,#1397,#1398));
#1400=FACE_BOUND('',#1399,.T.);
#1401=ADVANCED_FACE('',(#1400),#1389,.T.);
#1402=CARTESIAN_POINT('',(52.,113.,-11.299038106));
#1403=DIRECTION('',(-0.,0.,1.));
#1404=DIRECTION('',(1.,0.,0.));
#1405=AXIS2_PLACEMENT_3D('',#1402,#1403,#1404);
#1406=PLANE('',#1405);
#1407=ORIENTED_EDGE('',*,*,#1396,.T.);
#1408=ORIENTED_EDGE('',*,*,#158,.F.);
#1409=CARTESIAN_POINT('',(52.75,5.,-11.299038106));
#1410=DIRECTION('',(0.,-1.,0.));
#1411=VECTOR('',#1410,2.);
#1412=LINE('',#1409,#1411);
#1413=EDGE_CURVE('',#852,#145,#1412,.T.);
#1414=ORIENTED_EDGE('',*,*,#1413,.F.);
#1415=ORIENTED_EDGE('',*,*,#857,.F.);
#1416=EDGE_LOOP('',(#1407,#1408,#1414,#1415));
#1417=FACE_BOUND('',#1416,.T.);
#1418=ADVANCED_FACE('',(#1417),#1406,.T.);
#1419=CARTESIAN_POINT('',(53.125,113.,-10.649519053));
#1420=DIRECTION('',(-0.866025404,0.,0.5));
#1421=DIRECTION('',(0.5,0.,0.866025404));
#1422=AXIS2_PLACEMENT_3D('',#1419,#1420,#1421);
#1423=PLANE('',#1422);
#1424=ORIENTED_EDGE('',*,*,#1413,.T.);
#1425=ORIENTED_EDGE('',*,*,#150,.F.);
#1426=CARTESIAN_POINT('',(53.5,5.,-10.));
#1427=DIRECTION('',(0.,-1.,0.));
#1428=VECTOR('',#1427,2.);
#1429=LINE('',#1426,#1428);
#1430=EDGE_CURVE('',#818,#137,#1429,.T.);
#1431=ORIENTED_EDGE('',*,*,#1430,.F.);
#1432=ORIENTED_EDGE('',*,*,#863,.F.);
#1433=EDGE_LOOP('',(#1424,#1425,#1431,#1432));
#1434=FACE_BOUND('',#1433,.T.);
#1435=ADVANCED_FACE('',(#1434),#1423,.T.);
#1436=CARTESIAN_POINT('',(53.125,113.,-9.350480947));
#1437=DIRECTION('',(-0.866025404,0.,-0.5));
#1438=DIRECTION('',(-0.5,0.,0.866025404));
#1439=AXIS2_PLACEMENT_3D('',#1436,#1437,#1438);
#1440=PLANE('',#1439);
#1441=ORIENTED_EDGE('',*,*,#1430,.T.);
#1442=ORIENTED_EDGE('',*,*,#142,.F.);
#1443=ORIENTED_EDGE('',*,*,#1355,.F.);
#1444=ORIENTED_EDGE('',*,*,#825,.F.);
#1445=EDGE_LOOP('',(#1441,#1442,#1443,#1444));
#1446=FACE_BOUND('',#1445,.T.);
#1447=ADVANCED_FACE('',(#1446),#1440,.T.);
#1448=CARTESIAN_POINT('',(-52.,113.,11.299038106));
#1449=DIRECTION('',(0.,0.,-1.));
#1450=DIRECTION('',(-1.,0.,-0.));
#1451=AXIS2_PLACEMENT_3D('',#1448,#1449,#1450);
#1452=PLANE('',#1451);
#1453=CARTESIAN_POINT('',(-51.25,5.,11.299038106));
#1454=DIRECTION('',(0.,-1.,0.));
#1455=VECTOR('',#1454,2.);
#1456=LINE('',#1453,#1455);
#1457=EDGE_CURVE('',#870,#402,#1456,.T.);
#1458=ORIENTED_EDGE('',*,*,#1457,.T.);
#1459=ORIENTED_EDGE('',*,*,#407,.F.);
#1460=CARTESIAN_POINT('',(-52.75,5.,11.299038106));
#1461=DIRECTION('',(0.,-1.,0.));
#1462=VECTOR('',#1461,2.);
#1463=LINE('',#1460,#1462);
#1464=EDGE_CURVE('',#878,#400,#1463,.T.);
#1465=ORIENTED_EDGE('',*,*,#1464,.F.);
#1466=ORIENTED_EDGE('',*,*,#883,.F.);
#1467=EDGE_LOOP('',(#1458,#1459,#1465,#1466));
#1468=FACE_BOUND('',#1467,.T.);
#1469=ADVANCED_FACE('',(#1468),#1452,.T.);
#1470=CARTESIAN_POINT('',(-53.125,113.,10.649519053));
#1471=DIRECTION('',(0.866025404,0.,-0.5));
#1472=DIRECTION('',(-0.5,0.,-0.866025404));
#1473=AXIS2_PLACEMENT_3D('',#1470,#1471,#1472);
#1474=PLANE('',#1473);
#1475=ORIENTED_EDGE('',*,*,#1464,.T.);
#1476=ORIENTED_EDGE('',*,*,#445,.F.);
#1477=CARTESIAN_POINT('',(-53.5,5.,10.));
#1478=DIRECTION('',(0.,-1.,0.));
#1479=VECTOR('',#1478,2.);
#1480=LINE('',#1477,#1479);
#1481=EDGE_CURVE('',#886,#434,#1480,.T.);
#1482=ORIENTED_EDGE('',*,*,#1481,.F.);
#1483=ORIENTED_EDGE('',*,*,#891,.F.);
#1484=EDGE_LOOP('',(#1475,#1476,#1482,#1483));
#1485=FACE_BOUND('',#1484,.T.);
#1486=ADVANCED_FACE('',(#1485),#1474,.T.);
#1487=CARTESIAN_POINT('',(-53.125,113.,9.350480947));
#1488=DIRECTION('',(0.866025404,0.,0.5));
#1489=DIRECTION('',(0.5,0.,-0.866025404));
#1490=AXIS2_PLACEMENT_3D('',#1487,#1488,#1489);
#1491=PLANE('',#1490);
#1492=ORIENTED_EDGE('',*,*,#1481,.T.);
#1493=ORIENTED_EDGE('',*,*,#439,.F.);
#1494=CARTESIAN_POINT('',(-52.75,5.,8.700961894));
#1495=DIRECTION('',(0.,-1.,0.));
#1496=VECTOR('',#1495,2.);
#1497=LINE('',#1494,#1496);
#1498=EDGE_CURVE('',#894,#426,#1497,.T.);
#1499=ORIENTED_EDGE('',*,*,#1498,.F.);
#1500=ORIENTED_EDGE('',*,*,#899,.F.);
#1501=EDGE_LOOP('',(#1492,#1493,#1499,#1500));
#1502=FACE_BOUND('',#1501,.T.);
#1503=ADVANCED_FACE('',(#1502),#1491,.T.);
#1504=CARTESIAN_POINT('',(-52.,113.,8.700961894));
#1505=DIRECTION('',(-0.,0.,1.));
#1506=DIRECTION('',(1.,0.,0.));
#1507=AXIS2_PLACEMENT_3D('',#1504,#1505,#1506);
#1508=PLANE('',#1507);
#1509=ORIENTED_EDGE('',*,*,#1498,.T.);
#1510=ORIENTED_EDGE('',*,*,#431,.F.);
#1511=CARTESIAN_POINT('',(-51.25,5.,8.700961894));
#1512=DIRECTION('',(0.,-1.,0.));
#1513=VECTOR('',#1512,2.);
#1514=LINE('',#1511,#1513);
#1515=EDGE_CURVE('',#902,#418,#1514,.T.);
#1516=ORIENTED_EDGE('',*,*,#1515,.F.);
#1517=ORIENTED_EDGE('',*,*,#907,.F.);
#1518=EDGE_LOOP('',(#1509,#1510,#1516,#1517));
#1519=FACE_BOUND('',#1518,.T.);
#1520=ADVANCED_FACE('',(#1519),#1508,.T.);
#1521=CARTESIAN_POINT('',(-50.875,113.,9.350480947));
#1522=DIRECTION('',(-0.866025404,0.,0.5));
#1523=DIRECTION('',(0.5,0.,0.866025404));
#1524=AXIS2_PLACEMENT_3D('',#1521,#1522,#1523);
#1525=PLANE('',#1524);
#1526=ORIENTED_EDGE('',*,*,#1515,.T.);
#1527=ORIENTED_EDGE('',*,*,#423,.F.);
#1528=CARTESIAN_POINT('',(-50.5,5.,10.));
#1529=DIRECTION('',(0.,-1.,0.));
#1530=VECTOR('',#1529,2.);
#1531=LINE('',#1528,#1530);
#1532=EDGE_CURVE('',#868,#410,#1531,.T.);
#1533=ORIENTED_EDGE('',*,*,#1532,.F.);
#1534=ORIENTED_EDGE('',*,*,#913,.F.);
#1535=EDGE_LOOP('',(#1526,#1527,#1533,#1534));
#1536=FACE_BOUND('',#1535,.T.);
#1537=ADVANCED_FACE('',(#1536),#1525,.T.);
#1538=CARTESIAN_POINT('',(-50.875,113.,10.649519053));
#1539=DIRECTION('',(-0.866025404,0.,-0.5));
#1540=DIRECTION('',(-0.5,0.,0.866025404));
#1541=AXIS2_PLACEMENT_3D('',#1538,#1539,#1540);
#1542=PLANE('',#1541);
#1543=ORIENTED_EDGE('',*,*,#1532,.T.);
#1544=ORIENTED_EDGE('',*,*,#415,.F.);
#1545=ORIENTED_EDGE('',*,*,#1457,.F.);
#1546=ORIENTED_EDGE('',*,*,#875,.F.);
#1547=EDGE_LOOP('',(#1543,#1544,#1545,#1546));
#1548=FACE_BOUND('',#1547,.T.);
#1549=ADVANCED_FACE('',(#1548),#1542,.T.);
#1550=CARTESIAN_POINT('',(53.125,113.,10.649519053));
#1551=DIRECTION('',(0.866025404,0.,0.5));
#1552=DIRECTION('',(0.5,0.,-0.866025404));
#1553=AXIS2_PLACEMENT_3D('',#1550,#1551,#1552);
#1554=PLANE('',#1553);
#1555=ORIENTED_EDGE('',*,*,#525,.T.);
#1556=CARTESIAN_POINT('',(53.5,5.,10.));
#1557=DIRECTION('',(0.,-1.,0.));
#1558=VECTOR('',#1557,2.);
#1559=LINE('',#1556,#1558);
#1560=EDGE_CURVE('',#520,#87,#1559,.T.);
#1561=ORIENTED_EDGE('',*,*,#1560,.T.);
#1562=ORIENTED_EDGE('',*,*,#92,.T.);
#1563=CARTESIAN_POINT('',(52.75,5.,11.299038106));
#1564=DIRECTION('',(0.,-1.,0.));
#1565=VECTOR('',#1564,2.);
#1566=LINE('',#1563,#1565);
#1567=EDGE_CURVE('',#518,#77,#1566,.T.);
#1568=ORIENTED_EDGE('',*,*,#1567,.F.);
#1569=EDGE_LOOP('',(#1555,#1561,#1562,#1568));
#1570=FACE_BOUND('',#1569,.T.);
#1571=ADVANCED_FACE('',(#1570),#1554,.F.);
#1572=CARTESIAN_POINT('',(52.,113.,11.299038106));
#1573=DIRECTION('',(0.,0.,1.));
#1574=DIRECTION('',(1.,0.,-0.));
#1575=AXIS2_PLACEMENT_3D('',#1572,#1573,#1574);
#1576=PLANE('',#1575);
#1577=ORIENTED_EDGE('',*,*,#533,.T.);
#1578=ORIENTED_EDGE('',*,*,#1567,.T.);
#1579=ORIENTED_EDGE('',*,*,#84,.T.);
#1580=CARTESIAN_POINT('',(51.25,5.,11.299038106));
#1581=DIRECTION('',(0.,-1.,0.));
#1582=VECTOR('',#1581,2.);
#1583=LINE('',#1580,#1582);
#1584=EDGE_CURVE('',#528,#79,#1583,.T.);
#1585=ORIENTED_EDGE('',*,*,#1584,.F.);
#1586=EDGE_LOOP('',(#1577,#1578,#1579,#1585));
#1587=FACE_BOUND('',#1586,.T.);
#1588=ADVANCED_FACE('',(#1587),#1576,.F.);
#1589=CARTESIAN_POINT('',(50.875,113.,10.649519053));
#1590=DIRECTION('',(-0.866025404,0.,0.5));
#1591=DIRECTION('',(0.5,0.,0.866025404));
#1592=AXIS2_PLACEMENT_3D('',#1589,#1590,#1591);
#1593=PLANE('',#1592);
#1594=ORIENTED_EDGE('',*,*,#541,.T.);
#1595=ORIENTED_EDGE('',*,*,#1584,.T.);
#1596=ORIENTED_EDGE('',*,*,#122,.T.);
#1597=CARTESIAN_POINT('',(50.5,5.,10.));
#1598=DIRECTION('',(0.,-1.,0.));
#1599=VECTOR('',#1598,2.);
#1600=LINE('',#1597,#1599);
#1601=EDGE_CURVE('',#536,#111,#1600,.T.);
#1602=ORIENTED_EDGE('',*,*,#1601,.F.);
#1603=EDGE_LOOP('',(#1594,#1595,#1596,#1602));
#1604=FACE_BOUND('',#1603,.T.);
#1605=ADVANCED_FACE('',(#1604),#1593,.F.);
#1606=CARTESIAN_POINT('',(50.875,113.,9.350480947));
#1607=DIRECTION('',(-0.866025404,0.,-0.5));
#1608=DIRECTION('',(-0.5,0.,0.866025404));
#1609=AXIS2_PLACEMENT_3D('',#1606,#1607,#1608);
#1610=PLANE('',#1609);
#1611=ORIENTED_EDGE('',*,*,#549,.T.);
#1612=ORIENTED_EDGE('',*,*,#1601,.T.);
#1613=ORIENTED_EDGE('',*,*,#116,.T.);
#1614=CARTESIAN_POINT('',(51.25,5.,8.700961894));
#1615=DIRECTION('',(0.,-1.,0.));
#1616=VECTOR('',#1615,2.);
#1617=LINE('',#1614,#1616);
#1618=EDGE_CURVE('',#544,#103,#1617,.T.);
#1619=ORIENTED_EDGE('',*,*,#1618,.F.);
#1620=EDGE_LOOP('',(#1611,#1612,#1613,#1619));
#1621=FACE_BOUND('',#1620,.T.);
#1622=ADVANCED_FACE('',(#1621),#1610,.F.);
#1623=CARTESIAN_POINT('',(52.,113.,8.700961894));
#1624=DIRECTION('',(-0.,0.,-1.));
#1625=DIRECTION('',(-1.,0.,0.));
#1626=AXIS2_PLACEMENT_3D('',#1623,#1624,#1625);
#1627=PLANE('',#1626);
#1628=ORIENTED_EDGE('',*,*,#557,.T.);
#1629=ORIENTED_EDGE('',*,*,#1618,.T.);
#1630=ORIENTED_EDGE('',*,*,#108,.T.);
#1631=CARTESIAN_POINT('',(52.75,5.,8.700961894));
#1632=DIRECTION('',(0.,-1.,0.));
#1633=VECTOR('',#1632,2.);
#1634=LINE('',#1631,#1633);
#1635=EDGE_CURVE('',#552,#95,#1634,.T.);
#1636=ORIENTED_EDGE('',*,*,#1635,.F.);
#1637=EDGE_LOOP('',(#1628,#1629,#1630,#1636));
#1638=FACE_BOUND('',#1637,.T.);
#1639=ADVANCED_FACE('',(#1638),#1627,.F.);
#1640=CARTESIAN_POINT('',(53.125,113.,9.350480947));
#1641=DIRECTION('',(0.866025404,0.,-0.5));
#1642=DIRECTION('',(-0.5,0.,-0.866025404));
#1643=AXIS2_PLACEMENT_3D('',#1640,#1641,#1642);
#1644=PLANE('',#1643);
#1645=ORIENTED_EDGE('',*,*,#563,.T.);
#1646=ORIENTED_EDGE('',*,*,#1635,.T.);
#1647=ORIENTED_EDGE('',*,*,#100,.T.);
#1648=ORIENTED_EDGE('',*,*,#1560,.F.);
#1649=EDGE_LOOP('',(#1645,#1646,#1647,#1648));
#1650=FACE_BOUND('',#1649,.T.);
#1651=ADVANCED_FACE('',(#1650),#1644,.F.);
#1652=CARTESIAN_POINT('',(44.7,-5.,-10.16));
#1653=DIRECTION('',(0.,1.,0.));
#1654=DIRECTION('',(0.,-0.,1.));
#1655=AXIS2_PLACEMENT_3D('',#1652,#1653,#1654);
#1656=CYLINDRICAL_SURFACE('',#1655,1.651);
#1657=CARTESIAN_POINT('',(44.7,5.,-8.509));
#1658=DIRECTION('',(-0.,-1.,-0.));
#1659=VECTOR('',#1658,2.);
#1660=LINE('',#1657,#1659);
#1661=EDGE_CURVE('',#507,#66,#1660,.T.);
#1662=ORIENTED_EDGE('',*,*,#1661,.F.);
#1663=ORIENTED_EDGE('',*,*,#513,.T.);
#1664=ORIENTED_EDGE('',*,*,#1661,.T.);
#1665=ORIENTED_EDGE('',*,*,#72,.F.);
#1666=EDGE_LOOP('',(#1662,#1663,#1664,#1665));
#1667=FACE_BOUND('',#1666,.T.);
#1668=ADVANCED_FACE('',(#1667),#1656,.F.);
#1669=CARTESIAN_POINT('',(19.3,-5.,10.16));
#1670=DIRECTION('',(0.,1.,0.));
#1671=DIRECTION('',(0.,-0.,1.));
#1672=AXIS2_PLACEMENT_3D('',#1669,#1670,#1671);
#1673=CYLINDRICAL_SURFACE('',#1672,1.651);
#1674=CARTESIAN_POINT('',(19.3,5.,11.811));
#1675=DIRECTION('',(-0.,-1.,-0.));
#1676=VECTOR('',#1675,2.);
#1677=LINE('',#1674,#1676);
#1678=EDGE_CURVE('',#496,#55,#1677,.T.);
#1679=ORIENTED_EDGE('',*,*,#1678,.F.);
#1680=ORIENTED_EDGE('',*,*,#502,.T.);
#1681=ORIENTED_EDGE('',*,*,#1678,.T.);
#1682=ORIENTED_EDGE('',*,*,#61,.F.);
#1683=EDGE_LOOP('',(#1679,#1680,#1681,#1682));
#1684=FACE_BOUND('',#1683,.T.);
#1685=ADVANCED_FACE('',(#1684),#1673,.F.);
#1686=CARTESIAN_POINT('',(0.,7.,-10.16));
#1687=DIRECTION('',(0.,-1.,0.));
#1688=DIRECTION('',(0.,0.,-1.));
#1689=AXIS2_PLACEMENT_3D('',#1686,#1687,#1688);
#1690=CYLINDRICAL_SURFACE('',#1689,1.651);
#1691=CARTESIAN_POINT('',(0.,3.,-11.811));
#1692=DIRECTION('',(-0.,1.,-0.));
#1693=VECTOR('',#1692,2.);
#1694=LINE('',#1691,#1693);
#1695=EDGE_CURVE('',#44,#476,#1694,.T.);
#1696=ORIENTED_EDGE('',*,*,#1695,.F.);
#1697=ORIENTED_EDGE('',*,*,#50,.T.);
#1698=ORIENTED_EDGE('',*,*,#1695,.T.);
#1699=ORIENTED_EDGE('',*,*,#484,.T.);
#1700=ORIENTED_EDGE('',*,*,#491,.T.);
#1701=EDGE_LOOP('',(#1696,#1697,#1698,#1699,#1700));
#1702=FACE_BOUND('',#1701,.T.);
#1703=ADVANCED_FACE('',(#1702),#1690,.F.);
#1704=CARTESIAN_POINT('',(0.,7.,10.16));
#1705=DIRECTION('',(0.,-1.,0.));
#1706=DIRECTION('',(0.,0.,-1.));
#1707=AXIS2_PLACEMENT_3D('',#1704,#1705,#1706);
#1708=CYLINDRICAL_SURFACE('',#1707,1.651);
#1709=CARTESIAN_POINT('',(0.,3.,8.509));
#1710=DIRECTION('',(-0.,1.,-0.));
#1711=VECTOR('',#1710,2.);
#1712=LINE('',#1709,#1711);
#1713=EDGE_CURVE('',#33,#456,#1712,.T.);
#1714=ORIENTED_EDGE('',*,*,#1713,.F.);
#1715=ORIENTED_EDGE('',*,*,#39,.T.);
#1716=ORIENTED_EDGE('',*,*,#1713,.T.);
#1717=ORIENTED_EDGE('',*,*,#464,.T.);
#1718=ORIENTED_EDGE('',*,*,#471,.T.);
#1719=EDGE_LOOP('',(#1714,#1715,#1716,#1717,#1718));
#1720=FACE_BOUND('',#1719,.T.);
#1721=ADVANCED_FACE('',(#1720),#1708,.F.);
#1722=CLOSED_SHELL('',(#449,#917,#939,#956,#973,#990,#1007,#1024,#1041,#1053,#1075,#1097,#1119,#1141,#1159,#1177,#1195,#1207,#1219,#1231,#1243,#1265,#1282,#1299,#1316,#1333,
#1345,#1367,#1384,#1401,#1418,#1435,#1447,#1469,#1486,#1503,#1520,#1537,#1549,#1571,#1588,#1605,#1622,#1639,#1651,#1668,#1685,#1703,#1721));
#1723=MANIFOLD_SOLID_BREP('front plate',#1722);
#1724=COLOUR_RGB('',0.360784322,0.360784322,0.360784322);
#1725=FILL_AREA_STYLE_COLOUR('',#1724);
#1726=FILL_AREA_STYLE('',(#1725));
#1727=SURFACE_STYLE_FILL_AREA(#1726);
#1728=SURFACE_SIDE_STYLE('',(#1727));
#1729=SURFACE_STYLE_USAGE(.BOTH.,#1728);
#1730=PRESENTATION_STYLE_ASSIGNMENT((#1729));
#26=STYLED_ITEM('',(#1730),#1723);
#16=SHAPE_REPRESENTATION('front plate',(#15),#10);
#17=ADVANCED_BREP_SHAPE_REPRESENTATION('front plate',(#1723),#10);
#1738=SHAPE_REPRESENTATION_RELATIONSHIP('','',#16,#17);
#1739=CARTESIAN_POINT('',(0.,0.,0.));
#1740=DIRECTION('',(0.,0.,1.));
#1741=DIRECTION('',(1.,0.,0.));
#1742=AXIS2_PLACEMENT_3D('',#1739,#1740,#1741);
#1744=MAPPED_ITEM('',#1743,#1742);
#1743=REPRESENTATION_MAP(#1742,#16);
#1745=APPLICATION_CONTEXT('Managed model based 3d engineering');
#1746=APPLICATION_PROTOCOL_DEFINITION('international standard','ap242_managed_model_based_3d_engineering',2014,#1745);
#1747=PRODUCT_CONTEXT('',#1745,'mechanical');
#1748=PRODUCT_DEFINITION_CONTEXT('part definition',#1745,'design');
#24=PRODUCT('front plate','front plate','',(#1747));
#1749=PRODUCT_RELATED_PRODUCT_CATEGORY('part','',(#24));
#1750=PRODUCT_DEFINITION_FORMATION_WITH_SPECIFIED_SOURCE('','',#24,.NOT_KNOWN.);
#25=PRODUCT_DEFINITION('design','',#1750,#1748);
#23=PRODUCT_DEFINITION_SHAPE('','',#25);
#1751=SHAPE_DEFINITION_REPRESENTATION(#23,#16);
#11=DRAUGHTING_MODEL('',(#1744),#10);
#1752=DESCRIPTIVE_REPRESENTATION_ITEM('KEY','/Users/georgewhite/Library/Containers/com.shapr3d.shapr/Data/tmp/716E82B9-F587-48FD-AB95-04145E44F3A6.tmp');
#1753=PROPERTY_DEFINITION('KEY','',#25);
#1754=REPRESENTATION('',(#1752),#10);
#1755=PROPERTY_DEFINITION_REPRESENTATION(#1753,#1754);
#1756=GENERAL_PROPERTY('','KEY','');
#1757=GENERAL_PROPERTY_ASSOCIATION('','',#1756,#1753);
#1=MECHANICAL_DESIGN_GEOMETRIC_PRESENTATION_REPRESENTATION('',(#26),#10);
ENDSEC;
END-ISO-10303-21;
