ISO-10303-21;
HEADER;

/* File generated by Shapr3D Version 26.50.0.10685 */

FILE_DESCRIPTION(('HOOPS Exchange Step'),'2;1');

FILE_NAME('/Users/georgewhite/Library/Containers/com.shapr3d.shapr/Data/tmp/export/temp_export',
'2026-04-13T15:36:52-04:00',
('georgewhite'),
('Shapr3D Limited'),
'HOOPS Exchange 2025.9',
'Shapr3D',
'Authorized');

FILE_SCHEMA( ('AP242_MANAGED_MODEL_BASED_3D_ENGINEERING_MIM_LF {1 0 10303 442 1 1 4}') );

ENDSEC;

DATA;
#3=(NAMED_UNIT(*)PLANE_ANGLE_UNIT()SI_UNIT($,.RADIAN.));
#4=PLANE_ANGLE_MEASURE_WITH_UNIT(PLANE_ANGLE_MEASURE(0.0174532925),#3);
#5=(CONVERSION_BASED_UNIT('DEGREE',#4)NAMED_UNIT(#6)PLANE_ANGLE_UNIT());
#6=DIMENSIONAL_EXPONENTS(0.,0.,0.,0.,0.,0.,0.);
#7=(NAMED_UNIT(*)SI_UNIT($,.STERADIAN.)SOLID_ANGLE_UNIT());
#8=(LENGTH_UNIT()NAMED_UNIT(*)SI_UNIT(.MILLI.,.METRE.));
#9=UNCERTAINTY_MEASURE_WITH_UNIT(LENGTH_MEASURE(1.000000E-05),#8,'DISTANCE_ACCURACY_VALUE','Maximum Tolerance applied to model');
#10=(GEOMETRIC_REPRESENTATION_CONTEXT(3)GLOBAL_UNCERTAINTY_ASSIGNED_CONTEXT((#9))GLOBAL_UNIT_ASSIGNED_CONTEXT((#8,#5,#7))REPRESENTATION_CONTEXT('','minigen assembly bracket side 1'));
#12=CARTESIAN_POINT('',(0.,0.,0.));
#13=DIRECTION('',(0.,0.,1.));
#14=DIRECTION('',(1.,0.,0.));
#15=AXIS2_PLACEMENT_3D('TS3D_PRODUCT_CSYS',#12,#13,#14);
#27=CARTESIAN_POINT('',(-1.5,36.1,9.));
#28=DIRECTION('',(0.,0.,1.));
#29=DIRECTION('',(-1.,0.,0.));
#30=AXIS2_PLACEMENT_3D('',#27,#28,#29);
#31=PLANE('',#30);
#32=CARTESIAN_POINT('',(-0.9,85.,9.));
#33=VERTEX_POINT('',#32);
#34=CARTESIAN_POINT('',(-0.9,95.,9.));
#35=VERTEX_POINT('',#34);
#36=CARTESIAN_POINT('',(-0.9,85.,9.));
#37=DIRECTION('',(0.,1.,0.));
#38=VECTOR('',#37,10.);
#39=LINE('',#36,#38);
#40=EDGE_CURVE('',#33,#35,#39,.T.);
#41=ORIENTED_EDGE('',*,*,#40,.T.);
#42=CARTESIAN_POINT('',(3.,95.,9.));
#43=VERTEX_POINT('',#42);
#44=CARTESIAN_POINT('',(3.,95.,9.));
#45=DIRECTION('',(-1.,0.,0.));
#46=VECTOR('',#45,3.9);
#47=LINE('',#44,#46);
#48=EDGE_CURVE('',#43,#35,#47,.T.);
#49=ORIENTED_EDGE('',*,*,#48,.F.);
#50=CARTESIAN_POINT('',(3.,85.,9.));
#51=VERTEX_POINT('',#50);
#52=CARTESIAN_POINT('',(3.,85.,9.));
#53=DIRECTION('',(0.,1.,0.));
#54=VECTOR('',#53,10.);
#55=LINE('',#52,#54);
#56=EDGE_CURVE('',#51,#43,#55,.T.);
#57=ORIENTED_EDGE('',*,*,#56,.F.);
#58=CARTESIAN_POINT('',(-0.9,85.,9.));
#59=DIRECTION('',(1.,0.,-0.));
#60=VECTOR('',#59,3.9);
#61=LINE('',#58,#60);
#62=EDGE_CURVE('',#33,#51,#61,.T.);
#63=ORIENTED_EDGE('',*,*,#62,.F.);
#64=EDGE_LOOP('',(#41,#49,#57,#63));
#65=FACE_BOUND('',#64,.T.);
#66=ADVANCED_FACE('',(#65),#31,.F.);
#67=CARTESIAN_POINT('',(-7.4,85.,11.));
#68=DIRECTION('',(0.,-1.,0.));
#69=DIRECTION('',(0.,0.,1.));
#70=AXIS2_PLACEMENT_3D('',#67,#68,#69);
#71=PLANE('',#70);
#72=CARTESIAN_POINT('',(-4.,85.,11.1));
#73=VERTEX_POINT('',#72);
#74=CARTESIAN_POINT('',(-2.9,85.,11.1));
#75=VERTEX_POINT('',#74);
#76=CARTESIAN_POINT('',(-4.,85.,11.1));
#77=DIRECTION('',(1.,0.,-0.));
#78=VECTOR('',#77,1.1);
#79=LINE('',#76,#78);
#80=EDGE_CURVE('',#73,#75,#79,.T.);
#81=ORIENTED_EDGE('',*,*,#80,.F.);
#82=CARTESIAN_POINT('',(-4.,85.,9.));
#83=VERTEX_POINT('',#82);
#84=CARTESIAN_POINT('',(-4.,85.,9.));
#85=DIRECTION('',(0.,0.,1.));
#86=VECTOR('',#85,2.1);
#87=LINE('',#84,#86);
#88=EDGE_CURVE('',#83,#73,#87,.T.);
#89=ORIENTED_EDGE('',*,*,#88,.F.);
#90=CARTESIAN_POINT('',(-2.9,85.,9.));
#91=VERTEX_POINT('',#90);
#92=CARTESIAN_POINT('',(-4.,85.,9.));
#93=DIRECTION('',(1.,0.,-0.));
#94=VECTOR('',#93,1.1);
#95=LINE('',#92,#94);
#96=EDGE_CURVE('',#83,#91,#95,.T.);
#97=ORIENTED_EDGE('',*,*,#96,.T.);
#98=CARTESIAN_POINT('',(-2.9,85.,11.1));
#99=DIRECTION('',(0.,0.,-1.));
#100=VECTOR('',#99,2.1);
#101=LINE('',#98,#100);
#102=EDGE_CURVE('',#75,#91,#101,.T.);
#103=ORIENTED_EDGE('',*,*,#102,.F.);
#104=EDGE_LOOP('',(#81,#89,#97,#103));
#105=FACE_BOUND('',#104,.T.);
#106=ADVANCED_FACE('',(#105),#71,.T.);
#107=CARTESIAN_POINT('',(-7.4,85.,11.));
#108=DIRECTION('',(0.,-1.,0.));
#109=DIRECTION('',(0.,0.,1.));
#110=AXIS2_PLACEMENT_3D('',#107,#108,#109);
#111=PLANE('',#110);
#112=ORIENTED_EDGE('',*,*,#62,.T.);
#113=CARTESIAN_POINT('',(3.,85.,11.1));
#114=VERTEX_POINT('',#113);
#115=CARTESIAN_POINT('',(3.,85.,9.));
#116=DIRECTION('',(0.,0.,1.));
#117=VECTOR('',#116,2.1);
#118=LINE('',#115,#117);
#119=EDGE_CURVE('',#51,#114,#118,.T.);
#120=ORIENTED_EDGE('',*,*,#119,.T.);
#121=CARTESIAN_POINT('',(-0.9,85.,11.1));
#122=VERTEX_POINT('',#121);
#123=CARTESIAN_POINT('',(-0.9,85.,11.1));
#124=DIRECTION('',(1.,0.,-0.));
#125=VECTOR('',#124,3.9);
#126=LINE('',#123,#125);
#127=EDGE_CURVE('',#122,#114,#126,.T.);
#128=ORIENTED_EDGE('',*,*,#127,.F.);
#129=CARTESIAN_POINT('',(-0.9,85.,9.));
#130=DIRECTION('',(-0.,0.,1.));
#131=VECTOR('',#130,2.1);
#132=LINE('',#129,#131);
#133=EDGE_CURVE('',#33,#122,#132,.T.);
#134=ORIENTED_EDGE('',*,*,#133,.F.);
#135=EDGE_LOOP('',(#112,#120,#128,#134));
#136=FACE_BOUND('',#135,.T.);
#137=ADVANCED_FACE('',(#136),#111,.T.);
#138=CARTESIAN_POINT('',(-7.4,60.55,11.1));
#139=DIRECTION('',(0.,0.,-1.));
#140=DIRECTION('',(1.,0.,0.));
#141=AXIS2_PLACEMENT_3D('',#138,#139,#140);
#142=PLANE('',#141);
#143=ORIENTED_EDGE('',*,*,#127,.T.);
#144=CARTESIAN_POINT('',(3.,36.,11.1));
#145=VERTEX_POINT('',#144);
#146=CARTESIAN_POINT('',(3.,85.,11.1));
#147=DIRECTION('',(0.,-1.,0.));
#148=VECTOR('',#147,49.);
#149=LINE('',#146,#148);
#150=EDGE_CURVE('',#114,#145,#149,.T.);
#151=ORIENTED_EDGE('',*,*,#150,.T.);
#152=CARTESIAN_POINT('',(-4.,36.,11.1));
#153=VERTEX_POINT('',#152);
#154=CARTESIAN_POINT('',(-4.,36.,11.1));
#155=DIRECTION('',(1.,0.,-0.));
#156=VECTOR('',#155,7.);
#157=LINE('',#154,#156);
#158=EDGE_CURVE('',#153,#145,#157,.T.);
#159=ORIENTED_EDGE('',*,*,#158,.F.);
#160=CARTESIAN_POINT('',(-4.,85.,11.1));
#161=DIRECTION('',(0.,-1.,0.));
#162=VECTOR('',#161,49.);
#163=LINE('',#160,#162);
#164=EDGE_CURVE('',#73,#153,#163,.T.);
#165=ORIENTED_EDGE('',*,*,#164,.F.);
#166=ORIENTED_EDGE('',*,*,#80,.T.);
#167=CARTESIAN_POINT('',(-2.9,95.,11.1));
#168=VERTEX_POINT('',#167);
#169=CARTESIAN_POINT('',(-2.9,85.,11.1));
#170=DIRECTION('',(0.,1.,0.));
#171=VECTOR('',#170,10.);
#172=LINE('',#169,#171);
#173=EDGE_CURVE('',#75,#168,#172,.T.);
#174=ORIENTED_EDGE('',*,*,#173,.T.);
#175=CARTESIAN_POINT('',(-0.9,95.,11.1));
#176=VERTEX_POINT('',#175);
#177=CARTESIAN_POINT('',(-2.9,95.,11.1));
#178=DIRECTION('',(1.,0.,-0.));
#179=VECTOR('',#178,2.);
#180=LINE('',#177,#179);
#181=EDGE_CURVE('',#168,#176,#180,.T.);
#182=ORIENTED_EDGE('',*,*,#181,.T.);
#183=CARTESIAN_POINT('',(-0.9,85.,11.1));
#184=DIRECTION('',(0.,1.,0.));
#185=VECTOR('',#184,10.);
#186=LINE('',#183,#185);
#187=EDGE_CURVE('',#122,#176,#186,.T.);
#188=ORIENTED_EDGE('',*,*,#187,.F.);
#189=EDGE_LOOP('',(#143,#151,#159,#165,#166,#174,#182,#188));
#190=FACE_BOUND('',#189,.T.);
#191=ADVANCED_FACE('',(#190),#142,.T.);
#192=CARTESIAN_POINT('',(-4.,36.1,12.5));
#193=DIRECTION('',(1.,0.,0.));
#194=DIRECTION('',(0.,0.,1.));
#195=AXIS2_PLACEMENT_3D('',#192,#193,#194);
#196=PLANE('',#195);
#197=ORIENTED_EDGE('',*,*,#88,.T.);
#198=ORIENTED_EDGE('',*,*,#164,.T.);
#199=CARTESIAN_POINT('',(-4.,36.,9.1));
#200=VERTEX_POINT('',#199);
#201=CARTESIAN_POINT('',(-4.,36.,9.1));
#202=DIRECTION('',(0.,0.,1.));
#203=VECTOR('',#202,2.);
#204=LINE('',#201,#203);
#205=EDGE_CURVE('',#200,#153,#204,.T.);
#206=ORIENTED_EDGE('',*,*,#205,.F.);
#207=CARTESIAN_POINT('',(-4.,33.,9.1));
#208=VERTEX_POINT('',#207);
#209=CARTESIAN_POINT('',(-4.,36.,9.1));
#210=DIRECTION('',(0.,-1.,0.));
#211=VECTOR('',#210,3.);
#212=LINE('',#209,#211);
#213=EDGE_CURVE('',#200,#208,#212,.T.);
#214=ORIENTED_EDGE('',*,*,#213,.T.);
#215=CARTESIAN_POINT('',(-4.,33.,16.));
#216=VERTEX_POINT('',#215);
#217=CARTESIAN_POINT('',(-4.,33.,9.1));
#218=DIRECTION('',(0.,0.,1.));
#219=VECTOR('',#218,6.9);
#220=LINE('',#217,#219);
#221=EDGE_CURVE('',#208,#216,#220,.T.);
#222=ORIENTED_EDGE('',*,*,#221,.T.);
#223=CARTESIAN_POINT('',(-4.,95.,16.));
#224=VERTEX_POINT('',#223);
#225=CARTESIAN_POINT('',(-4.,33.,16.));
#226=DIRECTION('',(0.,1.,0.));
#227=VECTOR('',#226,62.);
#228=LINE('',#225,#227);
#229=EDGE_CURVE('',#216,#224,#228,.T.);
#230=ORIENTED_EDGE('',*,*,#229,.T.);
#231=CARTESIAN_POINT('',(-4.,95.,9.));
#232=VERTEX_POINT('',#231);
#233=CARTESIAN_POINT('',(-4.,95.,9.));
#234=DIRECTION('',(0.,0.,1.));
#235=VECTOR('',#234,7.);
#236=LINE('',#233,#235);
#237=EDGE_CURVE('',#232,#224,#236,.T.);
#238=ORIENTED_EDGE('',*,*,#237,.F.);
#239=CARTESIAN_POINT('',(-4.,85.,9.));
#240=DIRECTION('',(0.,1.,0.));
#241=VECTOR('',#240,10.);
#242=LINE('',#239,#241);
#243=EDGE_CURVE('',#83,#232,#242,.T.);
#244=ORIENTED_EDGE('',*,*,#243,.F.);
#245=EDGE_LOOP('',(#197,#198,#206,#214,#222,#230,#238,#244));
#246=FACE_BOUND('',#245,.T.);
#247=ADVANCED_FACE('',(#246),#196,.F.);
#248=CARTESIAN_POINT('',(-1.5,36.1,16.));
#249=DIRECTION('',(0.,0.,-1.));
#250=DIRECTION('',(1.,0.,0.));
#251=AXIS2_PLACEMENT_3D('',#248,#249,#250);
#252=PLANE('',#251);
#253=CARTESIAN_POINT('',(3.,95.,16.));
#254=VERTEX_POINT('',#253);
#255=CARTESIAN_POINT('',(-4.,95.,16.));
#256=DIRECTION('',(1.,0.,-0.));
#257=VECTOR('',#256,7.);
#258=LINE('',#255,#257);
#259=EDGE_CURVE('',#224,#254,#258,.T.);
#260=ORIENTED_EDGE('',*,*,#259,.F.);
#261=ORIENTED_EDGE('',*,*,#229,.F.);
#262=CARTESIAN_POINT('',(3.,33.,16.));
#263=VERTEX_POINT('',#262);
#264=CARTESIAN_POINT('',(-4.,33.,16.));
#265=DIRECTION('',(1.,0.,-0.));
#266=VECTOR('',#265,7.);
#267=LINE('',#264,#266);
#268=EDGE_CURVE('',#216,#263,#267,.T.);
#269=ORIENTED_EDGE('',*,*,#268,.T.);
#270=CARTESIAN_POINT('',(3.,33.,16.));
#271=DIRECTION('',(0.,1.,0.));
#272=VECTOR('',#271,62.);
#273=LINE('',#270,#272);
#274=EDGE_CURVE('',#263,#254,#273,.T.);
#275=ORIENTED_EDGE('',*,*,#274,.T.);
#276=EDGE_LOOP('',(#260,#261,#269,#275));
#277=FACE_BOUND('',#276,.T.);
#278=ADVANCED_FACE('',(#277),#252,.F.);
#279=CARTESIAN_POINT('',(3.,36.1,12.5));
#280=DIRECTION('',(-1.,0.,0.));
#281=DIRECTION('',(0.,0.,-1.));
#282=AXIS2_PLACEMENT_3D('',#279,#280,#281);
#283=PLANE('',#282);
#284=ORIENTED_EDGE('',*,*,#56,.T.);
#285=CARTESIAN_POINT('',(3.,95.,16.));
#286=DIRECTION('',(0.,0.,-1.));
#287=VECTOR('',#286,7.);
#288=LINE('',#285,#287);
#289=EDGE_CURVE('',#254,#43,#288,.T.);
#290=ORIENTED_EDGE('',*,*,#289,.F.);
#291=ORIENTED_EDGE('',*,*,#274,.F.);
#292=CARTESIAN_POINT('',(3.,33.,9.1));
#293=VERTEX_POINT('',#292);
#294=CARTESIAN_POINT('',(3.,33.,16.));
#295=DIRECTION('',(0.,0.,-1.));
#296=VECTOR('',#295,6.9);
#297=LINE('',#294,#296);
#298=EDGE_CURVE('',#263,#293,#297,.T.);
#299=ORIENTED_EDGE('',*,*,#298,.T.);
#300=CARTESIAN_POINT('',(3.,36.,9.1));
#301=VERTEX_POINT('',#300);
#302=CARTESIAN_POINT('',(3.,36.,9.1));
#303=DIRECTION('',(0.,-1.,0.));
#304=VECTOR('',#303,3.);
#305=LINE('',#302,#304);
#306=EDGE_CURVE('',#301,#293,#305,.T.);
#307=ORIENTED_EDGE('',*,*,#306,.F.);
#308=CARTESIAN_POINT('',(3.,36.,9.1));
#309=DIRECTION('',(0.,0.,1.));
#310=VECTOR('',#309,2.);
#311=LINE('',#308,#310);
#312=EDGE_CURVE('',#301,#145,#311,.T.);
#313=ORIENTED_EDGE('',*,*,#312,.T.);
#314=ORIENTED_EDGE('',*,*,#150,.F.);
#315=ORIENTED_EDGE('',*,*,#119,.F.);
#316=EDGE_LOOP('',(#284,#290,#291,#299,#307,#313,#314,#315));
#317=FACE_BOUND('',#316,.T.);
#318=ADVANCED_FACE('',(#317),#283,.F.);
#319=CARTESIAN_POINT('',(-1.5,36.1,9.));
#320=DIRECTION('',(0.,0.,1.));
#321=DIRECTION('',(-1.,0.,0.));
#322=AXIS2_PLACEMENT_3D('',#319,#320,#321);
#323=PLANE('',#322);
#324=ORIENTED_EDGE('',*,*,#96,.F.);
#325=ORIENTED_EDGE('',*,*,#243,.T.);
#326=CARTESIAN_POINT('',(-2.9,95.,9.));
#327=VERTEX_POINT('',#326);
#328=CARTESIAN_POINT('',(-2.9,95.,9.));
#329=DIRECTION('',(-1.,0.,0.));
#330=VECTOR('',#329,1.1);
#331=LINE('',#328,#330);
#332=EDGE_CURVE('',#327,#232,#331,.T.);
#333=ORIENTED_EDGE('',*,*,#332,.F.);
#334=CARTESIAN_POINT('',(-2.9,85.,9.));
#335=DIRECTION('',(0.,1.,0.));
#336=VECTOR('',#335,10.);
#337=LINE('',#334,#336);
#338=EDGE_CURVE('',#91,#327,#337,.T.);
#339=ORIENTED_EDGE('',*,*,#338,.F.);
#340=EDGE_LOOP('',(#324,#325,#333,#339));
#341=FACE_BOUND('',#340,.T.);
#342=ADVANCED_FACE('',(#341),#323,.F.);
#343=CARTESIAN_POINT('',(0.,33.,2.));
#344=DIRECTION('',(0.,-1.,0.));
#345=DIRECTION('',(1.,0.,0.));
#346=AXIS2_PLACEMENT_3D('',#343,#344,#345);
#347=PLANE('',#346);
#348=ORIENTED_EDGE('',*,*,#298,.F.);
#349=ORIENTED_EDGE('',*,*,#268,.F.);
#350=ORIENTED_EDGE('',*,*,#221,.F.);
#351=CARTESIAN_POINT('',(-4.,33.,9.1));
#352=DIRECTION('',(1.,0.,-0.));
#353=VECTOR('',#352,7.);
#354=LINE('',#351,#353);
#355=EDGE_CURVE('',#208,#293,#354,.T.);
#356=ORIENTED_EDGE('',*,*,#355,.T.);
#357=EDGE_LOOP('',(#348,#349,#350,#356));
#358=FACE_BOUND('',#357,.T.);
#359=ADVANCED_FACE('',(#358),#347,.T.);
#360=CARTESIAN_POINT('',(0.,95.,2.));
#361=DIRECTION('',(0.,-1.,0.));
#362=DIRECTION('',(1.,0.,0.));
#363=AXIS2_PLACEMENT_3D('',#360,#361,#362);
#364=PLANE('',#363);
#365=CARTESIAN_POINT('',(-0.5,95.,11.45));
#366=VERTEX_POINT('',#365);
#367=CARTESIAN_POINT('',(-0.5,95.,13.5));
#368=DIRECTION('',(0.,-1.,0.));
#369=DIRECTION('',(0.,0.,-1.));
#370=AXIS2_PLACEMENT_3D('',#367,#368,#369);
#371=CIRCLE('',#370,2.05);
#372=EDGE_CURVE('',#366,#366,#371,.T.);
#373=ORIENTED_EDGE('',*,*,#372,.T.);
#374=EDGE_LOOP('',(#373));
#375=FACE_BOUND('',#374,.T.);
#376=ORIENTED_EDGE('',*,*,#332,.T.);
#377=ORIENTED_EDGE('',*,*,#237,.T.);
#378=ORIENTED_EDGE('',*,*,#259,.T.);
#379=ORIENTED_EDGE('',*,*,#289,.T.);
#380=ORIENTED_EDGE('',*,*,#48,.T.);
#381=CARTESIAN_POINT('',(-0.9,95.,11.1));
#382=DIRECTION('',(0.,0.,-1.));
#383=VECTOR('',#382,2.1);
#384=LINE('',#381,#383);
#385=EDGE_CURVE('',#176,#35,#384,.T.);
#386=ORIENTED_EDGE('',*,*,#385,.F.);
#387=ORIENTED_EDGE('',*,*,#181,.F.);
#388=CARTESIAN_POINT('',(-2.9,95.,9.));
#389=DIRECTION('',(0.,0.,1.));
#390=VECTOR('',#389,2.1);
#391=LINE('',#388,#390);
#392=EDGE_CURVE('',#327,#168,#391,.T.);
#393=ORIENTED_EDGE('',*,*,#392,.F.);
#394=EDGE_LOOP('',(#376,#377,#378,#379,#380,#386,#387,#393));
#395=FACE_BOUND('',#394,.T.);
#396=ADVANCED_FACE('',(#375,#395),#364,.F.);
#397=CARTESIAN_POINT('',(-0.5,36.,9.1));
#398=DIRECTION('',(0.,1.,0.));
#399=DIRECTION('',(0.,0.,-1.));
#400=AXIS2_PLACEMENT_3D('',#397,#398,#399);
#401=PLANE('',#400);
#402=ORIENTED_EDGE('',*,*,#158,.T.);
#403=ORIENTED_EDGE('',*,*,#312,.F.);
#404=CARTESIAN_POINT('',(-4.,36.,9.1));
#405=DIRECTION('',(1.,0.,-0.));
#406=VECTOR('',#405,7.);
#407=LINE('',#404,#406);
#408=EDGE_CURVE('',#200,#301,#407,.T.);
#409=ORIENTED_EDGE('',*,*,#408,.F.);
#410=ORIENTED_EDGE('',*,*,#205,.T.);
#411=EDGE_LOOP('',(#402,#403,#409,#410));
#412=FACE_BOUND('',#411,.T.);
#413=ADVANCED_FACE('',(#412),#401,.T.);
#414=CARTESIAN_POINT('',(-7.4,60.55,9.1));
#415=DIRECTION('',(0.,0.,-1.));
#416=DIRECTION('',(1.,0.,0.));
#417=AXIS2_PLACEMENT_3D('',#414,#415,#416);
#418=PLANE('',#417);
#419=ORIENTED_EDGE('',*,*,#306,.T.);
#420=ORIENTED_EDGE('',*,*,#355,.F.);
#421=ORIENTED_EDGE('',*,*,#213,.F.);
#422=ORIENTED_EDGE('',*,*,#408,.T.);
#423=EDGE_LOOP('',(#419,#420,#421,#422));
#424=FACE_BOUND('',#423,.T.);
#425=ADVANCED_FACE('',(#424),#418,.T.);
#426=CARTESIAN_POINT('',(-2.9,82.2,10.05));
#427=DIRECTION('',(1.,0.,0.));
#428=DIRECTION('',(0.,0.,1.));
#429=AXIS2_PLACEMENT_3D('',#426,#427,#428);
#430=PLANE('',#429);
#431=ORIENTED_EDGE('',*,*,#173,.F.);
#432=ORIENTED_EDGE('',*,*,#102,.T.);
#433=ORIENTED_EDGE('',*,*,#338,.T.);
#434=ORIENTED_EDGE('',*,*,#392,.T.);
#435=EDGE_LOOP('',(#431,#432,#433,#434));
#436=FACE_BOUND('',#435,.T.);
#437=ADVANCED_FACE('',(#436),#430,.T.);
#438=CARTESIAN_POINT('',(-0.9,82.2,10.05));
#439=DIRECTION('',(-1.,0.,-0.));
#440=DIRECTION('',(0.,0.,-1.));
#441=AXIS2_PLACEMENT_3D('',#438,#439,#440);
#442=PLANE('',#441);
#443=ORIENTED_EDGE('',*,*,#40,.F.);
#444=ORIENTED_EDGE('',*,*,#133,.T.);
#445=ORIENTED_EDGE('',*,*,#187,.T.);
#446=ORIENTED_EDGE('',*,*,#385,.T.);
#447=EDGE_LOOP('',(#443,#444,#445,#446));
#448=FACE_BOUND('',#447,.T.);
#449=ADVANCED_FACE('',(#448),#442,.T.);
#450=CARTESIAN_POINT('',(-0.5,93.5,13.5));
#451=DIRECTION('',(0.,1.,0.));
#452=DIRECTION('',(0.,0.,-1.));
#453=AXIS2_PLACEMENT_3D('',#450,#451,#452);
#454=CYLINDRICAL_SURFACE('',#453,2.05);
#455=CARTESIAN_POINT('',(-0.5,93.5,11.45));
#456=VERTEX_POINT('',#455);
#457=CARTESIAN_POINT('',(-0.5,95.,11.45));
#458=DIRECTION('',(-0.,-1.,-0.));
#459=VECTOR('',#458,1.5);
#460=LINE('',#457,#459);
#461=EDGE_CURVE('',#366,#456,#460,.T.);
#462=ORIENTED_EDGE('',*,*,#461,.F.);
#463=ORIENTED_EDGE('',*,*,#372,.F.);
#464=ORIENTED_EDGE('',*,*,#461,.T.);
#465=CARTESIAN_POINT('',(-0.5,93.5,13.5));
#466=DIRECTION('',(0.,-1.,0.));
#467=DIRECTION('',(0.,0.,-1.));
#468=AXIS2_PLACEMENT_3D('',#465,#466,#467);
#469=CIRCLE('',#468,2.05);
#470=EDGE_CURVE('',#456,#456,#469,.T.);
#471=ORIENTED_EDGE('',*,*,#470,.T.);
#472=EDGE_LOOP('',(#462,#463,#464,#471));
#473=FACE_BOUND('',#472,.T.);
#474=ADVANCED_FACE('',(#473),#454,.F.);
#475=CARTESIAN_POINT('',(0.,93.5,2.));
#476=DIRECTION('',(0.,1.,0.));
#477=DIRECTION('',(-1.,0.,0.));
#478=AXIS2_PLACEMENT_3D('',#475,#476,#477);
#479=PLANE('',#478);
#480=CARTESIAN_POINT('',(-0.5,93.5,11.849));
#481=VERTEX_POINT('',#480);
#482=CARTESIAN_POINT('',(-0.5,93.5,13.5));
#483=DIRECTION('',(0.,-1.,0.));
#484=DIRECTION('',(0.,0.,-1.));
#485=AXIS2_PLACEMENT_3D('',#482,#483,#484);
#486=CIRCLE('',#485,1.651);
#487=EDGE_CURVE('',#481,#481,#486,.T.);
#488=ORIENTED_EDGE('',*,*,#487,.T.);
#489=EDGE_LOOP('',(#488));
#490=FACE_BOUND('',#489,.T.);
#491=ORIENTED_EDGE('',*,*,#470,.F.);
#492=EDGE_LOOP('',(#491));
#493=FACE_BOUND('',#492,.T.);
#494=ADVANCED_FACE('',(#490,#493),#479,.T.);
#495=CARTESIAN_POINT('',(0.,85.,2.));
#496=DIRECTION('',(0.,1.,0.));
#497=DIRECTION('',(-1.,0.,0.));
#498=AXIS2_PLACEMENT_3D('',#495,#496,#497);
#499=PLANE('',#498);
#500=CARTESIAN_POINT('',(-0.5,85.,11.849));
#501=VERTEX_POINT('',#500);
#502=CARTESIAN_POINT('',(-0.5,85.,13.5));
#503=DIRECTION('',(0.,-1.,0.));
#504=DIRECTION('',(0.,0.,-1.));
#505=AXIS2_PLACEMENT_3D('',#502,#503,#504);
#506=CIRCLE('',#505,1.651);
#507=EDGE_CURVE('',#501,#501,#506,.T.);
#508=ORIENTED_EDGE('',*,*,#507,.F.);
#509=EDGE_LOOP('',(#508));
#510=FACE_BOUND('',#509,.T.);
#511=ADVANCED_FACE('',(#510),#499,.T.);
#512=CARTESIAN_POINT('',(-0.5,85.,13.5));
#513=DIRECTION('',(0.,1.,0.));
#514=DIRECTION('',(0.,0.,-1.));
#515=AXIS2_PLACEMENT_3D('',#512,#513,#514);
#516=CYLINDRICAL_SURFACE('',#515,1.651);
#517=CARTESIAN_POINT('',(-0.5,93.5,11.849));
#518=DIRECTION('',(-0.,-1.,-0.));
#519=VECTOR('',#518,8.5);
#520=LINE('',#517,#519);
#521=EDGE_CURVE('',#481,#501,#520,.T.);
#522=ORIENTED_EDGE('',*,*,#521,.F.);
#523=ORIENTED_EDGE('',*,*,#487,.F.);
#524=ORIENTED_EDGE('',*,*,#521,.T.);
#525=ORIENTED_EDGE('',*,*,#507,.T.);
#526=EDGE_LOOP('',(#522,#523,#524,#525));
#527=FACE_BOUND('',#526,.T.);
#528=ADVANCED_FACE('',(#527),#516,.F.);
#529=CLOSED_SHELL('',(#66,#106,#137,#191,#247,#278,#318,#342,#359,#396,#413,#425,#437,#449,#474,#494,#511,#528));
#530=MANIFOLD_SOLID_BREP('minigen assembly bracket side 1',#529);
#531=COLOUR_RGB('',0.627451003,0.627451003,0.643137276);
#532=FILL_AREA_STYLE_COLOUR('',#531);
#533=FILL_AREA_STYLE('',(#532));
#534=SURFACE_STYLE_FILL_AREA(#533);
#535=SURFACE_SIDE_STYLE('',(#534));
#536=SURFACE_STYLE_USAGE(.BOTH.,#535);
#537=PRESENTATION_STYLE_ASSIGNMENT((#536));
#26=STYLED_ITEM('',(#537),#530);
#16=SHAPE_REPRESENTATION('minigen assembly bracket side 1',(#15),#10);
#17=ADVANCED_BREP_SHAPE_REPRESENTATION('minigen assembly bracket side 1',(#530),#10);
#545=SHAPE_REPRESENTATION_RELATIONSHIP('','',#16,#17);
#546=CARTESIAN_POINT('',(0.,0.,0.));
#547=DIRECTION('',(0.,0.,1.));
#548=DIRECTION('',(1.,0.,0.));
#549=AXIS2_PLACEMENT_3D('',#546,#547,#548);
#551=MAPPED_ITEM('',#550,#549);
#550=REPRESENTATION_MAP(#549,#16);
#552=APPLICATION_CONTEXT('Managed model based 3d engineering');
#553=APPLICATION_PROTOCOL_DEFINITION('international standard','ap242_managed_model_based_3d_engineering',2014,#552);
#554=PRODUCT_CONTEXT('',#552,'mechanical');
#555=PRODUCT_DEFINITION_CONTEXT('part definition',#552,'design');
#24=PRODUCT('minigen assembly bracket side 1','minigen assembly bracket side 1','',(#554));
#556=PRODUCT_RELATED_PRODUCT_CATEGORY('part','',(#24));
#557=PRODUCT_DEFINITION_FORMATION_WITH_SPECIFIED_SOURCE('','',#24,.NOT_KNOWN.);
#25=PRODUCT_DEFINITION('design','',#557,#555);
#23=PRODUCT_DEFINITION_SHAPE('','',#25);
#558=SHAPE_DEFINITION_REPRESENTATION(#23,#16);
#11=DRAUGHTING_MODEL('',(#551),#10);
#559=DESCRIPTIVE_REPRESENTATION_ITEM('KEY','/Users/georgewhite/Library/Containers/com.shapr3d.shapr/Data/tmp/8E85DE98-5305-4F2D-A409-20BCCB928662.tmp');
#560=PROPERTY_DEFINITION('KEY','',#25);
#561=REPRESENTATION('',(#559),#10);
#562=PROPERTY_DEFINITION_REPRESENTATION(#560,#561);
#563=GENERAL_PROPERTY('','KEY','');
#564=GENERAL_PROPERTY_ASSOCIATION('','',#563,#560);
#1=MECHANICAL_DESIGN_GEOMETRIC_PRESENTATION_REPRESENTATION('',(#26),#10);
ENDSEC;
END-ISO-10303-21;
