ISO-10303-21;
HEADER;

/* File generated by Shapr3D Version 26.50.0.10685 */

FILE_DESCRIPTION(('HOOPS Exchange Step'),'2;1');

FILE_NAME('/Users/georgewhite/Library/Containers/com.shapr3d.shapr/Data/tmp/export/temp_export',
'2026-04-13T15:36:52-04:00',
('georgewhite'),
('Shapr3D Limited'),
'HOOPS Exchange 2025.9',
'Shapr3D',
'Authorized');

FILE_SCHEMA( ('AP242_MANAGED_MODEL_BASED_3D_ENGINEERING_MIM_LF {1 0 10303 442 1 1 4}') );

ENDSEC;

DATA;
#3=(NAMED_UNIT(*)PLANE_ANGLE_UNIT()SI_UNIT($,.RADIAN.));
#4=PLANE_ANGLE_MEASURE_WITH_UNIT(PLANE_ANGLE_MEASURE(0.0174532925),#3);
#5=(CONVERSION_BASED_UNIT('DEGREE',#4)NAMED_UNIT(#6)PLANE_ANGLE_UNIT());
#6=DIMENSIONAL_EXPONENTS(0.,0.,0.,0.,0.,0.,0.);
#7=(NAMED_UNIT(*)SI_UNIT($,.STERADIAN.)SOLID_ANGLE_UNIT());
#8=(LENGTH_UNIT()NAMED_UNIT(*)SI_UNIT(.MILLI.,.METRE.));
#9=UNCERTAINTY_MEASURE_WITH_UNIT(LENGTH_MEASURE(1.000000E-05),#8,'DISTANCE_ACCURACY_VALUE','Maximum Tolerance applied to model');
#10=(GEOMETRIC_REPRESENTATION_CONTEXT(3)GLOBAL_UNCERTAINTY_ASSIGNED_CONTEXT((#9))GLOBAL_UNIT_ASSIGNED_CONTEXT((#8,#5,#7))REPRESENTATION_CONTEXT('','minigen assembly bracket side 2'));
#12=CARTESIAN_POINT('',(0.,0.,0.));
#13=DIRECTION('',(0.,0.,1.));
#14=DIRECTION('',(1.,0.,0.));
#15=AXIS2_PLACEMENT_3D('TS3D_PRODUCT_CSYS',#12,#13,#14);
#27=CARTESIAN_POINT('',(-1.5,36.1,-7.));
#28=DIRECTION('',(0.,0.,-1.));
#29=DIRECTION('',(-1.,0.,0.));
#30=AXIS2_PLACEMENT_3D('',#27,#28,#29);
#31=PLANE('',#30);
#32=CARTESIAN_POINT('',(-0.9,85.,-7.));
#33=VERTEX_POINT('',#32);
#34=CARTESIAN_POINT('',(-0.9,95.,-7.));
#35=VERTEX_POINT('',#34);
#36=CARTESIAN_POINT('',(-0.9,85.,-7.));
#37=DIRECTION('',(0.,1.,0.));
#38=VECTOR('',#37,10.);
#39=LINE('',#36,#38);
#40=EDGE_CURVE('',#33,#35,#39,.T.);
#41=ORIENTED_EDGE('',*,*,#40,.F.);
#42=CARTESIAN_POINT('',(3.,85.,-7.));
#43=VERTEX_POINT('',#42);
#44=CARTESIAN_POINT('',(-0.9,85.,-7.));
#45=DIRECTION('',(1.,0.,-0.));
#46=VECTOR('',#45,3.9);
#47=LINE('',#44,#46);
#48=EDGE_CURVE('',#33,#43,#47,.T.);
#49=ORIENTED_EDGE('',*,*,#48,.T.);
#50=CARTESIAN_POINT('',(3.,95.,-7.));
#51=VERTEX_POINT('',#50);
#52=CARTESIAN_POINT('',(3.,85.,-7.));
#53=DIRECTION('',(0.,1.,0.));
#54=VECTOR('',#53,10.);
#55=LINE('',#52,#54);
#56=EDGE_CURVE('',#43,#51,#55,.T.);
#57=ORIENTED_EDGE('',*,*,#56,.T.);
#58=CARTESIAN_POINT('',(3.,95.,-7.));
#59=DIRECTION('',(-1.,0.,0.));
#60=VECTOR('',#59,3.9);
#61=LINE('',#58,#60);
#62=EDGE_CURVE('',#51,#35,#61,.T.);
#63=ORIENTED_EDGE('',*,*,#62,.T.);
#64=EDGE_LOOP('',(#41,#49,#57,#63));
#65=FACE_BOUND('',#64,.T.);
#66=ADVANCED_FACE('',(#65),#31,.F.);
#67=CARTESIAN_POINT('',(-7.4,85.,-9.));
#68=DIRECTION('',(0.,-1.,0.));
#69=DIRECTION('',(0.,0.,-1.));
#70=AXIS2_PLACEMENT_3D('',#67,#68,#69);
#71=PLANE('',#70);
#72=CARTESIAN_POINT('',(-4.,85.,-9.1));
#73=VERTEX_POINT('',#72);
#74=CARTESIAN_POINT('',(-2.9,85.,-9.1));
#75=VERTEX_POINT('',#74);
#76=CARTESIAN_POINT('',(-4.,85.,-9.1));
#77=DIRECTION('',(1.,0.,-0.));
#78=VECTOR('',#77,1.1);
#79=LINE('',#76,#78);
#80=EDGE_CURVE('',#73,#75,#79,.T.);
#81=ORIENTED_EDGE('',*,*,#80,.T.);
#82=CARTESIAN_POINT('',(-2.9,85.,-7.));
#83=VERTEX_POINT('',#82);
#84=CARTESIAN_POINT('',(-2.9,85.,-9.1));
#85=DIRECTION('',(0.,0.,1.));
#86=VECTOR('',#85,2.1);
#87=LINE('',#84,#86);
#88=EDGE_CURVE('',#75,#83,#87,.T.);
#89=ORIENTED_EDGE('',*,*,#88,.T.);
#90=CARTESIAN_POINT('',(-4.,85.,-7.));
#91=VERTEX_POINT('',#90);
#92=CARTESIAN_POINT('',(-4.,85.,-7.));
#93=DIRECTION('',(1.,0.,-0.));
#94=VECTOR('',#93,1.1);
#95=LINE('',#92,#94);
#96=EDGE_CURVE('',#91,#83,#95,.T.);
#97=ORIENTED_EDGE('',*,*,#96,.F.);
#98=CARTESIAN_POINT('',(-4.,85.,-7.));
#99=DIRECTION('',(0.,0.,-1.));
#100=VECTOR('',#99,2.1);
#101=LINE('',#98,#100);
#102=EDGE_CURVE('',#91,#73,#101,.T.);
#103=ORIENTED_EDGE('',*,*,#102,.T.);
#104=EDGE_LOOP('',(#81,#89,#97,#103));
#105=FACE_BOUND('',#104,.T.);
#106=ADVANCED_FACE('',(#105),#71,.T.);
#107=CARTESIAN_POINT('',(-7.4,85.,-9.));
#108=DIRECTION('',(0.,-1.,0.));
#109=DIRECTION('',(0.,0.,-1.));
#110=AXIS2_PLACEMENT_3D('',#107,#108,#109);
#111=PLANE('',#110);
#112=ORIENTED_EDGE('',*,*,#48,.F.);
#113=CARTESIAN_POINT('',(-0.9,85.,-9.1));
#114=VERTEX_POINT('',#113);
#115=CARTESIAN_POINT('',(-0.9,85.,-7.));
#116=DIRECTION('',(-0.,0.,-1.));
#117=VECTOR('',#116,2.1);
#118=LINE('',#115,#117);
#119=EDGE_CURVE('',#33,#114,#118,.T.);
#120=ORIENTED_EDGE('',*,*,#119,.T.);
#121=CARTESIAN_POINT('',(3.,85.,-9.1));
#122=VERTEX_POINT('',#121);
#123=CARTESIAN_POINT('',(-0.9,85.,-9.1));
#124=DIRECTION('',(1.,0.,-0.));
#125=VECTOR('',#124,3.9);
#126=LINE('',#123,#125);
#127=EDGE_CURVE('',#114,#122,#126,.T.);
#128=ORIENTED_EDGE('',*,*,#127,.T.);
#129=CARTESIAN_POINT('',(3.,85.,-7.));
#130=DIRECTION('',(0.,0.,-1.));
#131=VECTOR('',#130,2.1);
#132=LINE('',#129,#131);
#133=EDGE_CURVE('',#43,#122,#132,.T.);
#134=ORIENTED_EDGE('',*,*,#133,.F.);
#135=EDGE_LOOP('',(#112,#120,#128,#134));
#136=FACE_BOUND('',#135,.T.);
#137=ADVANCED_FACE('',(#136),#111,.T.);
#138=CARTESIAN_POINT('',(-7.4,60.55,-9.1));
#139=DIRECTION('',(0.,0.,1.));
#140=DIRECTION('',(1.,0.,0.));
#141=AXIS2_PLACEMENT_3D('',#138,#139,#140);
#142=PLANE('',#141);
#143=ORIENTED_EDGE('',*,*,#127,.F.);
#144=CARTESIAN_POINT('',(-0.9,95.,-9.1));
#145=VERTEX_POINT('',#144);
#146=CARTESIAN_POINT('',(-0.9,85.,-9.1));
#147=DIRECTION('',(0.,1.,0.));
#148=VECTOR('',#147,10.);
#149=LINE('',#146,#148);
#150=EDGE_CURVE('',#114,#145,#149,.T.);
#151=ORIENTED_EDGE('',*,*,#150,.T.);
#152=CARTESIAN_POINT('',(-2.9,95.,-9.1));
#153=VERTEX_POINT('',#152);
#154=CARTESIAN_POINT('',(-2.9,95.,-9.1));
#155=DIRECTION('',(1.,0.,-0.));
#156=VECTOR('',#155,2.);
#157=LINE('',#154,#156);
#158=EDGE_CURVE('',#153,#145,#157,.T.);
#159=ORIENTED_EDGE('',*,*,#158,.F.);
#160=CARTESIAN_POINT('',(-2.9,85.,-9.1));
#161=DIRECTION('',(0.,1.,0.));
#162=VECTOR('',#161,10.);
#163=LINE('',#160,#162);
#164=EDGE_CURVE('',#75,#153,#163,.T.);
#165=ORIENTED_EDGE('',*,*,#164,.F.);
#166=ORIENTED_EDGE('',*,*,#80,.F.);
#167=CARTESIAN_POINT('',(-4.,36.,-9.1));
#168=VERTEX_POINT('',#167);
#169=CARTESIAN_POINT('',(-4.,85.,-9.1));
#170=DIRECTION('',(0.,-1.,0.));
#171=VECTOR('',#170,49.);
#172=LINE('',#169,#171);
#173=EDGE_CURVE('',#73,#168,#172,.T.);
#174=ORIENTED_EDGE('',*,*,#173,.T.);
#175=CARTESIAN_POINT('',(3.,36.,-9.1));
#176=VERTEX_POINT('',#175);
#177=CARTESIAN_POINT('',(-4.,36.,-9.1));
#178=DIRECTION('',(1.,0.,-0.));
#179=VECTOR('',#178,7.);
#180=LINE('',#177,#179);
#181=EDGE_CURVE('',#168,#176,#180,.T.);
#182=ORIENTED_EDGE('',*,*,#181,.T.);
#183=CARTESIAN_POINT('',(3.,85.,-9.1));
#184=DIRECTION('',(0.,-1.,0.));
#185=VECTOR('',#184,49.);
#186=LINE('',#183,#185);
#187=EDGE_CURVE('',#122,#176,#186,.T.);
#188=ORIENTED_EDGE('',*,*,#187,.F.);
#189=EDGE_LOOP('',(#143,#151,#159,#165,#166,#174,#182,#188));
#190=FACE_BOUND('',#189,.T.);
#191=ADVANCED_FACE('',(#190),#142,.T.);
#192=CARTESIAN_POINT('',(-4.,36.1,-10.5));
#193=DIRECTION('',(1.,0.,0.));
#194=DIRECTION('',(0.,0.,-1.));
#195=AXIS2_PLACEMENT_3D('',#192,#193,#194);
#196=PLANE('',#195);
#197=ORIENTED_EDGE('',*,*,#102,.F.);
#198=CARTESIAN_POINT('',(-4.,95.,-7.));
#199=VERTEX_POINT('',#198);
#200=CARTESIAN_POINT('',(-4.,85.,-7.));
#201=DIRECTION('',(0.,1.,0.));
#202=VECTOR('',#201,10.);
#203=LINE('',#200,#202);
#204=EDGE_CURVE('',#91,#199,#203,.T.);
#205=ORIENTED_EDGE('',*,*,#204,.T.);
#206=CARTESIAN_POINT('',(-4.,95.,-14.));
#207=VERTEX_POINT('',#206);
#208=CARTESIAN_POINT('',(-4.,95.,-7.));
#209=DIRECTION('',(0.,0.,-1.));
#210=VECTOR('',#209,7.);
#211=LINE('',#208,#210);
#212=EDGE_CURVE('',#199,#207,#211,.T.);
#213=ORIENTED_EDGE('',*,*,#212,.T.);
#214=CARTESIAN_POINT('',(-4.,33.,-14.));
#215=VERTEX_POINT('',#214);
#216=CARTESIAN_POINT('',(-4.,33.,-14.));
#217=DIRECTION('',(0.,1.,0.));
#218=VECTOR('',#217,62.);
#219=LINE('',#216,#218);
#220=EDGE_CURVE('',#215,#207,#219,.T.);
#221=ORIENTED_EDGE('',*,*,#220,.F.);
#222=CARTESIAN_POINT('',(-4.,33.,-7.1));
#223=VERTEX_POINT('',#222);
#224=CARTESIAN_POINT('',(-4.,33.,-7.1));
#225=DIRECTION('',(0.,0.,-1.));
#226=VECTOR('',#225,6.9);
#227=LINE('',#224,#226);
#228=EDGE_CURVE('',#223,#215,#227,.T.);
#229=ORIENTED_EDGE('',*,*,#228,.F.);
#230=CARTESIAN_POINT('',(-4.,36.,-7.1));
#231=VERTEX_POINT('',#230);
#232=CARTESIAN_POINT('',(-4.,36.,-7.1));
#233=DIRECTION('',(0.,-1.,0.));
#234=VECTOR('',#233,3.);
#235=LINE('',#232,#234);
#236=EDGE_CURVE('',#231,#223,#235,.T.);
#237=ORIENTED_EDGE('',*,*,#236,.F.);
#238=CARTESIAN_POINT('',(-4.,36.,-7.1));
#239=DIRECTION('',(0.,0.,-1.));
#240=VECTOR('',#239,2.);
#241=LINE('',#238,#240);
#242=EDGE_CURVE('',#231,#168,#241,.T.);
#243=ORIENTED_EDGE('',*,*,#242,.T.);
#244=ORIENTED_EDGE('',*,*,#173,.F.);
#245=EDGE_LOOP('',(#197,#205,#213,#221,#229,#237,#243,#244));
#246=FACE_BOUND('',#245,.T.);
#247=ADVANCED_FACE('',(#246),#196,.F.);
#248=CARTESIAN_POINT('',(-1.5,36.1,-14.));
#249=DIRECTION('',(0.,0.,1.));
#250=DIRECTION('',(1.,0.,0.));
#251=AXIS2_PLACEMENT_3D('',#248,#249,#250);
#252=PLANE('',#251);
#253=CARTESIAN_POINT('',(3.,95.,-14.));
#254=VERTEX_POINT('',#253);
#255=CARTESIAN_POINT('',(-4.,95.,-14.));
#256=DIRECTION('',(1.,0.,-0.));
#257=VECTOR('',#256,7.);
#258=LINE('',#255,#257);
#259=EDGE_CURVE('',#207,#254,#258,.T.);
#260=ORIENTED_EDGE('',*,*,#259,.T.);
#261=CARTESIAN_POINT('',(3.,33.,-14.));
#262=VERTEX_POINT('',#261);
#263=CARTESIAN_POINT('',(3.,33.,-14.));
#264=DIRECTION('',(0.,1.,0.));
#265=VECTOR('',#264,62.);
#266=LINE('',#263,#265);
#267=EDGE_CURVE('',#262,#254,#266,.T.);
#268=ORIENTED_EDGE('',*,*,#267,.F.);
#269=CARTESIAN_POINT('',(-4.,33.,-14.));
#270=DIRECTION('',(1.,0.,-0.));
#271=VECTOR('',#270,7.);
#272=LINE('',#269,#271);
#273=EDGE_CURVE('',#215,#262,#272,.T.);
#274=ORIENTED_EDGE('',*,*,#273,.F.);
#275=ORIENTED_EDGE('',*,*,#220,.T.);
#276=EDGE_LOOP('',(#260,#268,#274,#275));
#277=FACE_BOUND('',#276,.T.);
#278=ADVANCED_FACE('',(#277),#252,.F.);
#279=CARTESIAN_POINT('',(3.,36.1,-10.5));
#280=DIRECTION('',(-1.,0.,0.));
#281=DIRECTION('',(0.,0.,1.));
#282=AXIS2_PLACEMENT_3D('',#279,#280,#281);
#283=PLANE('',#282);
#284=ORIENTED_EDGE('',*,*,#56,.F.);
#285=ORIENTED_EDGE('',*,*,#133,.T.);
#286=ORIENTED_EDGE('',*,*,#187,.T.);
#287=CARTESIAN_POINT('',(3.,36.,-7.1));
#288=VERTEX_POINT('',#287);
#289=CARTESIAN_POINT('',(3.,36.,-7.1));
#290=DIRECTION('',(0.,0.,-1.));
#291=VECTOR('',#290,2.);
#292=LINE('',#289,#291);
#293=EDGE_CURVE('',#288,#176,#292,.T.);
#294=ORIENTED_EDGE('',*,*,#293,.F.);
#295=CARTESIAN_POINT('',(3.,33.,-7.1));
#296=VERTEX_POINT('',#295);
#297=CARTESIAN_POINT('',(3.,36.,-7.1));
#298=DIRECTION('',(0.,-1.,0.));
#299=VECTOR('',#298,3.);
#300=LINE('',#297,#299);
#301=EDGE_CURVE('',#288,#296,#300,.T.);
#302=ORIENTED_EDGE('',*,*,#301,.T.);
#303=CARTESIAN_POINT('',(3.,33.,-14.));
#304=DIRECTION('',(0.,0.,1.));
#305=VECTOR('',#304,6.9);
#306=LINE('',#303,#305);
#307=EDGE_CURVE('',#262,#296,#306,.T.);
#308=ORIENTED_EDGE('',*,*,#307,.F.);
#309=ORIENTED_EDGE('',*,*,#267,.T.);
#310=CARTESIAN_POINT('',(3.,95.,-14.));
#311=DIRECTION('',(0.,0.,1.));
#312=VECTOR('',#311,7.);
#313=LINE('',#310,#312);
#314=EDGE_CURVE('',#254,#51,#313,.T.);
#315=ORIENTED_EDGE('',*,*,#314,.T.);
#316=EDGE_LOOP('',(#284,#285,#286,#294,#302,#308,#309,#315));
#317=FACE_BOUND('',#316,.T.);
#318=ADVANCED_FACE('',(#317),#283,.F.);
#319=CARTESIAN_POINT('',(-1.5,36.1,-7.));
#320=DIRECTION('',(0.,0.,-1.));
#321=DIRECTION('',(-1.,0.,0.));
#322=AXIS2_PLACEMENT_3D('',#319,#320,#321);
#323=PLANE('',#322);
#324=ORIENTED_EDGE('',*,*,#96,.T.);
#325=CARTESIAN_POINT('',(-2.9,95.,-7.));
#326=VERTEX_POINT('',#325);
#327=CARTESIAN_POINT('',(-2.9,85.,-7.));
#328=DIRECTION('',(0.,1.,0.));
#329=VECTOR('',#328,10.);
#330=LINE('',#327,#329);
#331=EDGE_CURVE('',#83,#326,#330,.T.);
#332=ORIENTED_EDGE('',*,*,#331,.T.);
#333=CARTESIAN_POINT('',(-2.9,95.,-7.));
#334=DIRECTION('',(-1.,0.,0.));
#335=VECTOR('',#334,1.1);
#336=LINE('',#333,#335);
#337=EDGE_CURVE('',#326,#199,#336,.T.);
#338=ORIENTED_EDGE('',*,*,#337,.T.);
#339=ORIENTED_EDGE('',*,*,#204,.F.);
#340=EDGE_LOOP('',(#324,#332,#338,#339));
#341=FACE_BOUND('',#340,.T.);
#342=ADVANCED_FACE('',(#341),#323,.F.);
#343=CARTESIAN_POINT('',(0.,33.,0.));
#344=DIRECTION('',(0.,-1.,0.));
#345=DIRECTION('',(1.,0.,0.));
#346=AXIS2_PLACEMENT_3D('',#343,#344,#345);
#347=PLANE('',#346);
#348=ORIENTED_EDGE('',*,*,#307,.T.);
#349=CARTESIAN_POINT('',(-4.,33.,-7.1));
#350=DIRECTION('',(1.,0.,-0.));
#351=VECTOR('',#350,7.);
#352=LINE('',#349,#351);
#353=EDGE_CURVE('',#223,#296,#352,.T.);
#354=ORIENTED_EDGE('',*,*,#353,.F.);
#355=ORIENTED_EDGE('',*,*,#228,.T.);
#356=ORIENTED_EDGE('',*,*,#273,.T.);
#357=EDGE_LOOP('',(#348,#354,#355,#356));
#358=FACE_BOUND('',#357,.T.);
#359=ADVANCED_FACE('',(#358),#347,.T.);
#360=CARTESIAN_POINT('',(0.,95.,0.));
#361=DIRECTION('',(0.,-1.,0.));
#362=DIRECTION('',(1.,0.,0.));
#363=AXIS2_PLACEMENT_3D('',#360,#361,#362);
#364=PLANE('',#363);
#365=CARTESIAN_POINT('',(-0.5,95.,-9.45));
#366=VERTEX_POINT('',#365);
#367=CARTESIAN_POINT('',(-0.5,95.,-11.5));
#368=DIRECTION('',(0.,1.,0.));
#369=DIRECTION('',(0.,-0.,1.));
#370=AXIS2_PLACEMENT_3D('',#367,#368,#369);
#371=CIRCLE('',#370,2.05);
#372=EDGE_CURVE('',#366,#366,#371,.T.);
#373=ORIENTED_EDGE('',*,*,#372,.F.);
#374=EDGE_LOOP('',(#373));
#375=FACE_BOUND('',#374,.T.);
#376=ORIENTED_EDGE('',*,*,#337,.F.);
#377=CARTESIAN_POINT('',(-2.9,95.,-7.));
#378=DIRECTION('',(0.,0.,-1.));
#379=VECTOR('',#378,2.1);
#380=LINE('',#377,#379);
#381=EDGE_CURVE('',#326,#153,#380,.T.);
#382=ORIENTED_EDGE('',*,*,#381,.T.);
#383=ORIENTED_EDGE('',*,*,#158,.T.);
#384=CARTESIAN_POINT('',(-0.9,95.,-9.1));
#385=DIRECTION('',(0.,0.,1.));
#386=VECTOR('',#385,2.1);
#387=LINE('',#384,#386);
#388=EDGE_CURVE('',#145,#35,#387,.T.);
#389=ORIENTED_EDGE('',*,*,#388,.T.);
#390=ORIENTED_EDGE('',*,*,#62,.F.);
#391=ORIENTED_EDGE('',*,*,#314,.F.);
#392=ORIENTED_EDGE('',*,*,#259,.F.);
#393=ORIENTED_EDGE('',*,*,#212,.F.);
#394=EDGE_LOOP('',(#376,#382,#383,#389,#390,#391,#392,#393));
#395=FACE_BOUND('',#394,.T.);
#396=ADVANCED_FACE('',(#375,#395),#364,.F.);
#397=CARTESIAN_POINT('',(-0.5,36.,-7.1));
#398=DIRECTION('',(0.,1.,0.));
#399=DIRECTION('',(0.,0.,1.));
#400=AXIS2_PLACEMENT_3D('',#397,#398,#399);
#401=PLANE('',#400);
#402=ORIENTED_EDGE('',*,*,#181,.F.);
#403=ORIENTED_EDGE('',*,*,#242,.F.);
#404=CARTESIAN_POINT('',(-4.,36.,-7.1));
#405=DIRECTION('',(1.,0.,-0.));
#406=VECTOR('',#405,7.);
#407=LINE('',#404,#406);
#408=EDGE_CURVE('',#231,#288,#407,.T.);
#409=ORIENTED_EDGE('',*,*,#408,.T.);
#410=ORIENTED_EDGE('',*,*,#293,.T.);
#411=EDGE_LOOP('',(#402,#403,#409,#410));
#412=FACE_BOUND('',#411,.T.);
#413=ADVANCED_FACE('',(#412),#401,.T.);
#414=CARTESIAN_POINT('',(-7.4,60.55,-7.1));
#415=DIRECTION('',(0.,0.,1.));
#416=DIRECTION('',(1.,0.,0.));
#417=AXIS2_PLACEMENT_3D('',#414,#415,#416);
#418=PLANE('',#417);
#419=ORIENTED_EDGE('',*,*,#301,.F.);
#420=ORIENTED_EDGE('',*,*,#408,.F.);
#421=ORIENTED_EDGE('',*,*,#236,.T.);
#422=ORIENTED_EDGE('',*,*,#353,.T.);
#423=EDGE_LOOP('',(#419,#420,#421,#422));
#424=FACE_BOUND('',#423,.T.);
#425=ADVANCED_FACE('',(#424),#418,.T.);
#426=CARTESIAN_POINT('',(-2.9,82.2,-8.05));
#427=DIRECTION('',(1.,0.,0.));
#428=DIRECTION('',(0.,0.,-1.));
#429=AXIS2_PLACEMENT_3D('',#426,#427,#428);
#430=PLANE('',#429);
#431=ORIENTED_EDGE('',*,*,#164,.T.);
#432=ORIENTED_EDGE('',*,*,#381,.F.);
#433=ORIENTED_EDGE('',*,*,#331,.F.);
#434=ORIENTED_EDGE('',*,*,#88,.F.);
#435=EDGE_LOOP('',(#431,#432,#433,#434));
#436=FACE_BOUND('',#435,.T.);
#437=ADVANCED_FACE('',(#436),#430,.T.);
#438=CARTESIAN_POINT('',(-0.9,82.2,-8.05));
#439=DIRECTION('',(-1.,0.,0.));
#440=DIRECTION('',(0.,0.,1.));
#441=AXIS2_PLACEMENT_3D('',#438,#439,#440);
#442=PLANE('',#441);
#443=ORIENTED_EDGE('',*,*,#40,.T.);
#444=ORIENTED_EDGE('',*,*,#388,.F.);
#445=ORIENTED_EDGE('',*,*,#150,.F.);
#446=ORIENTED_EDGE('',*,*,#119,.F.);
#447=EDGE_LOOP('',(#443,#444,#445,#446));
#448=FACE_BOUND('',#447,.T.);
#449=ADVANCED_FACE('',(#448),#442,.T.);
#450=CARTESIAN_POINT('',(-0.5,93.5,-11.5));
#451=DIRECTION('',(0.,1.,0.));
#452=DIRECTION('',(0.,-0.,1.));
#453=AXIS2_PLACEMENT_3D('',#450,#451,#452);
#454=CYLINDRICAL_SURFACE('',#453,2.05);
#455=CARTESIAN_POINT('',(-0.5,93.5,-9.45));
#456=VERTEX_POINT('',#455);
#457=CARTESIAN_POINT('',(-0.5,95.,-9.45));
#458=DIRECTION('',(-0.,-1.,-0.));
#459=VECTOR('',#458,1.5);
#460=LINE('',#457,#459);
#461=EDGE_CURVE('',#366,#456,#460,.T.);
#462=ORIENTED_EDGE('',*,*,#461,.F.);
#463=ORIENTED_EDGE('',*,*,#372,.T.);
#464=ORIENTED_EDGE('',*,*,#461,.T.);
#465=CARTESIAN_POINT('',(-0.5,93.5,-11.5));
#466=DIRECTION('',(0.,1.,0.));
#467=DIRECTION('',(0.,-0.,1.));
#468=AXIS2_PLACEMENT_3D('',#465,#466,#467);
#469=CIRCLE('',#468,2.05);
#470=EDGE_CURVE('',#456,#456,#469,.T.);
#471=ORIENTED_EDGE('',*,*,#470,.F.);
#472=EDGE_LOOP('',(#462,#463,#464,#471));
#473=FACE_BOUND('',#472,.T.);
#474=ADVANCED_FACE('',(#473),#454,.F.);
#475=CARTESIAN_POINT('',(0.,93.5,0.));
#476=DIRECTION('',(0.,1.,0.));
#477=DIRECTION('',(-1.,0.,0.));
#478=AXIS2_PLACEMENT_3D('',#475,#476,#477);
#479=PLANE('',#478);
#480=CARTESIAN_POINT('',(-0.5,93.5,-9.849));
#481=VERTEX_POINT('',#480);
#482=CARTESIAN_POINT('',(-0.5,93.5,-11.5));
#483=DIRECTION('',(0.,1.,0.));
#484=DIRECTION('',(0.,-0.,1.));
#485=AXIS2_PLACEMENT_3D('',#482,#483,#484);
#486=CIRCLE('',#485,1.651);
#487=EDGE_CURVE('',#481,#481,#486,.T.);
#488=ORIENTED_EDGE('',*,*,#487,.F.);
#489=EDGE_LOOP('',(#488));
#490=FACE_BOUND('',#489,.T.);
#491=ORIENTED_EDGE('',*,*,#470,.T.);
#492=EDGE_LOOP('',(#491));
#493=FACE_BOUND('',#492,.T.);
#494=ADVANCED_FACE('',(#490,#493),#479,.T.);
#495=CARTESIAN_POINT('',(0.,85.,0.));
#496=DIRECTION('',(0.,1.,0.));
#497=DIRECTION('',(-1.,0.,0.));
#498=AXIS2_PLACEMENT_3D('',#495,#496,#497);
#499=PLANE('',#498);
#500=CARTESIAN_POINT('',(-0.5,85.,-9.849));
#501=VERTEX_POINT('',#500);
#502=CARTESIAN_POINT('',(-0.5,85.,-11.5));
#503=DIRECTION('',(0.,1.,0.));
#504=DIRECTION('',(0.,-0.,1.));
#505=AXIS2_PLACEMENT_3D('',#502,#503,#504);
#506=CIRCLE('',#505,1.651);
#507=EDGE_CURVE('',#501,#501,#506,.T.);
#508=ORIENTED_EDGE('',*,*,#507,.T.);
#509=EDGE_LOOP('',(#508));
#510=FACE_BOUND('',#509,.T.);
#511=ADVANCED_FACE('',(#510),#499,.T.);
#512=CARTESIAN_POINT('',(-0.5,85.,-11.5));
#513=DIRECTION('',(0.,1.,0.));
#514=DIRECTION('',(0.,-0.,1.));
#515=AXIS2_PLACEMENT_3D('',#512,#513,#514);
#516=CYLINDRICAL_SURFACE('',#515,1.651);
#517=CARTESIAN_POINT('',(-0.5,93.5,-9.849));
#518=DIRECTION('',(-0.,-1.,-0.));
#519=VECTOR('',#518,8.5);
#520=LINE('',#517,#519);
#521=EDGE_CURVE('',#481,#501,#520,.T.);
#522=ORIENTED_EDGE('',*,*,#521,.F.);
#523=ORIENTED_EDGE('',*,*,#487,.T.);
#524=ORIENTED_EDGE('',*,*,#521,.T.);
#525=ORIENTED_EDGE('',*,*,#507,.F.);
#526=EDGE_LOOP('',(#522,#523,#524,#525));
#527=FACE_BOUND('',#526,.T.);
#528=ADVANCED_FACE('',(#527),#516,.F.);
#529=CLOSED_SHELL('',(#66,#106,#137,#191,#247,#278,#318,#342,#359,#396,#413,#425,#437,#449,#474,#494,#511,#528));
#530=MANIFOLD_SOLID_BREP('minigen assembly bracket side 2',#529);
#531=COLOUR_RGB('',0.627451003,0.627451003,0.643137276);
#532=FILL_AREA_STYLE_COLOUR('',#531);
#533=FILL_AREA_STYLE('',(#532));
#534=SURFACE_STYLE_FILL_AREA(#533);
#535=SURFACE_SIDE_STYLE('',(#534));
#536=SURFACE_STYLE_USAGE(.BOTH.,#535);
#537=PRESENTATION_STYLE_ASSIGNMENT((#536));
#26=STYLED_ITEM('',(#537),#530);
#16=SHAPE_REPRESENTATION('minigen assembly bracket side 2',(#15),#10);
#17=ADVANCED_BREP_SHAPE_REPRESENTATION('minigen assembly bracket side 2',(#530),#10);
#545=SHAPE_REPRESENTATION_RELATIONSHIP('','',#16,#17);
#546=CARTESIAN_POINT('',(0.,0.,0.));
#547=DIRECTION('',(0.,0.,1.));
#548=DIRECTION('',(1.,0.,0.));
#549=AXIS2_PLACEMENT_3D('',#546,#547,#548);
#551=MAPPED_ITEM('',#550,#549);
#550=REPRESENTATION_MAP(#549,#16);
#552=APPLICATION_CONTEXT('Managed model based 3d engineering');
#553=APPLICATION_PROTOCOL_DEFINITION('international standard','ap242_managed_model_based_3d_engineering',2014,#552);
#554=PRODUCT_CONTEXT('',#552,'mechanical');
#555=PRODUCT_DEFINITION_CONTEXT('part definition',#552,'design');
#24=PRODUCT('minigen assembly bracket side 2','minigen assembly bracket side 2','',(#554));
#556=PRODUCT_RELATED_PRODUCT_CATEGORY('part','',(#24));
#557=PRODUCT_DEFINITION_FORMATION_WITH_SPECIFIED_SOURCE('','',#24,.NOT_KNOWN.);
#25=PRODUCT_DEFINITION('design','',#557,#555);
#23=PRODUCT_DEFINITION_SHAPE('','',#25);
#558=SHAPE_DEFINITION_REPRESENTATION(#23,#16);
#11=DRAUGHTING_MODEL('',(#551),#10);
#559=DESCRIPTIVE_REPRESENTATION_ITEM('KEY','/Users/georgewhite/Library/Containers/com.shapr3d.shapr/Data/tmp/F8E45758-B9ED-4F5B-A118-515821FB073B.tmp');
#560=PROPERTY_DEFINITION('KEY','',#25);
#561=REPRESENTATION('',(#559),#10);
#562=PROPERTY_DEFINITION_REPRESENTATION(#560,#561);
#563=GENERAL_PROPERTY('','KEY','');
#564=GENERAL_PROPERTY_ASSOCIATION('','',#563,#560);
#1=MECHANICAL_DESIGN_GEOMETRIC_PRESENTATION_REPRESENTATION('',(#26),#10);
ENDSEC;
END-ISO-10303-21;
