ISO-10303-21;
HEADER;

/* File generated by Shapr3D Version 26.50.0.10685 */

FILE_DESCRIPTION(('HOOPS Exchange Step'),'2;1');

FILE_NAME('/Users/georgewhite/Library/Containers/com.shapr3d.shapr/Data/tmp/export/temp_export',
'2026-04-13T15:36:52-04:00',
('georgewhite'),
('Shapr3D Limited'),
'HOOPS Exchange 2025.9',
'Shapr3D',
'Authorized');

FILE_SCHEMA( ('AP242_MANAGED_MODEL_BASED_3D_ENGINEERING_MIM_LF {1 0 10303 442 1 1 4}') );

ENDSEC;

DATA;
#3=(NAMED_UNIT(*)PLANE_ANGLE_UNIT()SI_UNIT($,.RADIAN.));
#4=PLANE_ANGLE_MEASURE_WITH_UNIT(PLANE_ANGLE_MEASURE(0.0174532925),#3);
#5=(CONVERSION_BASED_UNIT('DEGREE',#4)NAMED_UNIT(#6)PLANE_ANGLE_UNIT());
#6=DIMENSIONAL_EXPONENTS(0.,0.,0.,0.,0.,0.,0.);
#7=(NAMED_UNIT(*)SI_UNIT($,.STERADIAN.)SOLID_ANGLE_UNIT());
#8=(LENGTH_UNIT()NAMED_UNIT(*)SI_UNIT(.MILLI.,.METRE.));
#9=UNCERTAINTY_MEASURE_WITH_UNIT(LENGTH_MEASURE(1.000000E-05),#8,'DISTANCE_ACCURACY_VALUE','Maximum Tolerance applied to model');
#10=(GEOMETRIC_REPRESENTATION_CONTEXT(3)GLOBAL_UNCERTAINTY_ASSIGNED_CONTEXT((#9))GLOBAL_UNIT_ASSIGNED_CONTEXT((#8,#5,#7))REPRESENTATION_CONTEXT('','oled bracket'));
#12=CARTESIAN_POINT('',(0.,0.,0.));
#13=DIRECTION('',(0.,0.,1.));
#14=DIRECTION('',(1.,0.,0.));
#15=AXIS2_PLACEMENT_3D('',#12,#13,#14);
#27=CARTESIAN_POINT('',(-7.5,5.,10.25));
#28=DIRECTION('',(0.,1.,-0.));
#29=DIRECTION('',(0.,0.,1.));
#30=AXIS2_PLACEMENT_3D('',#27,#28,#29);
#31=PLANE('',#30);
#32=CARTESIAN_POINT('',(-7.,5.,8.));
#33=VERTEX_POINT('',#32);
#34=CARTESIAN_POINT('',(-6.5,5.,7.5));
#35=VERTEX_POINT('',#34);
#36=CARTESIAN_POINT('',(-6.5,5.,8.));
#37=DIRECTION('',(-0.,-1.,0.));
#38=DIRECTION('',(0.,0.,1.));
#39=AXIS2_PLACEMENT_3D('',#36,#37,#38);
#40=CIRCLE('',#39,0.5);
#41=EDGE_CURVE('',#33,#35,#40,.T.);
#42=ORIENTED_EDGE('',*,*,#41,.T.);
#43=CARTESIAN_POINT('',(6.5,5.,7.5));
#44=VERTEX_POINT('',#43);
#45=CARTESIAN_POINT('',(-6.5,5.,7.5));
#46=DIRECTION('',(1.,0.,-0.));
#47=VECTOR('',#46,13.);
#48=LINE('',#45,#47);
#49=EDGE_CURVE('',#35,#44,#48,.T.);
#50=ORIENTED_EDGE('',*,*,#49,.T.);
#51=CARTESIAN_POINT('',(7.,5.,8.));
#52=VERTEX_POINT('',#51);
#53=CARTESIAN_POINT('',(6.5,5.,8.));
#54=DIRECTION('',(-0.,-1.,0.));
#55=DIRECTION('',(0.,0.,1.));
#56=AXIS2_PLACEMENT_3D('',#53,#54,#55);
#57=CIRCLE('',#56,0.5);
#58=EDGE_CURVE('',#44,#52,#57,.T.);
#59=ORIENTED_EDGE('',*,*,#58,.T.);
#60=CARTESIAN_POINT('',(7.,5.,10.5));
#61=VERTEX_POINT('',#60);
#62=CARTESIAN_POINT('',(7.,5.,8.));
#63=DIRECTION('',(0.,0.,1.));
#64=VECTOR('',#63,2.5);
#65=LINE('',#62,#64);
#66=EDGE_CURVE('',#52,#61,#65,.T.);
#67=ORIENTED_EDGE('',*,*,#66,.T.);
#68=CARTESIAN_POINT('',(4.5,5.,13.));
#69=VERTEX_POINT('',#68);
#70=CARTESIAN_POINT('',(4.5,5.,10.5));
#71=DIRECTION('',(-0.,-1.,0.));
#72=DIRECTION('',(0.,0.,1.));
#73=AXIS2_PLACEMENT_3D('',#70,#71,#72);
#74=CIRCLE('',#73,2.5);
#75=EDGE_CURVE('',#61,#69,#74,.T.);
#76=ORIENTED_EDGE('',*,*,#75,.T.);
#77=CARTESIAN_POINT('',(-4.5,5.,13.));
#78=VERTEX_POINT('',#77);
#79=CARTESIAN_POINT('',(4.5,5.,13.));
#80=DIRECTION('',(-1.,0.,0.));
#81=VECTOR('',#80,9.);
#82=LINE('',#79,#81);
#83=EDGE_CURVE('',#69,#78,#82,.T.);
#84=ORIENTED_EDGE('',*,*,#83,.T.);
#85=CARTESIAN_POINT('',(-7.,5.,10.5));
#86=VERTEX_POINT('',#85);
#87=CARTESIAN_POINT('',(-4.5,5.,10.5));
#88=DIRECTION('',(-0.,-1.,0.));
#89=DIRECTION('',(0.,0.,1.));
#90=AXIS2_PLACEMENT_3D('',#87,#88,#89);
#91=CIRCLE('',#90,2.5);
#92=EDGE_CURVE('',#78,#86,#91,.T.);
#93=ORIENTED_EDGE('',*,*,#92,.T.);
#94=CARTESIAN_POINT('',(-7.,5.,10.5));
#95=DIRECTION('',(0.,-0.,-1.));
#96=VECTOR('',#95,2.5);
#97=LINE('',#94,#96);
#98=EDGE_CURVE('',#86,#33,#97,.T.);
#99=ORIENTED_EDGE('',*,*,#98,.T.);
#100=EDGE_LOOP('',(#42,#50,#59,#67,#76,#84,#93,#99));
#101=FACE_BOUND('',#100,.T.);
#102=CARTESIAN_POINT('',(0.,5.,8.509));
#103=VERTEX_POINT('',#102);
#104=CARTESIAN_POINT('',(0.,5.,10.16));
#105=DIRECTION('',(0.,-1.,-0.));
#106=DIRECTION('',(0.,0.,-1.));
#107=AXIS2_PLACEMENT_3D('',#104,#105,#106);
#108=CIRCLE('',#107,1.651);
#109=EDGE_CURVE('',#103,#103,#108,.T.);
#110=ORIENTED_EDGE('',*,*,#109,.F.);
#111=EDGE_LOOP('',(#110));
#112=FACE_BOUND('',#111,.T.);
#113=ADVANCED_FACE('',(#101,#112),#31,.F.);
#114=CARTESIAN_POINT('',(-7.5,7.,7.));
#115=DIRECTION('',(0.,0.,1.));
#116=DIRECTION('',(1.,0.,0.));
#117=AXIS2_PLACEMENT_3D('',#114,#115,#116);
#118=PLANE('',#117);
#119=CARTESIAN_POINT('',(6.5,9.,7.));
#120=VERTEX_POINT('',#119);
#121=CARTESIAN_POINT('',(6.5,5.5,7.));
#122=VERTEX_POINT('',#121);
#123=CARTESIAN_POINT('',(6.5,9.,7.));
#124=DIRECTION('',(0.,-1.,0.));
#125=VECTOR('',#124,3.5);
#126=LINE('',#123,#125);
#127=EDGE_CURVE('',#120,#122,#126,.T.);
#128=ORIENTED_EDGE('',*,*,#127,.T.);
#129=CARTESIAN_POINT('',(-6.5,5.5,7.));
#130=VERTEX_POINT('',#129);
#131=CARTESIAN_POINT('',(6.5,5.5,7.));
#132=DIRECTION('',(-1.,0.,0.));
#133=VECTOR('',#132,13.);
#134=LINE('',#131,#133);
#135=EDGE_CURVE('',#122,#130,#134,.T.);
#136=ORIENTED_EDGE('',*,*,#135,.T.);
#137=CARTESIAN_POINT('',(-6.5,9.,7.));
#138=VERTEX_POINT('',#137);
#139=CARTESIAN_POINT('',(-6.5,5.5,7.));
#140=DIRECTION('',(-0.,1.,-0.));
#141=VECTOR('',#140,3.5);
#142=LINE('',#139,#141);
#143=EDGE_CURVE('',#130,#138,#142,.T.);
#144=ORIENTED_EDGE('',*,*,#143,.T.);
#145=CARTESIAN_POINT('',(-6.5,9.,7.));
#146=DIRECTION('',(1.,0.,-0.));
#147=VECTOR('',#146,13.);
#148=LINE('',#145,#147);
#149=EDGE_CURVE('',#138,#120,#148,.T.);
#150=ORIENTED_EDGE('',*,*,#149,.T.);
#151=EDGE_LOOP('',(#128,#136,#144,#150));
#152=FACE_BOUND('',#151,.T.);
#153=ADVANCED_FACE('',(#152),#118,.F.);
#154=CARTESIAN_POINT('',(-7.5,9.,0.));
#155=DIRECTION('',(0.,1.,0.));
#156=DIRECTION('',(0.,-0.,1.));
#157=AXIS2_PLACEMENT_3D('',#154,#155,#156);
#158=PLANE('',#157);
#159=CARTESIAN_POINT('',(-7.,9.,7.133974596));
#160=VERTEX_POINT('',#159);
#161=CARTESIAN_POINT('',(-6.5,9.,8.));
#162=DIRECTION('',(0.,1.,0.));
#163=DIRECTION('',(0.,-0.,1.));
#164=AXIS2_PLACEMENT_3D('',#161,#162,#163);
#165=CIRCLE('',#164,1.);
#166=EDGE_CURVE('',#138,#160,#165,.T.);
#167=ORIENTED_EDGE('',*,*,#166,.T.);
#168=CARTESIAN_POINT('',(-7.,9.,-7.133974596));
#169=VERTEX_POINT('',#168);
#170=CARTESIAN_POINT('',(-7.,9.,7.133974596));
#171=DIRECTION('',(0.,0.,-1.));
#172=VECTOR('',#171,14.267949192);
#173=LINE('',#170,#172);
#174=EDGE_CURVE('',#160,#169,#173,.T.);
#175=ORIENTED_EDGE('',*,*,#174,.T.);
#176=CARTESIAN_POINT('',(-6.5,9.,-7.));
#177=VERTEX_POINT('',#176);
#178=CARTESIAN_POINT('',(-6.5,9.,-8.));
#179=DIRECTION('',(0.,1.,0.));
#180=DIRECTION('',(0.,-0.,1.));
#181=AXIS2_PLACEMENT_3D('',#178,#179,#180);
#182=CIRCLE('',#181,1.);
#183=EDGE_CURVE('',#169,#177,#182,.T.);
#184=ORIENTED_EDGE('',*,*,#183,.T.);
#185=CARTESIAN_POINT('',(6.5,9.,-7.));
#186=VERTEX_POINT('',#185);
#187=CARTESIAN_POINT('',(-6.5,9.,-7.));
#188=DIRECTION('',(1.,0.,-0.));
#189=VECTOR('',#188,13.);
#190=LINE('',#187,#189);
#191=EDGE_CURVE('',#177,#186,#190,.T.);
#192=ORIENTED_EDGE('',*,*,#191,.T.);
#193=CARTESIAN_POINT('',(7.,9.,-7.133974596));
#194=VERTEX_POINT('',#193);
#195=CARTESIAN_POINT('',(6.5,9.,-8.));
#196=DIRECTION('',(0.,1.,0.));
#197=DIRECTION('',(0.,-0.,1.));
#198=AXIS2_PLACEMENT_3D('',#195,#196,#197);
#199=CIRCLE('',#198,1.);
#200=EDGE_CURVE('',#186,#194,#199,.T.);
#201=ORIENTED_EDGE('',*,*,#200,.T.);
#202=CARTESIAN_POINT('',(7.,9.,7.133974596));
#203=VERTEX_POINT('',#202);
#204=CARTESIAN_POINT('',(7.,9.,-7.133974596));
#205=DIRECTION('',(0.,-0.,1.));
#206=VECTOR('',#205,14.267949192);
#207=LINE('',#204,#206);
#208=EDGE_CURVE('',#194,#203,#207,.T.);
#209=ORIENTED_EDGE('',*,*,#208,.T.);
#210=CARTESIAN_POINT('',(6.5,9.,8.));
#211=DIRECTION('',(0.,1.,0.));
#212=DIRECTION('',(0.,-0.,1.));
#213=AXIS2_PLACEMENT_3D('',#210,#211,#212);
#214=CIRCLE('',#213,1.);
#215=EDGE_CURVE('',#203,#120,#214,.T.);
#216=ORIENTED_EDGE('',*,*,#215,.T.);
#217=ORIENTED_EDGE('',*,*,#149,.F.);
#218=EDGE_LOOP('',(#167,#175,#184,#192,#201,#209,#216,#217));
#219=FACE_BOUND('',#218,.T.);
#220=ADVANCED_FACE('',(#219),#158,.F.);
#221=CARTESIAN_POINT('',(-7.5,7.,-7.));
#222=DIRECTION('',(0.,0.,1.));
#223=DIRECTION('',(1.,0.,0.));
#224=AXIS2_PLACEMENT_3D('',#221,#222,#223);
#225=PLANE('',#224);
#226=CARTESIAN_POINT('',(-6.5,5.5,-7.));
#227=VERTEX_POINT('',#226);
#228=CARTESIAN_POINT('',(-6.5,9.,-7.));
#229=DIRECTION('',(0.,-1.,0.));
#230=VECTOR('',#229,3.5);
#231=LINE('',#228,#230);
#232=EDGE_CURVE('',#177,#227,#231,.T.);
#233=ORIENTED_EDGE('',*,*,#232,.T.);
#234=CARTESIAN_POINT('',(6.5,5.5,-7.));
#235=VERTEX_POINT('',#234);
#236=CARTESIAN_POINT('',(-6.5,5.5,-7.));
#237=DIRECTION('',(1.,0.,-0.));
#238=VECTOR('',#237,13.);
#239=LINE('',#236,#238);
#240=EDGE_CURVE('',#227,#235,#239,.T.);
#241=ORIENTED_EDGE('',*,*,#240,.T.);
#242=CARTESIAN_POINT('',(6.5,5.5,-7.));
#243=DIRECTION('',(-0.,1.,-0.));
#244=VECTOR('',#243,3.5);
#245=LINE('',#242,#244);
#246=EDGE_CURVE('',#235,#186,#245,.T.);
#247=ORIENTED_EDGE('',*,*,#246,.T.);
#248=ORIENTED_EDGE('',*,*,#191,.F.);
#249=EDGE_LOOP('',(#233,#241,#247,#248));
#250=FACE_BOUND('',#249,.T.);
#251=ADVANCED_FACE('',(#250),#225,.T.);
#252=CARTESIAN_POINT('',(-7.5,5.,-10.25));
#253=DIRECTION('',(0.,-1.,-0.));
#254=DIRECTION('',(0.,0.,-1.));
#255=AXIS2_PLACEMENT_3D('',#252,#253,#254);
#256=PLANE('',#255);
#257=CARTESIAN_POINT('',(7.,5.,-8.));
#258=VERTEX_POINT('',#257);
#259=CARTESIAN_POINT('',(6.5,5.,-7.5));
#260=VERTEX_POINT('',#259);
#261=CARTESIAN_POINT('',(6.5,5.,-8.));
#262=DIRECTION('',(0.,-1.,-0.));
#263=DIRECTION('',(0.,0.,-1.));
#264=AXIS2_PLACEMENT_3D('',#261,#262,#263);
#265=CIRCLE('',#264,0.5);
#266=EDGE_CURVE('',#258,#260,#265,.T.);
#267=ORIENTED_EDGE('',*,*,#266,.T.);
#268=CARTESIAN_POINT('',(-6.5,5.,-7.5));
#269=VERTEX_POINT('',#268);
#270=CARTESIAN_POINT('',(6.5,5.,-7.5));
#271=DIRECTION('',(-1.,0.,0.));
#272=VECTOR('',#271,13.);
#273=LINE('',#270,#272);
#274=EDGE_CURVE('',#260,#269,#273,.T.);
#275=ORIENTED_EDGE('',*,*,#274,.T.);
#276=CARTESIAN_POINT('',(-7.,5.,-8.));
#277=VERTEX_POINT('',#276);
#278=CARTESIAN_POINT('',(-6.5,5.,-8.));
#279=DIRECTION('',(0.,-1.,-0.));
#280=DIRECTION('',(0.,0.,-1.));
#281=AXIS2_PLACEMENT_3D('',#278,#279,#280);
#282=CIRCLE('',#281,0.5);
#283=EDGE_CURVE('',#269,#277,#282,.T.);
#284=ORIENTED_EDGE('',*,*,#283,.T.);
#285=CARTESIAN_POINT('',(-7.,5.,-10.5));
#286=VERTEX_POINT('',#285);
#287=CARTESIAN_POINT('',(-7.,5.,-8.));
#288=DIRECTION('',(0.,0.,-1.));
#289=VECTOR('',#288,2.5);
#290=LINE('',#287,#289);
#291=EDGE_CURVE('',#277,#286,#290,.T.);
#292=ORIENTED_EDGE('',*,*,#291,.T.);
#293=CARTESIAN_POINT('',(-4.5,5.,-13.));
#294=VERTEX_POINT('',#293);
#295=CARTESIAN_POINT('',(-4.5,5.,-10.5));
#296=DIRECTION('',(0.,-1.,-0.));
#297=DIRECTION('',(0.,0.,-1.));
#298=AXIS2_PLACEMENT_3D('',#295,#296,#297);
#299=CIRCLE('',#298,2.5);
#300=EDGE_CURVE('',#286,#294,#299,.T.);
#301=ORIENTED_EDGE('',*,*,#300,.T.);
#302=CARTESIAN_POINT('',(4.5,5.,-13.));
#303=VERTEX_POINT('',#302);
#304=CARTESIAN_POINT('',(-4.5,5.,-13.));
#305=DIRECTION('',(1.,0.,-0.));
#306=VECTOR('',#305,9.);
#307=LINE('',#304,#306);
#308=EDGE_CURVE('',#294,#303,#307,.T.);
#309=ORIENTED_EDGE('',*,*,#308,.T.);
#310=CARTESIAN_POINT('',(7.,5.,-10.5));
#311=VERTEX_POINT('',#310);
#312=CARTESIAN_POINT('',(4.5,5.,-10.5));
#313=DIRECTION('',(0.,-1.,-0.));
#314=DIRECTION('',(0.,0.,-1.));
#315=AXIS2_PLACEMENT_3D('',#312,#313,#314);
#316=CIRCLE('',#315,2.5);
#317=EDGE_CURVE('',#303,#311,#316,.T.);
#318=ORIENTED_EDGE('',*,*,#317,.T.);
#319=CARTESIAN_POINT('',(7.,5.,-10.5));
#320=DIRECTION('',(0.,-0.,1.));
#321=VECTOR('',#320,2.5);
#322=LINE('',#319,#321);
#323=EDGE_CURVE('',#311,#258,#322,.T.);
#324=ORIENTED_EDGE('',*,*,#323,.T.);
#325=EDGE_LOOP('',(#267,#275,#284,#292,#301,#309,#318,#324));
#326=FACE_BOUND('',#325,.T.);
#327=CARTESIAN_POINT('',(0.,5.,-11.811));
#328=VERTEX_POINT('',#327);
#329=CARTESIAN_POINT('',(0.,5.,-10.16));
#330=DIRECTION('',(0.,-1.,-0.));
#331=DIRECTION('',(0.,0.,-1.));
#332=AXIS2_PLACEMENT_3D('',#329,#330,#331);
#333=CIRCLE('',#332,1.651);
#334=EDGE_CURVE('',#328,#328,#333,.T.);
#335=ORIENTED_EDGE('',*,*,#334,.F.);
#336=EDGE_LOOP('',(#335));
#337=FACE_BOUND('',#336,.T.);
#338=ADVANCED_FACE('',(#326,#337),#256,.T.);
#339=CARTESIAN_POINT('',(-7.5,8.25,-13.5));
#340=DIRECTION('',(0.,-0.,-1.));
#341=DIRECTION('',(0.,1.,-0.));
#342=AXIS2_PLACEMENT_3D('',#339,#340,#341);
#343=PLANE('',#342);
#344=CARTESIAN_POINT('',(-4.5,5.5,-13.5));
#345=VERTEX_POINT('',#344);
#346=CARTESIAN_POINT('',(-4.5,11.,-13.5));
#347=VERTEX_POINT('',#346);
#348=CARTESIAN_POINT('',(-4.5,5.5,-13.5));
#349=DIRECTION('',(0.,1.,-0.));
#350=VECTOR('',#349,5.5);
#351=LINE('',#348,#350);
#352=EDGE_CURVE('',#345,#347,#351,.T.);
#353=ORIENTED_EDGE('',*,*,#352,.T.);
#354=CARTESIAN_POINT('',(4.5,11.,-13.5));
#355=VERTEX_POINT('',#354);
#356=CARTESIAN_POINT('',(-4.5,11.,-13.5));
#357=DIRECTION('',(1.,0.,-0.));
#358=VECTOR('',#357,9.);
#359=LINE('',#356,#358);
#360=EDGE_CURVE('',#347,#355,#359,.T.);
#361=ORIENTED_EDGE('',*,*,#360,.T.);
#362=CARTESIAN_POINT('',(4.5,5.5,-13.5));
#363=VERTEX_POINT('',#362);
#364=CARTESIAN_POINT('',(4.5,11.,-13.5));
#365=DIRECTION('',(-0.,-1.,0.));
#366=VECTOR('',#365,5.5);
#367=LINE('',#364,#366);
#368=EDGE_CURVE('',#355,#363,#367,.T.);
#369=ORIENTED_EDGE('',*,*,#368,.T.);
#370=CARTESIAN_POINT('',(4.5,5.5,-13.5));
#371=DIRECTION('',(-1.,0.,0.));
#372=VECTOR('',#371,9.);
#373=LINE('',#370,#372);
#374=EDGE_CURVE('',#363,#345,#373,.T.);
#375=ORIENTED_EDGE('',*,*,#374,.T.);
#376=EDGE_LOOP('',(#353,#361,#369,#375));
#377=FACE_BOUND('',#376,.T.);
#378=ADVANCED_FACE('',(#377),#343,.T.);
#379=CARTESIAN_POINT('',(-7.5,11.5,0.));
#380=DIRECTION('',(0.,1.,0.));
#381=DIRECTION('',(0.,0.,1.));
#382=AXIS2_PLACEMENT_3D('',#379,#380,#381);
#383=PLANE('',#382);
#384=CARTESIAN_POINT('',(4.5,11.5,13.));
#385=VERTEX_POINT('',#384);
#386=CARTESIAN_POINT('',(7.,11.5,10.5));
#387=VERTEX_POINT('',#386);
#388=CARTESIAN_POINT('',(4.5,11.5,10.5));
#389=DIRECTION('',(0.,1.,0.));
#390=DIRECTION('',(0.,-0.,1.));
#391=AXIS2_PLACEMENT_3D('',#388,#389,#390);
#392=CIRCLE('',#391,2.5);
#393=EDGE_CURVE('',#385,#387,#392,.T.);
#394=ORIENTED_EDGE('',*,*,#393,.T.);
#395=CARTESIAN_POINT('',(7.,11.5,-10.5));
#396=VERTEX_POINT('',#395);
#397=CARTESIAN_POINT('',(7.,11.5,10.5));
#398=DIRECTION('',(0.,0.,-1.));
#399=VECTOR('',#398,21.);
#400=LINE('',#397,#399);
#401=EDGE_CURVE('',#387,#396,#400,.T.);
#402=ORIENTED_EDGE('',*,*,#401,.T.);
#403=CARTESIAN_POINT('',(4.5,11.5,-13.));
#404=VERTEX_POINT('',#403);
#405=CARTESIAN_POINT('',(4.5,11.5,-10.5));
#406=DIRECTION('',(0.,1.,0.));
#407=DIRECTION('',(0.,-0.,1.));
#408=AXIS2_PLACEMENT_3D('',#405,#406,#407);
#409=CIRCLE('',#408,2.5);
#410=EDGE_CURVE('',#396,#404,#409,.T.);
#411=ORIENTED_EDGE('',*,*,#410,.T.);
#412=CARTESIAN_POINT('',(-4.5,11.5,-13.));
#413=VERTEX_POINT('',#412);
#414=CARTESIAN_POINT('',(4.5,11.5,-13.));
#415=DIRECTION('',(-1.,0.,0.));
#416=VECTOR('',#415,9.);
#417=LINE('',#414,#416);
#418=EDGE_CURVE('',#404,#413,#417,.T.);
#419=ORIENTED_EDGE('',*,*,#418,.T.);
#420=CARTESIAN_POINT('',(-7.,11.5,-10.5));
#421=VERTEX_POINT('',#420);
#422=CARTESIAN_POINT('',(-4.5,11.5,-10.5));
#423=DIRECTION('',(0.,1.,0.));
#424=DIRECTION('',(0.,-0.,1.));
#425=AXIS2_PLACEMENT_3D('',#422,#423,#424);
#426=CIRCLE('',#425,2.5);
#427=EDGE_CURVE('',#413,#421,#426,.T.);
#428=ORIENTED_EDGE('',*,*,#427,.T.);
#429=CARTESIAN_POINT('',(-7.,11.5,10.5));
#430=VERTEX_POINT('',#429);
#431=CARTESIAN_POINT('',(-7.,11.5,-10.5));
#432=DIRECTION('',(0.,0.,1.));
#433=VECTOR('',#432,21.);
#434=LINE('',#431,#433);
#435=EDGE_CURVE('',#421,#430,#434,.T.);
#436=ORIENTED_EDGE('',*,*,#435,.T.);
#437=CARTESIAN_POINT('',(-4.5,11.5,13.));
#438=VERTEX_POINT('',#437);
#439=CARTESIAN_POINT('',(-4.5,11.5,10.5));
#440=DIRECTION('',(0.,1.,0.));
#441=DIRECTION('',(0.,-0.,1.));
#442=AXIS2_PLACEMENT_3D('',#439,#440,#441);
#443=CIRCLE('',#442,2.5);
#444=EDGE_CURVE('',#430,#438,#443,.T.);
#445=ORIENTED_EDGE('',*,*,#444,.T.);
#446=CARTESIAN_POINT('',(-4.5,11.5,13.));
#447=DIRECTION('',(1.,0.,-0.));
#448=VECTOR('',#447,9.);
#449=LINE('',#446,#448);
#450=EDGE_CURVE('',#438,#385,#449,.T.);
#451=ORIENTED_EDGE('',*,*,#450,.T.);
#452=EDGE_LOOP('',(#394,#402,#411,#419,#428,#436,#445,#451));
#453=FACE_BOUND('',#452,.T.);
#454=CARTESIAN_POINT('',(0.,11.5,8.509));
#455=VERTEX_POINT('',#454);
#456=CARTESIAN_POINT('',(0.,11.5,11.811));
#457=VERTEX_POINT('',#456);
#458=CARTESIAN_POINT('',(0.,11.5,10.16));
#459=DIRECTION('',(0.,1.,0.));
#460=DIRECTION('',(0.,-0.,1.));
#461=AXIS2_PLACEMENT_3D('',#458,#459,#460);
#462=CIRCLE('',#461,1.651);
#463=EDGE_CURVE('',#455,#457,#462,.T.);
#464=ORIENTED_EDGE('',*,*,#463,.F.);
#465=CARTESIAN_POINT('',(0.,11.5,10.16));
#466=DIRECTION('',(0.,1.,0.));
#467=DIRECTION('',(0.,-0.,1.));
#468=AXIS2_PLACEMENT_3D('',#465,#466,#467);
#469=CIRCLE('',#468,1.651);
#470=EDGE_CURVE('',#457,#455,#469,.T.);
#471=ORIENTED_EDGE('',*,*,#470,.F.);
#472=EDGE_LOOP('',(#464,#471));
#473=FACE_BOUND('',#472,.T.);
#474=CARTESIAN_POINT('',(0.,11.5,-11.811));
#475=VERTEX_POINT('',#474);
#476=CARTESIAN_POINT('',(0.,11.5,-8.509));
#477=VERTEX_POINT('',#476);
#478=CARTESIAN_POINT('',(0.,11.5,-10.16));
#479=DIRECTION('',(0.,1.,0.));
#480=DIRECTION('',(0.,-0.,1.));
#481=AXIS2_PLACEMENT_3D('',#478,#479,#480);
#482=CIRCLE('',#481,1.651);
#483=EDGE_CURVE('',#475,#477,#482,.T.);
#484=ORIENTED_EDGE('',*,*,#483,.F.);
#485=CARTESIAN_POINT('',(0.,11.5,-10.16));
#486=DIRECTION('',(0.,1.,0.));
#487=DIRECTION('',(0.,-0.,1.));
#488=AXIS2_PLACEMENT_3D('',#485,#486,#487);
#489=CIRCLE('',#488,1.651);
#490=EDGE_CURVE('',#477,#475,#489,.T.);
#491=ORIENTED_EDGE('',*,*,#490,.F.);
#492=EDGE_LOOP('',(#484,#491));
#493=FACE_BOUND('',#492,.T.);
#494=ADVANCED_FACE('',(#453,#473,#493),#383,.T.);
#495=CARTESIAN_POINT('',(-7.5,8.25,13.5));
#496=DIRECTION('',(0.,0.,-1.));
#497=DIRECTION('',(0.,1.,0.));
#498=AXIS2_PLACEMENT_3D('',#495,#496,#497);
#499=PLANE('',#498);
#500=CARTESIAN_POINT('',(4.5,5.5,13.5));
#501=VERTEX_POINT('',#500);
#502=CARTESIAN_POINT('',(4.5,11.,13.5));
#503=VERTEX_POINT('',#502);
#504=CARTESIAN_POINT('',(4.5,5.5,13.5));
#505=DIRECTION('',(0.,1.,0.));
#506=VECTOR('',#505,5.5);
#507=LINE('',#504,#506);
#508=EDGE_CURVE('',#501,#503,#507,.T.);
#509=ORIENTED_EDGE('',*,*,#508,.T.);
#510=CARTESIAN_POINT('',(-4.5,11.,13.5));
#511=VERTEX_POINT('',#510);
#512=CARTESIAN_POINT('',(4.5,11.,13.5));
#513=DIRECTION('',(-1.,0.,0.));
#514=VECTOR('',#513,9.);
#515=LINE('',#512,#514);
#516=EDGE_CURVE('',#503,#511,#515,.T.);
#517=ORIENTED_EDGE('',*,*,#516,.T.);
#518=CARTESIAN_POINT('',(-4.5,5.5,13.5));
#519=VERTEX_POINT('',#518);
#520=CARTESIAN_POINT('',(-4.5,11.,13.5));
#521=DIRECTION('',(-0.,-1.,-0.));
#522=VECTOR('',#521,5.5);
#523=LINE('',#520,#522);
#524=EDGE_CURVE('',#511,#519,#523,.T.);
#525=ORIENTED_EDGE('',*,*,#524,.T.);
#526=CARTESIAN_POINT('',(-4.5,5.5,13.5));
#527=DIRECTION('',(1.,0.,-0.));
#528=VECTOR('',#527,9.);
#529=LINE('',#526,#528);
#530=EDGE_CURVE('',#519,#501,#529,.T.);
#531=ORIENTED_EDGE('',*,*,#530,.T.);
#532=EDGE_LOOP('',(#509,#517,#525,#531));
#533=FACE_BOUND('',#532,.T.);
#534=ADVANCED_FACE('',(#533),#499,.F.);
#535=CARTESIAN_POINT('',(-7.5,-4.,0.));
#536=DIRECTION('',(1.,0.,0.));
#537=DIRECTION('',(0.,1.,0.));
#538=AXIS2_PLACEMENT_3D('',#535,#536,#537);
#539=PLANE('',#538);
#540=CARTESIAN_POINT('',(-7.5,9.5,-8.));
#541=VERTEX_POINT('',#540);
#542=CARTESIAN_POINT('',(-7.5,9.5,8.));
#543=VERTEX_POINT('',#542);
#544=CARTESIAN_POINT('',(-7.5,9.5,-8.));
#545=DIRECTION('',(0.,-0.,1.));
#546=VECTOR('',#545,16.);
#547=LINE('',#544,#546);
#548=EDGE_CURVE('',#541,#543,#547,.T.);
#549=ORIENTED_EDGE('',*,*,#548,.T.);
#550=CARTESIAN_POINT('',(-7.5,5.5,8.));
#551=VERTEX_POINT('',#550);
#552=CARTESIAN_POINT('',(-7.5,9.5,8.));
#553=DIRECTION('',(0.,-1.,0.));
#554=VECTOR('',#553,4.);
#555=LINE('',#552,#554);
#556=EDGE_CURVE('',#543,#551,#555,.T.);
#557=ORIENTED_EDGE('',*,*,#556,.T.);
#558=CARTESIAN_POINT('',(-7.5,5.5,10.5));
#559=VERTEX_POINT('',#558);
#560=CARTESIAN_POINT('',(-7.5,5.5,8.));
#561=DIRECTION('',(0.,0.,1.));
#562=VECTOR('',#561,2.5);
#563=LINE('',#560,#562);
#564=EDGE_CURVE('',#551,#559,#563,.T.);
#565=ORIENTED_EDGE('',*,*,#564,.T.);
#566=CARTESIAN_POINT('',(-7.5,11.,10.5));
#567=VERTEX_POINT('',#566);
#568=CARTESIAN_POINT('',(-7.5,5.5,10.5));
#569=DIRECTION('',(0.,1.,0.));
#570=VECTOR('',#569,5.5);
#571=LINE('',#568,#570);
#572=EDGE_CURVE('',#559,#567,#571,.T.);
#573=ORIENTED_EDGE('',*,*,#572,.T.);
#574=CARTESIAN_POINT('',(-7.5,11.,-10.5));
#575=VERTEX_POINT('',#574);
#576=CARTESIAN_POINT('',(-7.5,11.,10.5));
#577=DIRECTION('',(0.,0.,-1.));
#578=VECTOR('',#577,21.);
#579=LINE('',#576,#578);
#580=EDGE_CURVE('',#567,#575,#579,.T.);
#581=ORIENTED_EDGE('',*,*,#580,.T.);
#582=CARTESIAN_POINT('',(-7.5,5.5,-10.5));
#583=VERTEX_POINT('',#582);
#584=CARTESIAN_POINT('',(-7.5,11.,-10.5));
#585=DIRECTION('',(-0.,-1.,0.));
#586=VECTOR('',#585,5.5);
#587=LINE('',#584,#586);
#588=EDGE_CURVE('',#575,#583,#587,.T.);
#589=ORIENTED_EDGE('',*,*,#588,.T.);
#590=CARTESIAN_POINT('',(-7.5,5.5,-8.));
#591=VERTEX_POINT('',#590);
#592=CARTESIAN_POINT('',(-7.5,5.5,-10.5));
#593=DIRECTION('',(0.,-0.,1.));
#594=VECTOR('',#593,2.5);
#595=LINE('',#592,#594);
#596=EDGE_CURVE('',#583,#591,#595,.T.);
#597=ORIENTED_EDGE('',*,*,#596,.T.);
#598=CARTESIAN_POINT('',(-7.5,5.5,-8.));
#599=DIRECTION('',(-0.,1.,-0.));
#600=VECTOR('',#599,4.);
#601=LINE('',#598,#600);
#602=EDGE_CURVE('',#591,#541,#601,.T.);
#603=ORIENTED_EDGE('',*,*,#602,.T.);
#604=EDGE_LOOP('',(#549,#557,#565,#573,#581,#589,#597,#603));
#605=FACE_BOUND('',#604,.T.);
#606=ADVANCED_FACE('',(#605),#539,.F.);
#607=CARTESIAN_POINT('',(7.5,-4.,0.));
#608=DIRECTION('',(-1.,0.,0.));
#609=DIRECTION('',(0.,1.,0.));
#610=AXIS2_PLACEMENT_3D('',#607,#608,#609);
#611=PLANE('',#610);
#612=CARTESIAN_POINT('',(7.5,5.5,8.));
#613=VERTEX_POINT('',#612);
#614=CARTESIAN_POINT('',(7.5,9.5,8.));
#615=VERTEX_POINT('',#614);
#616=CARTESIAN_POINT('',(7.5,5.5,8.));
#617=DIRECTION('',(-0.,1.,-0.));
#618=VECTOR('',#617,4.);
#619=LINE('',#616,#618);
#620=EDGE_CURVE('',#613,#615,#619,.T.);
#621=ORIENTED_EDGE('',*,*,#620,.T.);
#622=CARTESIAN_POINT('',(7.5,9.5,-8.));
#623=VERTEX_POINT('',#622);
#624=CARTESIAN_POINT('',(7.5,9.5,8.));
#625=DIRECTION('',(0.,0.,-1.));
#626=VECTOR('',#625,16.);
#627=LINE('',#624,#626);
#628=EDGE_CURVE('',#615,#623,#627,.T.);
#629=ORIENTED_EDGE('',*,*,#628,.T.);
#630=CARTESIAN_POINT('',(7.5,5.5,-8.));
#631=VERTEX_POINT('',#630);
#632=CARTESIAN_POINT('',(7.5,9.5,-8.));
#633=DIRECTION('',(0.,-1.,0.));
#634=VECTOR('',#633,4.);
#635=LINE('',#632,#634);
#636=EDGE_CURVE('',#623,#631,#635,.T.);
#637=ORIENTED_EDGE('',*,*,#636,.T.);
#638=CARTESIAN_POINT('',(7.5,5.5,-10.5));
#639=VERTEX_POINT('',#638);
#640=CARTESIAN_POINT('',(7.5,5.5,-8.));
#641=DIRECTION('',(0.,0.,-1.));
#642=VECTOR('',#641,2.5);
#643=LINE('',#640,#642);
#644=EDGE_CURVE('',#631,#639,#643,.T.);
#645=ORIENTED_EDGE('',*,*,#644,.T.);
#646=CARTESIAN_POINT('',(7.5,11.,-10.5));
#647=VERTEX_POINT('',#646);
#648=CARTESIAN_POINT('',(7.5,5.5,-10.5));
#649=DIRECTION('',(0.,1.,-0.));
#650=VECTOR('',#649,5.5);
#651=LINE('',#648,#650);
#652=EDGE_CURVE('',#639,#647,#651,.T.);
#653=ORIENTED_EDGE('',*,*,#652,.T.);
#654=CARTESIAN_POINT('',(7.5,11.,10.5));
#655=VERTEX_POINT('',#654);
#656=CARTESIAN_POINT('',(7.5,11.,-10.5));
#657=DIRECTION('',(0.,0.,1.));
#658=VECTOR('',#657,21.);
#659=LINE('',#656,#658);
#660=EDGE_CURVE('',#647,#655,#659,.T.);
#661=ORIENTED_EDGE('',*,*,#660,.T.);
#662=CARTESIAN_POINT('',(7.5,5.5,10.5));
#663=VERTEX_POINT('',#662);
#664=CARTESIAN_POINT('',(7.5,11.,10.5));
#665=DIRECTION('',(-0.,-1.,-0.));
#666=VECTOR('',#665,5.5);
#667=LINE('',#664,#666);
#668=EDGE_CURVE('',#655,#663,#667,.T.);
#669=ORIENTED_EDGE('',*,*,#668,.T.);
#670=CARTESIAN_POINT('',(7.5,5.5,10.5));
#671=DIRECTION('',(0.,-0.,-1.));
#672=VECTOR('',#671,2.5);
#673=LINE('',#670,#672);
#674=EDGE_CURVE('',#663,#613,#673,.T.);
#675=ORIENTED_EDGE('',*,*,#674,.T.);
#676=EDGE_LOOP('',(#621,#629,#637,#645,#653,#661,#669,#675));
#677=FACE_BOUND('',#676,.T.);
#678=ADVANCED_FACE('',(#677),#611,.F.);
#679=CARTESIAN_POINT('',(0.,13.,-10.16));
#680=DIRECTION('',(0.,-1.,-0.));
#681=DIRECTION('',(0.,0.,-1.));
#682=AXIS2_PLACEMENT_3D('',#679,#680,#681);
#683=CYLINDRICAL_SURFACE('',#682,1.651);
#684=CARTESIAN_POINT('',(0.,5.,-11.811));
#685=DIRECTION('',(-0.,1.,0.));
#686=VECTOR('',#685,6.5);
#687=LINE('',#684,#686);
#688=EDGE_CURVE('',#328,#475,#687,.T.);
#689=ORIENTED_EDGE('',*,*,#688,.F.);
#690=ORIENTED_EDGE('',*,*,#334,.T.);
#691=ORIENTED_EDGE('',*,*,#688,.T.);
#692=ORIENTED_EDGE('',*,*,#483,.T.);
#693=ORIENTED_EDGE('',*,*,#490,.T.);
#694=EDGE_LOOP('',(#689,#690,#691,#692,#693));
#695=FACE_BOUND('',#694,.T.);
#696=ADVANCED_FACE('',(#695),#683,.F.);
#697=CARTESIAN_POINT('',(0.,13.,10.16));
#698=DIRECTION('',(0.,-1.,-0.));
#699=DIRECTION('',(0.,0.,-1.));
#700=AXIS2_PLACEMENT_3D('',#697,#698,#699);
#701=CYLINDRICAL_SURFACE('',#700,1.651);
#702=CARTESIAN_POINT('',(0.,5.,8.509));
#703=DIRECTION('',(-0.,1.,0.));
#704=VECTOR('',#703,6.5);
#705=LINE('',#702,#704);
#706=EDGE_CURVE('',#103,#455,#705,.T.);
#707=ORIENTED_EDGE('',*,*,#706,.F.);
#708=ORIENTED_EDGE('',*,*,#109,.T.);
#709=ORIENTED_EDGE('',*,*,#706,.T.);
#710=ORIENTED_EDGE('',*,*,#463,.T.);
#711=ORIENTED_EDGE('',*,*,#470,.T.);
#712=EDGE_LOOP('',(#707,#708,#709,#710,#711));
#713=FACE_BOUND('',#712,.T.);
#714=ADVANCED_FACE('',(#713),#701,.F.);
#715=CARTESIAN_POINT('',(4.5,-4.,-10.5));
#716=DIRECTION('',(0.,-1.,0.));
#717=DIRECTION('',(0.,-0.,-1.));
#718=AXIS2_PLACEMENT_3D('',#715,#716,#717);
#719=CYLINDRICAL_SURFACE('',#718,3.);
#720=ORIENTED_EDGE('',*,*,#368,.F.);
#721=CARTESIAN_POINT('',(4.5,11.,-10.5));
#722=DIRECTION('',(-0.,-1.,0.));
#723=DIRECTION('',(0.,0.,1.));
#724=AXIS2_PLACEMENT_3D('',#721,#722,#723);
#725=CIRCLE('',#724,3.);
#726=EDGE_CURVE('',#355,#647,#725,.T.);
#727=ORIENTED_EDGE('',*,*,#726,.T.);
#728=ORIENTED_EDGE('',*,*,#652,.F.);
#729=CARTESIAN_POINT('',(4.5,5.5,-10.5));
#730=DIRECTION('',(-0.,1.,-0.));
#731=DIRECTION('',(0.,-0.,-1.));
#732=AXIS2_PLACEMENT_3D('',#729,#730,#731);
#733=CIRCLE('',#732,3.);
#734=EDGE_CURVE('',#639,#363,#733,.T.);
#735=ORIENTED_EDGE('',*,*,#734,.T.);
#736=EDGE_LOOP('',(#720,#727,#728,#735));
#737=FACE_BOUND('',#736,.T.);
#738=ADVANCED_FACE('',(#737),#719,.T.);
#739=CARTESIAN_POINT('',(-4.5,-4.,10.5));
#740=DIRECTION('',(0.,1.,0.));
#741=DIRECTION('',(0.,-0.,1.));
#742=AXIS2_PLACEMENT_3D('',#739,#740,#741);
#743=CYLINDRICAL_SURFACE('',#742,3.);
#744=ORIENTED_EDGE('',*,*,#524,.F.);
#745=CARTESIAN_POINT('',(-4.5,11.,10.5));
#746=DIRECTION('',(-0.,-1.,-0.));
#747=DIRECTION('',(0.,-0.,1.));
#748=AXIS2_PLACEMENT_3D('',#745,#746,#747);
#749=CIRCLE('',#748,3.);
#750=EDGE_CURVE('',#511,#567,#749,.T.);
#751=ORIENTED_EDGE('',*,*,#750,.T.);
#752=ORIENTED_EDGE('',*,*,#572,.F.);
#753=CARTESIAN_POINT('',(-4.5,5.5,10.5));
#754=DIRECTION('',(0.,1.,0.));
#755=DIRECTION('',(0.,-0.,1.));
#756=AXIS2_PLACEMENT_3D('',#753,#754,#755);
#757=CIRCLE('',#756,3.);
#758=EDGE_CURVE('',#559,#519,#757,.T.);
#759=ORIENTED_EDGE('',*,*,#758,.T.);
#760=EDGE_LOOP('',(#744,#751,#752,#759));
#761=FACE_BOUND('',#760,.T.);
#762=ADVANCED_FACE('',(#761),#743,.T.);
#763=CARTESIAN_POINT('',(4.5,8.25,10.5));
#764=DIRECTION('',(0.,1.,0.));
#765=DIRECTION('',(0.,-0.,1.));
#766=AXIS2_PLACEMENT_3D('',#763,#764,#765);
#767=CYLINDRICAL_SURFACE('',#766,3.);
#768=ORIENTED_EDGE('',*,*,#668,.F.);
#769=CARTESIAN_POINT('',(4.5,11.,10.5));
#770=DIRECTION('',(-0.,-1.,-0.));
#771=DIRECTION('',(0.,-0.,1.));
#772=AXIS2_PLACEMENT_3D('',#769,#770,#771);
#773=CIRCLE('',#772,3.);
#774=EDGE_CURVE('',#655,#503,#773,.T.);
#775=ORIENTED_EDGE('',*,*,#774,.T.);
#776=ORIENTED_EDGE('',*,*,#508,.F.);
#777=CARTESIAN_POINT('',(4.5,5.5,10.5));
#778=DIRECTION('',(0.,1.,0.));
#779=DIRECTION('',(0.,-0.,1.));
#780=AXIS2_PLACEMENT_3D('',#777,#778,#779);
#781=CIRCLE('',#780,3.);
#782=EDGE_CURVE('',#501,#663,#781,.T.);
#783=ORIENTED_EDGE('',*,*,#782,.T.);
#784=EDGE_LOOP('',(#768,#775,#776,#783));
#785=FACE_BOUND('',#784,.T.);
#786=ADVANCED_FACE('',(#785),#767,.T.);
#787=CARTESIAN_POINT('',(-4.5,8.25,-10.5));
#788=DIRECTION('',(0.,-1.,0.));
#789=DIRECTION('',(0.,-0.,-1.));
#790=AXIS2_PLACEMENT_3D('',#787,#788,#789);
#791=CYLINDRICAL_SURFACE('',#790,3.);
#792=ORIENTED_EDGE('',*,*,#588,.F.);
#793=CARTESIAN_POINT('',(-4.5,11.,-10.5));
#794=DIRECTION('',(-0.,-1.,0.));
#795=DIRECTION('',(0.,0.,1.));
#796=AXIS2_PLACEMENT_3D('',#793,#794,#795);
#797=CIRCLE('',#796,3.);
#798=EDGE_CURVE('',#575,#347,#797,.T.);
#799=ORIENTED_EDGE('',*,*,#798,.T.);
#800=ORIENTED_EDGE('',*,*,#352,.F.);
#801=CARTESIAN_POINT('',(-4.5,5.5,-10.5));
#802=DIRECTION('',(-0.,1.,-0.));
#803=DIRECTION('',(0.,-0.,-1.));
#804=AXIS2_PLACEMENT_3D('',#801,#802,#803);
#805=CIRCLE('',#804,3.);
#806=EDGE_CURVE('',#345,#583,#805,.T.);
#807=ORIENTED_EDGE('',*,*,#806,.T.);
#808=EDGE_LOOP('',(#792,#799,#800,#807));
#809=FACE_BOUND('',#808,.T.);
#810=ADVANCED_FACE('',(#809),#791,.T.);
#811=CARTESIAN_POINT('',(6.5,7.,8.));
#812=DIRECTION('',(0.,-1.,0.));
#813=DIRECTION('',(0.,0.,-1.));
#814=AXIS2_PLACEMENT_3D('',#811,#812,#813);
#815=CYLINDRICAL_SURFACE('',#814,1.);
#816=ORIENTED_EDGE('',*,*,#620,.F.);
#817=CARTESIAN_POINT('',(6.5,5.5,8.));
#818=DIRECTION('',(0.,1.,0.));
#819=DIRECTION('',(0.,-0.,1.));
#820=AXIS2_PLACEMENT_3D('',#817,#818,#819);
#821=CIRCLE('',#820,1.);
#822=EDGE_CURVE('',#613,#122,#821,.T.);
#823=ORIENTED_EDGE('',*,*,#822,.T.);
#824=ORIENTED_EDGE('',*,*,#127,.F.);
#825=ORIENTED_EDGE('',*,*,#215,.F.);
#826=CARTESIAN_POINT('',(6.5,8.5,8.));
#827=DIRECTION('',(0.707106781,-0.707106781,-0.));
#828=DIRECTION('',(-0.707106781,-0.707106781,0.));
#829=AXIS2_PLACEMENT_3D('',#826,#827,#828);
#830=ELLIPSE('',#829,1.414213562,1.);
#831=EDGE_CURVE('',#203,#615,#830,.T.);
#832=ORIENTED_EDGE('',*,*,#831,.T.);
#833=EDGE_LOOP('',(#816,#823,#824,#825,#832));
#834=FACE_BOUND('',#833,.T.);
#835=ADVANCED_FACE('',(#834),#815,.T.);
#836=CARTESIAN_POINT('',(-6.5,7.,-8.));
#837=DIRECTION('',(0.,1.,0.));
#838=DIRECTION('',(0.,-0.,1.));
#839=AXIS2_PLACEMENT_3D('',#836,#837,#838);
#840=CYLINDRICAL_SURFACE('',#839,1.);
#841=ORIENTED_EDGE('',*,*,#602,.F.);
#842=CARTESIAN_POINT('',(-6.5,5.5,-8.));
#843=DIRECTION('',(-0.,1.,-0.));
#844=DIRECTION('',(0.,0.,-1.));
#845=AXIS2_PLACEMENT_3D('',#842,#843,#844);
#846=CIRCLE('',#845,1.);
#847=EDGE_CURVE('',#591,#227,#846,.T.);
#848=ORIENTED_EDGE('',*,*,#847,.T.);
#849=ORIENTED_EDGE('',*,*,#232,.F.);
#850=ORIENTED_EDGE('',*,*,#183,.F.);
#851=CARTESIAN_POINT('',(-6.5,8.5,-8.));
#852=DIRECTION('',(-0.707106781,-0.707106781,-0.));
#853=DIRECTION('',(-0.707106781,0.707106781,-0.));
#854=AXIS2_PLACEMENT_3D('',#851,#852,#853);
#855=ELLIPSE('',#854,1.414213562,1.);
#856=EDGE_CURVE('',#169,#541,#855,.T.);
#857=ORIENTED_EDGE('',*,*,#856,.T.);
#858=EDGE_LOOP('',(#841,#848,#849,#850,#857));
#859=FACE_BOUND('',#858,.T.);
#860=ADVANCED_FACE('',(#859),#840,.T.);
#861=CARTESIAN_POINT('',(6.5,-4.,-8.));
#862=DIRECTION('',(0.,1.,0.));
#863=DIRECTION('',(0.,-0.,1.));
#864=AXIS2_PLACEMENT_3D('',#861,#862,#863);
#865=CYLINDRICAL_SURFACE('',#864,1.);
#866=ORIENTED_EDGE('',*,*,#246,.F.);
#867=CARTESIAN_POINT('',(6.5,5.5,-8.));
#868=DIRECTION('',(-0.,1.,-0.));
#869=DIRECTION('',(0.,0.,-1.));
#870=AXIS2_PLACEMENT_3D('',#867,#868,#869);
#871=CIRCLE('',#870,1.);
#872=EDGE_CURVE('',#235,#631,#871,.T.);
#873=ORIENTED_EDGE('',*,*,#872,.T.);
#874=ORIENTED_EDGE('',*,*,#636,.F.);
#875=CARTESIAN_POINT('',(6.5,8.5,-8.));
#876=DIRECTION('',(0.707106781,-0.707106781,-0.));
#877=DIRECTION('',(0.707106781,0.707106781,-0.));
#878=AXIS2_PLACEMENT_3D('',#875,#876,#877);
#879=ELLIPSE('',#878,1.414213562,1.);
#880=EDGE_CURVE('',#623,#194,#879,.T.);
#881=ORIENTED_EDGE('',*,*,#880,.T.);
#882=ORIENTED_EDGE('',*,*,#200,.F.);
#883=EDGE_LOOP('',(#866,#873,#874,#881,#882));
#884=FACE_BOUND('',#883,.T.);
#885=ADVANCED_FACE('',(#884),#865,.T.);
#886=CARTESIAN_POINT('',(-6.5,-4.,8.));
#887=DIRECTION('',(0.,-1.,0.));
#888=DIRECTION('',(0.,0.,-1.));
#889=AXIS2_PLACEMENT_3D('',#886,#887,#888);
#890=CYLINDRICAL_SURFACE('',#889,1.);
#891=ORIENTED_EDGE('',*,*,#143,.F.);
#892=CARTESIAN_POINT('',(-6.5,5.5,8.));
#893=DIRECTION('',(0.,1.,0.));
#894=DIRECTION('',(0.,-0.,1.));
#895=AXIS2_PLACEMENT_3D('',#892,#893,#894);
#896=CIRCLE('',#895,1.);
#897=EDGE_CURVE('',#130,#551,#896,.T.);
#898=ORIENTED_EDGE('',*,*,#897,.T.);
#899=ORIENTED_EDGE('',*,*,#556,.F.);
#900=CARTESIAN_POINT('',(-6.5,8.5,8.));
#901=DIRECTION('',(-0.707106781,-0.707106781,-0.));
#902=DIRECTION('',(0.707106781,-0.707106781,0.));
#903=AXIS2_PLACEMENT_3D('',#900,#901,#902);
#904=ELLIPSE('',#903,1.414213562,1.);
#905=EDGE_CURVE('',#543,#160,#904,.T.);
#906=ORIENTED_EDGE('',*,*,#905,.T.);
#907=ORIENTED_EDGE('',*,*,#166,.F.);
#908=EDGE_LOOP('',(#891,#898,#899,#906,#907));
#909=FACE_BOUND('',#908,.T.);
#910=ADVANCED_FACE('',(#909),#890,.T.);
#911=CARTESIAN_POINT('',(-7.5,9.5,0.));
#912=DIRECTION('',(0.707106781,0.707106781,0.));
#913=DIRECTION('',(0.,-0.,1.));
#914=AXIS2_PLACEMENT_3D('',#911,#912,#913);
#915=PLANE('',#914);
#916=ORIENTED_EDGE('',*,*,#856,.F.);
#917=ORIENTED_EDGE('',*,*,#174,.F.);
#918=ORIENTED_EDGE('',*,*,#905,.F.);
#919=ORIENTED_EDGE('',*,*,#548,.F.);
#920=EDGE_LOOP('',(#916,#917,#918,#919));
#921=FACE_BOUND('',#920,.T.);
#922=ADVANCED_FACE('',(#921),#915,.F.);
#923=CARTESIAN_POINT('',(7.,9.,0.));
#924=DIRECTION('',(-0.707106781,0.707106781,0.));
#925=DIRECTION('',(0.,-0.,1.));
#926=AXIS2_PLACEMENT_3D('',#923,#924,#925);
#927=PLANE('',#926);
#928=ORIENTED_EDGE('',*,*,#880,.F.);
#929=ORIENTED_EDGE('',*,*,#628,.F.);
#930=ORIENTED_EDGE('',*,*,#831,.F.);
#931=ORIENTED_EDGE('',*,*,#208,.F.);
#932=EDGE_LOOP('',(#928,#929,#930,#931));
#933=FACE_BOUND('',#932,.T.);
#934=ADVANCED_FACE('',(#933),#927,.F.);
#935=CARTESIAN_POINT('',(-7.,11.5,0.));
#936=DIRECTION('',(-0.707106781,0.707106781,0.));
#937=DIRECTION('',(0.,0.,-1.));
#938=AXIS2_PLACEMENT_3D('',#935,#936,#937);
#939=PLANE('',#938);
#940=CARTESIAN_POINT('',(-7.,11.5,10.5));
#941=DIRECTION('',(-0.707106781,-0.707106781,0.));
#942=VECTOR('',#941,0.707106781);
#943=LINE('',#940,#942);
#944=EDGE_CURVE('',#430,#567,#943,.T.);
#945=ORIENTED_EDGE('',*,*,#944,.F.);
#946=ORIENTED_EDGE('',*,*,#435,.F.);
#947=CARTESIAN_POINT('',(-7.5,11.,-10.5));
#948=DIRECTION('',(0.707106781,0.707106781,0.));
#949=VECTOR('',#948,0.707106781);
#950=LINE('',#947,#949);
#951=EDGE_CURVE('',#575,#421,#950,.T.);
#952=ORIENTED_EDGE('',*,*,#951,.F.);
#953=ORIENTED_EDGE('',*,*,#580,.F.);
#954=EDGE_LOOP('',(#945,#946,#952,#953));
#955=FACE_BOUND('',#954,.T.);
#956=ADVANCED_FACE('',(#955),#939,.T.);
#957=CARTESIAN_POINT('',(-4.5,11.5,-10.5));
#958=DIRECTION('',(0.,-1.,0.));
#959=DIRECTION('',(0.,-0.,-1.));
#960=AXIS2_PLACEMENT_3D('',#957,#958,#959);
#961=CONICAL_SURFACE('',#960,2.5,45.);
#962=ORIENTED_EDGE('',*,*,#951,.T.);
#963=ORIENTED_EDGE('',*,*,#427,.F.);
#964=CARTESIAN_POINT('',(-4.5,11.,-13.5));
#965=DIRECTION('',(0.,0.707106781,0.707106781));
#966=VECTOR('',#965,0.707106781);
#967=LINE('',#964,#966);
#968=EDGE_CURVE('',#347,#413,#967,.T.);
#969=ORIENTED_EDGE('',*,*,#968,.F.);
#970=ORIENTED_EDGE('',*,*,#798,.F.);
#971=EDGE_LOOP('',(#962,#963,#969,#970));
#972=FACE_BOUND('',#971,.T.);
#973=ADVANCED_FACE('',(#972),#961,.T.);
#974=CARTESIAN_POINT('',(-4.5,11.5,10.5));
#975=DIRECTION('',(0.,-1.,0.));
#976=DIRECTION('',(0.,0.,-1.));
#977=AXIS2_PLACEMENT_3D('',#974,#975,#976);
#978=CONICAL_SURFACE('',#977,2.5,45.);
#979=ORIENTED_EDGE('',*,*,#944,.T.);
#980=ORIENTED_EDGE('',*,*,#750,.F.);
#981=CARTESIAN_POINT('',(-4.5,11.5,13.));
#982=DIRECTION('',(0.,-0.707106781,0.707106781));
#983=VECTOR('',#982,0.707106781);
#984=LINE('',#981,#983);
#985=EDGE_CURVE('',#438,#511,#984,.T.);
#986=ORIENTED_EDGE('',*,*,#985,.F.);
#987=ORIENTED_EDGE('',*,*,#444,.F.);
#988=EDGE_LOOP('',(#979,#980,#986,#987));
#989=FACE_BOUND('',#988,.T.);
#990=ADVANCED_FACE('',(#989),#978,.T.);
#991=CARTESIAN_POINT('',(-7.5,11.,-13.5));
#992=DIRECTION('',(0.,-0.707106781,0.707106781));
#993=DIRECTION('',(1.,0.,0.));
#994=AXIS2_PLACEMENT_3D('',#991,#992,#993);
#995=PLANE('',#994);
#996=ORIENTED_EDGE('',*,*,#968,.T.);
#997=ORIENTED_EDGE('',*,*,#418,.F.);
#998=CARTESIAN_POINT('',(4.5,11.,-13.5));
#999=DIRECTION('',(0.,0.707106781,0.707106781));
#1000=VECTOR('',#999,0.707106781);
#1001=LINE('',#998,#1000);
#1002=EDGE_CURVE('',#355,#404,#1001,.T.);
#1003=ORIENTED_EDGE('',*,*,#1002,.F.);
#1004=ORIENTED_EDGE('',*,*,#360,.F.);
#1005=EDGE_LOOP('',(#996,#997,#1003,#1004));
#1006=FACE_BOUND('',#1005,.T.);
#1007=ADVANCED_FACE('',(#1006),#995,.F.);
#1008=CARTESIAN_POINT('',(-7.5,11.5,13.));
#1009=DIRECTION('',(0.,0.707106781,0.707106781));
#1010=DIRECTION('',(-1.,0.,0.));
#1011=AXIS2_PLACEMENT_3D('',#1008,#1009,#1010);
#1012=PLANE('',#1011);
#1013=ORIENTED_EDGE('',*,*,#985,.T.);
#1014=ORIENTED_EDGE('',*,*,#516,.F.);
#1015=CARTESIAN_POINT('',(4.5,11.5,13.));
#1016=DIRECTION('',(0.,-0.707106781,0.707106781));
#1017=VECTOR('',#1016,0.707106781);
#1018=LINE('',#1015,#1017);
#1019=EDGE_CURVE('',#385,#503,#1018,.T.);
#1020=ORIENTED_EDGE('',*,*,#1019,.F.);
#1021=ORIENTED_EDGE('',*,*,#450,.F.);
#1022=EDGE_LOOP('',(#1013,#1014,#1020,#1021));
#1023=FACE_BOUND('',#1022,.T.);
#1024=ADVANCED_FACE('',(#1023),#1012,.T.);
#1025=CARTESIAN_POINT('',(4.5,11.5,-10.5));
#1026=DIRECTION('',(0.,-1.,0.));
#1027=DIRECTION('',(0.,-0.,-1.));
#1028=AXIS2_PLACEMENT_3D('',#1025,#1026,#1027);
#1029=CONICAL_SURFACE('',#1028,2.5,45.);
#1030=ORIENTED_EDGE('',*,*,#1002,.T.);
#1031=ORIENTED_EDGE('',*,*,#410,.F.);
#1032=CARTESIAN_POINT('',(7.5,11.,-10.5));
#1033=DIRECTION('',(-0.707106781,0.707106781,0.));
#1034=VECTOR('',#1033,0.707106781);
#1035=LINE('',#1032,#1034);
#1036=EDGE_CURVE('',#647,#396,#1035,.T.);
#1037=ORIENTED_EDGE('',*,*,#1036,.F.);
#1038=ORIENTED_EDGE('',*,*,#726,.F.);
#1039=EDGE_LOOP('',(#1030,#1031,#1037,#1038));
#1040=FACE_BOUND('',#1039,.T.);
#1041=ADVANCED_FACE('',(#1040),#1029,.T.);
#1042=CARTESIAN_POINT('',(4.5,11.5,10.5));
#1043=DIRECTION('',(0.,-1.,0.));
#1044=DIRECTION('',(0.,0.,-1.));
#1045=AXIS2_PLACEMENT_3D('',#1042,#1043,#1044);
#1046=CONICAL_SURFACE('',#1045,2.5,45.);
#1047=ORIENTED_EDGE('',*,*,#1019,.T.);
#1048=ORIENTED_EDGE('',*,*,#774,.F.);
#1049=CARTESIAN_POINT('',(7.,11.5,10.5));
#1050=DIRECTION('',(0.707106781,-0.707106781,0.));
#1051=VECTOR('',#1050,0.707106781);
#1052=LINE('',#1049,#1051);
#1053=EDGE_CURVE('',#387,#655,#1052,.T.);
#1054=ORIENTED_EDGE('',*,*,#1053,.F.);
#1055=ORIENTED_EDGE('',*,*,#393,.F.);
#1056=EDGE_LOOP('',(#1047,#1048,#1054,#1055));
#1057=FACE_BOUND('',#1056,.T.);
#1058=ADVANCED_FACE('',(#1057),#1046,.T.);
#1059=CARTESIAN_POINT('',(7.5,11.,0.));
#1060=DIRECTION('',(0.707106781,0.707106781,0.));
#1061=DIRECTION('',(0.,0.,-1.));
#1062=AXIS2_PLACEMENT_3D('',#1059,#1060,#1061);
#1063=PLANE('',#1062);
#1064=ORIENTED_EDGE('',*,*,#1036,.T.);
#1065=ORIENTED_EDGE('',*,*,#401,.F.);
#1066=ORIENTED_EDGE('',*,*,#1053,.T.);
#1067=ORIENTED_EDGE('',*,*,#660,.F.);
#1068=EDGE_LOOP('',(#1064,#1065,#1066,#1067));
#1069=FACE_BOUND('',#1068,.T.);
#1070=ADVANCED_FACE('',(#1069),#1063,.T.);
#1071=CARTESIAN_POINT('',(-7.5,5.5,13.5));
#1072=DIRECTION('',(0.,0.707106781,-0.707106781));
#1073=DIRECTION('',(1.,0.,0.));
#1074=AXIS2_PLACEMENT_3D('',#1071,#1072,#1073);
#1075=PLANE('',#1074);
#1076=CARTESIAN_POINT('',(4.5,5.5,13.5));
#1077=DIRECTION('',(0.,-0.707106781,-0.707106781));
#1078=VECTOR('',#1077,0.707106781);
#1079=LINE('',#1076,#1078);
#1080=EDGE_CURVE('',#501,#69,#1079,.T.);
#1081=ORIENTED_EDGE('',*,*,#1080,.F.);
#1082=ORIENTED_EDGE('',*,*,#530,.F.);
#1083=CARTESIAN_POINT('',(-4.5,5.,13.));
#1084=DIRECTION('',(0.,0.707106781,0.707106781));
#1085=VECTOR('',#1084,0.707106781);
#1086=LINE('',#1083,#1085);
#1087=EDGE_CURVE('',#78,#519,#1086,.T.);
#1088=ORIENTED_EDGE('',*,*,#1087,.F.);
#1089=ORIENTED_EDGE('',*,*,#83,.F.);
#1090=EDGE_LOOP('',(#1081,#1082,#1088,#1089));
#1091=FACE_BOUND('',#1090,.T.);
#1092=ADVANCED_FACE('',(#1091),#1075,.F.);
#1093=CARTESIAN_POINT('',(-4.5,5.,10.5));
#1094=DIRECTION('',(0.,1.,0.));
#1095=DIRECTION('',(0.,-0.,1.));
#1096=AXIS2_PLACEMENT_3D('',#1093,#1094,#1095);
#1097=CONICAL_SURFACE('',#1096,2.5,45.);
#1098=ORIENTED_EDGE('',*,*,#1087,.T.);
#1099=ORIENTED_EDGE('',*,*,#758,.F.);
#1100=CARTESIAN_POINT('',(-7.,5.,10.5));
#1101=DIRECTION('',(-0.707106781,0.707106781,0.));
#1102=VECTOR('',#1101,0.707106781);
#1103=LINE('',#1100,#1102);
#1104=EDGE_CURVE('',#86,#559,#1103,.T.);
#1105=ORIENTED_EDGE('',*,*,#1104,.F.);
#1106=ORIENTED_EDGE('',*,*,#92,.F.);
#1107=EDGE_LOOP('',(#1098,#1099,#1105,#1106));
#1108=FACE_BOUND('',#1107,.T.);
#1109=ADVANCED_FACE('',(#1108),#1097,.T.);
#1110=CARTESIAN_POINT('',(4.5,5.,10.5));
#1111=DIRECTION('',(0.,1.,0.));
#1112=DIRECTION('',(0.,-0.,1.));
#1113=AXIS2_PLACEMENT_3D('',#1110,#1111,#1112);
#1114=CONICAL_SURFACE('',#1113,2.5,45.);
#1115=ORIENTED_EDGE('',*,*,#1080,.T.);
#1116=ORIENTED_EDGE('',*,*,#75,.F.);
#1117=CARTESIAN_POINT('',(7.5,5.5,10.5));
#1118=DIRECTION('',(-0.707106781,-0.707106781,0.));
#1119=VECTOR('',#1118,0.707106781);
#1120=LINE('',#1117,#1119);
#1121=EDGE_CURVE('',#663,#61,#1120,.T.);
#1122=ORIENTED_EDGE('',*,*,#1121,.F.);
#1123=ORIENTED_EDGE('',*,*,#782,.F.);
#1124=EDGE_LOOP('',(#1115,#1116,#1122,#1123));
#1125=FACE_BOUND('',#1124,.T.);
#1126=ADVANCED_FACE('',(#1125),#1114,.T.);
#1127=CARTESIAN_POINT('',(-7.5,5.5,-0.));
#1128=DIRECTION('',(0.707106781,0.707106781,-0.));
#1129=DIRECTION('',(0.,0.,1.));
#1130=AXIS2_PLACEMENT_3D('',#1127,#1128,#1129);
#1131=PLANE('',#1130);
#1132=ORIENTED_EDGE('',*,*,#1104,.T.);
#1133=ORIENTED_EDGE('',*,*,#564,.F.);
#1134=CARTESIAN_POINT('',(-7.,5.,8.));
#1135=DIRECTION('',(-0.707106781,0.707106781,0.));
#1136=VECTOR('',#1135,0.707106781);
#1137=LINE('',#1134,#1136);
#1138=EDGE_CURVE('',#33,#551,#1137,.T.);
#1139=ORIENTED_EDGE('',*,*,#1138,.F.);
#1140=ORIENTED_EDGE('',*,*,#98,.F.);
#1141=EDGE_LOOP('',(#1132,#1133,#1139,#1140));
#1142=FACE_BOUND('',#1141,.T.);
#1143=ADVANCED_FACE('',(#1142),#1131,.F.);
#1144=CARTESIAN_POINT('',(7.,5.,10.25));
#1145=DIRECTION('',(-0.707106781,0.707106781,-0.));
#1146=DIRECTION('',(0.,0.,1.));
#1147=AXIS2_PLACEMENT_3D('',#1144,#1145,#1146);
#1148=PLANE('',#1147);
#1149=ORIENTED_EDGE('',*,*,#1121,.T.);
#1150=ORIENTED_EDGE('',*,*,#66,.F.);
#1151=CARTESIAN_POINT('',(7.5,5.5,8.));
#1152=DIRECTION('',(-0.707106781,-0.707106781,0.));
#1153=VECTOR('',#1152,0.707106781);
#1154=LINE('',#1151,#1153);
#1155=EDGE_CURVE('',#613,#52,#1154,.T.);
#1156=ORIENTED_EDGE('',*,*,#1155,.F.);
#1157=ORIENTED_EDGE('',*,*,#674,.F.);
#1158=EDGE_LOOP('',(#1149,#1150,#1156,#1157));
#1159=FACE_BOUND('',#1158,.T.);
#1160=ADVANCED_FACE('',(#1159),#1148,.F.);
#1161=CARTESIAN_POINT('',(-6.5,5.,8.));
#1162=DIRECTION('',(0.,1.,0.));
#1163=DIRECTION('',(0.,-0.,1.));
#1164=AXIS2_PLACEMENT_3D('',#1161,#1162,#1163);
#1165=CONICAL_SURFACE('',#1164,0.5,45.);
#1166=ORIENTED_EDGE('',*,*,#1138,.T.);
#1167=ORIENTED_EDGE('',*,*,#897,.F.);
#1168=CARTESIAN_POINT('',(-6.5,5.,7.5));
#1169=DIRECTION('',(0.,0.707106781,-0.707106781));
#1170=VECTOR('',#1169,0.707106781);
#1171=LINE('',#1168,#1170);
#1172=EDGE_CURVE('',#35,#130,#1171,.T.);
#1173=ORIENTED_EDGE('',*,*,#1172,.F.);
#1174=ORIENTED_EDGE('',*,*,#41,.F.);
#1175=EDGE_LOOP('',(#1166,#1167,#1173,#1174));
#1176=FACE_BOUND('',#1175,.T.);
#1177=ADVANCED_FACE('',(#1176),#1165,.T.);
#1178=CARTESIAN_POINT('',(6.5,5.,8.));
#1179=DIRECTION('',(0.,1.,0.));
#1180=DIRECTION('',(0.,-0.,1.));
#1181=AXIS2_PLACEMENT_3D('',#1178,#1179,#1180);
#1182=CONICAL_SURFACE('',#1181,0.5,45.);
#1183=ORIENTED_EDGE('',*,*,#1155,.T.);
#1184=ORIENTED_EDGE('',*,*,#58,.F.);
#1185=CARTESIAN_POINT('',(6.5,5.5,7.));
#1186=DIRECTION('',(0.,-0.707106781,0.707106781));
#1187=VECTOR('',#1186,0.707106781);
#1188=LINE('',#1185,#1187);
#1189=EDGE_CURVE('',#122,#44,#1188,.T.);
#1190=ORIENTED_EDGE('',*,*,#1189,.F.);
#1191=ORIENTED_EDGE('',*,*,#822,.F.);
#1192=EDGE_LOOP('',(#1183,#1184,#1190,#1191));
#1193=FACE_BOUND('',#1192,.T.);
#1194=ADVANCED_FACE('',(#1193),#1182,.T.);
#1195=CARTESIAN_POINT('',(-7.5,5.,7.5));
#1196=DIRECTION('',(0.,0.707106781,0.707106781));
#1197=DIRECTION('',(1.,0.,0.));
#1198=AXIS2_PLACEMENT_3D('',#1195,#1196,#1197);
#1199=PLANE('',#1198);
#1200=ORIENTED_EDGE('',*,*,#1172,.T.);
#1201=ORIENTED_EDGE('',*,*,#135,.F.);
#1202=ORIENTED_EDGE('',*,*,#1189,.T.);
#1203=ORIENTED_EDGE('',*,*,#49,.F.);
#1204=EDGE_LOOP('',(#1200,#1201,#1202,#1203));
#1205=FACE_BOUND('',#1204,.T.);
#1206=ADVANCED_FACE('',(#1205),#1199,.F.);
#1207=CARTESIAN_POINT('',(-7.5,5.,-13.));
#1208=DIRECTION('',(0.,0.707106781,0.707106781));
#1209=DIRECTION('',(1.,0.,0.));
#1210=AXIS2_PLACEMENT_3D('',#1207,#1208,#1209);
#1211=PLANE('',#1210);
#1212=CARTESIAN_POINT('',(4.5,5.,-13.));
#1213=DIRECTION('',(0.,0.707106781,-0.707106781));
#1214=VECTOR('',#1213,0.707106781);
#1215=LINE('',#1212,#1214);
#1216=EDGE_CURVE('',#303,#363,#1215,.T.);
#1217=ORIENTED_EDGE('',*,*,#1216,.F.);
#1218=ORIENTED_EDGE('',*,*,#308,.F.);
#1219=CARTESIAN_POINT('',(-4.5,5.5,-13.5));
#1220=DIRECTION('',(0.,-0.707106781,0.707106781));
#1221=VECTOR('',#1220,0.707106781);
#1222=LINE('',#1219,#1221);
#1223=EDGE_CURVE('',#345,#294,#1222,.T.);
#1224=ORIENTED_EDGE('',*,*,#1223,.F.);
#1225=ORIENTED_EDGE('',*,*,#374,.F.);
#1226=EDGE_LOOP('',(#1217,#1218,#1224,#1225));
#1227=FACE_BOUND('',#1226,.T.);
#1228=ADVANCED_FACE('',(#1227),#1211,.F.);
#1229=CARTESIAN_POINT('',(-4.5,5.,-10.5));
#1230=DIRECTION('',(0.,1.,-0.));
#1231=DIRECTION('',(0.,0.,1.));
#1232=AXIS2_PLACEMENT_3D('',#1229,#1230,#1231);
#1233=CONICAL_SURFACE('',#1232,2.5,45.);
#1234=ORIENTED_EDGE('',*,*,#1223,.T.);
#1235=ORIENTED_EDGE('',*,*,#300,.F.);
#1236=CARTESIAN_POINT('',(-7.5,5.5,-10.5));
#1237=DIRECTION('',(0.707106781,-0.707106781,0.));
#1238=VECTOR('',#1237,0.707106781);
#1239=LINE('',#1236,#1238);
#1240=EDGE_CURVE('',#583,#286,#1239,.T.);
#1241=ORIENTED_EDGE('',*,*,#1240,.F.);
#1242=ORIENTED_EDGE('',*,*,#806,.F.);
#1243=EDGE_LOOP('',(#1234,#1235,#1241,#1242));
#1244=FACE_BOUND('',#1243,.T.);
#1245=ADVANCED_FACE('',(#1244),#1233,.T.);
#1246=CARTESIAN_POINT('',(4.5,5.,-10.5));
#1247=DIRECTION('',(0.,1.,-0.));
#1248=DIRECTION('',(0.,0.,1.));
#1249=AXIS2_PLACEMENT_3D('',#1246,#1247,#1248);
#1250=CONICAL_SURFACE('',#1249,2.5,45.);
#1251=ORIENTED_EDGE('',*,*,#1216,.T.);
#1252=ORIENTED_EDGE('',*,*,#734,.F.);
#1253=CARTESIAN_POINT('',(7.,5.,-10.5));
#1254=DIRECTION('',(0.707106781,0.707106781,0.));
#1255=VECTOR('',#1254,0.707106781);
#1256=LINE('',#1253,#1255);
#1257=EDGE_CURVE('',#311,#639,#1256,.T.);
#1258=ORIENTED_EDGE('',*,*,#1257,.F.);
#1259=ORIENTED_EDGE('',*,*,#317,.F.);
#1260=EDGE_LOOP('',(#1251,#1252,#1258,#1259));
#1261=FACE_BOUND('',#1260,.T.);
#1262=ADVANCED_FACE('',(#1261),#1250,.T.);
#1263=CARTESIAN_POINT('',(-7.,5.,-10.25));
#1264=DIRECTION('',(-0.707106781,-0.707106781,-0.));
#1265=DIRECTION('',(0.,-0.,1.));
#1266=AXIS2_PLACEMENT_3D('',#1263,#1264,#1265);
#1267=PLANE('',#1266);
#1268=ORIENTED_EDGE('',*,*,#1240,.T.);
#1269=ORIENTED_EDGE('',*,*,#291,.F.);
#1270=CARTESIAN_POINT('',(-7.5,5.5,-8.));
#1271=DIRECTION('',(0.707106781,-0.707106781,0.));
#1272=VECTOR('',#1271,0.707106781);
#1273=LINE('',#1270,#1272);
#1274=EDGE_CURVE('',#591,#277,#1273,.T.);
#1275=ORIENTED_EDGE('',*,*,#1274,.F.);
#1276=ORIENTED_EDGE('',*,*,#596,.F.);
#1277=EDGE_LOOP('',(#1268,#1269,#1275,#1276));
#1278=FACE_BOUND('',#1277,.T.);
#1279=ADVANCED_FACE('',(#1278),#1267,.T.);
#1280=CARTESIAN_POINT('',(7.5,5.5,0.));
#1281=DIRECTION('',(0.707106781,-0.707106781,-0.));
#1282=DIRECTION('',(-0.,-0.,1.));
#1283=AXIS2_PLACEMENT_3D('',#1280,#1281,#1282);
#1284=PLANE('',#1283);
#1285=ORIENTED_EDGE('',*,*,#1257,.T.);
#1286=ORIENTED_EDGE('',*,*,#644,.F.);
#1287=CARTESIAN_POINT('',(7.,5.,-8.));
#1288=DIRECTION('',(0.707106781,0.707106781,0.));
#1289=VECTOR('',#1288,0.707106781);
#1290=LINE('',#1287,#1289);
#1291=EDGE_CURVE('',#258,#631,#1290,.T.);
#1292=ORIENTED_EDGE('',*,*,#1291,.F.);
#1293=ORIENTED_EDGE('',*,*,#323,.F.);
#1294=EDGE_LOOP('',(#1285,#1286,#1292,#1293));
#1295=FACE_BOUND('',#1294,.T.);
#1296=ADVANCED_FACE('',(#1295),#1284,.T.);
#1297=CARTESIAN_POINT('',(-6.5,5.,-8.));
#1298=DIRECTION('',(0.,1.,0.));
#1299=DIRECTION('',(0.,-0.,1.));
#1300=AXIS2_PLACEMENT_3D('',#1297,#1298,#1299);
#1301=CONICAL_SURFACE('',#1300,0.5,45.);
#1302=ORIENTED_EDGE('',*,*,#1274,.T.);
#1303=ORIENTED_EDGE('',*,*,#283,.F.);
#1304=CARTESIAN_POINT('',(-6.5,5.5,-7.));
#1305=DIRECTION('',(0.,-0.707106781,-0.707106781));
#1306=VECTOR('',#1305,0.707106781);
#1307=LINE('',#1304,#1306);
#1308=EDGE_CURVE('',#227,#269,#1307,.T.);
#1309=ORIENTED_EDGE('',*,*,#1308,.F.);
#1310=ORIENTED_EDGE('',*,*,#847,.F.);
#1311=EDGE_LOOP('',(#1302,#1303,#1309,#1310));
#1312=FACE_BOUND('',#1311,.T.);
#1313=ADVANCED_FACE('',(#1312),#1301,.T.);
#1314=CARTESIAN_POINT('',(6.5,5.,-8.));
#1315=DIRECTION('',(0.,1.,0.));
#1316=DIRECTION('',(0.,-0.,1.));
#1317=AXIS2_PLACEMENT_3D('',#1314,#1315,#1316);
#1318=CONICAL_SURFACE('',#1317,0.5,45.);
#1319=ORIENTED_EDGE('',*,*,#1291,.T.);
#1320=ORIENTED_EDGE('',*,*,#872,.F.);
#1321=CARTESIAN_POINT('',(6.5,5.,-7.5));
#1322=DIRECTION('',(0.,0.707106781,0.707106781));
#1323=VECTOR('',#1322,0.707106781);
#1324=LINE('',#1321,#1323);
#1325=EDGE_CURVE('',#260,#235,#1324,.T.);
#1326=ORIENTED_EDGE('',*,*,#1325,.F.);
#1327=ORIENTED_EDGE('',*,*,#266,.F.);
#1328=EDGE_LOOP('',(#1319,#1320,#1326,#1327));
#1329=FACE_BOUND('',#1328,.T.);
#1330=ADVANCED_FACE('',(#1329),#1318,.T.);
#1331=CARTESIAN_POINT('',(-7.5,5.5,-7.));
#1332=DIRECTION('',(0.,0.707106781,-0.707106781));
#1333=DIRECTION('',(1.,0.,0.));
#1334=AXIS2_PLACEMENT_3D('',#1331,#1332,#1333);
#1335=PLANE('',#1334);
#1336=ORIENTED_EDGE('',*,*,#1308,.T.);
#1337=ORIENTED_EDGE('',*,*,#274,.F.);
#1338=ORIENTED_EDGE('',*,*,#1325,.T.);
#1339=ORIENTED_EDGE('',*,*,#240,.F.);
#1340=EDGE_LOOP('',(#1336,#1337,#1338,#1339));
#1341=FACE_BOUND('',#1340,.T.);
#1342=ADVANCED_FACE('',(#1341),#1335,.F.);
#1343=CLOSED_SHELL('',(#113,#153,#220,#251,#338,#378,#494,#534,#606,#678,#696,#714,#738,#762,#786,#810,#835,#860,#885,#910,#922,#934,#956,#973,#990,#1007,
#1024,#1041,#1058,#1070,#1092,#1109,#1126,#1143,#1160,#1177,#1194,#1206,#1228,#1245,#1262,#1279,#1296,#1313,#1330,#1342));
#1344=MANIFOLD_SOLID_BREP('oled bracket',#1343);
#1345=COLOUR_RGB('',0.360784322,0.360784322,0.360784322);
#1346=FILL_AREA_STYLE_COLOUR('',#1345);
#1347=FILL_AREA_STYLE('',(#1346));
#1348=SURFACE_STYLE_FILL_AREA(#1347);
#1349=SURFACE_SIDE_STYLE('',(#1348));
#1350=SURFACE_STYLE_USAGE(.BOTH.,#1349);
#1351=PRESENTATION_STYLE_ASSIGNMENT((#1350));
#26=STYLED_ITEM('',(#1351),#1344);
#16=SHAPE_REPRESENTATION('oled bracket',(#15),#10);
#17=ADVANCED_BREP_SHAPE_REPRESENTATION('oled bracket',(#1344),#10);
#1359=SHAPE_REPRESENTATION_RELATIONSHIP('','',#16,#17);
#1360=CARTESIAN_POINT('',(0.,0.,0.));
#1361=DIRECTION('',(0.,0.,1.));
#1362=DIRECTION('',(1.,0.,0.));
#1363=AXIS2_PLACEMENT_3D('',#1360,#1361,#1362);
#1365=MAPPED_ITEM('',#1364,#1363);
#1364=REPRESENTATION_MAP(#1363,#16);
#1366=APPLICATION_CONTEXT('Managed model based 3d engineering');
#1367=APPLICATION_PROTOCOL_DEFINITION('international standard','ap242_managed_model_based_3d_engineering',2014,#1366);
#1368=PRODUCT_CONTEXT('',#1366,'mechanical');
#1369=PRODUCT_DEFINITION_CONTEXT('part definition',#1366,'design');
#24=PRODUCT('oled bracket','oled bracket','',(#1368));
#1370=PRODUCT_RELATED_PRODUCT_CATEGORY('part','',(#24));
#1371=PRODUCT_DEFINITION_FORMATION_WITH_SPECIFIED_SOURCE('','',#24,.NOT_KNOWN.);
#25=PRODUCT_DEFINITION('design','',#1371,#1369);
#23=PRODUCT_DEFINITION_SHAPE('','',#25);
#1372=SHAPE_DEFINITION_REPRESENTATION(#23,#16);
#11=DRAUGHTING_MODEL('',(#1365),#10);
#1373=DESCRIPTIVE_REPRESENTATION_ITEM('KEY','/Users/georgewhite/Library/Containers/com.shapr3d.shapr/Data/tmp/3D68565C-7912-4624-AE23-BC34AA9DCBF0.tmp');
#1374=PROPERTY_DEFINITION('KEY','',#25);
#1375=REPRESENTATION('',(#1373),#10);
#1376=PROPERTY_DEFINITION_REPRESENTATION(#1374,#1375);
#1377=GENERAL_PROPERTY('','KEY','');
#1378=GENERAL_PROPERTY_ASSOCIATION('','',#1377,#1374);
#1=MECHANICAL_DESIGN_GEOMETRIC_PRESENTATION_REPRESENTATION('',(#26),#10);
ENDSEC;
END-ISO-10303-21;
