ISO-10303-21;
HEADER;

/* File generated by Shapr3D Version 26.50.0.10685 */

FILE_DESCRIPTION(('HOOPS Exchange Step'),'2;1');

FILE_NAME('/Users/georgewhite/Library/Containers/com.shapr3d.shapr/Data/tmp/export/temp_export',
'2026-04-13T15:36:52-04:00',
('georgewhite'),
('Shapr3D Limited'),
'HOOPS Exchange 2025.9',
'Shapr3D',
'Authorized');

FILE_SCHEMA( ('AP242_MANAGED_MODEL_BASED_3D_ENGINEERING_MIM_LF {1 0 10303 442 1 1 4}') );

ENDSEC;

DATA;
#3=(NAMED_UNIT(*)PLANE_ANGLE_UNIT()SI_UNIT($,.RADIAN.));
#4=PLANE_ANGLE_MEASURE_WITH_UNIT(PLANE_ANGLE_MEASURE(0.0174532925),#3);
#5=(CONVERSION_BASED_UNIT('DEGREE',#4)NAMED_UNIT(#6)PLANE_ANGLE_UNIT());
#6=DIMENSIONAL_EXPONENTS(0.,0.,0.,0.,0.,0.,0.);
#7=(NAMED_UNIT(*)SI_UNIT($,.STERADIAN.)SOLID_ANGLE_UNIT());
#8=(LENGTH_UNIT()NAMED_UNIT(*)SI_UNIT(.MILLI.,.METRE.));
#9=UNCERTAINTY_MEASURE_WITH_UNIT(LENGTH_MEASURE(1.000000E-05),#8,'DISTANCE_ACCURACY_VALUE','Maximum Tolerance applied to model');
#10=(GEOMETRIC_REPRESENTATION_CONTEXT(3)GLOBAL_UNCERTAINTY_ASSIGNED_CONTEXT((#9))GLOBAL_UNIT_ASSIGNED_CONTEXT((#8,#5,#7))REPRESENTATION_CONTEXT('','shell top'));
#12=CARTESIAN_POINT('',(0.,0.,0.));
#13=DIRECTION('',(0.,0.,1.));
#14=DIRECTION('',(1.,0.,0.));
#15=AXIS2_PLACEMENT_3D('TS3D_PRODUCT_CSYS',#12,#13,#14);
#27=CARTESIAN_POINT('',(0.,95.,0.));
#28=DIRECTION('',(0.,-1.,0.));
#29=DIRECTION('',(-1.,0.,0.));
#30=AXIS2_PLACEMENT_3D('',#27,#28,#29);
#31=PLANE('',#30);
#32=CARTESIAN_POINT('',(48.,95.,10.));
#33=VERTEX_POINT('',#32);
#34=CARTESIAN_POINT('',(48.,95.,14.));
#35=VERTEX_POINT('',#34);
#36=CARTESIAN_POINT('',(48.,95.,10.));
#37=DIRECTION('',(0.,0.,1.));
#38=VECTOR('',#37,4.);
#39=LINE('',#36,#38);
#40=EDGE_CURVE('',#33,#35,#39,.T.);
#41=ORIENTED_EDGE('',*,*,#40,.T.);
#42=CARTESIAN_POINT('',(-48.,95.,14.));
#43=VERTEX_POINT('',#42);
#44=CARTESIAN_POINT('',(48.,95.,14.));
#45=DIRECTION('',(-1.,0.,0.));
#46=VECTOR('',#45,96.);
#47=LINE('',#44,#46);
#48=EDGE_CURVE('',#35,#43,#47,.T.);
#49=ORIENTED_EDGE('',*,*,#48,.T.);
#50=CARTESIAN_POINT('',(-48.,95.,10.));
#51=VERTEX_POINT('',#50);
#52=CARTESIAN_POINT('',(-48.,95.,10.));
#53=DIRECTION('',(0.,0.,1.));
#54=VECTOR('',#53,4.);
#55=LINE('',#52,#54);
#56=EDGE_CURVE('',#51,#43,#55,.T.);
#57=ORIENTED_EDGE('',*,*,#56,.F.);
#58=CARTESIAN_POINT('',(-52.,95.,6.));
#59=VERTEX_POINT('',#58);
#60=CARTESIAN_POINT('',(-52.,95.,10.));
#61=DIRECTION('',(0.,1.,0.));
#62=DIRECTION('',(0.,-0.,1.));
#63=AXIS2_PLACEMENT_3D('',#60,#61,#62);
#64=CIRCLE('',#63,4.);
#65=EDGE_CURVE('',#51,#59,#64,.T.);
#66=ORIENTED_EDGE('',*,*,#65,.T.);
#67=CARTESIAN_POINT('',(-56.,95.,6.));
#68=VERTEX_POINT('',#67);
#69=CARTESIAN_POINT('',(-52.,95.,6.));
#70=DIRECTION('',(-1.,0.,0.));
#71=VECTOR('',#70,4.);
#72=LINE('',#69,#71);
#73=EDGE_CURVE('',#59,#68,#72,.T.);
#74=ORIENTED_EDGE('',*,*,#73,.T.);
#75=CARTESIAN_POINT('',(-56.,95.,3.));
#76=VERTEX_POINT('',#75);
#77=CARTESIAN_POINT('',(-56.,95.,6.));
#78=DIRECTION('',(-0.,0.,-1.));
#79=VECTOR('',#78,3.);
#80=LINE('',#77,#79);
#81=EDGE_CURVE('',#68,#76,#80,.T.);
#82=ORIENTED_EDGE('',*,*,#81,.T.);
#83=CARTESIAN_POINT('',(-58.,95.,3.));
#84=VERTEX_POINT('',#83);
#85=CARTESIAN_POINT('',(-58.,95.,3.));
#86=DIRECTION('',(1.,0.,-0.));
#87=VECTOR('',#86,2.);
#88=LINE('',#85,#87);
#89=EDGE_CURVE('',#84,#76,#88,.T.);
#90=ORIENTED_EDGE('',*,*,#89,.F.);
#91=CARTESIAN_POINT('',(-58.,95.,10.));
#92=VERTEX_POINT('',#91);
#93=CARTESIAN_POINT('',(-58.,95.,3.));
#94=DIRECTION('',(0.,0.,1.));
#95=VECTOR('',#94,7.);
#96=LINE('',#93,#95);
#97=EDGE_CURVE('',#84,#92,#96,.T.);
#98=ORIENTED_EDGE('',*,*,#97,.T.);
#99=CARTESIAN_POINT('',(-52.,95.,16.));
#100=VERTEX_POINT('',#99);
#101=CARTESIAN_POINT('',(-52.,95.,10.));
#102=DIRECTION('',(0.,1.,0.));
#103=DIRECTION('',(0.,-0.,1.));
#104=AXIS2_PLACEMENT_3D('',#101,#102,#103);
#105=CIRCLE('',#104,6.);
#106=EDGE_CURVE('',#92,#100,#105,.T.);
#107=ORIENTED_EDGE('',*,*,#106,.T.);
#108=CARTESIAN_POINT('',(52.,95.,16.));
#109=VERTEX_POINT('',#108);
#110=CARTESIAN_POINT('',(-52.,95.,16.));
#111=DIRECTION('',(1.,0.,-0.));
#112=VECTOR('',#111,104.);
#113=LINE('',#110,#112);
#114=EDGE_CURVE('',#100,#109,#113,.T.);
#115=ORIENTED_EDGE('',*,*,#114,.T.);
#116=CARTESIAN_POINT('',(58.,95.,10.));
#117=VERTEX_POINT('',#116);
#118=CARTESIAN_POINT('',(52.,95.,10.));
#119=DIRECTION('',(0.,1.,0.));
#120=DIRECTION('',(0.,-0.,1.));
#121=AXIS2_PLACEMENT_3D('',#118,#119,#120);
#122=CIRCLE('',#121,6.);
#123=EDGE_CURVE('',#109,#117,#122,.T.);
#124=ORIENTED_EDGE('',*,*,#123,.T.);
#125=CARTESIAN_POINT('',(58.,95.,3.));
#126=VERTEX_POINT('',#125);
#127=CARTESIAN_POINT('',(58.,95.,10.));
#128=DIRECTION('',(0.,0.,-1.));
#129=VECTOR('',#128,7.);
#130=LINE('',#127,#129);
#131=EDGE_CURVE('',#117,#126,#130,.T.);
#132=ORIENTED_EDGE('',*,*,#131,.T.);
#133=CARTESIAN_POINT('',(56.,95.,3.));
#134=VERTEX_POINT('',#133);
#135=CARTESIAN_POINT('',(56.,95.,3.));
#136=DIRECTION('',(1.,0.,-0.));
#137=VECTOR('',#136,2.);
#138=LINE('',#135,#137);
#139=EDGE_CURVE('',#134,#126,#138,.T.);
#140=ORIENTED_EDGE('',*,*,#139,.F.);
#141=CARTESIAN_POINT('',(56.,95.,6.));
#142=VERTEX_POINT('',#141);
#143=CARTESIAN_POINT('',(56.,95.,3.));
#144=DIRECTION('',(0.,0.,1.));
#145=VECTOR('',#144,3.);
#146=LINE('',#143,#145);
#147=EDGE_CURVE('',#134,#142,#146,.T.);
#148=ORIENTED_EDGE('',*,*,#147,.T.);
#149=CARTESIAN_POINT('',(52.,95.,6.));
#150=VERTEX_POINT('',#149);
#151=CARTESIAN_POINT('',(52.,95.,6.));
#152=DIRECTION('',(1.,0.,-0.));
#153=VECTOR('',#152,4.);
#154=LINE('',#151,#153);
#155=EDGE_CURVE('',#150,#142,#154,.T.);
#156=ORIENTED_EDGE('',*,*,#155,.F.);
#157=CARTESIAN_POINT('',(52.,95.,10.));
#158=DIRECTION('',(0.,-1.,0.));
#159=DIRECTION('',(0.,0.,1.));
#160=AXIS2_PLACEMENT_3D('',#157,#158,#159);
#161=CIRCLE('',#160,4.);
#162=EDGE_CURVE('',#33,#150,#161,.T.);
#163=ORIENTED_EDGE('',*,*,#162,.F.);
#164=EDGE_LOOP('',(#41,#49,#57,#66,#74,#82,#90,#98,#107,#115,#124,#132,#140,#148,#156,#163));
#165=FACE_BOUND('',#164,.T.);
#166=CARTESIAN_POINT('',(52.75,95.,8.700961894));
#167=VERTEX_POINT('',#166);
#168=CARTESIAN_POINT('',(53.5,95.,10.));
#169=VERTEX_POINT('',#168);
#170=CARTESIAN_POINT('',(52.75,95.,8.700961894));
#171=DIRECTION('',(0.5,0.,0.866025404));
#172=VECTOR('',#171,1.5);
#173=LINE('',#170,#172);
#174=EDGE_CURVE('',#167,#169,#173,.T.);
#175=ORIENTED_EDGE('',*,*,#174,.T.);
#176=CARTESIAN_POINT('',(52.75,95.,11.299038106));
#177=VERTEX_POINT('',#176);
#178=CARTESIAN_POINT('',(53.5,95.,10.));
#179=DIRECTION('',(-0.5,0.,0.866025404));
#180=VECTOR('',#179,1.5);
#181=LINE('',#178,#180);
#182=EDGE_CURVE('',#169,#177,#181,.T.);
#183=ORIENTED_EDGE('',*,*,#182,.T.);
#184=CARTESIAN_POINT('',(51.25,95.,11.299038106));
#185=VERTEX_POINT('',#184);
#186=CARTESIAN_POINT('',(52.75,95.,11.299038106));
#187=DIRECTION('',(-1.,0.,0.));
#188=VECTOR('',#187,1.5);
#189=LINE('',#186,#188);
#190=EDGE_CURVE('',#177,#185,#189,.T.);
#191=ORIENTED_EDGE('',*,*,#190,.T.);
#192=CARTESIAN_POINT('',(50.5,95.,10.));
#193=VERTEX_POINT('',#192);
#194=CARTESIAN_POINT('',(51.25,95.,11.299038106));
#195=DIRECTION('',(-0.5,0.,-0.866025404));
#196=VECTOR('',#195,1.5);
#197=LINE('',#194,#196);
#198=EDGE_CURVE('',#185,#193,#197,.T.);
#199=ORIENTED_EDGE('',*,*,#198,.T.);
#200=CARTESIAN_POINT('',(51.25,95.,8.700961894));
#201=VERTEX_POINT('',#200);
#202=CARTESIAN_POINT('',(50.5,95.,10.));
#203=DIRECTION('',(0.5,0.,-0.866025404));
#204=VECTOR('',#203,1.5);
#205=LINE('',#202,#204);
#206=EDGE_CURVE('',#193,#201,#205,.T.);
#207=ORIENTED_EDGE('',*,*,#206,.T.);
#208=CARTESIAN_POINT('',(51.25,95.,8.700961894));
#209=DIRECTION('',(1.,0.,-0.));
#210=VECTOR('',#209,1.5);
#211=LINE('',#208,#210);
#212=EDGE_CURVE('',#201,#167,#211,.T.);
#213=ORIENTED_EDGE('',*,*,#212,.T.);
#214=EDGE_LOOP('',(#175,#183,#191,#199,#207,#213));
#215=FACE_BOUND('',#214,.T.);
#216=CARTESIAN_POINT('',(-52.75,95.,8.700961894));
#217=VERTEX_POINT('',#216);
#218=CARTESIAN_POINT('',(-53.5,95.,10.));
#219=VERTEX_POINT('',#218);
#220=CARTESIAN_POINT('',(-52.75,95.,8.700961894));
#221=DIRECTION('',(-0.5,0.,0.866025404));
#222=VECTOR('',#221,1.5);
#223=LINE('',#220,#222);
#224=EDGE_CURVE('',#217,#219,#223,.T.);
#225=ORIENTED_EDGE('',*,*,#224,.F.);
#226=CARTESIAN_POINT('',(-51.25,95.,8.700961894));
#227=VERTEX_POINT('',#226);
#228=CARTESIAN_POINT('',(-51.25,95.,8.700961894));
#229=DIRECTION('',(-1.,0.,-0.));
#230=VECTOR('',#229,1.5);
#231=LINE('',#228,#230);
#232=EDGE_CURVE('',#227,#217,#231,.T.);
#233=ORIENTED_EDGE('',*,*,#232,.F.);
#234=CARTESIAN_POINT('',(-50.5,95.,10.));
#235=VERTEX_POINT('',#234);
#236=CARTESIAN_POINT('',(-50.5,95.,10.));
#237=DIRECTION('',(-0.5,0.,-0.866025404));
#238=VECTOR('',#237,1.5);
#239=LINE('',#236,#238);
#240=EDGE_CURVE('',#235,#227,#239,.T.);
#241=ORIENTED_EDGE('',*,*,#240,.F.);
#242=CARTESIAN_POINT('',(-51.25,95.,11.299038106));
#243=VERTEX_POINT('',#242);
#244=CARTESIAN_POINT('',(-51.25,95.,11.299038106));
#245=DIRECTION('',(0.5,0.,-0.866025404));
#246=VECTOR('',#245,1.5);
#247=LINE('',#244,#246);
#248=EDGE_CURVE('',#243,#235,#247,.T.);
#249=ORIENTED_EDGE('',*,*,#248,.F.);
#250=CARTESIAN_POINT('',(-52.75,95.,11.299038106));
#251=VERTEX_POINT('',#250);
#252=CARTESIAN_POINT('',(-52.75,95.,11.299038106));
#253=DIRECTION('',(1.,0.,0.));
#254=VECTOR('',#253,1.5);
#255=LINE('',#252,#254);
#256=EDGE_CURVE('',#251,#243,#255,.T.);
#257=ORIENTED_EDGE('',*,*,#256,.F.);
#258=CARTESIAN_POINT('',(-53.5,95.,10.));
#259=DIRECTION('',(0.5,0.,0.866025404));
#260=VECTOR('',#259,1.5);
#261=LINE('',#258,#260);
#262=EDGE_CURVE('',#219,#251,#261,.T.);
#263=ORIENTED_EDGE('',*,*,#262,.F.);
#264=EDGE_LOOP('',(#225,#233,#241,#249,#257,#263));
#265=FACE_BOUND('',#264,.T.);
#266=ADVANCED_FACE('',(#165,#215,#265),#31,.F.);
#267=CARTESIAN_POINT('',(48.,95.,12.));
#268=DIRECTION('',(1.,0.,0.));
#269=DIRECTION('',(0.,0.,-1.));
#270=AXIS2_PLACEMENT_3D('',#267,#268,#269);
#271=PLANE('',#270);
#272=CARTESIAN_POINT('',(48.,5.,10.));
#273=VERTEX_POINT('',#272);
#274=CARTESIAN_POINT('',(48.,5.,14.));
#275=VERTEX_POINT('',#274);
#276=CARTESIAN_POINT('',(48.,5.,10.));
#277=DIRECTION('',(0.,0.,1.));
#278=VECTOR('',#277,4.);
#279=LINE('',#276,#278);
#280=EDGE_CURVE('',#273,#275,#279,.T.);
#281=ORIENTED_EDGE('',*,*,#280,.T.);
#282=CARTESIAN_POINT('',(48.,95.,14.));
#283=DIRECTION('',(0.,-1.,0.));
#284=VECTOR('',#283,90.);
#285=LINE('',#282,#284);
#286=EDGE_CURVE('',#35,#275,#285,.T.);
#287=ORIENTED_EDGE('',*,*,#286,.F.);
#288=ORIENTED_EDGE('',*,*,#40,.F.);
#289=CARTESIAN_POINT('',(48.,95.,10.));
#290=DIRECTION('',(0.,-1.,0.));
#291=VECTOR('',#290,90.);
#292=LINE('',#289,#291);
#293=EDGE_CURVE('',#33,#273,#292,.T.);
#294=ORIENTED_EDGE('',*,*,#293,.T.);
#295=EDGE_LOOP('',(#281,#287,#288,#294));
#296=FACE_BOUND('',#295,.T.);
#297=ADVANCED_FACE('',(#296),#271,.F.);
#298=CARTESIAN_POINT('',(52.,95.,10.));
#299=DIRECTION('',(0.,-1.,0.));
#300=DIRECTION('',(0.,0.,1.));
#301=AXIS2_PLACEMENT_3D('',#298,#299,#300);
#302=CYLINDRICAL_SURFACE('',#301,4.);
#303=CARTESIAN_POINT('',(52.,5.,6.));
#304=VERTEX_POINT('',#303);
#305=CARTESIAN_POINT('',(52.,5.,10.));
#306=DIRECTION('',(0.,-1.,0.));
#307=DIRECTION('',(0.,0.,1.));
#308=AXIS2_PLACEMENT_3D('',#305,#306,#307);
#309=CIRCLE('',#308,4.);
#310=EDGE_CURVE('',#273,#304,#309,.T.);
#311=ORIENTED_EDGE('',*,*,#310,.F.);
#312=ORIENTED_EDGE('',*,*,#293,.F.);
#313=ORIENTED_EDGE('',*,*,#162,.T.);
#314=CARTESIAN_POINT('',(52.,95.,6.));
#315=DIRECTION('',(0.,-1.,0.));
#316=VECTOR('',#315,90.);
#317=LINE('',#314,#316);
#318=EDGE_CURVE('',#150,#304,#317,.T.);
#319=ORIENTED_EDGE('',*,*,#318,.T.);
#320=EDGE_LOOP('',(#311,#312,#313,#319));
#321=FACE_BOUND('',#320,.T.);
#322=ADVANCED_FACE('',(#321),#302,.T.);
#323=CARTESIAN_POINT('',(54.,95.,6.));
#324=DIRECTION('',(0.,0.,-1.));
#325=DIRECTION('',(-1.,0.,0.));
#326=AXIS2_PLACEMENT_3D('',#323,#324,#325);
#327=PLANE('',#326);
#328=CARTESIAN_POINT('',(56.,5.,6.));
#329=VERTEX_POINT('',#328);
#330=CARTESIAN_POINT('',(52.,5.,6.));
#331=DIRECTION('',(1.,0.,-0.));
#332=VECTOR('',#331,4.);
#333=LINE('',#330,#332);
#334=EDGE_CURVE('',#304,#329,#333,.T.);
#335=ORIENTED_EDGE('',*,*,#334,.F.);
#336=ORIENTED_EDGE('',*,*,#318,.F.);
#337=ORIENTED_EDGE('',*,*,#155,.T.);
#338=CARTESIAN_POINT('',(56.,95.,6.));
#339=DIRECTION('',(0.,-1.,0.));
#340=VECTOR('',#339,90.);
#341=LINE('',#338,#340);
#342=EDGE_CURVE('',#142,#329,#341,.T.);
#343=ORIENTED_EDGE('',*,*,#342,.T.);
#344=EDGE_LOOP('',(#335,#336,#337,#343));
#345=FACE_BOUND('',#344,.T.);
#346=ADVANCED_FACE('',(#345),#327,.T.);
#347=CARTESIAN_POINT('',(0.,5.,0.));
#348=DIRECTION('',(0.,-1.,0.));
#349=DIRECTION('',(-1.,0.,0.));
#350=AXIS2_PLACEMENT_3D('',#347,#348,#349);
#351=PLANE('',#350);
#352=CARTESIAN_POINT('',(51.25,5.,11.299038106));
#353=VERTEX_POINT('',#352);
#354=CARTESIAN_POINT('',(50.5,5.,10.));
#355=VERTEX_POINT('',#354);
#356=CARTESIAN_POINT('',(51.25,5.,11.299038106));
#357=DIRECTION('',(-0.5,0.,-0.866025404));
#358=VECTOR('',#357,1.5);
#359=LINE('',#356,#358);
#360=EDGE_CURVE('',#353,#355,#359,.T.);
#361=ORIENTED_EDGE('',*,*,#360,.F.);
#362=CARTESIAN_POINT('',(52.75,5.,11.299038106));
#363=VERTEX_POINT('',#362);
#364=CARTESIAN_POINT('',(52.75,5.,11.299038106));
#365=DIRECTION('',(-1.,0.,0.));
#366=VECTOR('',#365,1.5);
#367=LINE('',#364,#366);
#368=EDGE_CURVE('',#363,#353,#367,.T.);
#369=ORIENTED_EDGE('',*,*,#368,.F.);
#370=CARTESIAN_POINT('',(53.5,5.,10.));
#371=VERTEX_POINT('',#370);
#372=CARTESIAN_POINT('',(53.5,5.,10.));
#373=DIRECTION('',(-0.5,0.,0.866025404));
#374=VECTOR('',#373,1.5);
#375=LINE('',#372,#374);
#376=EDGE_CURVE('',#371,#363,#375,.T.);
#377=ORIENTED_EDGE('',*,*,#376,.F.);
#378=CARTESIAN_POINT('',(52.75,5.,8.700961894));
#379=VERTEX_POINT('',#378);
#380=CARTESIAN_POINT('',(52.75,5.,8.700961894));
#381=DIRECTION('',(0.5,0.,0.866025404));
#382=VECTOR('',#381,1.5);
#383=LINE('',#380,#382);
#384=EDGE_CURVE('',#379,#371,#383,.T.);
#385=ORIENTED_EDGE('',*,*,#384,.F.);
#386=CARTESIAN_POINT('',(51.25,5.,8.700961894));
#387=VERTEX_POINT('',#386);
#388=CARTESIAN_POINT('',(51.25,5.,8.700961894));
#389=DIRECTION('',(1.,0.,-0.));
#390=VECTOR('',#389,1.5);
#391=LINE('',#388,#390);
#392=EDGE_CURVE('',#387,#379,#391,.T.);
#393=ORIENTED_EDGE('',*,*,#392,.F.);
#394=CARTESIAN_POINT('',(50.5,5.,10.));
#395=DIRECTION('',(0.5,0.,-0.866025404));
#396=VECTOR('',#395,1.5);
#397=LINE('',#394,#396);
#398=EDGE_CURVE('',#355,#387,#397,.T.);
#399=ORIENTED_EDGE('',*,*,#398,.F.);
#400=EDGE_LOOP('',(#361,#369,#377,#385,#393,#399));
#401=FACE_BOUND('',#400,.T.);
#402=ORIENTED_EDGE('',*,*,#280,.F.);
#403=ORIENTED_EDGE('',*,*,#310,.T.);
#404=ORIENTED_EDGE('',*,*,#334,.T.);
#405=CARTESIAN_POINT('',(56.,5.,3.));
#406=VERTEX_POINT('',#405);
#407=CARTESIAN_POINT('',(56.,5.,3.));
#408=DIRECTION('',(0.,0.,1.));
#409=VECTOR('',#408,3.);
#410=LINE('',#407,#409);
#411=EDGE_CURVE('',#406,#329,#410,.T.);
#412=ORIENTED_EDGE('',*,*,#411,.F.);
#413=CARTESIAN_POINT('',(58.,5.,3.));
#414=VERTEX_POINT('',#413);
#415=CARTESIAN_POINT('',(58.,5.,3.));
#416=DIRECTION('',(-1.,0.,0.));
#417=VECTOR('',#416,2.);
#418=LINE('',#415,#417);
#419=EDGE_CURVE('',#414,#406,#418,.T.);
#420=ORIENTED_EDGE('',*,*,#419,.F.);
#421=CARTESIAN_POINT('',(58.,5.,10.));
#422=VERTEX_POINT('',#421);
#423=CARTESIAN_POINT('',(58.,5.,10.));
#424=DIRECTION('',(0.,0.,-1.));
#425=VECTOR('',#424,7.);
#426=LINE('',#423,#425);
#427=EDGE_CURVE('',#422,#414,#426,.T.);
#428=ORIENTED_EDGE('',*,*,#427,.F.);
#429=CARTESIAN_POINT('',(52.,5.,16.));
#430=VERTEX_POINT('',#429);
#431=CARTESIAN_POINT('',(52.,5.,10.));
#432=DIRECTION('',(0.,-1.,0.));
#433=DIRECTION('',(0.,0.,-1.));
#434=AXIS2_PLACEMENT_3D('',#431,#432,#433);
#435=CIRCLE('',#434,6.);
#436=EDGE_CURVE('',#422,#430,#435,.T.);
#437=ORIENTED_EDGE('',*,*,#436,.T.);
#438=CARTESIAN_POINT('',(-52.,5.,16.));
#439=VERTEX_POINT('',#438);
#440=CARTESIAN_POINT('',(-52.,5.,16.));
#441=DIRECTION('',(1.,0.,-0.));
#442=VECTOR('',#441,104.);
#443=LINE('',#440,#442);
#444=EDGE_CURVE('',#439,#430,#443,.T.);
#445=ORIENTED_EDGE('',*,*,#444,.F.);
#446=CARTESIAN_POINT('',(-58.,5.,10.));
#447=VERTEX_POINT('',#446);
#448=CARTESIAN_POINT('',(-52.,5.,10.));
#449=DIRECTION('',(0.,-1.,0.));
#450=DIRECTION('',(0.,0.,-1.));
#451=AXIS2_PLACEMENT_3D('',#448,#449,#450);
#452=CIRCLE('',#451,6.);
#453=EDGE_CURVE('',#439,#447,#452,.T.);
#454=ORIENTED_EDGE('',*,*,#453,.T.);
#455=CARTESIAN_POINT('',(-58.,5.,3.));
#456=VERTEX_POINT('',#455);
#457=CARTESIAN_POINT('',(-58.,5.,3.));
#458=DIRECTION('',(0.,0.,1.));
#459=VECTOR('',#458,7.);
#460=LINE('',#457,#459);
#461=EDGE_CURVE('',#456,#447,#460,.T.);
#462=ORIENTED_EDGE('',*,*,#461,.F.);
#463=CARTESIAN_POINT('',(-56.,5.,3.));
#464=VERTEX_POINT('',#463);
#465=CARTESIAN_POINT('',(-56.,5.,3.));
#466=DIRECTION('',(-1.,0.,0.));
#467=VECTOR('',#466,2.);
#468=LINE('',#465,#467);
#469=EDGE_CURVE('',#464,#456,#468,.T.);
#470=ORIENTED_EDGE('',*,*,#469,.F.);
#471=CARTESIAN_POINT('',(-56.,5.,6.));
#472=VERTEX_POINT('',#471);
#473=CARTESIAN_POINT('',(-56.,5.,6.));
#474=DIRECTION('',(-0.,0.,-1.));
#475=VECTOR('',#474,3.);
#476=LINE('',#473,#475);
#477=EDGE_CURVE('',#472,#464,#476,.T.);
#478=ORIENTED_EDGE('',*,*,#477,.F.);
#479=CARTESIAN_POINT('',(-52.,5.,6.));
#480=VERTEX_POINT('',#479);
#481=CARTESIAN_POINT('',(-52.,5.,6.));
#482=DIRECTION('',(-1.,0.,0.));
#483=VECTOR('',#482,4.);
#484=LINE('',#481,#483);
#485=EDGE_CURVE('',#480,#472,#484,.T.);
#486=ORIENTED_EDGE('',*,*,#485,.F.);
#487=CARTESIAN_POINT('',(-48.,5.,10.));
#488=VERTEX_POINT('',#487);
#489=CARTESIAN_POINT('',(-52.,5.,10.));
#490=DIRECTION('',(0.,1.,0.));
#491=DIRECTION('',(0.,-0.,1.));
#492=AXIS2_PLACEMENT_3D('',#489,#490,#491);
#493=CIRCLE('',#492,4.);
#494=EDGE_CURVE('',#488,#480,#493,.T.);
#495=ORIENTED_EDGE('',*,*,#494,.F.);
#496=CARTESIAN_POINT('',(-48.,5.,14.));
#497=VERTEX_POINT('',#496);
#498=CARTESIAN_POINT('',(-48.,5.,10.));
#499=DIRECTION('',(0.,0.,1.));
#500=VECTOR('',#499,4.);
#501=LINE('',#498,#500);
#502=EDGE_CURVE('',#488,#497,#501,.T.);
#503=ORIENTED_EDGE('',*,*,#502,.T.);
#504=CARTESIAN_POINT('',(48.,5.,14.));
#505=DIRECTION('',(-1.,0.,0.));
#506=VECTOR('',#505,96.);
#507=LINE('',#504,#506);
#508=EDGE_CURVE('',#275,#497,#507,.T.);
#509=ORIENTED_EDGE('',*,*,#508,.F.);
#510=EDGE_LOOP('',(#402,#403,#404,#412,#420,#428,#437,#445,#454,#462,#470,#478,#486,#495,#503,#509));
#511=FACE_BOUND('',#510,.T.);
#512=CARTESIAN_POINT('',(-51.25,5.,11.299038106));
#513=VERTEX_POINT('',#512);
#514=CARTESIAN_POINT('',(-50.5,5.,10.));
#515=VERTEX_POINT('',#514);
#516=CARTESIAN_POINT('',(-51.25,5.,11.299038106));
#517=DIRECTION('',(0.5,0.,-0.866025404));
#518=VECTOR('',#517,1.5);
#519=LINE('',#516,#518);
#520=EDGE_CURVE('',#513,#515,#519,.T.);
#521=ORIENTED_EDGE('',*,*,#520,.T.);
#522=CARTESIAN_POINT('',(-51.25,5.,8.700961894));
#523=VERTEX_POINT('',#522);
#524=CARTESIAN_POINT('',(-50.5,5.,10.));
#525=DIRECTION('',(-0.5,0.,-0.866025404));
#526=VECTOR('',#525,1.5);
#527=LINE('',#524,#526);
#528=EDGE_CURVE('',#515,#523,#527,.T.);
#529=ORIENTED_EDGE('',*,*,#528,.T.);
#530=CARTESIAN_POINT('',(-52.75,5.,8.700961894));
#531=VERTEX_POINT('',#530);
#532=CARTESIAN_POINT('',(-51.25,5.,8.700961894));
#533=DIRECTION('',(-1.,0.,-0.));
#534=VECTOR('',#533,1.5);
#535=LINE('',#532,#534);
#536=EDGE_CURVE('',#523,#531,#535,.T.);
#537=ORIENTED_EDGE('',*,*,#536,.T.);
#538=CARTESIAN_POINT('',(-53.5,5.,10.));
#539=VERTEX_POINT('',#538);
#540=CARTESIAN_POINT('',(-52.75,5.,8.700961894));
#541=DIRECTION('',(-0.5,0.,0.866025404));
#542=VECTOR('',#541,1.5);
#543=LINE('',#540,#542);
#544=EDGE_CURVE('',#531,#539,#543,.T.);
#545=ORIENTED_EDGE('',*,*,#544,.T.);
#546=CARTESIAN_POINT('',(-52.75,5.,11.299038106));
#547=VERTEX_POINT('',#546);
#548=CARTESIAN_POINT('',(-53.5,5.,10.));
#549=DIRECTION('',(0.5,0.,0.866025404));
#550=VECTOR('',#549,1.5);
#551=LINE('',#548,#550);
#552=EDGE_CURVE('',#539,#547,#551,.T.);
#553=ORIENTED_EDGE('',*,*,#552,.T.);
#554=CARTESIAN_POINT('',(-52.75,5.,11.299038106));
#555=DIRECTION('',(1.,0.,0.));
#556=VECTOR('',#555,1.5);
#557=LINE('',#554,#556);
#558=EDGE_CURVE('',#547,#513,#557,.T.);
#559=ORIENTED_EDGE('',*,*,#558,.T.);
#560=EDGE_LOOP('',(#521,#529,#537,#545,#553,#559));
#561=FACE_BOUND('',#560,.T.);
#562=ADVANCED_FACE('',(#401,#511,#561),#351,.T.);
#563=CARTESIAN_POINT('',(50.875,25.,10.649519053));
#564=DIRECTION('',(-0.866025404,0.,0.5));
#565=DIRECTION('',(0.5,0.,0.866025404));
#566=AXIS2_PLACEMENT_3D('',#563,#564,#565);
#567=PLANE('',#566);
#568=ORIENTED_EDGE('',*,*,#360,.T.);
#569=CARTESIAN_POINT('',(50.5,25.,10.));
#570=VERTEX_POINT('',#569);
#571=CARTESIAN_POINT('',(50.5,25.,10.));
#572=DIRECTION('',(0.,-1.,0.));
#573=VECTOR('',#572,20.);
#574=LINE('',#571,#573);
#575=EDGE_CURVE('',#570,#355,#574,.T.);
#576=ORIENTED_EDGE('',*,*,#575,.F.);
#577=CARTESIAN_POINT('',(51.25,25.,11.299038106));
#578=VERTEX_POINT('',#577);
#579=CARTESIAN_POINT('',(51.25,25.,11.299038106));
#580=DIRECTION('',(-0.5,0.,-0.866025404));
#581=VECTOR('',#580,1.5);
#582=LINE('',#579,#581);
#583=EDGE_CURVE('',#578,#570,#582,.T.);
#584=ORIENTED_EDGE('',*,*,#583,.F.);
#585=CARTESIAN_POINT('',(51.25,25.,11.299038106));
#586=DIRECTION('',(0.,-1.,0.));
#587=VECTOR('',#586,20.);
#588=LINE('',#585,#587);
#589=EDGE_CURVE('',#578,#353,#588,.T.);
#590=ORIENTED_EDGE('',*,*,#589,.T.);
#591=EDGE_LOOP('',(#568,#576,#584,#590));
#592=FACE_BOUND('',#591,.T.);
#593=ADVANCED_FACE('',(#592),#567,.F.);
#594=CARTESIAN_POINT('',(50.875,25.,9.350480947));
#595=DIRECTION('',(-0.866025404,0.,-0.5));
#596=DIRECTION('',(-0.5,0.,0.866025404));
#597=AXIS2_PLACEMENT_3D('',#594,#595,#596);
#598=PLANE('',#597);
#599=ORIENTED_EDGE('',*,*,#398,.T.);
#600=CARTESIAN_POINT('',(51.25,25.,8.700961894));
#601=VERTEX_POINT('',#600);
#602=CARTESIAN_POINT('',(51.25,25.,8.700961894));
#603=DIRECTION('',(0.,-1.,0.));
#604=VECTOR('',#603,20.);
#605=LINE('',#602,#604);
#606=EDGE_CURVE('',#601,#387,#605,.T.);
#607=ORIENTED_EDGE('',*,*,#606,.F.);
#608=CARTESIAN_POINT('',(50.5,25.,10.));
#609=DIRECTION('',(0.5,0.,-0.866025404));
#610=VECTOR('',#609,1.5);
#611=LINE('',#608,#610);
#612=EDGE_CURVE('',#570,#601,#611,.T.);
#613=ORIENTED_EDGE('',*,*,#612,.F.);
#614=ORIENTED_EDGE('',*,*,#575,.T.);
#615=EDGE_LOOP('',(#599,#607,#613,#614));
#616=FACE_BOUND('',#615,.T.);
#617=ADVANCED_FACE('',(#616),#598,.F.);
#618=CARTESIAN_POINT('',(52.,25.,8.700961894));
#619=DIRECTION('',(-0.,0.,-1.));
#620=DIRECTION('',(-1.,0.,0.));
#621=AXIS2_PLACEMENT_3D('',#618,#619,#620);
#622=PLANE('',#621);
#623=ORIENTED_EDGE('',*,*,#392,.T.);
#624=CARTESIAN_POINT('',(52.75,25.,8.700961894));
#625=VERTEX_POINT('',#624);
#626=CARTESIAN_POINT('',(52.75,25.,8.700961894));
#627=DIRECTION('',(0.,-1.,0.));
#628=VECTOR('',#627,20.);
#629=LINE('',#626,#628);
#630=EDGE_CURVE('',#625,#379,#629,.T.);
#631=ORIENTED_EDGE('',*,*,#630,.F.);
#632=CARTESIAN_POINT('',(51.25,25.,8.700961894));
#633=DIRECTION('',(1.,0.,-0.));
#634=VECTOR('',#633,1.5);
#635=LINE('',#632,#634);
#636=EDGE_CURVE('',#601,#625,#635,.T.);
#637=ORIENTED_EDGE('',*,*,#636,.F.);
#638=ORIENTED_EDGE('',*,*,#606,.T.);
#639=EDGE_LOOP('',(#623,#631,#637,#638));
#640=FACE_BOUND('',#639,.T.);
#641=ADVANCED_FACE('',(#640),#622,.F.);
#642=CARTESIAN_POINT('',(53.125,25.,9.350480947));
#643=DIRECTION('',(0.866025404,0.,-0.5));
#644=DIRECTION('',(-0.5,0.,-0.866025404));
#645=AXIS2_PLACEMENT_3D('',#642,#643,#644);
#646=PLANE('',#645);
#647=ORIENTED_EDGE('',*,*,#384,.T.);
#648=CARTESIAN_POINT('',(53.5,25.,10.));
#649=VERTEX_POINT('',#648);
#650=CARTESIAN_POINT('',(53.5,25.,10.));
#651=DIRECTION('',(0.,-1.,0.));
#652=VECTOR('',#651,20.);
#653=LINE('',#650,#652);
#654=EDGE_CURVE('',#649,#371,#653,.T.);
#655=ORIENTED_EDGE('',*,*,#654,.F.);
#656=CARTESIAN_POINT('',(52.75,25.,8.700961894));
#657=DIRECTION('',(0.5,0.,0.866025404));
#658=VECTOR('',#657,1.5);
#659=LINE('',#656,#658);
#660=EDGE_CURVE('',#625,#649,#659,.T.);
#661=ORIENTED_EDGE('',*,*,#660,.F.);
#662=ORIENTED_EDGE('',*,*,#630,.T.);
#663=EDGE_LOOP('',(#647,#655,#661,#662));
#664=FACE_BOUND('',#663,.T.);
#665=ADVANCED_FACE('',(#664),#646,.F.);
#666=CARTESIAN_POINT('',(53.125,25.,10.649519053));
#667=DIRECTION('',(0.866025404,0.,0.5));
#668=DIRECTION('',(0.5,0.,-0.866025404));
#669=AXIS2_PLACEMENT_3D('',#666,#667,#668);
#670=PLANE('',#669);
#671=ORIENTED_EDGE('',*,*,#376,.T.);
#672=CARTESIAN_POINT('',(52.75,25.,11.299038106));
#673=VERTEX_POINT('',#672);
#674=CARTESIAN_POINT('',(52.75,25.,11.299038106));
#675=DIRECTION('',(0.,-1.,0.));
#676=VECTOR('',#675,20.);
#677=LINE('',#674,#676);
#678=EDGE_CURVE('',#673,#363,#677,.T.);
#679=ORIENTED_EDGE('',*,*,#678,.F.);
#680=CARTESIAN_POINT('',(53.5,25.,10.));
#681=DIRECTION('',(-0.5,0.,0.866025404));
#682=VECTOR('',#681,1.5);
#683=LINE('',#680,#682);
#684=EDGE_CURVE('',#649,#673,#683,.T.);
#685=ORIENTED_EDGE('',*,*,#684,.F.);
#686=ORIENTED_EDGE('',*,*,#654,.T.);
#687=EDGE_LOOP('',(#671,#679,#685,#686));
#688=FACE_BOUND('',#687,.T.);
#689=ADVANCED_FACE('',(#688),#670,.F.);
#690=CARTESIAN_POINT('',(52.,25.,11.299038106));
#691=DIRECTION('',(0.,0.,1.));
#692=DIRECTION('',(1.,0.,-0.));
#693=AXIS2_PLACEMENT_3D('',#690,#691,#692);
#694=PLANE('',#693);
#695=ORIENTED_EDGE('',*,*,#368,.T.);
#696=ORIENTED_EDGE('',*,*,#589,.F.);
#697=CARTESIAN_POINT('',(52.75,25.,11.299038106));
#698=DIRECTION('',(-1.,0.,0.));
#699=VECTOR('',#698,1.5);
#700=LINE('',#697,#699);
#701=EDGE_CURVE('',#673,#578,#700,.T.);
#702=ORIENTED_EDGE('',*,*,#701,.F.);
#703=ORIENTED_EDGE('',*,*,#678,.T.);
#704=EDGE_LOOP('',(#695,#696,#702,#703));
#705=FACE_BOUND('',#704,.T.);
#706=ADVANCED_FACE('',(#705),#694,.F.);
#707=CARTESIAN_POINT('',(0.,25.,0.));
#708=DIRECTION('',(0.,-1.,0.));
#709=DIRECTION('',(-1.,0.,0.));
#710=AXIS2_PLACEMENT_3D('',#707,#708,#709);
#711=PLANE('',#710);
#712=ORIENTED_EDGE('',*,*,#583,.T.);
#713=ORIENTED_EDGE('',*,*,#612,.T.);
#714=ORIENTED_EDGE('',*,*,#636,.T.);
#715=ORIENTED_EDGE('',*,*,#660,.T.);
#716=ORIENTED_EDGE('',*,*,#684,.T.);
#717=ORIENTED_EDGE('',*,*,#701,.T.);
#718=EDGE_LOOP('',(#712,#713,#714,#715,#716,#717));
#719=FACE_BOUND('',#718,.T.);
#720=ADVANCED_FACE('',(#719),#711,.T.);
#721=CARTESIAN_POINT('',(53.125,75.,9.350480947));
#722=DIRECTION('',(-0.866025404,0.,0.5));
#723=DIRECTION('',(0.5,0.,0.866025404));
#724=AXIS2_PLACEMENT_3D('',#721,#722,#723);
#725=PLANE('',#724);
#726=ORIENTED_EDGE('',*,*,#174,.F.);
#727=CARTESIAN_POINT('',(52.75,75.,8.700961894));
#728=VERTEX_POINT('',#727);
#729=CARTESIAN_POINT('',(52.75,75.,8.700961894));
#730=DIRECTION('',(0.,1.,0.));
#731=VECTOR('',#730,20.);
#732=LINE('',#729,#731);
#733=EDGE_CURVE('',#728,#167,#732,.T.);
#734=ORIENTED_EDGE('',*,*,#733,.F.);
#735=CARTESIAN_POINT('',(53.5,75.,10.));
#736=VERTEX_POINT('',#735);
#737=CARTESIAN_POINT('',(52.75,75.,8.700961894));
#738=DIRECTION('',(0.5,0.,0.866025404));
#739=VECTOR('',#738,1.5);
#740=LINE('',#737,#739);
#741=EDGE_CURVE('',#728,#736,#740,.T.);
#742=ORIENTED_EDGE('',*,*,#741,.T.);
#743=CARTESIAN_POINT('',(53.5,75.,10.));
#744=DIRECTION('',(0.,1.,0.));
#745=VECTOR('',#744,20.);
#746=LINE('',#743,#745);
#747=EDGE_CURVE('',#736,#169,#746,.T.);
#748=ORIENTED_EDGE('',*,*,#747,.T.);
#749=EDGE_LOOP('',(#726,#734,#742,#748));
#750=FACE_BOUND('',#749,.T.);
#751=ADVANCED_FACE('',(#750),#725,.T.);
#752=COLOUR_RGB('',0.494117647,0.494117647,0.525490224);
#753=FILL_AREA_STYLE_COLOUR('',#752);
#754=FILL_AREA_STYLE('',(#753));
#755=SURFACE_STYLE_FILL_AREA(#754);
#756=SURFACE_SIDE_STYLE('',(#755));
#757=SURFACE_STYLE_USAGE(.BOTH.,#756);
#758=PRESENTATION_STYLE_ASSIGNMENT((#757));
#759=OVER_RIDING_STYLED_ITEM('',(#758),#751,#26);
#760=CARTESIAN_POINT('',(52.,75.,8.700961894));
#761=DIRECTION('',(0.,0.,1.));
#762=DIRECTION('',(1.,0.,-0.));
#763=AXIS2_PLACEMENT_3D('',#760,#761,#762);
#764=PLANE('',#763);
#765=ORIENTED_EDGE('',*,*,#212,.F.);
#766=CARTESIAN_POINT('',(51.25,75.,8.700961894));
#767=VERTEX_POINT('',#766);
#768=CARTESIAN_POINT('',(51.25,75.,8.700961894));
#769=DIRECTION('',(0.,1.,0.));
#770=VECTOR('',#769,20.);
#771=LINE('',#768,#770);
#772=EDGE_CURVE('',#767,#201,#771,.T.);
#773=ORIENTED_EDGE('',*,*,#772,.F.);
#774=CARTESIAN_POINT('',(51.25,75.,8.700961894));
#775=DIRECTION('',(1.,0.,-0.));
#776=VECTOR('',#775,1.5);
#777=LINE('',#774,#776);
#778=EDGE_CURVE('',#767,#728,#777,.T.);
#779=ORIENTED_EDGE('',*,*,#778,.T.);
#780=ORIENTED_EDGE('',*,*,#733,.T.);
#781=EDGE_LOOP('',(#765,#773,#779,#780));
#782=FACE_BOUND('',#781,.T.);
#783=ADVANCED_FACE('',(#782),#764,.T.);
#784=OVER_RIDING_STYLED_ITEM('',(#758),#783,#26);
#785=CARTESIAN_POINT('',(50.875,75.,9.350480947));
#786=DIRECTION('',(0.866025404,0.,0.5));
#787=DIRECTION('',(0.5,0.,-0.866025404));
#788=AXIS2_PLACEMENT_3D('',#785,#786,#787);
#789=PLANE('',#788);
#790=ORIENTED_EDGE('',*,*,#206,.F.);
#791=CARTESIAN_POINT('',(50.5,75.,10.));
#792=VERTEX_POINT('',#791);
#793=CARTESIAN_POINT('',(50.5,75.,10.));
#794=DIRECTION('',(0.,1.,0.));
#795=VECTOR('',#794,20.);
#796=LINE('',#793,#795);
#797=EDGE_CURVE('',#792,#193,#796,.T.);
#798=ORIENTED_EDGE('',*,*,#797,.F.);
#799=CARTESIAN_POINT('',(50.5,75.,10.));
#800=DIRECTION('',(0.5,0.,-0.866025404));
#801=VECTOR('',#800,1.5);
#802=LINE('',#799,#801);
#803=EDGE_CURVE('',#792,#767,#802,.T.);
#804=ORIENTED_EDGE('',*,*,#803,.T.);
#805=ORIENTED_EDGE('',*,*,#772,.T.);
#806=EDGE_LOOP('',(#790,#798,#804,#805));
#807=FACE_BOUND('',#806,.T.);
#808=ADVANCED_FACE('',(#807),#789,.T.);
#809=OVER_RIDING_STYLED_ITEM('',(#758),#808,#26);
#810=CARTESIAN_POINT('',(50.875,75.,10.649519053));
#811=DIRECTION('',(0.866025404,0.,-0.5));
#812=DIRECTION('',(-0.5,0.,-0.866025404));
#813=AXIS2_PLACEMENT_3D('',#810,#811,#812);
#814=PLANE('',#813);
#815=ORIENTED_EDGE('',*,*,#198,.F.);
#816=CARTESIAN_POINT('',(51.25,75.,11.299038106));
#817=VERTEX_POINT('',#816);
#818=CARTESIAN_POINT('',(51.25,75.,11.299038106));
#819=DIRECTION('',(0.,1.,0.));
#820=VECTOR('',#819,20.);
#821=LINE('',#818,#820);
#822=EDGE_CURVE('',#817,#185,#821,.T.);
#823=ORIENTED_EDGE('',*,*,#822,.F.);
#824=CARTESIAN_POINT('',(51.25,75.,11.299038106));
#825=DIRECTION('',(-0.5,0.,-0.866025404));
#826=VECTOR('',#825,1.5);
#827=LINE('',#824,#826);
#828=EDGE_CURVE('',#817,#792,#827,.T.);
#829=ORIENTED_EDGE('',*,*,#828,.T.);
#830=ORIENTED_EDGE('',*,*,#797,.T.);
#831=EDGE_LOOP('',(#815,#823,#829,#830));
#832=FACE_BOUND('',#831,.T.);
#833=ADVANCED_FACE('',(#832),#814,.T.);
#834=OVER_RIDING_STYLED_ITEM('',(#758),#833,#26);
#835=CARTESIAN_POINT('',(52.,75.,11.299038106));
#836=DIRECTION('',(-0.,0.,-1.));
#837=DIRECTION('',(-1.,0.,0.));
#838=AXIS2_PLACEMENT_3D('',#835,#836,#837);
#839=PLANE('',#838);
#840=ORIENTED_EDGE('',*,*,#190,.F.);
#841=CARTESIAN_POINT('',(52.75,75.,11.299038106));
#842=VERTEX_POINT('',#841);
#843=CARTESIAN_POINT('',(52.75,75.,11.299038106));
#844=DIRECTION('',(0.,1.,0.));
#845=VECTOR('',#844,20.);
#846=LINE('',#843,#845);
#847=EDGE_CURVE('',#842,#177,#846,.T.);
#848=ORIENTED_EDGE('',*,*,#847,.F.);
#849=CARTESIAN_POINT('',(52.75,75.,11.299038106));
#850=DIRECTION('',(-1.,0.,0.));
#851=VECTOR('',#850,1.5);
#852=LINE('',#849,#851);
#853=EDGE_CURVE('',#842,#817,#852,.T.);
#854=ORIENTED_EDGE('',*,*,#853,.T.);
#855=ORIENTED_EDGE('',*,*,#822,.T.);
#856=EDGE_LOOP('',(#840,#848,#854,#855));
#857=FACE_BOUND('',#856,.T.);
#858=ADVANCED_FACE('',(#857),#839,.T.);
#859=OVER_RIDING_STYLED_ITEM('',(#758),#858,#26);
#860=CARTESIAN_POINT('',(53.125,75.,10.649519053));
#861=DIRECTION('',(-0.866025404,0.,-0.5));
#862=DIRECTION('',(-0.5,0.,0.866025404));
#863=AXIS2_PLACEMENT_3D('',#860,#861,#862);
#864=PLANE('',#863);
#865=ORIENTED_EDGE('',*,*,#182,.F.);
#866=ORIENTED_EDGE('',*,*,#747,.F.);
#867=CARTESIAN_POINT('',(53.5,75.,10.));
#868=DIRECTION('',(-0.5,0.,0.866025404));
#869=VECTOR('',#868,1.5);
#870=LINE('',#867,#869);
#871=EDGE_CURVE('',#736,#842,#870,.T.);
#872=ORIENTED_EDGE('',*,*,#871,.T.);
#873=ORIENTED_EDGE('',*,*,#847,.T.);
#874=EDGE_LOOP('',(#865,#866,#872,#873));
#875=FACE_BOUND('',#874,.T.);
#876=ADVANCED_FACE('',(#875),#864,.T.);
#877=OVER_RIDING_STYLED_ITEM('',(#758),#876,#26);
#878=CARTESIAN_POINT('',(0.,75.,0.));
#879=DIRECTION('',(0.,1.,0.));
#880=DIRECTION('',(1.,0.,0.));
#881=AXIS2_PLACEMENT_3D('',#878,#879,#880);
#882=PLANE('',#881);
#883=ORIENTED_EDGE('',*,*,#741,.F.);
#884=ORIENTED_EDGE('',*,*,#778,.F.);
#885=ORIENTED_EDGE('',*,*,#803,.F.);
#886=ORIENTED_EDGE('',*,*,#828,.F.);
#887=ORIENTED_EDGE('',*,*,#853,.F.);
#888=ORIENTED_EDGE('',*,*,#871,.F.);
#889=EDGE_LOOP('',(#883,#884,#885,#886,#887,#888));
#890=FACE_BOUND('',#889,.T.);
#891=ADVANCED_FACE('',(#890),#882,.T.);
#892=OVER_RIDING_STYLED_ITEM('',(#758),#891,#26);
#893=CARTESIAN_POINT('',(56.,100.,0.));
#894=DIRECTION('',(-1.,0.,0.));
#895=DIRECTION('',(0.,0.,1.));
#896=AXIS2_PLACEMENT_3D('',#893,#894,#895);
#897=PLANE('',#896);
#898=ORIENTED_EDGE('',*,*,#342,.F.);
#899=ORIENTED_EDGE('',*,*,#147,.F.);
#900=CARTESIAN_POINT('',(56.,5.,3.));
#901=DIRECTION('',(0.,1.,0.));
#902=VECTOR('',#901,90.);
#903=LINE('',#900,#902);
#904=EDGE_CURVE('',#406,#134,#903,.T.);
#905=ORIENTED_EDGE('',*,*,#904,.F.);
#906=ORIENTED_EDGE('',*,*,#411,.T.);
#907=EDGE_LOOP('',(#898,#899,#905,#906));
#908=FACE_BOUND('',#907,.T.);
#909=ADVANCED_FACE('',(#908),#897,.T.);
#910=CARTESIAN_POINT('',(-56.,100.,0.));
#911=DIRECTION('',(1.,0.,-0.));
#912=DIRECTION('',(-0.,0.,-1.));
#913=AXIS2_PLACEMENT_3D('',#910,#911,#912);
#914=PLANE('',#913);
#915=ORIENTED_EDGE('',*,*,#81,.F.);
#916=CARTESIAN_POINT('',(-56.,95.,6.));
#917=DIRECTION('',(0.,-1.,0.));
#918=VECTOR('',#917,90.);
#919=LINE('',#916,#918);
#920=EDGE_CURVE('',#68,#472,#919,.T.);
#921=ORIENTED_EDGE('',*,*,#920,.T.);
#922=ORIENTED_EDGE('',*,*,#477,.T.);
#923=CARTESIAN_POINT('',(-56.,95.,3.));
#924=DIRECTION('',(0.,-1.,0.));
#925=VECTOR('',#924,90.);
#926=LINE('',#923,#925);
#927=EDGE_CURVE('',#76,#464,#926,.T.);
#928=ORIENTED_EDGE('',*,*,#927,.F.);
#929=EDGE_LOOP('',(#915,#921,#922,#928));
#930=FACE_BOUND('',#929,.T.);
#931=ADVANCED_FACE('',(#930),#914,.T.);
#932=CARTESIAN_POINT('',(58.,95.,0.));
#933=DIRECTION('',(1.,0.,0.));
#934=DIRECTION('',(0.,0.,-1.));
#935=AXIS2_PLACEMENT_3D('',#932,#933,#934);
#936=PLANE('',#935);
#937=CARTESIAN_POINT('',(58.,100.,3.));
#938=VERTEX_POINT('',#937);
#939=CARTESIAN_POINT('',(58.,100.,0.2));
#940=VERTEX_POINT('',#939);
#941=CARTESIAN_POINT('',(58.,100.,3.));
#942=DIRECTION('',(0.,0.,-1.));
#943=VECTOR('',#942,2.8);
#944=LINE('',#941,#943);
#945=EDGE_CURVE('',#938,#940,#944,.T.);
#946=ORIENTED_EDGE('',*,*,#945,.T.);
#947=CARTESIAN_POINT('',(58.,95.,0.2));
#948=VERTEX_POINT('',#947);
#949=CARTESIAN_POINT('',(58.,100.,0.2));
#950=DIRECTION('',(0.,-1.,0.));
#951=VECTOR('',#950,5.);
#952=LINE('',#949,#951);
#953=EDGE_CURVE('',#940,#948,#952,.T.);
#954=ORIENTED_EDGE('',*,*,#953,.T.);
#955=CARTESIAN_POINT('',(58.,95.,3.));
#956=DIRECTION('',(0.,0.,-1.));
#957=VECTOR('',#956,2.8);
#958=LINE('',#955,#957);
#959=EDGE_CURVE('',#126,#948,#958,.T.);
#960=ORIENTED_EDGE('',*,*,#959,.F.);
#961=CARTESIAN_POINT('',(58.,100.,3.));
#962=DIRECTION('',(0.,-1.,0.));
#963=VECTOR('',#962,5.);
#964=LINE('',#961,#963);
#965=EDGE_CURVE('',#938,#126,#964,.T.);
#966=ORIENTED_EDGE('',*,*,#965,.F.);
#967=EDGE_LOOP('',(#946,#954,#960,#966));
#968=FACE_BOUND('',#967,.T.);
#969=ADVANCED_FACE('',(#968),#936,.F.);
#970=CARTESIAN_POINT('',(-58.,95.,0.));
#971=DIRECTION('',(-1.,0.,0.));
#972=DIRECTION('',(0.,0.,1.));
#973=AXIS2_PLACEMENT_3D('',#970,#971,#972);
#974=PLANE('',#973);
#975=CARTESIAN_POINT('',(-58.,100.,3.));
#976=VERTEX_POINT('',#975);
#977=CARTESIAN_POINT('',(-58.,100.,3.));
#978=DIRECTION('',(0.,-1.,0.));
#979=VECTOR('',#978,5.);
#980=LINE('',#977,#979);
#981=EDGE_CURVE('',#976,#84,#980,.T.);
#982=ORIENTED_EDGE('',*,*,#981,.F.);
#983=CARTESIAN_POINT('',(-58.,100.,10.));
#984=VERTEX_POINT('',#983);
#985=CARTESIAN_POINT('',(-58.,100.,3.));
#986=DIRECTION('',(0.,0.,1.));
#987=VECTOR('',#986,7.);
#988=LINE('',#985,#987);
#989=EDGE_CURVE('',#976,#984,#988,.T.);
#990=ORIENTED_EDGE('',*,*,#989,.T.);
#991=CARTESIAN_POINT('',(-58.,95.,10.));
#992=DIRECTION('',(0.,1.,0.));
#993=VECTOR('',#992,5.);
#994=LINE('',#991,#993);
#995=EDGE_CURVE('',#92,#984,#994,.T.);
#996=ORIENTED_EDGE('',*,*,#995,.F.);
#997=ORIENTED_EDGE('',*,*,#97,.F.);
#998=EDGE_LOOP('',(#982,#990,#996,#997));
#999=FACE_BOUND('',#998,.T.);
#1000=ADVANCED_FACE('',(#999),#974,.F.);
#1001=CARTESIAN_POINT('',(58.,5.,0.));
#1002=DIRECTION('',(-1.,0.,0.));
#1003=DIRECTION('',(0.,0.,1.));
#1004=AXIS2_PLACEMENT_3D('',#1001,#1002,#1003);
#1005=PLANE('',#1004);
#1006=CARTESIAN_POINT('',(58.,5.,0.2));
#1007=VERTEX_POINT('',#1006);
#1008=CARTESIAN_POINT('',(58.,5.,3.));
#1009=DIRECTION('',(0.,0.,-1.));
#1010=VECTOR('',#1009,2.8);
#1011=LINE('',#1008,#1010);
#1012=EDGE_CURVE('',#414,#1007,#1011,.T.);
#1013=ORIENTED_EDGE('',*,*,#1012,.T.);
#1014=CARTESIAN_POINT('',(58.,0.,0.2));
#1015=VERTEX_POINT('',#1014);
#1016=CARTESIAN_POINT('',(58.,5.,0.2));
#1017=DIRECTION('',(0.,-1.,0.));
#1018=VECTOR('',#1017,5.);
#1019=LINE('',#1016,#1018);
#1020=EDGE_CURVE('',#1007,#1015,#1019,.T.);
#1021=ORIENTED_EDGE('',*,*,#1020,.T.);
#1022=CARTESIAN_POINT('',(58.,0.,3.));
#1023=VERTEX_POINT('',#1022);
#1024=CARTESIAN_POINT('',(58.,0.,3.));
#1025=DIRECTION('',(0.,0.,-1.));
#1026=VECTOR('',#1025,2.8);
#1027=LINE('',#1024,#1026);
#1028=EDGE_CURVE('',#1023,#1015,#1027,.T.);
#1029=ORIENTED_EDGE('',*,*,#1028,.F.);
#1030=CARTESIAN_POINT('',(58.,0.,3.));
#1031=DIRECTION('',(0.,1.,0.));
#1032=VECTOR('',#1031,5.);
#1033=LINE('',#1030,#1032);
#1034=EDGE_CURVE('',#1023,#414,#1033,.T.);
#1035=ORIENTED_EDGE('',*,*,#1034,.T.);
#1036=EDGE_LOOP('',(#1013,#1021,#1029,#1035));
#1037=FACE_BOUND('',#1036,.T.);
#1038=ADVANCED_FACE('',(#1037),#1005,.T.);
#1039=CARTESIAN_POINT('',(-58.,5.,0.));
#1040=DIRECTION('',(1.,0.,0.));
#1041=DIRECTION('',(0.,0.,-1.));
#1042=AXIS2_PLACEMENT_3D('',#1039,#1040,#1041);
#1043=PLANE('',#1042);
#1044=CARTESIAN_POINT('',(-58.,5.,0.2));
#1045=VERTEX_POINT('',#1044);
#1046=CARTESIAN_POINT('',(-58.,5.,0.2));
#1047=DIRECTION('',(0.,0.,1.));
#1048=VECTOR('',#1047,2.8);
#1049=LINE('',#1046,#1048);
#1050=EDGE_CURVE('',#1045,#456,#1049,.T.);
#1051=ORIENTED_EDGE('',*,*,#1050,.T.);
#1052=CARTESIAN_POINT('',(-58.,0.,3.));
#1053=VERTEX_POINT('',#1052);
#1054=CARTESIAN_POINT('',(-58.,5.,3.));
#1055=DIRECTION('',(0.,-1.,0.));
#1056=VECTOR('',#1055,5.);
#1057=LINE('',#1054,#1056);
#1058=EDGE_CURVE('',#456,#1053,#1057,.T.);
#1059=ORIENTED_EDGE('',*,*,#1058,.T.);
#1060=CARTESIAN_POINT('',(-58.,0.,0.2));
#1061=VERTEX_POINT('',#1060);
#1062=CARTESIAN_POINT('',(-58.,0.,0.2));
#1063=DIRECTION('',(0.,0.,1.));
#1064=VECTOR('',#1063,2.8);
#1065=LINE('',#1062,#1064);
#1066=EDGE_CURVE('',#1061,#1053,#1065,.T.);
#1067=ORIENTED_EDGE('',*,*,#1066,.F.);
#1068=CARTESIAN_POINT('',(-58.,5.,0.2));
#1069=DIRECTION('',(0.,-1.,0.));
#1070=VECTOR('',#1069,5.);
#1071=LINE('',#1068,#1070);
#1072=EDGE_CURVE('',#1045,#1061,#1071,.T.);
#1073=ORIENTED_EDGE('',*,*,#1072,.F.);
#1074=EDGE_LOOP('',(#1051,#1059,#1067,#1073));
#1075=FACE_BOUND('',#1074,.T.);
#1076=ADVANCED_FACE('',(#1075),#1043,.T.);
#1077=CARTESIAN_POINT('',(0.,0.,0.));
#1078=DIRECTION('',(0.,1.,0.));
#1079=DIRECTION('',(0.,0.,1.));
#1080=AXIS2_PLACEMENT_3D('',#1077,#1078,#1079);
#1081=PLANE('',#1080);
#1082=ORIENTED_EDGE('',*,*,#1028,.T.);
#1083=CARTESIAN_POINT('',(60.,0.,0.2));
#1084=VERTEX_POINT('',#1083);
#1085=CARTESIAN_POINT('',(58.,0.,0.2));
#1086=DIRECTION('',(1.,0.,-0.));
#1087=VECTOR('',#1086,2.);
#1088=LINE('',#1085,#1087);
#1089=EDGE_CURVE('',#1015,#1084,#1088,.T.);
#1090=ORIENTED_EDGE('',*,*,#1089,.T.);
#1091=CARTESIAN_POINT('',(60.,0.,10.));
#1092=VERTEX_POINT('',#1091);
#1093=CARTESIAN_POINT('',(60.,0.,10.));
#1094=DIRECTION('',(0.,0.,-1.));
#1095=VECTOR('',#1094,9.8);
#1096=LINE('',#1093,#1095);
#1097=EDGE_CURVE('',#1092,#1084,#1096,.T.);
#1098=ORIENTED_EDGE('',*,*,#1097,.F.);
#1099=CARTESIAN_POINT('',(52.,0.,18.));
#1100=VERTEX_POINT('',#1099);
#1101=CARTESIAN_POINT('',(52.,0.,10.));
#1102=DIRECTION('',(-0.,-1.,-0.));
#1103=DIRECTION('',(0.,-0.,1.));
#1104=AXIS2_PLACEMENT_3D('',#1101,#1102,#1103);
#1105=CIRCLE('',#1104,8.);
#1106=EDGE_CURVE('',#1092,#1100,#1105,.T.);
#1107=ORIENTED_EDGE('',*,*,#1106,.T.);
#1108=CARTESIAN_POINT('',(-52.,0.,18.));
#1109=VERTEX_POINT('',#1108);
#1110=CARTESIAN_POINT('',(-52.,0.,18.));
#1111=DIRECTION('',(1.,0.,-0.));
#1112=VECTOR('',#1111,104.);
#1113=LINE('',#1110,#1112);
#1114=EDGE_CURVE('',#1109,#1100,#1113,.T.);
#1115=ORIENTED_EDGE('',*,*,#1114,.F.);
#1116=CARTESIAN_POINT('',(-60.,0.,10.));
#1117=VERTEX_POINT('',#1116);
#1118=CARTESIAN_POINT('',(-52.,0.,10.));
#1119=DIRECTION('',(-0.,-1.,-0.));
#1120=DIRECTION('',(0.,-0.,1.));
#1121=AXIS2_PLACEMENT_3D('',#1118,#1119,#1120);
#1122=CIRCLE('',#1121,8.);
#1123=EDGE_CURVE('',#1109,#1117,#1122,.T.);
#1124=ORIENTED_EDGE('',*,*,#1123,.T.);
#1125=CARTESIAN_POINT('',(-60.,0.,0.2));
#1126=VERTEX_POINT('',#1125);
#1127=CARTESIAN_POINT('',(-60.,0.,0.2));
#1128=DIRECTION('',(0.,0.,1.));
#1129=VECTOR('',#1128,9.8);
#1130=LINE('',#1127,#1129);
#1131=EDGE_CURVE('',#1126,#1117,#1130,.T.);
#1132=ORIENTED_EDGE('',*,*,#1131,.F.);
#1133=CARTESIAN_POINT('',(-60.,0.,0.2));
#1134=DIRECTION('',(1.,0.,0.));
#1135=VECTOR('',#1134,2.);
#1136=LINE('',#1133,#1135);
#1137=EDGE_CURVE('',#1126,#1061,#1136,.T.);
#1138=ORIENTED_EDGE('',*,*,#1137,.T.);
#1139=ORIENTED_EDGE('',*,*,#1066,.T.);
#1140=CARTESIAN_POINT('',(-58.,0.,10.));
#1141=VERTEX_POINT('',#1140);
#1142=CARTESIAN_POINT('',(-58.,0.,3.));
#1143=DIRECTION('',(0.,0.,1.));
#1144=VECTOR('',#1143,7.);
#1145=LINE('',#1142,#1144);
#1146=EDGE_CURVE('',#1053,#1141,#1145,.T.);
#1147=ORIENTED_EDGE('',*,*,#1146,.T.);
#1148=CARTESIAN_POINT('',(-52.,0.,16.));
#1149=VERTEX_POINT('',#1148);
#1150=CARTESIAN_POINT('',(-52.,0.,10.));
#1151=DIRECTION('',(0.,-1.,0.));
#1152=DIRECTION('',(0.,0.,-1.));
#1153=AXIS2_PLACEMENT_3D('',#1150,#1151,#1152);
#1154=CIRCLE('',#1153,6.);
#1155=EDGE_CURVE('',#1149,#1141,#1154,.T.);
#1156=ORIENTED_EDGE('',*,*,#1155,.F.);
#1157=CARTESIAN_POINT('',(52.,0.,16.));
#1158=VERTEX_POINT('',#1157);
#1159=CARTESIAN_POINT('',(-52.,0.,16.));
#1160=DIRECTION('',(1.,0.,-0.));
#1161=VECTOR('',#1160,104.);
#1162=LINE('',#1159,#1161);
#1163=EDGE_CURVE('',#1149,#1158,#1162,.T.);
#1164=ORIENTED_EDGE('',*,*,#1163,.T.);
#1165=CARTESIAN_POINT('',(58.,0.,10.));
#1166=VERTEX_POINT('',#1165);
#1167=CARTESIAN_POINT('',(52.,0.,10.));
#1168=DIRECTION('',(0.,-1.,0.));
#1169=DIRECTION('',(0.,0.,-1.));
#1170=AXIS2_PLACEMENT_3D('',#1167,#1168,#1169);
#1171=CIRCLE('',#1170,6.);
#1172=EDGE_CURVE('',#1166,#1158,#1171,.T.);
#1173=ORIENTED_EDGE('',*,*,#1172,.F.);
#1174=CARTESIAN_POINT('',(58.,0.,10.));
#1175=DIRECTION('',(0.,0.,-1.));
#1176=VECTOR('',#1175,7.);
#1177=LINE('',#1174,#1176);
#1178=EDGE_CURVE('',#1166,#1023,#1177,.T.);
#1179=ORIENTED_EDGE('',*,*,#1178,.T.);
#1180=EDGE_LOOP('',(#1082,#1090,#1098,#1107,#1115,#1124,#1132,#1138,#1139,#1147,#1156,#1164,#1173,#1179));
#1181=FACE_BOUND('',#1180,.T.);
#1182=ADVANCED_FACE('',(#1181),#1081,.F.);
#1183=CARTESIAN_POINT('',(-60.,100.,0.));
#1184=DIRECTION('',(1.,0.,-0.));
#1185=DIRECTION('',(-0.,0.,-1.));
#1186=AXIS2_PLACEMENT_3D('',#1183,#1184,#1185);
#1187=PLANE('',#1186);
#1188=CARTESIAN_POINT('',(-60.,100.,0.2));
#1189=VERTEX_POINT('',#1188);
#1190=CARTESIAN_POINT('',(-60.,100.,10.));
#1191=VERTEX_POINT('',#1190);
#1192=CARTESIAN_POINT('',(-60.,100.,0.2));
#1193=DIRECTION('',(0.,0.,1.));
#1194=VECTOR('',#1193,9.8);
#1195=LINE('',#1192,#1194);
#1196=EDGE_CURVE('',#1189,#1191,#1195,.T.);
#1197=ORIENTED_EDGE('',*,*,#1196,.F.);
#1198=CARTESIAN_POINT('',(-60.,100.,0.2));
#1199=DIRECTION('',(0.,-1.,0.));
#1200=VECTOR('',#1199,100.);
#1201=LINE('',#1198,#1200);
#1202=EDGE_CURVE('',#1189,#1126,#1201,.T.);
#1203=ORIENTED_EDGE('',*,*,#1202,.T.);
#1204=ORIENTED_EDGE('',*,*,#1131,.T.);
#1205=CARTESIAN_POINT('',(-60.,0.,10.));
#1206=DIRECTION('',(-0.,1.,-0.));
#1207=VECTOR('',#1206,100.);
#1208=LINE('',#1205,#1207);
#1209=EDGE_CURVE('',#1117,#1191,#1208,.T.);
#1210=ORIENTED_EDGE('',*,*,#1209,.T.);
#1211=EDGE_LOOP('',(#1197,#1203,#1204,#1210));
#1212=FACE_BOUND('',#1211,.T.);
#1213=ADVANCED_FACE('',(#1212),#1187,.F.);
#1214=CARTESIAN_POINT('',(0.,100.,18.));
#1215=DIRECTION('',(-0.,0.,-1.));
#1216=DIRECTION('',(-1.,0.,0.));
#1217=AXIS2_PLACEMENT_3D('',#1214,#1215,#1216);
#1218=PLANE('',#1217);
#1219=CARTESIAN_POINT('',(-52.,100.,18.));
#1220=VERTEX_POINT('',#1219);
#1221=CARTESIAN_POINT('',(52.,100.,18.));
#1222=VERTEX_POINT('',#1221);
#1223=CARTESIAN_POINT('',(-52.,100.,18.));
#1224=DIRECTION('',(1.,0.,-0.));
#1225=VECTOR('',#1224,104.);
#1226=LINE('',#1223,#1225);
#1227=EDGE_CURVE('',#1220,#1222,#1226,.T.);
#1228=ORIENTED_EDGE('',*,*,#1227,.F.);
#1229=CARTESIAN_POINT('',(-52.,100.,18.));
#1230=DIRECTION('',(0.,-1.,0.));
#1231=VECTOR('',#1230,100.);
#1232=LINE('',#1229,#1231);
#1233=EDGE_CURVE('',#1220,#1109,#1232,.T.);
#1234=ORIENTED_EDGE('',*,*,#1233,.T.);
#1235=ORIENTED_EDGE('',*,*,#1114,.T.);
#1236=CARTESIAN_POINT('',(52.,0.,18.));
#1237=DIRECTION('',(-0.,1.,-0.));
#1238=VECTOR('',#1237,100.);
#1239=LINE('',#1236,#1238);
#1240=EDGE_CURVE('',#1100,#1222,#1239,.T.);
#1241=ORIENTED_EDGE('',*,*,#1240,.T.);
#1242=EDGE_LOOP('',(#1228,#1234,#1235,#1241));
#1243=FACE_BOUND('',#1242,.T.);
#1244=ADVANCED_FACE('',(#1243),#1218,.F.);
#1245=CARTESIAN_POINT('',(60.,100.,0.));
#1246=DIRECTION('',(-1.,0.,0.));
#1247=DIRECTION('',(0.,0.,1.));
#1248=AXIS2_PLACEMENT_3D('',#1245,#1246,#1247);
#1249=PLANE('',#1248);
#1250=ORIENTED_EDGE('',*,*,#1097,.T.);
#1251=CARTESIAN_POINT('',(60.,100.,0.2));
#1252=VERTEX_POINT('',#1251);
#1253=CARTESIAN_POINT('',(60.,0.,0.2));
#1254=DIRECTION('',(0.,1.,0.));
#1255=VECTOR('',#1254,100.);
#1256=LINE('',#1253,#1255);
#1257=EDGE_CURVE('',#1084,#1252,#1256,.T.);
#1258=ORIENTED_EDGE('',*,*,#1257,.T.);
#1259=CARTESIAN_POINT('',(60.,100.,10.));
#1260=VERTEX_POINT('',#1259);
#1261=CARTESIAN_POINT('',(60.,100.,10.));
#1262=DIRECTION('',(0.,0.,-1.));
#1263=VECTOR('',#1262,9.8);
#1264=LINE('',#1261,#1263);
#1265=EDGE_CURVE('',#1260,#1252,#1264,.T.);
#1266=ORIENTED_EDGE('',*,*,#1265,.F.);
#1267=CARTESIAN_POINT('',(60.,100.,10.));
#1268=DIRECTION('',(0.,-1.,0.));
#1269=VECTOR('',#1268,100.);
#1270=LINE('',#1267,#1269);
#1271=EDGE_CURVE('',#1260,#1092,#1270,.T.);
#1272=ORIENTED_EDGE('',*,*,#1271,.T.);
#1273=EDGE_LOOP('',(#1250,#1258,#1266,#1272));
#1274=FACE_BOUND('',#1273,.T.);
#1275=ADVANCED_FACE('',(#1274),#1249,.F.);
#1276=CARTESIAN_POINT('',(0.,100.,0.));
#1277=DIRECTION('',(0.,1.,0.));
#1278=DIRECTION('',(0.,0.,1.));
#1279=AXIS2_PLACEMENT_3D('',#1276,#1277,#1278);
#1280=PLANE('',#1279);
#1281=CARTESIAN_POINT('',(58.,100.,0.2));
#1282=DIRECTION('',(1.,0.,-0.));
#1283=VECTOR('',#1282,2.);
#1284=LINE('',#1281,#1283);
#1285=EDGE_CURVE('',#940,#1252,#1284,.T.);
#1286=ORIENTED_EDGE('',*,*,#1285,.F.);
#1287=ORIENTED_EDGE('',*,*,#945,.F.);
#1288=CARTESIAN_POINT('',(58.,100.,10.));
#1289=VERTEX_POINT('',#1288);
#1290=CARTESIAN_POINT('',(58.,100.,10.));
#1291=DIRECTION('',(0.,0.,-1.));
#1292=VECTOR('',#1291,7.);
#1293=LINE('',#1290,#1292);
#1294=EDGE_CURVE('',#1289,#938,#1293,.T.);
#1295=ORIENTED_EDGE('',*,*,#1294,.F.);
#1296=CARTESIAN_POINT('',(52.,100.,16.));
#1297=VERTEX_POINT('',#1296);
#1298=CARTESIAN_POINT('',(52.,100.,10.));
#1299=DIRECTION('',(0.,1.,0.));
#1300=DIRECTION('',(0.,-0.,1.));
#1301=AXIS2_PLACEMENT_3D('',#1298,#1299,#1300);
#1302=CIRCLE('',#1301,6.);
#1303=EDGE_CURVE('',#1297,#1289,#1302,.T.);
#1304=ORIENTED_EDGE('',*,*,#1303,.F.);
#1305=CARTESIAN_POINT('',(-52.,100.,16.));
#1306=VERTEX_POINT('',#1305);
#1307=CARTESIAN_POINT('',(-52.,100.,16.));
#1308=DIRECTION('',(1.,0.,-0.));
#1309=VECTOR('',#1308,104.);
#1310=LINE('',#1307,#1309);
#1311=EDGE_CURVE('',#1306,#1297,#1310,.T.);
#1312=ORIENTED_EDGE('',*,*,#1311,.F.);
#1313=CARTESIAN_POINT('',(-52.,100.,10.));
#1314=DIRECTION('',(0.,1.,0.));
#1315=DIRECTION('',(0.,-0.,1.));
#1316=AXIS2_PLACEMENT_3D('',#1313,#1314,#1315);
#1317=CIRCLE('',#1316,6.);
#1318=EDGE_CURVE('',#984,#1306,#1317,.T.);
#1319=ORIENTED_EDGE('',*,*,#1318,.F.);
#1320=ORIENTED_EDGE('',*,*,#989,.F.);
#1321=CARTESIAN_POINT('',(-58.,100.,0.2));
#1322=VERTEX_POINT('',#1321);
#1323=CARTESIAN_POINT('',(-58.,100.,0.2));
#1324=DIRECTION('',(0.,0.,1.));
#1325=VECTOR('',#1324,2.8);
#1326=LINE('',#1323,#1325);
#1327=EDGE_CURVE('',#1322,#976,#1326,.T.);
#1328=ORIENTED_EDGE('',*,*,#1327,.F.);
#1329=CARTESIAN_POINT('',(-60.,100.,0.2));
#1330=DIRECTION('',(1.,0.,0.));
#1331=VECTOR('',#1330,2.);
#1332=LINE('',#1329,#1331);
#1333=EDGE_CURVE('',#1189,#1322,#1332,.T.);
#1334=ORIENTED_EDGE('',*,*,#1333,.F.);
#1335=ORIENTED_EDGE('',*,*,#1196,.T.);
#1336=CARTESIAN_POINT('',(-52.,100.,10.));
#1337=DIRECTION('',(0.,1.,0.));
#1338=DIRECTION('',(0.,-0.,1.));
#1339=AXIS2_PLACEMENT_3D('',#1336,#1337,#1338);
#1340=CIRCLE('',#1339,8.);
#1341=EDGE_CURVE('',#1191,#1220,#1340,.T.);
#1342=ORIENTED_EDGE('',*,*,#1341,.T.);
#1343=ORIENTED_EDGE('',*,*,#1227,.T.);
#1344=CARTESIAN_POINT('',(52.,100.,10.));
#1345=DIRECTION('',(0.,1.,0.));
#1346=DIRECTION('',(0.,-0.,1.));
#1347=AXIS2_PLACEMENT_3D('',#1344,#1345,#1346);
#1348=CIRCLE('',#1347,8.);
#1349=EDGE_CURVE('',#1222,#1260,#1348,.T.);
#1350=ORIENTED_EDGE('',*,*,#1349,.T.);
#1351=ORIENTED_EDGE('',*,*,#1265,.T.);
#1352=EDGE_LOOP('',(#1286,#1287,#1295,#1304,#1312,#1319,#1320,#1328,#1334,#1335,#1342,#1343,#1350,#1351));
#1353=FACE_BOUND('',#1352,.T.);
#1354=ADVANCED_FACE('',(#1353),#1280,.T.);
#1355=CARTESIAN_POINT('',(-52.,100.,10.));
#1356=DIRECTION('',(0.,-1.,0.));
#1357=DIRECTION('',(0.,0.,-1.));
#1358=AXIS2_PLACEMENT_3D('',#1355,#1356,#1357);
#1359=CYLINDRICAL_SURFACE('',#1358,8.);
#1360=ORIENTED_EDGE('',*,*,#1341,.F.);
#1361=ORIENTED_EDGE('',*,*,#1209,.F.);
#1362=ORIENTED_EDGE('',*,*,#1123,.F.);
#1363=ORIENTED_EDGE('',*,*,#1233,.F.);
#1364=EDGE_LOOP('',(#1360,#1361,#1362,#1363));
#1365=FACE_BOUND('',#1364,.T.);
#1366=ADVANCED_FACE('',(#1365),#1359,.T.);
#1367=CARTESIAN_POINT('',(52.,100.,10.));
#1368=DIRECTION('',(0.,-1.,0.));
#1369=DIRECTION('',(0.,0.,-1.));
#1370=AXIS2_PLACEMENT_3D('',#1367,#1368,#1369);
#1371=CYLINDRICAL_SURFACE('',#1370,8.);
#1372=ORIENTED_EDGE('',*,*,#1349,.F.);
#1373=ORIENTED_EDGE('',*,*,#1240,.F.);
#1374=ORIENTED_EDGE('',*,*,#1106,.F.);
#1375=ORIENTED_EDGE('',*,*,#1271,.F.);
#1376=EDGE_LOOP('',(#1372,#1373,#1374,#1375));
#1377=FACE_BOUND('',#1376,.T.);
#1378=ADVANCED_FACE('',(#1377),#1371,.T.);
#1379=CARTESIAN_POINT('',(-52.,95.,10.));
#1380=DIRECTION('',(0.,1.,0.));
#1381=DIRECTION('',(0.,-0.,1.));
#1382=AXIS2_PLACEMENT_3D('',#1379,#1380,#1381);
#1383=CYLINDRICAL_SURFACE('',#1382,6.);
#1384=ORIENTED_EDGE('',*,*,#1318,.T.);
#1385=CARTESIAN_POINT('',(-52.,95.,16.));
#1386=DIRECTION('',(0.,1.,0.));
#1387=VECTOR('',#1386,5.);
#1388=LINE('',#1385,#1387);
#1389=EDGE_CURVE('',#100,#1306,#1388,.T.);
#1390=ORIENTED_EDGE('',*,*,#1389,.F.);
#1391=ORIENTED_EDGE('',*,*,#106,.F.);
#1392=ORIENTED_EDGE('',*,*,#995,.T.);
#1393=EDGE_LOOP('',(#1384,#1390,#1391,#1392));
#1394=FACE_BOUND('',#1393,.T.);
#1395=ADVANCED_FACE('',(#1394),#1383,.F.);
#1396=CARTESIAN_POINT('',(-0.,95.,16.));
#1397=DIRECTION('',(0.,0.,1.));
#1398=DIRECTION('',(1.,0.,-0.));
#1399=AXIS2_PLACEMENT_3D('',#1396,#1397,#1398);
#1400=PLANE('',#1399);
#1401=ORIENTED_EDGE('',*,*,#1311,.T.);
#1402=CARTESIAN_POINT('',(52.,95.,16.));
#1403=DIRECTION('',(0.,1.,0.));
#1404=VECTOR('',#1403,5.);
#1405=LINE('',#1402,#1404);
#1406=EDGE_CURVE('',#109,#1297,#1405,.T.);
#1407=ORIENTED_EDGE('',*,*,#1406,.F.);
#1408=ORIENTED_EDGE('',*,*,#114,.F.);
#1409=ORIENTED_EDGE('',*,*,#1389,.T.);
#1410=EDGE_LOOP('',(#1401,#1407,#1408,#1409));
#1411=FACE_BOUND('',#1410,.T.);
#1412=ADVANCED_FACE('',(#1411),#1400,.F.);
#1413=CARTESIAN_POINT('',(52.,95.,10.));
#1414=DIRECTION('',(0.,1.,0.));
#1415=DIRECTION('',(0.,-0.,1.));
#1416=AXIS2_PLACEMENT_3D('',#1413,#1414,#1415);
#1417=CYLINDRICAL_SURFACE('',#1416,6.);
#1418=ORIENTED_EDGE('',*,*,#1303,.T.);
#1419=CARTESIAN_POINT('',(58.,95.,10.));
#1420=DIRECTION('',(0.,1.,0.));
#1421=VECTOR('',#1420,5.);
#1422=LINE('',#1419,#1421);
#1423=EDGE_CURVE('',#117,#1289,#1422,.T.);
#1424=ORIENTED_EDGE('',*,*,#1423,.F.);
#1425=ORIENTED_EDGE('',*,*,#123,.F.);
#1426=ORIENTED_EDGE('',*,*,#1406,.T.);
#1427=EDGE_LOOP('',(#1418,#1424,#1425,#1426));
#1428=FACE_BOUND('',#1427,.T.);
#1429=ADVANCED_FACE('',(#1428),#1417,.F.);
#1430=CARTESIAN_POINT('',(58.,95.,0.));
#1431=DIRECTION('',(1.,0.,0.));
#1432=DIRECTION('',(0.,0.,-1.));
#1433=AXIS2_PLACEMENT_3D('',#1430,#1431,#1432);
#1434=PLANE('',#1433);
#1435=ORIENTED_EDGE('',*,*,#1294,.T.);
#1436=ORIENTED_EDGE('',*,*,#965,.T.);
#1437=ORIENTED_EDGE('',*,*,#131,.F.);
#1438=ORIENTED_EDGE('',*,*,#1423,.T.);
#1439=EDGE_LOOP('',(#1435,#1436,#1437,#1438));
#1440=FACE_BOUND('',#1439,.T.);
#1441=ADVANCED_FACE('',(#1440),#1434,.F.);
#1442=CARTESIAN_POINT('',(-58.,95.,0.));
#1443=DIRECTION('',(-1.,0.,0.));
#1444=DIRECTION('',(0.,0.,1.));
#1445=AXIS2_PLACEMENT_3D('',#1442,#1443,#1444);
#1446=PLANE('',#1445);
#1447=ORIENTED_EDGE('',*,*,#1327,.T.);
#1448=ORIENTED_EDGE('',*,*,#981,.T.);
#1449=CARTESIAN_POINT('',(-58.,95.,0.2));
#1450=VERTEX_POINT('',#1449);
#1451=CARTESIAN_POINT('',(-58.,95.,0.2));
#1452=DIRECTION('',(0.,0.,1.));
#1453=VECTOR('',#1452,2.8);
#1454=LINE('',#1451,#1453);
#1455=EDGE_CURVE('',#1450,#84,#1454,.T.);
#1456=ORIENTED_EDGE('',*,*,#1455,.F.);
#1457=CARTESIAN_POINT('',(-58.,95.,0.2));
#1458=DIRECTION('',(0.,1.,0.));
#1459=VECTOR('',#1458,5.);
#1460=LINE('',#1457,#1459);
#1461=EDGE_CURVE('',#1450,#1322,#1460,.T.);
#1462=ORIENTED_EDGE('',*,*,#1461,.T.);
#1463=EDGE_LOOP('',(#1447,#1448,#1456,#1462));
#1464=FACE_BOUND('',#1463,.T.);
#1465=ADVANCED_FACE('',(#1464),#1446,.F.);
#1466=CARTESIAN_POINT('',(58.,5.,0.));
#1467=DIRECTION('',(-1.,0.,0.));
#1468=DIRECTION('',(0.,0.,1.));
#1469=AXIS2_PLACEMENT_3D('',#1466,#1467,#1468);
#1470=PLANE('',#1469);
#1471=ORIENTED_EDGE('',*,*,#1034,.F.);
#1472=ORIENTED_EDGE('',*,*,#1178,.F.);
#1473=CARTESIAN_POINT('',(58.,5.,10.));
#1474=DIRECTION('',(0.,-1.,0.));
#1475=VECTOR('',#1474,5.);
#1476=LINE('',#1473,#1475);
#1477=EDGE_CURVE('',#422,#1166,#1476,.T.);
#1478=ORIENTED_EDGE('',*,*,#1477,.F.);
#1479=ORIENTED_EDGE('',*,*,#427,.T.);
#1480=EDGE_LOOP('',(#1471,#1472,#1478,#1479));
#1481=FACE_BOUND('',#1480,.T.);
#1482=ADVANCED_FACE('',(#1481),#1470,.T.);
#1483=CARTESIAN_POINT('',(52.,5.,10.));
#1484=DIRECTION('',(0.,-1.,0.));
#1485=DIRECTION('',(0.,0.,-1.));
#1486=AXIS2_PLACEMENT_3D('',#1483,#1484,#1485);
#1487=CYLINDRICAL_SURFACE('',#1486,6.);
#1488=ORIENTED_EDGE('',*,*,#1172,.T.);
#1489=CARTESIAN_POINT('',(52.,5.,16.));
#1490=DIRECTION('',(0.,-1.,0.));
#1491=VECTOR('',#1490,5.);
#1492=LINE('',#1489,#1491);
#1493=EDGE_CURVE('',#430,#1158,#1492,.T.);
#1494=ORIENTED_EDGE('',*,*,#1493,.F.);
#1495=ORIENTED_EDGE('',*,*,#436,.F.);
#1496=ORIENTED_EDGE('',*,*,#1477,.T.);
#1497=EDGE_LOOP('',(#1488,#1494,#1495,#1496));
#1498=FACE_BOUND('',#1497,.T.);
#1499=ADVANCED_FACE('',(#1498),#1487,.F.);
#1500=CARTESIAN_POINT('',(-0.,5.,16.));
#1501=DIRECTION('',(-0.,0.,-1.));
#1502=DIRECTION('',(-1.,0.,0.));
#1503=AXIS2_PLACEMENT_3D('',#1500,#1501,#1502);
#1504=PLANE('',#1503);
#1505=ORIENTED_EDGE('',*,*,#1163,.F.);
#1506=CARTESIAN_POINT('',(-52.,5.,16.));
#1507=DIRECTION('',(0.,-1.,0.));
#1508=VECTOR('',#1507,5.);
#1509=LINE('',#1506,#1508);
#1510=EDGE_CURVE('',#439,#1149,#1509,.T.);
#1511=ORIENTED_EDGE('',*,*,#1510,.F.);
#1512=ORIENTED_EDGE('',*,*,#444,.T.);
#1513=ORIENTED_EDGE('',*,*,#1493,.T.);
#1514=EDGE_LOOP('',(#1505,#1511,#1512,#1513));
#1515=FACE_BOUND('',#1514,.T.);
#1516=ADVANCED_FACE('',(#1515),#1504,.T.);
#1517=CARTESIAN_POINT('',(-52.,5.,10.));
#1518=DIRECTION('',(0.,-1.,0.));
#1519=DIRECTION('',(0.,0.,-1.));
#1520=AXIS2_PLACEMENT_3D('',#1517,#1518,#1519);
#1521=CYLINDRICAL_SURFACE('',#1520,6.);
#1522=ORIENTED_EDGE('',*,*,#1155,.T.);
#1523=CARTESIAN_POINT('',(-58.,5.,10.));
#1524=DIRECTION('',(0.,-1.,0.));
#1525=VECTOR('',#1524,5.);
#1526=LINE('',#1523,#1525);
#1527=EDGE_CURVE('',#447,#1141,#1526,.T.);
#1528=ORIENTED_EDGE('',*,*,#1527,.F.);
#1529=ORIENTED_EDGE('',*,*,#453,.F.);
#1530=ORIENTED_EDGE('',*,*,#1510,.T.);
#1531=EDGE_LOOP('',(#1522,#1528,#1529,#1530));
#1532=FACE_BOUND('',#1531,.T.);
#1533=ADVANCED_FACE('',(#1532),#1521,.F.);
#1534=CARTESIAN_POINT('',(-58.,5.,0.));
#1535=DIRECTION('',(1.,0.,0.));
#1536=DIRECTION('',(0.,0.,-1.));
#1537=AXIS2_PLACEMENT_3D('',#1534,#1535,#1536);
#1538=PLANE('',#1537);
#1539=ORIENTED_EDGE('',*,*,#1058,.F.);
#1540=ORIENTED_EDGE('',*,*,#461,.T.);
#1541=ORIENTED_EDGE('',*,*,#1527,.T.);
#1542=ORIENTED_EDGE('',*,*,#1146,.F.);
#1543=EDGE_LOOP('',(#1539,#1540,#1541,#1542));
#1544=FACE_BOUND('',#1543,.T.);
#1545=ADVANCED_FACE('',(#1544),#1538,.T.);
#1546=CARTESIAN_POINT('',(0.,100.,14.));
#1547=DIRECTION('',(-0.,0.,-1.));
#1548=DIRECTION('',(-1.,0.,0.));
#1549=AXIS2_PLACEMENT_3D('',#1546,#1547,#1548);
#1550=PLANE('',#1549);
#1551=ORIENTED_EDGE('',*,*,#48,.F.);
#1552=ORIENTED_EDGE('',*,*,#286,.T.);
#1553=ORIENTED_EDGE('',*,*,#508,.T.);
#1554=CARTESIAN_POINT('',(-48.,95.,14.));
#1555=DIRECTION('',(0.,-1.,0.));
#1556=VECTOR('',#1555,90.);
#1557=LINE('',#1554,#1556);
#1558=EDGE_CURVE('',#43,#497,#1557,.T.);
#1559=ORIENTED_EDGE('',*,*,#1558,.F.);
#1560=EDGE_LOOP('',(#1551,#1552,#1553,#1559));
#1561=FACE_BOUND('',#1560,.T.);
#1562=ADVANCED_FACE('',(#1561),#1550,.T.);
#1563=CARTESIAN_POINT('',(-58.,162.568826849,3.));
#1564=DIRECTION('',(0.,0.,1.));
#1565=DIRECTION('',(1.,0.,0.));
#1566=AXIS2_PLACEMENT_3D('',#1563,#1564,#1565);
#1567=PLANE('',#1566);
#1568=ORIENTED_EDGE('',*,*,#469,.T.);
#1569=CARTESIAN_POINT('',(-58.,95.,3.));
#1570=DIRECTION('',(0.,-1.,0.));
#1571=VECTOR('',#1570,90.);
#1572=LINE('',#1569,#1571);
#1573=EDGE_CURVE('',#84,#456,#1572,.T.);
#1574=ORIENTED_EDGE('',*,*,#1573,.F.);
#1575=ORIENTED_EDGE('',*,*,#89,.T.);
#1576=ORIENTED_EDGE('',*,*,#927,.T.);
#1577=EDGE_LOOP('',(#1568,#1574,#1575,#1576));
#1578=FACE_BOUND('',#1577,.T.);
#1579=ADVANCED_FACE('',(#1578),#1567,.F.);
#1580=CARTESIAN_POINT('',(-58.,162.568826849,0.2));
#1581=DIRECTION('',(-0.,0.,1.));
#1582=DIRECTION('',(1.,0.,0.));
#1583=AXIS2_PLACEMENT_3D('',#1580,#1581,#1582);
#1584=PLANE('',#1583);
#1585=ORIENTED_EDGE('',*,*,#1202,.F.);
#1586=ORIENTED_EDGE('',*,*,#1333,.T.);
#1587=ORIENTED_EDGE('',*,*,#1461,.F.);
#1588=CARTESIAN_POINT('',(-58.,95.,0.2));
#1589=DIRECTION('',(0.,-1.,0.));
#1590=VECTOR('',#1589,90.);
#1591=LINE('',#1588,#1590);
#1592=EDGE_CURVE('',#1450,#1045,#1591,.T.);
#1593=ORIENTED_EDGE('',*,*,#1592,.T.);
#1594=ORIENTED_EDGE('',*,*,#1072,.T.);
#1595=ORIENTED_EDGE('',*,*,#1137,.F.);
#1596=EDGE_LOOP('',(#1585,#1586,#1587,#1593,#1594,#1595));
#1597=FACE_BOUND('',#1596,.T.);
#1598=ADVANCED_FACE('',(#1597),#1584,.F.);
#1599=CARTESIAN_POINT('',(-58.,162.568826849,0.));
#1600=DIRECTION('',(-1.,0.,0.));
#1601=DIRECTION('',(0.,0.,1.));
#1602=AXIS2_PLACEMENT_3D('',#1599,#1600,#1601);
#1603=PLANE('',#1602);
#1604=ORIENTED_EDGE('',*,*,#1455,.T.);
#1605=ORIENTED_EDGE('',*,*,#1573,.T.);
#1606=ORIENTED_EDGE('',*,*,#1050,.F.);
#1607=ORIENTED_EDGE('',*,*,#1592,.F.);
#1608=EDGE_LOOP('',(#1604,#1605,#1606,#1607));
#1609=FACE_BOUND('',#1608,.T.);
#1610=ADVANCED_FACE('',(#1609),#1603,.F.);
#1611=CARTESIAN_POINT('',(58.,162.568826849,0.2));
#1612=DIRECTION('',(0.,0.,1.));
#1613=DIRECTION('',(1.,0.,-0.));
#1614=AXIS2_PLACEMENT_3D('',#1611,#1612,#1613);
#1615=PLANE('',#1614);
#1616=ORIENTED_EDGE('',*,*,#1020,.F.);
#1617=CARTESIAN_POINT('',(58.,95.,0.2));
#1618=DIRECTION('',(0.,-1.,0.));
#1619=VECTOR('',#1618,90.);
#1620=LINE('',#1617,#1619);
#1621=EDGE_CURVE('',#948,#1007,#1620,.T.);
#1622=ORIENTED_EDGE('',*,*,#1621,.F.);
#1623=ORIENTED_EDGE('',*,*,#953,.F.);
#1624=ORIENTED_EDGE('',*,*,#1285,.T.);
#1625=ORIENTED_EDGE('',*,*,#1257,.F.);
#1626=ORIENTED_EDGE('',*,*,#1089,.F.);
#1627=EDGE_LOOP('',(#1616,#1622,#1623,#1624,#1625,#1626));
#1628=FACE_BOUND('',#1627,.T.);
#1629=ADVANCED_FACE('',(#1628),#1615,.F.);
#1630=CARTESIAN_POINT('',(58.,162.568826849,0.));
#1631=DIRECTION('',(1.,0.,0.));
#1632=DIRECTION('',(0.,0.,-1.));
#1633=AXIS2_PLACEMENT_3D('',#1630,#1631,#1632);
#1634=PLANE('',#1633);
#1635=ORIENTED_EDGE('',*,*,#959,.T.);
#1636=ORIENTED_EDGE('',*,*,#1621,.T.);
#1637=ORIENTED_EDGE('',*,*,#1012,.F.);
#1638=CARTESIAN_POINT('',(58.,95.,3.));
#1639=DIRECTION('',(0.,-1.,0.));
#1640=VECTOR('',#1639,90.);
#1641=LINE('',#1638,#1640);
#1642=EDGE_CURVE('',#126,#414,#1641,.T.);
#1643=ORIENTED_EDGE('',*,*,#1642,.F.);
#1644=EDGE_LOOP('',(#1635,#1636,#1637,#1643));
#1645=FACE_BOUND('',#1644,.T.);
#1646=ADVANCED_FACE('',(#1645),#1634,.F.);
#1647=CARTESIAN_POINT('',(-58.,162.568826849,3.));
#1648=DIRECTION('',(0.,0.,1.));
#1649=DIRECTION('',(1.,0.,0.));
#1650=AXIS2_PLACEMENT_3D('',#1647,#1648,#1649);
#1651=PLANE('',#1650);
#1652=ORIENTED_EDGE('',*,*,#419,.T.);
#1653=ORIENTED_EDGE('',*,*,#904,.T.);
#1654=ORIENTED_EDGE('',*,*,#139,.T.);
#1655=ORIENTED_EDGE('',*,*,#1642,.T.);
#1656=EDGE_LOOP('',(#1652,#1653,#1654,#1655));
#1657=FACE_BOUND('',#1656,.T.);
#1658=ADVANCED_FACE('',(#1657),#1651,.F.);
#1659=CARTESIAN_POINT('',(-48.,95.,12.));
#1660=DIRECTION('',(-1.,0.,0.));
#1661=DIRECTION('',(0.,0.,-1.));
#1662=AXIS2_PLACEMENT_3D('',#1659,#1660,#1661);
#1663=PLANE('',#1662);
#1664=ORIENTED_EDGE('',*,*,#502,.F.);
#1665=CARTESIAN_POINT('',(-48.,95.,10.));
#1666=DIRECTION('',(0.,-1.,0.));
#1667=VECTOR('',#1666,90.);
#1668=LINE('',#1665,#1667);
#1669=EDGE_CURVE('',#51,#488,#1668,.T.);
#1670=ORIENTED_EDGE('',*,*,#1669,.F.);
#1671=ORIENTED_EDGE('',*,*,#56,.T.);
#1672=ORIENTED_EDGE('',*,*,#1558,.T.);
#1673=EDGE_LOOP('',(#1664,#1670,#1671,#1672));
#1674=FACE_BOUND('',#1673,.T.);
#1675=ADVANCED_FACE('',(#1674),#1663,.F.);
#1676=CARTESIAN_POINT('',(-52.,95.,10.));
#1677=DIRECTION('',(0.,-1.,0.));
#1678=DIRECTION('',(0.,0.,1.));
#1679=AXIS2_PLACEMENT_3D('',#1676,#1677,#1678);
#1680=CYLINDRICAL_SURFACE('',#1679,4.);
#1681=ORIENTED_EDGE('',*,*,#494,.T.);
#1682=CARTESIAN_POINT('',(-52.,95.,6.));
#1683=DIRECTION('',(0.,-1.,0.));
#1684=VECTOR('',#1683,90.);
#1685=LINE('',#1682,#1684);
#1686=EDGE_CURVE('',#59,#480,#1685,.T.);
#1687=ORIENTED_EDGE('',*,*,#1686,.F.);
#1688=ORIENTED_EDGE('',*,*,#65,.F.);
#1689=ORIENTED_EDGE('',*,*,#1669,.T.);
#1690=EDGE_LOOP('',(#1681,#1687,#1688,#1689));
#1691=FACE_BOUND('',#1690,.T.);
#1692=ADVANCED_FACE('',(#1691),#1680,.T.);
#1693=CARTESIAN_POINT('',(-54.,95.,6.));
#1694=DIRECTION('',(0.,0.,-1.));
#1695=DIRECTION('',(1.,0.,0.));
#1696=AXIS2_PLACEMENT_3D('',#1693,#1694,#1695);
#1697=PLANE('',#1696);
#1698=ORIENTED_EDGE('',*,*,#485,.T.);
#1699=ORIENTED_EDGE('',*,*,#920,.F.);
#1700=ORIENTED_EDGE('',*,*,#73,.F.);
#1701=ORIENTED_EDGE('',*,*,#1686,.T.);
#1702=EDGE_LOOP('',(#1698,#1699,#1700,#1701));
#1703=FACE_BOUND('',#1702,.T.);
#1704=ADVANCED_FACE('',(#1703),#1697,.T.);
#1705=CARTESIAN_POINT('',(-50.875,25.,10.649519053));
#1706=DIRECTION('',(0.866025404,0.,0.5));
#1707=DIRECTION('',(-0.5,0.,0.866025404));
#1708=AXIS2_PLACEMENT_3D('',#1705,#1706,#1707);
#1709=PLANE('',#1708);
#1710=ORIENTED_EDGE('',*,*,#520,.F.);
#1711=CARTESIAN_POINT('',(-51.25,25.,11.299038106));
#1712=VERTEX_POINT('',#1711);
#1713=CARTESIAN_POINT('',(-51.25,25.,11.299038106));
#1714=DIRECTION('',(0.,-1.,0.));
#1715=VECTOR('',#1714,20.);
#1716=LINE('',#1713,#1715);
#1717=EDGE_CURVE('',#1712,#513,#1716,.T.);
#1718=ORIENTED_EDGE('',*,*,#1717,.F.);
#1719=CARTESIAN_POINT('',(-50.5,25.,10.));
#1720=VERTEX_POINT('',#1719);
#1721=CARTESIAN_POINT('',(-51.25,25.,11.299038106));
#1722=DIRECTION('',(0.5,0.,-0.866025404));
#1723=VECTOR('',#1722,1.5);
#1724=LINE('',#1721,#1723);
#1725=EDGE_CURVE('',#1712,#1720,#1724,.T.);
#1726=ORIENTED_EDGE('',*,*,#1725,.T.);
#1727=CARTESIAN_POINT('',(-50.5,25.,10.));
#1728=DIRECTION('',(0.,-1.,0.));
#1729=VECTOR('',#1728,20.);
#1730=LINE('',#1727,#1729);
#1731=EDGE_CURVE('',#1720,#515,#1730,.T.);
#1732=ORIENTED_EDGE('',*,*,#1731,.T.);
#1733=EDGE_LOOP('',(#1710,#1718,#1726,#1732));
#1734=FACE_BOUND('',#1733,.T.);
#1735=ADVANCED_FACE('',(#1734),#1709,.F.);
#1736=CARTESIAN_POINT('',(-50.875,25.,9.350480947));
#1737=DIRECTION('',(0.866025404,0.,-0.5));
#1738=DIRECTION('',(0.5,0.,0.866025404));
#1739=AXIS2_PLACEMENT_3D('',#1736,#1737,#1738);
#1740=PLANE('',#1739);
#1741=ORIENTED_EDGE('',*,*,#528,.F.);
#1742=ORIENTED_EDGE('',*,*,#1731,.F.);
#1743=CARTESIAN_POINT('',(-51.25,25.,8.700961894));
#1744=VERTEX_POINT('',#1743);
#1745=CARTESIAN_POINT('',(-50.5,25.,10.));
#1746=DIRECTION('',(-0.5,0.,-0.866025404));
#1747=VECTOR('',#1746,1.5);
#1748=LINE('',#1745,#1747);
#1749=EDGE_CURVE('',#1720,#1744,#1748,.T.);
#1750=ORIENTED_EDGE('',*,*,#1749,.T.);
#1751=CARTESIAN_POINT('',(-51.25,25.,8.700961894));
#1752=DIRECTION('',(0.,-1.,0.));
#1753=VECTOR('',#1752,20.);
#1754=LINE('',#1751,#1753);
#1755=EDGE_CURVE('',#1744,#523,#1754,.T.);
#1756=ORIENTED_EDGE('',*,*,#1755,.T.);
#1757=EDGE_LOOP('',(#1741,#1742,#1750,#1756));
#1758=FACE_BOUND('',#1757,.T.);
#1759=ADVANCED_FACE('',(#1758),#1740,.F.);
#1760=CARTESIAN_POINT('',(-52.,25.,8.700961894));
#1761=DIRECTION('',(0.,0.,-1.));
#1762=DIRECTION('',(1.,0.,0.));
#1763=AXIS2_PLACEMENT_3D('',#1760,#1761,#1762);
#1764=PLANE('',#1763);
#1765=ORIENTED_EDGE('',*,*,#536,.F.);
#1766=ORIENTED_EDGE('',*,*,#1755,.F.);
#1767=CARTESIAN_POINT('',(-52.75,25.,8.700961894));
#1768=VERTEX_POINT('',#1767);
#1769=CARTESIAN_POINT('',(-51.25,25.,8.700961894));
#1770=DIRECTION('',(-1.,0.,-0.));
#1771=VECTOR('',#1770,1.5);
#1772=LINE('',#1769,#1771);
#1773=EDGE_CURVE('',#1744,#1768,#1772,.T.);
#1774=ORIENTED_EDGE('',*,*,#1773,.T.);
#1775=CARTESIAN_POINT('',(-52.75,25.,8.700961894));
#1776=DIRECTION('',(0.,-1.,0.));
#1777=VECTOR('',#1776,20.);
#1778=LINE('',#1775,#1777);
#1779=EDGE_CURVE('',#1768,#531,#1778,.T.);
#1780=ORIENTED_EDGE('',*,*,#1779,.T.);
#1781=EDGE_LOOP('',(#1765,#1766,#1774,#1780));
#1782=FACE_BOUND('',#1781,.T.);
#1783=ADVANCED_FACE('',(#1782),#1764,.F.);
#1784=CARTESIAN_POINT('',(-53.125,25.,9.350480947));
#1785=DIRECTION('',(-0.866025404,0.,-0.5));
#1786=DIRECTION('',(0.5,0.,-0.866025404));
#1787=AXIS2_PLACEMENT_3D('',#1784,#1785,#1786);
#1788=PLANE('',#1787);
#1789=ORIENTED_EDGE('',*,*,#544,.F.);
#1790=ORIENTED_EDGE('',*,*,#1779,.F.);
#1791=CARTESIAN_POINT('',(-53.5,25.,10.));
#1792=VERTEX_POINT('',#1791);
#1793=CARTESIAN_POINT('',(-52.75,25.,8.700961894));
#1794=DIRECTION('',(-0.5,0.,0.866025404));
#1795=VECTOR('',#1794,1.5);
#1796=LINE('',#1793,#1795);
#1797=EDGE_CURVE('',#1768,#1792,#1796,.T.);
#1798=ORIENTED_EDGE('',*,*,#1797,.T.);
#1799=CARTESIAN_POINT('',(-53.5,25.,10.));
#1800=DIRECTION('',(0.,-1.,0.));
#1801=VECTOR('',#1800,20.);
#1802=LINE('',#1799,#1801);
#1803=EDGE_CURVE('',#1792,#539,#1802,.T.);
#1804=ORIENTED_EDGE('',*,*,#1803,.T.);
#1805=EDGE_LOOP('',(#1789,#1790,#1798,#1804));
#1806=FACE_BOUND('',#1805,.T.);
#1807=ADVANCED_FACE('',(#1806),#1788,.F.);
#1808=CARTESIAN_POINT('',(-53.125,25.,10.649519053));
#1809=DIRECTION('',(-0.866025404,0.,0.5));
#1810=DIRECTION('',(-0.5,0.,-0.866025404));
#1811=AXIS2_PLACEMENT_3D('',#1808,#1809,#1810);
#1812=PLANE('',#1811);
#1813=ORIENTED_EDGE('',*,*,#552,.F.);
#1814=ORIENTED_EDGE('',*,*,#1803,.F.);
#1815=CARTESIAN_POINT('',(-52.75,25.,11.299038106));
#1816=VERTEX_POINT('',#1815);
#1817=CARTESIAN_POINT('',(-53.5,25.,10.));
#1818=DIRECTION('',(0.5,0.,0.866025404));
#1819=VECTOR('',#1818,1.5);
#1820=LINE('',#1817,#1819);
#1821=EDGE_CURVE('',#1792,#1816,#1820,.T.);
#1822=ORIENTED_EDGE('',*,*,#1821,.T.);
#1823=CARTESIAN_POINT('',(-52.75,25.,11.299038106));
#1824=DIRECTION('',(0.,-1.,0.));
#1825=VECTOR('',#1824,20.);
#1826=LINE('',#1823,#1825);
#1827=EDGE_CURVE('',#1816,#547,#1826,.T.);
#1828=ORIENTED_EDGE('',*,*,#1827,.T.);
#1829=EDGE_LOOP('',(#1813,#1814,#1822,#1828));
#1830=FACE_BOUND('',#1829,.T.);
#1831=ADVANCED_FACE('',(#1830),#1812,.F.);
#1832=CARTESIAN_POINT('',(-52.,25.,11.299038106));
#1833=DIRECTION('',(-0.,0.,1.));
#1834=DIRECTION('',(-1.,0.,-0.));
#1835=AXIS2_PLACEMENT_3D('',#1832,#1833,#1834);
#1836=PLANE('',#1835);
#1837=ORIENTED_EDGE('',*,*,#558,.F.);
#1838=ORIENTED_EDGE('',*,*,#1827,.F.);
#1839=CARTESIAN_POINT('',(-52.75,25.,11.299038106));
#1840=DIRECTION('',(1.,0.,0.));
#1841=VECTOR('',#1840,1.5);
#1842=LINE('',#1839,#1841);
#1843=EDGE_CURVE('',#1816,#1712,#1842,.T.);
#1844=ORIENTED_EDGE('',*,*,#1843,.T.);
#1845=ORIENTED_EDGE('',*,*,#1717,.T.);
#1846=EDGE_LOOP('',(#1837,#1838,#1844,#1845));
#1847=FACE_BOUND('',#1846,.T.);
#1848=ADVANCED_FACE('',(#1847),#1836,.F.);
#1849=CARTESIAN_POINT('',(0.,25.,0.));
#1850=DIRECTION('',(0.,-1.,0.));
#1851=DIRECTION('',(1.,0.,0.));
#1852=AXIS2_PLACEMENT_3D('',#1849,#1850,#1851);
#1853=PLANE('',#1852);
#1854=ORIENTED_EDGE('',*,*,#1725,.F.);
#1855=ORIENTED_EDGE('',*,*,#1843,.F.);
#1856=ORIENTED_EDGE('',*,*,#1821,.F.);
#1857=ORIENTED_EDGE('',*,*,#1797,.F.);
#1858=ORIENTED_EDGE('',*,*,#1773,.F.);
#1859=ORIENTED_EDGE('',*,*,#1749,.F.);
#1860=EDGE_LOOP('',(#1854,#1855,#1856,#1857,#1858,#1859));
#1861=FACE_BOUND('',#1860,.T.);
#1862=ADVANCED_FACE('',(#1861),#1853,.T.);
#1863=CARTESIAN_POINT('',(-53.125,75.,9.350480947));
#1864=DIRECTION('',(0.866025404,0.,0.5));
#1865=DIRECTION('',(-0.5,0.,0.866025404));
#1866=AXIS2_PLACEMENT_3D('',#1863,#1864,#1865);
#1867=PLANE('',#1866);
#1868=ORIENTED_EDGE('',*,*,#224,.T.);
#1869=CARTESIAN_POINT('',(-53.5,75.,10.));
#1870=VERTEX_POINT('',#1869);
#1871=CARTESIAN_POINT('',(-53.5,75.,10.));
#1872=DIRECTION('',(0.,1.,0.));
#1873=VECTOR('',#1872,20.);
#1874=LINE('',#1871,#1873);
#1875=EDGE_CURVE('',#1870,#219,#1874,.T.);
#1876=ORIENTED_EDGE('',*,*,#1875,.F.);
#1877=CARTESIAN_POINT('',(-52.75,75.,8.700961894));
#1878=VERTEX_POINT('',#1877);
#1879=CARTESIAN_POINT('',(-52.75,75.,8.700961894));
#1880=DIRECTION('',(-0.5,0.,0.866025404));
#1881=VECTOR('',#1880,1.5);
#1882=LINE('',#1879,#1881);
#1883=EDGE_CURVE('',#1878,#1870,#1882,.T.);
#1884=ORIENTED_EDGE('',*,*,#1883,.F.);
#1885=CARTESIAN_POINT('',(-52.75,75.,8.700961894));
#1886=DIRECTION('',(0.,1.,0.));
#1887=VECTOR('',#1886,20.);
#1888=LINE('',#1885,#1887);
#1889=EDGE_CURVE('',#1878,#217,#1888,.T.);
#1890=ORIENTED_EDGE('',*,*,#1889,.T.);
#1891=EDGE_LOOP('',(#1868,#1876,#1884,#1890));
#1892=FACE_BOUND('',#1891,.T.);
#1893=ADVANCED_FACE('',(#1892),#1867,.T.);
#1894=OVER_RIDING_STYLED_ITEM('',(#758),#1893,#26);
#1895=CARTESIAN_POINT('',(-52.,75.,8.700961894));
#1896=DIRECTION('',(-0.,0.,1.));
#1897=DIRECTION('',(-1.,0.,-0.));
#1898=AXIS2_PLACEMENT_3D('',#1895,#1896,#1897);
#1899=PLANE('',#1898);
#1900=ORIENTED_EDGE('',*,*,#232,.T.);
#1901=ORIENTED_EDGE('',*,*,#1889,.F.);
#1902=CARTESIAN_POINT('',(-51.25,75.,8.700961894));
#1903=VERTEX_POINT('',#1902);
#1904=CARTESIAN_POINT('',(-51.25,75.,8.700961894));
#1905=DIRECTION('',(-1.,0.,-0.));
#1906=VECTOR('',#1905,1.5);
#1907=LINE('',#1904,#1906);
#1908=EDGE_CURVE('',#1903,#1878,#1907,.T.);
#1909=ORIENTED_EDGE('',*,*,#1908,.F.);
#1910=CARTESIAN_POINT('',(-51.25,75.,8.700961894));
#1911=DIRECTION('',(0.,1.,0.));
#1912=VECTOR('',#1911,20.);
#1913=LINE('',#1910,#1912);
#1914=EDGE_CURVE('',#1903,#227,#1913,.T.);
#1915=ORIENTED_EDGE('',*,*,#1914,.T.);
#1916=EDGE_LOOP('',(#1900,#1901,#1909,#1915));
#1917=FACE_BOUND('',#1916,.T.);
#1918=ADVANCED_FACE('',(#1917),#1899,.T.);
#1919=OVER_RIDING_STYLED_ITEM('',(#758),#1918,#26);
#1920=CARTESIAN_POINT('',(-50.875,75.,9.350480947));
#1921=DIRECTION('',(-0.866025404,0.,0.5));
#1922=DIRECTION('',(-0.5,0.,-0.866025404));
#1923=AXIS2_PLACEMENT_3D('',#1920,#1921,#1922);
#1924=PLANE('',#1923);
#1925=ORIENTED_EDGE('',*,*,#240,.T.);
#1926=ORIENTED_EDGE('',*,*,#1914,.F.);
#1927=CARTESIAN_POINT('',(-50.5,75.,10.));
#1928=VERTEX_POINT('',#1927);
#1929=CARTESIAN_POINT('',(-50.5,75.,10.));
#1930=DIRECTION('',(-0.5,0.,-0.866025404));
#1931=VECTOR('',#1930,1.5);
#1932=LINE('',#1929,#1931);
#1933=EDGE_CURVE('',#1928,#1903,#1932,.T.);
#1934=ORIENTED_EDGE('',*,*,#1933,.F.);
#1935=CARTESIAN_POINT('',(-50.5,75.,10.));
#1936=DIRECTION('',(0.,1.,0.));
#1937=VECTOR('',#1936,20.);
#1938=LINE('',#1935,#1937);
#1939=EDGE_CURVE('',#1928,#235,#1938,.T.);
#1940=ORIENTED_EDGE('',*,*,#1939,.T.);
#1941=EDGE_LOOP('',(#1925,#1926,#1934,#1940));
#1942=FACE_BOUND('',#1941,.T.);
#1943=ADVANCED_FACE('',(#1942),#1924,.T.);
#1944=OVER_RIDING_STYLED_ITEM('',(#758),#1943,#26);
#1945=CARTESIAN_POINT('',(-50.875,75.,10.649519053));
#1946=DIRECTION('',(-0.866025404,0.,-0.5));
#1947=DIRECTION('',(0.5,0.,-0.866025404));
#1948=AXIS2_PLACEMENT_3D('',#1945,#1946,#1947);
#1949=PLANE('',#1948);
#1950=ORIENTED_EDGE('',*,*,#248,.T.);
#1951=ORIENTED_EDGE('',*,*,#1939,.F.);
#1952=CARTESIAN_POINT('',(-51.25,75.,11.299038106));
#1953=VERTEX_POINT('',#1952);
#1954=CARTESIAN_POINT('',(-51.25,75.,11.299038106));
#1955=DIRECTION('',(0.5,0.,-0.866025404));
#1956=VECTOR('',#1955,1.5);
#1957=LINE('',#1954,#1956);
#1958=EDGE_CURVE('',#1953,#1928,#1957,.T.);
#1959=ORIENTED_EDGE('',*,*,#1958,.F.);
#1960=CARTESIAN_POINT('',(-51.25,75.,11.299038106));
#1961=DIRECTION('',(0.,1.,0.));
#1962=VECTOR('',#1961,20.);
#1963=LINE('',#1960,#1962);
#1964=EDGE_CURVE('',#1953,#243,#1963,.T.);
#1965=ORIENTED_EDGE('',*,*,#1964,.T.);
#1966=EDGE_LOOP('',(#1950,#1951,#1959,#1965));
#1967=FACE_BOUND('',#1966,.T.);
#1968=ADVANCED_FACE('',(#1967),#1949,.T.);
#1969=OVER_RIDING_STYLED_ITEM('',(#758),#1968,#26);
#1970=CARTESIAN_POINT('',(-52.,75.,11.299038106));
#1971=DIRECTION('',(0.,0.,-1.));
#1972=DIRECTION('',(1.,0.,0.));
#1973=AXIS2_PLACEMENT_3D('',#1970,#1971,#1972);
#1974=PLANE('',#1973);
#1975=ORIENTED_EDGE('',*,*,#256,.T.);
#1976=ORIENTED_EDGE('',*,*,#1964,.F.);
#1977=CARTESIAN_POINT('',(-52.75,75.,11.299038106));
#1978=VERTEX_POINT('',#1977);
#1979=CARTESIAN_POINT('',(-52.75,75.,11.299038106));
#1980=DIRECTION('',(1.,0.,0.));
#1981=VECTOR('',#1980,1.5);
#1982=LINE('',#1979,#1981);
#1983=EDGE_CURVE('',#1978,#1953,#1982,.T.);
#1984=ORIENTED_EDGE('',*,*,#1983,.F.);
#1985=CARTESIAN_POINT('',(-52.75,75.,11.299038106));
#1986=DIRECTION('',(0.,1.,0.));
#1987=VECTOR('',#1986,20.);
#1988=LINE('',#1985,#1987);
#1989=EDGE_CURVE('',#1978,#251,#1988,.T.);
#1990=ORIENTED_EDGE('',*,*,#1989,.T.);
#1991=EDGE_LOOP('',(#1975,#1976,#1984,#1990));
#1992=FACE_BOUND('',#1991,.T.);
#1993=ADVANCED_FACE('',(#1992),#1974,.T.);
#1994=OVER_RIDING_STYLED_ITEM('',(#758),#1993,#26);
#1995=CARTESIAN_POINT('',(-53.125,75.,10.649519053));
#1996=DIRECTION('',(0.866025404,0.,-0.5));
#1997=DIRECTION('',(0.5,0.,0.866025404));
#1998=AXIS2_PLACEMENT_3D('',#1995,#1996,#1997);
#1999=PLANE('',#1998);
#2000=ORIENTED_EDGE('',*,*,#262,.T.);
#2001=ORIENTED_EDGE('',*,*,#1989,.F.);
#2002=CARTESIAN_POINT('',(-53.5,75.,10.));
#2003=DIRECTION('',(0.5,0.,0.866025404));
#2004=VECTOR('',#2003,1.5);
#2005=LINE('',#2002,#2004);
#2006=EDGE_CURVE('',#1870,#1978,#2005,.T.);
#2007=ORIENTED_EDGE('',*,*,#2006,.F.);
#2008=ORIENTED_EDGE('',*,*,#1875,.T.);
#2009=EDGE_LOOP('',(#2000,#2001,#2007,#2008));
#2010=FACE_BOUND('',#2009,.T.);
#2011=ADVANCED_FACE('',(#2010),#1999,.T.);
#2012=OVER_RIDING_STYLED_ITEM('',(#758),#2011,#26);
#2013=CARTESIAN_POINT('',(0.,75.,0.));
#2014=DIRECTION('',(0.,1.,0.));
#2015=DIRECTION('',(-1.,0.,0.));
#2016=AXIS2_PLACEMENT_3D('',#2013,#2014,#2015);
#2017=PLANE('',#2016);
#2018=ORIENTED_EDGE('',*,*,#1883,.T.);
#2019=ORIENTED_EDGE('',*,*,#2006,.T.);
#2020=ORIENTED_EDGE('',*,*,#1983,.T.);
#2021=ORIENTED_EDGE('',*,*,#1958,.T.);
#2022=ORIENTED_EDGE('',*,*,#1933,.T.);
#2023=ORIENTED_EDGE('',*,*,#1908,.T.);
#2024=EDGE_LOOP('',(#2018,#2019,#2020,#2021,#2022,#2023));
#2025=FACE_BOUND('',#2024,.T.);
#2026=ADVANCED_FACE('',(#2025),#2017,.T.);
#2027=OVER_RIDING_STYLED_ITEM('',(#758),#2026,#26);
#2028=CLOSED_SHELL('',(#266,#297,#322,#346,#562,#593,#617,#641,#665,#689,#706,#720,#751,#783,#808,#833,#858,#876,#891,#909,#931,#969,#1000,#1038,#1076,#1182,
#1213,#1244,#1275,#1354,#1366,#1378,#1395,#1412,#1429,#1441,#1465,#1482,#1499,#1516,#1533,#1545,#1562,#1579,#1598,#1610,#1629,#1646,#1658,#1675,#1692,
#1704,#1735,#1759,#1783,#1807,#1831,#1848,#1862,#1893,#1918,#1943,#1968,#1993,#2011,#2026));
#2029=MANIFOLD_SOLID_BREP('shell top',#2028);
#2030=DRAUGHTING_PRE_DEFINED_COLOUR('white');
#2031=FILL_AREA_STYLE_COLOUR('',#2030);
#2032=FILL_AREA_STYLE('',(#2031));
#2033=SURFACE_STYLE_FILL_AREA(#2032);
#2034=SURFACE_SIDE_STYLE('',(#2033));
#2035=SURFACE_STYLE_USAGE(.BOTH.,#2034);
#2036=PRESENTATION_STYLE_ASSIGNMENT((#2035));
#26=STYLED_ITEM('',(#2036),#2029);
#16=SHAPE_REPRESENTATION('shell top',(#15),#10);
#17=ADVANCED_BREP_SHAPE_REPRESENTATION('shell top',(#2029),#10);
#2044=SHAPE_REPRESENTATION_RELATIONSHIP('','',#16,#17);
#2045=CARTESIAN_POINT('',(0.,0.,0.));
#2046=DIRECTION('',(0.,0.,1.));
#2047=DIRECTION('',(1.,0.,0.));
#2048=AXIS2_PLACEMENT_3D('',#2045,#2046,#2047);
#2050=MAPPED_ITEM('',#2049,#2048);
#2049=REPRESENTATION_MAP(#2048,#16);
#2051=APPLICATION_CONTEXT('Managed model based 3d engineering');
#2052=APPLICATION_PROTOCOL_DEFINITION('international standard','ap242_managed_model_based_3d_engineering',2014,#2051);
#2053=PRODUCT_CONTEXT('',#2051,'mechanical');
#2054=PRODUCT_DEFINITION_CONTEXT('part definition',#2051,'design');
#24=PRODUCT('shell top','shell top','',(#2053));
#2055=PRODUCT_RELATED_PRODUCT_CATEGORY('part','',(#24));
#2056=PRODUCT_DEFINITION_FORMATION_WITH_SPECIFIED_SOURCE('','',#24,.NOT_KNOWN.);
#25=PRODUCT_DEFINITION('design','',#2056,#2054);
#23=PRODUCT_DEFINITION_SHAPE('','',#25);
#2057=SHAPE_DEFINITION_REPRESENTATION(#23,#16);
#11=DRAUGHTING_MODEL('',(#2050),#10);
#2058=DESCRIPTIVE_REPRESENTATION_ITEM('KEY','/Users/georgewhite/Library/Containers/com.shapr3d.shapr/Data/tmp/F2C58633-F6F8-4DA1-9433-62EAF530B692.tmp');
#2059=PROPERTY_DEFINITION('KEY','',#25);
#2060=REPRESENTATION('',(#2058),#10);
#2061=PROPERTY_DEFINITION_REPRESENTATION(#2059,#2060);
#2062=GENERAL_PROPERTY('','KEY','');
#2063=GENERAL_PROPERTY_ASSOCIATION('','',#2062,#2059);
#1=MECHANICAL_DESIGN_GEOMETRIC_PRESENTATION_REPRESENTATION('',(#759,#784,#809,#834,#859,#877,#892,#1894,#1919,#1944,#1969,#1994,#2012,#2027,#26),#10);
ENDSEC;
END-ISO-10303-21;
