ISO-10303-21;
HEADER;

/* File generated by Shapr3D Version 26.50.0.10685 */

FILE_DESCRIPTION(('HOOPS Exchange Step'),'2;1');

FILE_NAME('/Users/georgewhite/Library/Containers/com.shapr3d.shapr/Data/tmp/export/temp_export',
'2026-04-13T15:36:52-04:00',
('georgewhite'),
('Shapr3D Limited'),
'HOOPS Exchange 2025.9',
'Shapr3D',
'Authorized');

FILE_SCHEMA( ('AP242_MANAGED_MODEL_BASED_3D_ENGINEERING_MIM_LF {1 0 10303 442 1 1 4}') );

ENDSEC;

DATA;
#3=(NAMED_UNIT(*)PLANE_ANGLE_UNIT()SI_UNIT($,.RADIAN.));
#4=PLANE_ANGLE_MEASURE_WITH_UNIT(PLANE_ANGLE_MEASURE(0.0174532925),#3);
#5=(CONVERSION_BASED_UNIT('DEGREE',#4)NAMED_UNIT(#6)PLANE_ANGLE_UNIT());
#6=DIMENSIONAL_EXPONENTS(0.,0.,0.,0.,0.,0.,0.);
#7=(NAMED_UNIT(*)SI_UNIT($,.STERADIAN.)SOLID_ANGLE_UNIT());
#8=(LENGTH_UNIT()NAMED_UNIT(*)SI_UNIT(.MILLI.,.METRE.));
#9=UNCERTAINTY_MEASURE_WITH_UNIT(LENGTH_MEASURE(1.000000E-05),#8,'DISTANCE_ACCURACY_VALUE','Maximum Tolerance applied to model');
#10=(GEOMETRIC_REPRESENTATION_CONTEXT(3)GLOBAL_UNCERTAINTY_ASSIGNED_CONTEXT((#9))GLOBAL_UNIT_ASSIGNED_CONTEXT((#8,#5,#7))REPRESENTATION_CONTEXT('','shell bottom'));
#12=CARTESIAN_POINT('',(0.,0.,0.));
#13=DIRECTION('',(0.,0.,1.));
#14=DIRECTION('',(1.,0.,0.));
#15=AXIS2_PLACEMENT_3D('TS3D_PRODUCT_CSYS',#12,#13,#14);
#27=CARTESIAN_POINT('',(0.,95.,0.));
#28=DIRECTION('',(0.,-1.,0.));
#29=DIRECTION('',(-1.,0.,0.));
#30=AXIS2_PLACEMENT_3D('',#27,#28,#29);
#31=PLANE('',#30);
#32=CARTESIAN_POINT('',(48.,95.,-10.));
#33=VERTEX_POINT('',#32);
#34=CARTESIAN_POINT('',(48.,95.,-14.));
#35=VERTEX_POINT('',#34);
#36=CARTESIAN_POINT('',(48.,95.,-10.));
#37=DIRECTION('',(0.,0.,-1.));
#38=VECTOR('',#37,4.);
#39=LINE('',#36,#38);
#40=EDGE_CURVE('',#33,#35,#39,.T.);
#41=ORIENTED_EDGE('',*,*,#40,.F.);
#42=CARTESIAN_POINT('',(52.,95.,-6.));
#43=VERTEX_POINT('',#42);
#44=CARTESIAN_POINT('',(52.,95.,-10.));
#45=DIRECTION('',(0.,1.,0.));
#46=DIRECTION('',(0.,0.,-1.));
#47=AXIS2_PLACEMENT_3D('',#44,#45,#46);
#48=CIRCLE('',#47,4.);
#49=EDGE_CURVE('',#33,#43,#48,.T.);
#50=ORIENTED_EDGE('',*,*,#49,.T.);
#51=CARTESIAN_POINT('',(56.,95.,-6.));
#52=VERTEX_POINT('',#51);
#53=CARTESIAN_POINT('',(52.,95.,-6.));
#54=DIRECTION('',(1.,0.,-0.));
#55=VECTOR('',#54,4.);
#56=LINE('',#53,#55);
#57=EDGE_CURVE('',#43,#52,#56,.T.);
#58=ORIENTED_EDGE('',*,*,#57,.T.);
#59=CARTESIAN_POINT('',(56.,95.,3.));
#60=VERTEX_POINT('',#59);
#61=CARTESIAN_POINT('',(56.,95.,-6.));
#62=DIRECTION('',(0.,0.,1.));
#63=VECTOR('',#62,9.);
#64=LINE('',#61,#63);
#65=EDGE_CURVE('',#52,#60,#64,.T.);
#66=ORIENTED_EDGE('',*,*,#65,.T.);
#67=CARTESIAN_POINT('',(58.,95.,3.));
#68=VERTEX_POINT('',#67);
#69=CARTESIAN_POINT('',(56.,95.,3.));
#70=DIRECTION('',(1.,0.,-0.));
#71=VECTOR('',#70,2.);
#72=LINE('',#69,#71);
#73=EDGE_CURVE('',#60,#68,#72,.T.);
#74=ORIENTED_EDGE('',*,*,#73,.T.);
#75=CARTESIAN_POINT('',(58.,95.,-0.2));
#76=VERTEX_POINT('',#75);
#77=CARTESIAN_POINT('',(58.,95.,3.));
#78=DIRECTION('',(0.,0.,-1.));
#79=VECTOR('',#78,3.2);
#80=LINE('',#77,#79);
#81=EDGE_CURVE('',#68,#76,#80,.T.);
#82=ORIENTED_EDGE('',*,*,#81,.T.);
#83=CARTESIAN_POINT('',(58.,95.,-10.));
#84=VERTEX_POINT('',#83);
#85=CARTESIAN_POINT('',(58.,95.,-0.2));
#86=DIRECTION('',(0.,0.,-1.));
#87=VECTOR('',#86,9.8);
#88=LINE('',#85,#87);
#89=EDGE_CURVE('',#76,#84,#88,.T.);
#90=ORIENTED_EDGE('',*,*,#89,.T.);
#91=CARTESIAN_POINT('',(52.,95.,-16.));
#92=VERTEX_POINT('',#91);
#93=CARTESIAN_POINT('',(52.,95.,-10.));
#94=DIRECTION('',(0.,1.,0.));
#95=DIRECTION('',(0.,-0.,1.));
#96=AXIS2_PLACEMENT_3D('',#93,#94,#95);
#97=CIRCLE('',#96,6.);
#98=EDGE_CURVE('',#84,#92,#97,.T.);
#99=ORIENTED_EDGE('',*,*,#98,.T.);
#100=CARTESIAN_POINT('',(-52.,95.,-16.));
#101=VERTEX_POINT('',#100);
#102=CARTESIAN_POINT('',(52.,95.,-16.));
#103=DIRECTION('',(-1.,0.,0.));
#104=VECTOR('',#103,104.);
#105=LINE('',#102,#104);
#106=EDGE_CURVE('',#92,#101,#105,.T.);
#107=ORIENTED_EDGE('',*,*,#106,.T.);
#108=CARTESIAN_POINT('',(-58.,95.,-10.));
#109=VERTEX_POINT('',#108);
#110=CARTESIAN_POINT('',(-52.,95.,-10.));
#111=DIRECTION('',(0.,1.,0.));
#112=DIRECTION('',(0.,-0.,1.));
#113=AXIS2_PLACEMENT_3D('',#110,#111,#112);
#114=CIRCLE('',#113,6.);
#115=EDGE_CURVE('',#101,#109,#114,.T.);
#116=ORIENTED_EDGE('',*,*,#115,.T.);
#117=CARTESIAN_POINT('',(-58.,95.,-0.2));
#118=VERTEX_POINT('',#117);
#119=CARTESIAN_POINT('',(-58.,95.,-10.));
#120=DIRECTION('',(0.,0.,1.));
#121=VECTOR('',#120,9.8);
#122=LINE('',#119,#121);
#123=EDGE_CURVE('',#109,#118,#122,.T.);
#124=ORIENTED_EDGE('',*,*,#123,.T.);
#125=CARTESIAN_POINT('',(-58.,95.,3.));
#126=VERTEX_POINT('',#125);
#127=CARTESIAN_POINT('',(-58.,95.,-0.2));
#128=DIRECTION('',(0.,0.,1.));
#129=VECTOR('',#128,3.2);
#130=LINE('',#127,#129);
#131=EDGE_CURVE('',#118,#126,#130,.T.);
#132=ORIENTED_EDGE('',*,*,#131,.T.);
#133=CARTESIAN_POINT('',(-56.,95.,3.));
#134=VERTEX_POINT('',#133);
#135=CARTESIAN_POINT('',(-58.,95.,3.));
#136=DIRECTION('',(1.,0.,-0.));
#137=VECTOR('',#136,2.);
#138=LINE('',#135,#137);
#139=EDGE_CURVE('',#126,#134,#138,.T.);
#140=ORIENTED_EDGE('',*,*,#139,.T.);
#141=CARTESIAN_POINT('',(-56.,95.,-6.));
#142=VERTEX_POINT('',#141);
#143=CARTESIAN_POINT('',(-56.,95.,3.));
#144=DIRECTION('',(-0.,0.,-1.));
#145=VECTOR('',#144,9.);
#146=LINE('',#143,#145);
#147=EDGE_CURVE('',#134,#142,#146,.T.);
#148=ORIENTED_EDGE('',*,*,#147,.T.);
#149=CARTESIAN_POINT('',(-52.,95.,-6.));
#150=VERTEX_POINT('',#149);
#151=CARTESIAN_POINT('',(-52.,95.,-6.));
#152=DIRECTION('',(-1.,0.,0.));
#153=VECTOR('',#152,4.);
#154=LINE('',#151,#153);
#155=EDGE_CURVE('',#150,#142,#154,.T.);
#156=ORIENTED_EDGE('',*,*,#155,.F.);
#157=CARTESIAN_POINT('',(-48.,95.,-10.));
#158=VERTEX_POINT('',#157);
#159=CARTESIAN_POINT('',(-52.,95.,-10.));
#160=DIRECTION('',(0.,-1.,0.));
#161=DIRECTION('',(0.,0.,-1.));
#162=AXIS2_PLACEMENT_3D('',#159,#160,#161);
#163=CIRCLE('',#162,4.);
#164=EDGE_CURVE('',#158,#150,#163,.T.);
#165=ORIENTED_EDGE('',*,*,#164,.F.);
#166=CARTESIAN_POINT('',(-48.,95.,-14.));
#167=VERTEX_POINT('',#166);
#168=CARTESIAN_POINT('',(-48.,95.,-10.));
#169=DIRECTION('',(0.,0.,-1.));
#170=VECTOR('',#169,4.);
#171=LINE('',#168,#170);
#172=EDGE_CURVE('',#158,#167,#171,.T.);
#173=ORIENTED_EDGE('',*,*,#172,.T.);
#174=CARTESIAN_POINT('',(-48.,95.,-14.));
#175=DIRECTION('',(1.,0.,-0.));
#176=VECTOR('',#175,96.);
#177=LINE('',#174,#176);
#178=EDGE_CURVE('',#167,#35,#177,.T.);
#179=ORIENTED_EDGE('',*,*,#178,.T.);
#180=EDGE_LOOP('',(#41,#50,#58,#66,#74,#82,#90,#99,#107,#116,#124,#132,#140,#148,#156,#165,#173,#179));
#181=FACE_BOUND('',#180,.T.);
#182=CARTESIAN_POINT('',(52.75,95.,-8.700961894));
#183=VERTEX_POINT('',#182);
#184=CARTESIAN_POINT('',(53.5,95.,-10.));
#185=VERTEX_POINT('',#184);
#186=CARTESIAN_POINT('',(52.75,95.,-8.700961894));
#187=DIRECTION('',(0.5,0.,-0.866025404));
#188=VECTOR('',#187,1.5);
#189=LINE('',#186,#188);
#190=EDGE_CURVE('',#183,#185,#189,.T.);
#191=ORIENTED_EDGE('',*,*,#190,.F.);
#192=CARTESIAN_POINT('',(51.25,95.,-8.700961894));
#193=VERTEX_POINT('',#192);
#194=CARTESIAN_POINT('',(51.25,95.,-8.700961894));
#195=DIRECTION('',(1.,0.,0.));
#196=VECTOR('',#195,1.5);
#197=LINE('',#194,#196);
#198=EDGE_CURVE('',#193,#183,#197,.T.);
#199=ORIENTED_EDGE('',*,*,#198,.F.);
#200=CARTESIAN_POINT('',(50.5,95.,-10.));
#201=VERTEX_POINT('',#200);
#202=CARTESIAN_POINT('',(50.5,95.,-10.));
#203=DIRECTION('',(0.5,0.,0.866025404));
#204=VECTOR('',#203,1.5);
#205=LINE('',#202,#204);
#206=EDGE_CURVE('',#201,#193,#205,.T.);
#207=ORIENTED_EDGE('',*,*,#206,.F.);
#208=CARTESIAN_POINT('',(51.25,95.,-11.299038106));
#209=VERTEX_POINT('',#208);
#210=CARTESIAN_POINT('',(51.25,95.,-11.299038106));
#211=DIRECTION('',(-0.5,0.,0.866025404));
#212=VECTOR('',#211,1.5);
#213=LINE('',#210,#212);
#214=EDGE_CURVE('',#209,#201,#213,.T.);
#215=ORIENTED_EDGE('',*,*,#214,.F.);
#216=CARTESIAN_POINT('',(52.75,95.,-11.299038106));
#217=VERTEX_POINT('',#216);
#218=CARTESIAN_POINT('',(52.75,95.,-11.299038106));
#219=DIRECTION('',(-1.,0.,-0.));
#220=VECTOR('',#219,1.5);
#221=LINE('',#218,#220);
#222=EDGE_CURVE('',#217,#209,#221,.T.);
#223=ORIENTED_EDGE('',*,*,#222,.F.);
#224=CARTESIAN_POINT('',(53.5,95.,-10.));
#225=DIRECTION('',(-0.5,0.,-0.866025404));
#226=VECTOR('',#225,1.5);
#227=LINE('',#224,#226);
#228=EDGE_CURVE('',#185,#217,#227,.T.);
#229=ORIENTED_EDGE('',*,*,#228,.F.);
#230=EDGE_LOOP('',(#191,#199,#207,#215,#223,#229));
#231=FACE_BOUND('',#230,.T.);
#232=CARTESIAN_POINT('',(-52.75,95.,-8.700961894));
#233=VERTEX_POINT('',#232);
#234=CARTESIAN_POINT('',(-53.5,95.,-10.));
#235=VERTEX_POINT('',#234);
#236=CARTESIAN_POINT('',(-52.75,95.,-8.700961894));
#237=DIRECTION('',(-0.5,0.,-0.866025404));
#238=VECTOR('',#237,1.5);
#239=LINE('',#236,#238);
#240=EDGE_CURVE('',#233,#235,#239,.T.);
#241=ORIENTED_EDGE('',*,*,#240,.T.);
#242=CARTESIAN_POINT('',(-52.75,95.,-11.299038106));
#243=VERTEX_POINT('',#242);
#244=CARTESIAN_POINT('',(-53.5,95.,-10.));
#245=DIRECTION('',(0.5,0.,-0.866025404));
#246=VECTOR('',#245,1.5);
#247=LINE('',#244,#246);
#248=EDGE_CURVE('',#235,#243,#247,.T.);
#249=ORIENTED_EDGE('',*,*,#248,.T.);
#250=CARTESIAN_POINT('',(-51.25,95.,-11.299038106));
#251=VERTEX_POINT('',#250);
#252=CARTESIAN_POINT('',(-52.75,95.,-11.299038106));
#253=DIRECTION('',(1.,0.,-0.));
#254=VECTOR('',#253,1.5);
#255=LINE('',#252,#254);
#256=EDGE_CURVE('',#243,#251,#255,.T.);
#257=ORIENTED_EDGE('',*,*,#256,.T.);
#258=CARTESIAN_POINT('',(-50.5,95.,-10.));
#259=VERTEX_POINT('',#258);
#260=CARTESIAN_POINT('',(-51.25,95.,-11.299038106));
#261=DIRECTION('',(0.5,0.,0.866025404));
#262=VECTOR('',#261,1.5);
#263=LINE('',#260,#262);
#264=EDGE_CURVE('',#251,#259,#263,.T.);
#265=ORIENTED_EDGE('',*,*,#264,.T.);
#266=CARTESIAN_POINT('',(-51.25,95.,-8.700961894));
#267=VERTEX_POINT('',#266);
#268=CARTESIAN_POINT('',(-50.5,95.,-10.));
#269=DIRECTION('',(-0.5,0.,0.866025404));
#270=VECTOR('',#269,1.5);
#271=LINE('',#268,#270);
#272=EDGE_CURVE('',#259,#267,#271,.T.);
#273=ORIENTED_EDGE('',*,*,#272,.T.);
#274=CARTESIAN_POINT('',(-51.25,95.,-8.700961894));
#275=DIRECTION('',(-1.,0.,0.));
#276=VECTOR('',#275,1.5);
#277=LINE('',#274,#276);
#278=EDGE_CURVE('',#267,#233,#277,.T.);
#279=ORIENTED_EDGE('',*,*,#278,.T.);
#280=EDGE_LOOP('',(#241,#249,#257,#265,#273,#279));
#281=FACE_BOUND('',#280,.T.);
#282=ADVANCED_FACE('',(#181,#231,#281),#31,.F.);
#283=CARTESIAN_POINT('',(48.,95.,-12.));
#284=DIRECTION('',(1.,0.,0.));
#285=DIRECTION('',(0.,0.,1.));
#286=AXIS2_PLACEMENT_3D('',#283,#284,#285);
#287=PLANE('',#286);
#288=CARTESIAN_POINT('',(48.,5.,-10.));
#289=VERTEX_POINT('',#288);
#290=CARTESIAN_POINT('',(48.,5.,-14.));
#291=VERTEX_POINT('',#290);
#292=CARTESIAN_POINT('',(48.,5.,-10.));
#293=DIRECTION('',(0.,0.,-1.));
#294=VECTOR('',#293,4.);
#295=LINE('',#292,#294);
#296=EDGE_CURVE('',#289,#291,#295,.T.);
#297=ORIENTED_EDGE('',*,*,#296,.F.);
#298=CARTESIAN_POINT('',(48.,95.,-10.));
#299=DIRECTION('',(0.,-1.,0.));
#300=VECTOR('',#299,90.);
#301=LINE('',#298,#300);
#302=EDGE_CURVE('',#33,#289,#301,.T.);
#303=ORIENTED_EDGE('',*,*,#302,.F.);
#304=ORIENTED_EDGE('',*,*,#40,.T.);
#305=CARTESIAN_POINT('',(48.,95.,-14.));
#306=DIRECTION('',(0.,-1.,0.));
#307=VECTOR('',#306,90.);
#308=LINE('',#305,#307);
#309=EDGE_CURVE('',#35,#291,#308,.T.);
#310=ORIENTED_EDGE('',*,*,#309,.T.);
#311=EDGE_LOOP('',(#297,#303,#304,#310));
#312=FACE_BOUND('',#311,.T.);
#313=ADVANCED_FACE('',(#312),#287,.F.);
#314=CARTESIAN_POINT('',(52.,95.,-10.));
#315=DIRECTION('',(0.,-1.,0.));
#316=DIRECTION('',(0.,0.,-1.));
#317=AXIS2_PLACEMENT_3D('',#314,#315,#316);
#318=CYLINDRICAL_SURFACE('',#317,4.);
#319=CARTESIAN_POINT('',(52.,5.,-6.));
#320=VERTEX_POINT('',#319);
#321=CARTESIAN_POINT('',(52.,5.,-10.));
#322=DIRECTION('',(0.,1.,0.));
#323=DIRECTION('',(0.,0.,-1.));
#324=AXIS2_PLACEMENT_3D('',#321,#322,#323);
#325=CIRCLE('',#324,4.);
#326=EDGE_CURVE('',#289,#320,#325,.T.);
#327=ORIENTED_EDGE('',*,*,#326,.T.);
#328=CARTESIAN_POINT('',(52.,95.,-6.));
#329=DIRECTION('',(0.,-1.,0.));
#330=VECTOR('',#329,90.);
#331=LINE('',#328,#330);
#332=EDGE_CURVE('',#43,#320,#331,.T.);
#333=ORIENTED_EDGE('',*,*,#332,.F.);
#334=ORIENTED_EDGE('',*,*,#49,.F.);
#335=ORIENTED_EDGE('',*,*,#302,.T.);
#336=EDGE_LOOP('',(#327,#333,#334,#335));
#337=FACE_BOUND('',#336,.T.);
#338=ADVANCED_FACE('',(#337),#318,.T.);
#339=CARTESIAN_POINT('',(54.,95.,-6.));
#340=DIRECTION('',(0.,0.,1.));
#341=DIRECTION('',(-1.,0.,0.));
#342=AXIS2_PLACEMENT_3D('',#339,#340,#341);
#343=PLANE('',#342);
#344=CARTESIAN_POINT('',(56.,5.,-6.));
#345=VERTEX_POINT('',#344);
#346=CARTESIAN_POINT('',(52.,5.,-6.));
#347=DIRECTION('',(1.,0.,-0.));
#348=VECTOR('',#347,4.);
#349=LINE('',#346,#348);
#350=EDGE_CURVE('',#320,#345,#349,.T.);
#351=ORIENTED_EDGE('',*,*,#350,.T.);
#352=CARTESIAN_POINT('',(56.,95.,-6.));
#353=DIRECTION('',(0.,-1.,0.));
#354=VECTOR('',#353,90.);
#355=LINE('',#352,#354);
#356=EDGE_CURVE('',#52,#345,#355,.T.);
#357=ORIENTED_EDGE('',*,*,#356,.F.);
#358=ORIENTED_EDGE('',*,*,#57,.F.);
#359=ORIENTED_EDGE('',*,*,#332,.T.);
#360=EDGE_LOOP('',(#351,#357,#358,#359));
#361=FACE_BOUND('',#360,.T.);
#362=ADVANCED_FACE('',(#361),#343,.T.);
#363=CARTESIAN_POINT('',(0.,5.,0.));
#364=DIRECTION('',(0.,-1.,0.));
#365=DIRECTION('',(-1.,0.,0.));
#366=AXIS2_PLACEMENT_3D('',#363,#364,#365);
#367=PLANE('',#366);
#368=CARTESIAN_POINT('',(51.25,5.,-11.299038106));
#369=VERTEX_POINT('',#368);
#370=CARTESIAN_POINT('',(50.5,5.,-10.));
#371=VERTEX_POINT('',#370);
#372=CARTESIAN_POINT('',(51.25,5.,-11.299038106));
#373=DIRECTION('',(-0.5,0.,0.866025404));
#374=VECTOR('',#373,1.5);
#375=LINE('',#372,#374);
#376=EDGE_CURVE('',#369,#371,#375,.T.);
#377=ORIENTED_EDGE('',*,*,#376,.T.);
#378=CARTESIAN_POINT('',(51.25,5.,-8.700961894));
#379=VERTEX_POINT('',#378);
#380=CARTESIAN_POINT('',(50.5,5.,-10.));
#381=DIRECTION('',(0.5,0.,0.866025404));
#382=VECTOR('',#381,1.5);
#383=LINE('',#380,#382);
#384=EDGE_CURVE('',#371,#379,#383,.T.);
#385=ORIENTED_EDGE('',*,*,#384,.T.);
#386=CARTESIAN_POINT('',(52.75,5.,-8.700961894));
#387=VERTEX_POINT('',#386);
#388=CARTESIAN_POINT('',(51.25,5.,-8.700961894));
#389=DIRECTION('',(1.,0.,0.));
#390=VECTOR('',#389,1.5);
#391=LINE('',#388,#390);
#392=EDGE_CURVE('',#379,#387,#391,.T.);
#393=ORIENTED_EDGE('',*,*,#392,.T.);
#394=CARTESIAN_POINT('',(53.5,5.,-10.));
#395=VERTEX_POINT('',#394);
#396=CARTESIAN_POINT('',(52.75,5.,-8.700961894));
#397=DIRECTION('',(0.5,0.,-0.866025404));
#398=VECTOR('',#397,1.5);
#399=LINE('',#396,#398);
#400=EDGE_CURVE('',#387,#395,#399,.T.);
#401=ORIENTED_EDGE('',*,*,#400,.T.);
#402=CARTESIAN_POINT('',(52.75,5.,-11.299038106));
#403=VERTEX_POINT('',#402);
#404=CARTESIAN_POINT('',(53.5,5.,-10.));
#405=DIRECTION('',(-0.5,0.,-0.866025404));
#406=VECTOR('',#405,1.5);
#407=LINE('',#404,#406);
#408=EDGE_CURVE('',#395,#403,#407,.T.);
#409=ORIENTED_EDGE('',*,*,#408,.T.);
#410=CARTESIAN_POINT('',(52.75,5.,-11.299038106));
#411=DIRECTION('',(-1.,0.,-0.));
#412=VECTOR('',#411,1.5);
#413=LINE('',#410,#412);
#414=EDGE_CURVE('',#403,#369,#413,.T.);
#415=ORIENTED_EDGE('',*,*,#414,.T.);
#416=EDGE_LOOP('',(#377,#385,#393,#401,#409,#415));
#417=FACE_BOUND('',#416,.T.);
#418=ORIENTED_EDGE('',*,*,#296,.T.);
#419=CARTESIAN_POINT('',(-48.,5.,-14.));
#420=VERTEX_POINT('',#419);
#421=CARTESIAN_POINT('',(-48.,5.,-14.));
#422=DIRECTION('',(1.,0.,-0.));
#423=VECTOR('',#422,96.);
#424=LINE('',#421,#423);
#425=EDGE_CURVE('',#420,#291,#424,.T.);
#426=ORIENTED_EDGE('',*,*,#425,.F.);
#427=CARTESIAN_POINT('',(-48.,5.,-10.));
#428=VERTEX_POINT('',#427);
#429=CARTESIAN_POINT('',(-48.,5.,-10.));
#430=DIRECTION('',(0.,0.,-1.));
#431=VECTOR('',#430,4.);
#432=LINE('',#429,#431);
#433=EDGE_CURVE('',#428,#420,#432,.T.);
#434=ORIENTED_EDGE('',*,*,#433,.F.);
#435=CARTESIAN_POINT('',(-52.,5.,-6.));
#436=VERTEX_POINT('',#435);
#437=CARTESIAN_POINT('',(-52.,5.,-10.));
#438=DIRECTION('',(0.,-1.,0.));
#439=DIRECTION('',(0.,0.,-1.));
#440=AXIS2_PLACEMENT_3D('',#437,#438,#439);
#441=CIRCLE('',#440,4.);
#442=EDGE_CURVE('',#428,#436,#441,.T.);
#443=ORIENTED_EDGE('',*,*,#442,.T.);
#444=CARTESIAN_POINT('',(-56.,5.,-6.));
#445=VERTEX_POINT('',#444);
#446=CARTESIAN_POINT('',(-52.,5.,-6.));
#447=DIRECTION('',(-1.,0.,0.));
#448=VECTOR('',#447,4.);
#449=LINE('',#446,#448);
#450=EDGE_CURVE('',#436,#445,#449,.T.);
#451=ORIENTED_EDGE('',*,*,#450,.T.);
#452=CARTESIAN_POINT('',(-56.,5.,3.));
#453=VERTEX_POINT('',#452);
#454=CARTESIAN_POINT('',(-56.,5.,3.));
#455=DIRECTION('',(-0.,0.,-1.));
#456=VECTOR('',#455,9.);
#457=LINE('',#454,#456);
#458=EDGE_CURVE('',#453,#445,#457,.T.);
#459=ORIENTED_EDGE('',*,*,#458,.F.);
#460=CARTESIAN_POINT('',(-58.,5.,3.));
#461=VERTEX_POINT('',#460);
#462=CARTESIAN_POINT('',(-56.,5.,3.));
#463=DIRECTION('',(-1.,0.,0.));
#464=VECTOR('',#463,2.);
#465=LINE('',#462,#464);
#466=EDGE_CURVE('',#453,#461,#465,.T.);
#467=ORIENTED_EDGE('',*,*,#466,.T.);
#468=CARTESIAN_POINT('',(-58.,5.,-0.2));
#469=VERTEX_POINT('',#468);
#470=CARTESIAN_POINT('',(-58.,5.,-0.2));
#471=DIRECTION('',(0.,0.,1.));
#472=VECTOR('',#471,3.2);
#473=LINE('',#470,#472);
#474=EDGE_CURVE('',#469,#461,#473,.T.);
#475=ORIENTED_EDGE('',*,*,#474,.F.);
#476=CARTESIAN_POINT('',(-58.,5.,-10.));
#477=VERTEX_POINT('',#476);
#478=CARTESIAN_POINT('',(-58.,5.,-10.));
#479=DIRECTION('',(0.,0.,1.));
#480=VECTOR('',#479,9.8);
#481=LINE('',#478,#480);
#482=EDGE_CURVE('',#477,#469,#481,.T.);
#483=ORIENTED_EDGE('',*,*,#482,.F.);
#484=CARTESIAN_POINT('',(-52.,5.,-16.));
#485=VERTEX_POINT('',#484);
#486=CARTESIAN_POINT('',(-52.,5.,-10.));
#487=DIRECTION('',(0.,-1.,0.));
#488=DIRECTION('',(0.,0.,-1.));
#489=AXIS2_PLACEMENT_3D('',#486,#487,#488);
#490=CIRCLE('',#489,6.);
#491=EDGE_CURVE('',#477,#485,#490,.T.);
#492=ORIENTED_EDGE('',*,*,#491,.T.);
#493=CARTESIAN_POINT('',(52.,5.,-16.));
#494=VERTEX_POINT('',#493);
#495=CARTESIAN_POINT('',(52.,5.,-16.));
#496=DIRECTION('',(-1.,0.,0.));
#497=VECTOR('',#496,104.);
#498=LINE('',#495,#497);
#499=EDGE_CURVE('',#494,#485,#498,.T.);
#500=ORIENTED_EDGE('',*,*,#499,.F.);
#501=CARTESIAN_POINT('',(58.,5.,-10.));
#502=VERTEX_POINT('',#501);
#503=CARTESIAN_POINT('',(52.,5.,-10.));
#504=DIRECTION('',(0.,-1.,0.));
#505=DIRECTION('',(0.,0.,-1.));
#506=AXIS2_PLACEMENT_3D('',#503,#504,#505);
#507=CIRCLE('',#506,6.);
#508=EDGE_CURVE('',#494,#502,#507,.T.);
#509=ORIENTED_EDGE('',*,*,#508,.T.);
#510=CARTESIAN_POINT('',(58.,5.,-0.2));
#511=VERTEX_POINT('',#510);
#512=CARTESIAN_POINT('',(58.,5.,-0.2));
#513=DIRECTION('',(0.,0.,-1.));
#514=VECTOR('',#513,9.8);
#515=LINE('',#512,#514);
#516=EDGE_CURVE('',#511,#502,#515,.T.);
#517=ORIENTED_EDGE('',*,*,#516,.F.);
#518=CARTESIAN_POINT('',(58.,5.,3.));
#519=VERTEX_POINT('',#518);
#520=CARTESIAN_POINT('',(58.,5.,3.));
#521=DIRECTION('',(0.,0.,-1.));
#522=VECTOR('',#521,3.2);
#523=LINE('',#520,#522);
#524=EDGE_CURVE('',#519,#511,#523,.T.);
#525=ORIENTED_EDGE('',*,*,#524,.F.);
#526=CARTESIAN_POINT('',(56.,5.,3.));
#527=VERTEX_POINT('',#526);
#528=CARTESIAN_POINT('',(58.,5.,3.));
#529=DIRECTION('',(-1.,0.,0.));
#530=VECTOR('',#529,2.);
#531=LINE('',#528,#530);
#532=EDGE_CURVE('',#519,#527,#531,.T.);
#533=ORIENTED_EDGE('',*,*,#532,.T.);
#534=CARTESIAN_POINT('',(56.,5.,-6.));
#535=DIRECTION('',(0.,0.,1.));
#536=VECTOR('',#535,9.);
#537=LINE('',#534,#536);
#538=EDGE_CURVE('',#345,#527,#537,.T.);
#539=ORIENTED_EDGE('',*,*,#538,.F.);
#540=ORIENTED_EDGE('',*,*,#350,.F.);
#541=ORIENTED_EDGE('',*,*,#326,.F.);
#542=EDGE_LOOP('',(#418,#426,#434,#443,#451,#459,#467,#475,#483,#492,#500,#509,#517,#525,#533,#539,#540,#541));
#543=FACE_BOUND('',#542,.T.);
#544=CARTESIAN_POINT('',(-51.25,5.,-11.299038106));
#545=VERTEX_POINT('',#544);
#546=CARTESIAN_POINT('',(-50.5,5.,-10.));
#547=VERTEX_POINT('',#546);
#548=CARTESIAN_POINT('',(-51.25,5.,-11.299038106));
#549=DIRECTION('',(0.5,0.,0.866025404));
#550=VECTOR('',#549,1.5);
#551=LINE('',#548,#550);
#552=EDGE_CURVE('',#545,#547,#551,.T.);
#553=ORIENTED_EDGE('',*,*,#552,.F.);
#554=CARTESIAN_POINT('',(-52.75,5.,-11.299038106));
#555=VERTEX_POINT('',#554);
#556=CARTESIAN_POINT('',(-52.75,5.,-11.299038106));
#557=DIRECTION('',(1.,0.,-0.));
#558=VECTOR('',#557,1.5);
#559=LINE('',#556,#558);
#560=EDGE_CURVE('',#555,#545,#559,.T.);
#561=ORIENTED_EDGE('',*,*,#560,.F.);
#562=CARTESIAN_POINT('',(-53.5,5.,-10.));
#563=VERTEX_POINT('',#562);
#564=CARTESIAN_POINT('',(-53.5,5.,-10.));
#565=DIRECTION('',(0.5,0.,-0.866025404));
#566=VECTOR('',#565,1.5);
#567=LINE('',#564,#566);
#568=EDGE_CURVE('',#563,#555,#567,.T.);
#569=ORIENTED_EDGE('',*,*,#568,.F.);
#570=CARTESIAN_POINT('',(-52.75,5.,-8.700961894));
#571=VERTEX_POINT('',#570);
#572=CARTESIAN_POINT('',(-52.75,5.,-8.700961894));
#573=DIRECTION('',(-0.5,0.,-0.866025404));
#574=VECTOR('',#573,1.5);
#575=LINE('',#572,#574);
#576=EDGE_CURVE('',#571,#563,#575,.T.);
#577=ORIENTED_EDGE('',*,*,#576,.F.);
#578=CARTESIAN_POINT('',(-51.25,5.,-8.700961894));
#579=VERTEX_POINT('',#578);
#580=CARTESIAN_POINT('',(-51.25,5.,-8.700961894));
#581=DIRECTION('',(-1.,0.,0.));
#582=VECTOR('',#581,1.5);
#583=LINE('',#580,#582);
#584=EDGE_CURVE('',#579,#571,#583,.T.);
#585=ORIENTED_EDGE('',*,*,#584,.F.);
#586=CARTESIAN_POINT('',(-50.5,5.,-10.));
#587=DIRECTION('',(-0.5,0.,0.866025404));
#588=VECTOR('',#587,1.5);
#589=LINE('',#586,#588);
#590=EDGE_CURVE('',#547,#579,#589,.T.);
#591=ORIENTED_EDGE('',*,*,#590,.F.);
#592=EDGE_LOOP('',(#553,#561,#569,#577,#585,#591));
#593=FACE_BOUND('',#592,.T.);
#594=ADVANCED_FACE('',(#417,#543,#593),#367,.T.);
#595=CARTESIAN_POINT('',(50.875,25.,-10.649519053));
#596=DIRECTION('',(-0.866025404,0.,-0.5));
#597=DIRECTION('',(0.5,0.,-0.866025404));
#598=AXIS2_PLACEMENT_3D('',#595,#596,#597);
#599=PLANE('',#598);
#600=ORIENTED_EDGE('',*,*,#376,.F.);
#601=CARTESIAN_POINT('',(51.25,25.,-11.299038106));
#602=VERTEX_POINT('',#601);
#603=CARTESIAN_POINT('',(51.25,25.,-11.299038106));
#604=DIRECTION('',(0.,-1.,0.));
#605=VECTOR('',#604,20.);
#606=LINE('',#603,#605);
#607=EDGE_CURVE('',#602,#369,#606,.T.);
#608=ORIENTED_EDGE('',*,*,#607,.F.);
#609=CARTESIAN_POINT('',(50.5,25.,-10.));
#610=VERTEX_POINT('',#609);
#611=CARTESIAN_POINT('',(51.25,25.,-11.299038106));
#612=DIRECTION('',(-0.5,0.,0.866025404));
#613=VECTOR('',#612,1.5);
#614=LINE('',#611,#613);
#615=EDGE_CURVE('',#602,#610,#614,.T.);
#616=ORIENTED_EDGE('',*,*,#615,.T.);
#617=CARTESIAN_POINT('',(50.5,25.,-10.));
#618=DIRECTION('',(0.,-1.,0.));
#619=VECTOR('',#618,20.);
#620=LINE('',#617,#619);
#621=EDGE_CURVE('',#610,#371,#620,.T.);
#622=ORIENTED_EDGE('',*,*,#621,.T.);
#623=EDGE_LOOP('',(#600,#608,#616,#622));
#624=FACE_BOUND('',#623,.T.);
#625=ADVANCED_FACE('',(#624),#599,.F.);
#626=CARTESIAN_POINT('',(50.875,25.,-9.350480947));
#627=DIRECTION('',(-0.866025404,0.,0.5));
#628=DIRECTION('',(-0.5,0.,-0.866025404));
#629=AXIS2_PLACEMENT_3D('',#626,#627,#628);
#630=PLANE('',#629);
#631=ORIENTED_EDGE('',*,*,#384,.F.);
#632=ORIENTED_EDGE('',*,*,#621,.F.);
#633=CARTESIAN_POINT('',(51.25,25.,-8.700961894));
#634=VERTEX_POINT('',#633);
#635=CARTESIAN_POINT('',(50.5,25.,-10.));
#636=DIRECTION('',(0.5,0.,0.866025404));
#637=VECTOR('',#636,1.5);
#638=LINE('',#635,#637);
#639=EDGE_CURVE('',#610,#634,#638,.T.);
#640=ORIENTED_EDGE('',*,*,#639,.T.);
#641=CARTESIAN_POINT('',(51.25,25.,-8.700961894));
#642=DIRECTION('',(0.,-1.,0.));
#643=VECTOR('',#642,20.);
#644=LINE('',#641,#643);
#645=EDGE_CURVE('',#634,#379,#644,.T.);
#646=ORIENTED_EDGE('',*,*,#645,.T.);
#647=EDGE_LOOP('',(#631,#632,#640,#646));
#648=FACE_BOUND('',#647,.T.);
#649=ADVANCED_FACE('',(#648),#630,.F.);
#650=CARTESIAN_POINT('',(52.,25.,-8.700961894));
#651=DIRECTION('',(-0.,0.,1.));
#652=DIRECTION('',(-1.,0.,-0.));
#653=AXIS2_PLACEMENT_3D('',#650,#651,#652);
#654=PLANE('',#653);
#655=ORIENTED_EDGE('',*,*,#392,.F.);
#656=ORIENTED_EDGE('',*,*,#645,.F.);
#657=CARTESIAN_POINT('',(52.75,25.,-8.700961894));
#658=VERTEX_POINT('',#657);
#659=CARTESIAN_POINT('',(51.25,25.,-8.700961894));
#660=DIRECTION('',(1.,0.,0.));
#661=VECTOR('',#660,1.5);
#662=LINE('',#659,#661);
#663=EDGE_CURVE('',#634,#658,#662,.T.);
#664=ORIENTED_EDGE('',*,*,#663,.T.);
#665=CARTESIAN_POINT('',(52.75,25.,-8.700961894));
#666=DIRECTION('',(0.,-1.,0.));
#667=VECTOR('',#666,20.);
#668=LINE('',#665,#667);
#669=EDGE_CURVE('',#658,#387,#668,.T.);
#670=ORIENTED_EDGE('',*,*,#669,.T.);
#671=EDGE_LOOP('',(#655,#656,#664,#670));
#672=FACE_BOUND('',#671,.T.);
#673=ADVANCED_FACE('',(#672),#654,.F.);
#674=CARTESIAN_POINT('',(53.125,25.,-9.350480947));
#675=DIRECTION('',(0.866025404,0.,0.5));
#676=DIRECTION('',(-0.5,0.,0.866025404));
#677=AXIS2_PLACEMENT_3D('',#674,#675,#676);
#678=PLANE('',#677);
#679=ORIENTED_EDGE('',*,*,#400,.F.);
#680=ORIENTED_EDGE('',*,*,#669,.F.);
#681=CARTESIAN_POINT('',(53.5,25.,-10.));
#682=VERTEX_POINT('',#681);
#683=CARTESIAN_POINT('',(52.75,25.,-8.700961894));
#684=DIRECTION('',(0.5,0.,-0.866025404));
#685=VECTOR('',#684,1.5);
#686=LINE('',#683,#685);
#687=EDGE_CURVE('',#658,#682,#686,.T.);
#688=ORIENTED_EDGE('',*,*,#687,.T.);
#689=CARTESIAN_POINT('',(53.5,25.,-10.));
#690=DIRECTION('',(0.,-1.,0.));
#691=VECTOR('',#690,20.);
#692=LINE('',#689,#691);
#693=EDGE_CURVE('',#682,#395,#692,.T.);
#694=ORIENTED_EDGE('',*,*,#693,.T.);
#695=EDGE_LOOP('',(#679,#680,#688,#694));
#696=FACE_BOUND('',#695,.T.);
#697=ADVANCED_FACE('',(#696),#678,.F.);
#698=CARTESIAN_POINT('',(53.125,25.,-10.649519053));
#699=DIRECTION('',(0.866025404,0.,-0.5));
#700=DIRECTION('',(0.5,0.,0.866025404));
#701=AXIS2_PLACEMENT_3D('',#698,#699,#700);
#702=PLANE('',#701);
#703=ORIENTED_EDGE('',*,*,#408,.F.);
#704=ORIENTED_EDGE('',*,*,#693,.F.);
#705=CARTESIAN_POINT('',(52.75,25.,-11.299038106));
#706=VERTEX_POINT('',#705);
#707=CARTESIAN_POINT('',(53.5,25.,-10.));
#708=DIRECTION('',(-0.5,0.,-0.866025404));
#709=VECTOR('',#708,1.5);
#710=LINE('',#707,#709);
#711=EDGE_CURVE('',#682,#706,#710,.T.);
#712=ORIENTED_EDGE('',*,*,#711,.T.);
#713=CARTESIAN_POINT('',(52.75,25.,-11.299038106));
#714=DIRECTION('',(0.,-1.,0.));
#715=VECTOR('',#714,20.);
#716=LINE('',#713,#715);
#717=EDGE_CURVE('',#706,#403,#716,.T.);
#718=ORIENTED_EDGE('',*,*,#717,.T.);
#719=EDGE_LOOP('',(#703,#704,#712,#718));
#720=FACE_BOUND('',#719,.T.);
#721=ADVANCED_FACE('',(#720),#702,.F.);
#722=CARTESIAN_POINT('',(52.,25.,-11.299038106));
#723=DIRECTION('',(0.,0.,-1.));
#724=DIRECTION('',(1.,0.,0.));
#725=AXIS2_PLACEMENT_3D('',#722,#723,#724);
#726=PLANE('',#725);
#727=ORIENTED_EDGE('',*,*,#414,.F.);
#728=ORIENTED_EDGE('',*,*,#717,.F.);
#729=CARTESIAN_POINT('',(52.75,25.,-11.299038106));
#730=DIRECTION('',(-1.,0.,-0.));
#731=VECTOR('',#730,1.5);
#732=LINE('',#729,#731);
#733=EDGE_CURVE('',#706,#602,#732,.T.);
#734=ORIENTED_EDGE('',*,*,#733,.T.);
#735=ORIENTED_EDGE('',*,*,#607,.T.);
#736=EDGE_LOOP('',(#727,#728,#734,#735));
#737=FACE_BOUND('',#736,.T.);
#738=ADVANCED_FACE('',(#737),#726,.F.);
#739=CARTESIAN_POINT('',(0.,25.,0.));
#740=DIRECTION('',(0.,-1.,0.));
#741=DIRECTION('',(-1.,0.,0.));
#742=AXIS2_PLACEMENT_3D('',#739,#740,#741);
#743=PLANE('',#742);
#744=ORIENTED_EDGE('',*,*,#615,.F.);
#745=ORIENTED_EDGE('',*,*,#733,.F.);
#746=ORIENTED_EDGE('',*,*,#711,.F.);
#747=ORIENTED_EDGE('',*,*,#687,.F.);
#748=ORIENTED_EDGE('',*,*,#663,.F.);
#749=ORIENTED_EDGE('',*,*,#639,.F.);
#750=EDGE_LOOP('',(#744,#745,#746,#747,#748,#749));
#751=FACE_BOUND('',#750,.T.);
#752=ADVANCED_FACE('',(#751),#743,.T.);
#753=CARTESIAN_POINT('',(53.125,75.,-9.350480947));
#754=DIRECTION('',(-0.866025404,0.,-0.5));
#755=DIRECTION('',(0.5,0.,-0.866025404));
#756=AXIS2_PLACEMENT_3D('',#753,#754,#755);
#757=PLANE('',#756);
#758=ORIENTED_EDGE('',*,*,#190,.T.);
#759=CARTESIAN_POINT('',(53.5,75.,-10.));
#760=VERTEX_POINT('',#759);
#761=CARTESIAN_POINT('',(53.5,75.,-10.));
#762=DIRECTION('',(0.,1.,0.));
#763=VECTOR('',#762,20.);
#764=LINE('',#761,#763);
#765=EDGE_CURVE('',#760,#185,#764,.T.);
#766=ORIENTED_EDGE('',*,*,#765,.F.);
#767=CARTESIAN_POINT('',(52.75,75.,-8.700961894));
#768=VERTEX_POINT('',#767);
#769=CARTESIAN_POINT('',(52.75,75.,-8.700961894));
#770=DIRECTION('',(0.5,0.,-0.866025404));
#771=VECTOR('',#770,1.5);
#772=LINE('',#769,#771);
#773=EDGE_CURVE('',#768,#760,#772,.T.);
#774=ORIENTED_EDGE('',*,*,#773,.F.);
#775=CARTESIAN_POINT('',(52.75,75.,-8.700961894));
#776=DIRECTION('',(0.,1.,0.));
#777=VECTOR('',#776,20.);
#778=LINE('',#775,#777);
#779=EDGE_CURVE('',#768,#183,#778,.T.);
#780=ORIENTED_EDGE('',*,*,#779,.T.);
#781=EDGE_LOOP('',(#758,#766,#774,#780));
#782=FACE_BOUND('',#781,.T.);
#783=ADVANCED_FACE('',(#782),#757,.T.);
#784=COLOUR_RGB('',0.494117647,0.494117647,0.525490224);
#785=FILL_AREA_STYLE_COLOUR('',#784);
#786=FILL_AREA_STYLE('',(#785));
#787=SURFACE_STYLE_FILL_AREA(#786);
#788=SURFACE_SIDE_STYLE('',(#787));
#789=SURFACE_STYLE_USAGE(.BOTH.,#788);
#790=PRESENTATION_STYLE_ASSIGNMENT((#789));
#791=OVER_RIDING_STYLED_ITEM('',(#790),#783,#26);
#792=CARTESIAN_POINT('',(52.,75.,-8.700961894));
#793=DIRECTION('',(0.,0.,-1.));
#794=DIRECTION('',(1.,0.,0.));
#795=AXIS2_PLACEMENT_3D('',#792,#793,#794);
#796=PLANE('',#795);
#797=ORIENTED_EDGE('',*,*,#198,.T.);
#798=ORIENTED_EDGE('',*,*,#779,.F.);
#799=CARTESIAN_POINT('',(51.25,75.,-8.700961894));
#800=VERTEX_POINT('',#799);
#801=CARTESIAN_POINT('',(51.25,75.,-8.700961894));
#802=DIRECTION('',(1.,0.,0.));
#803=VECTOR('',#802,1.5);
#804=LINE('',#801,#803);
#805=EDGE_CURVE('',#800,#768,#804,.T.);
#806=ORIENTED_EDGE('',*,*,#805,.F.);
#807=CARTESIAN_POINT('',(51.25,75.,-8.700961894));
#808=DIRECTION('',(0.,1.,0.));
#809=VECTOR('',#808,20.);
#810=LINE('',#807,#809);
#811=EDGE_CURVE('',#800,#193,#810,.T.);
#812=ORIENTED_EDGE('',*,*,#811,.T.);
#813=EDGE_LOOP('',(#797,#798,#806,#812));
#814=FACE_BOUND('',#813,.T.);
#815=ADVANCED_FACE('',(#814),#796,.T.);
#816=OVER_RIDING_STYLED_ITEM('',(#790),#815,#26);
#817=CARTESIAN_POINT('',(50.875,75.,-9.350480947));
#818=DIRECTION('',(0.866025404,0.,-0.5));
#819=DIRECTION('',(0.5,0.,0.866025404));
#820=AXIS2_PLACEMENT_3D('',#817,#818,#819);
#821=PLANE('',#820);
#822=ORIENTED_EDGE('',*,*,#206,.T.);
#823=ORIENTED_EDGE('',*,*,#811,.F.);
#824=CARTESIAN_POINT('',(50.5,75.,-10.));
#825=VERTEX_POINT('',#824);
#826=CARTESIAN_POINT('',(50.5,75.,-10.));
#827=DIRECTION('',(0.5,0.,0.866025404));
#828=VECTOR('',#827,1.5);
#829=LINE('',#826,#828);
#830=EDGE_CURVE('',#825,#800,#829,.T.);
#831=ORIENTED_EDGE('',*,*,#830,.F.);
#832=CARTESIAN_POINT('',(50.5,75.,-10.));
#833=DIRECTION('',(0.,1.,0.));
#834=VECTOR('',#833,20.);
#835=LINE('',#832,#834);
#836=EDGE_CURVE('',#825,#201,#835,.T.);
#837=ORIENTED_EDGE('',*,*,#836,.T.);
#838=EDGE_LOOP('',(#822,#823,#831,#837));
#839=FACE_BOUND('',#838,.T.);
#840=ADVANCED_FACE('',(#839),#821,.T.);
#841=OVER_RIDING_STYLED_ITEM('',(#790),#840,#26);
#842=CARTESIAN_POINT('',(50.875,75.,-10.649519053));
#843=DIRECTION('',(0.866025404,0.,0.5));
#844=DIRECTION('',(-0.5,0.,0.866025404));
#845=AXIS2_PLACEMENT_3D('',#842,#843,#844);
#846=PLANE('',#845);
#847=ORIENTED_EDGE('',*,*,#214,.T.);
#848=ORIENTED_EDGE('',*,*,#836,.F.);
#849=CARTESIAN_POINT('',(51.25,75.,-11.299038106));
#850=VERTEX_POINT('',#849);
#851=CARTESIAN_POINT('',(51.25,75.,-11.299038106));
#852=DIRECTION('',(-0.5,0.,0.866025404));
#853=VECTOR('',#852,1.5);
#854=LINE('',#851,#853);
#855=EDGE_CURVE('',#850,#825,#854,.T.);
#856=ORIENTED_EDGE('',*,*,#855,.F.);
#857=CARTESIAN_POINT('',(51.25,75.,-11.299038106));
#858=DIRECTION('',(0.,1.,0.));
#859=VECTOR('',#858,20.);
#860=LINE('',#857,#859);
#861=EDGE_CURVE('',#850,#209,#860,.T.);
#862=ORIENTED_EDGE('',*,*,#861,.T.);
#863=EDGE_LOOP('',(#847,#848,#856,#862));
#864=FACE_BOUND('',#863,.T.);
#865=ADVANCED_FACE('',(#864),#846,.T.);
#866=OVER_RIDING_STYLED_ITEM('',(#790),#865,#26);
#867=CARTESIAN_POINT('',(52.,75.,-11.299038106));
#868=DIRECTION('',(-0.,0.,1.));
#869=DIRECTION('',(-1.,0.,-0.));
#870=AXIS2_PLACEMENT_3D('',#867,#868,#869);
#871=PLANE('',#870);
#872=ORIENTED_EDGE('',*,*,#222,.T.);
#873=ORIENTED_EDGE('',*,*,#861,.F.);
#874=CARTESIAN_POINT('',(52.75,75.,-11.299038106));
#875=VERTEX_POINT('',#874);
#876=CARTESIAN_POINT('',(52.75,75.,-11.299038106));
#877=DIRECTION('',(-1.,0.,-0.));
#878=VECTOR('',#877,1.5);
#879=LINE('',#876,#878);
#880=EDGE_CURVE('',#875,#850,#879,.T.);
#881=ORIENTED_EDGE('',*,*,#880,.F.);
#882=CARTESIAN_POINT('',(52.75,75.,-11.299038106));
#883=DIRECTION('',(0.,1.,0.));
#884=VECTOR('',#883,20.);
#885=LINE('',#882,#884);
#886=EDGE_CURVE('',#875,#217,#885,.T.);
#887=ORIENTED_EDGE('',*,*,#886,.T.);
#888=EDGE_LOOP('',(#872,#873,#881,#887));
#889=FACE_BOUND('',#888,.T.);
#890=ADVANCED_FACE('',(#889),#871,.T.);
#891=OVER_RIDING_STYLED_ITEM('',(#790),#890,#26);
#892=CARTESIAN_POINT('',(53.125,75.,-10.649519053));
#893=DIRECTION('',(-0.866025404,0.,0.5));
#894=DIRECTION('',(-0.5,0.,-0.866025404));
#895=AXIS2_PLACEMENT_3D('',#892,#893,#894);
#896=PLANE('',#895);
#897=ORIENTED_EDGE('',*,*,#228,.T.);
#898=ORIENTED_EDGE('',*,*,#886,.F.);
#899=CARTESIAN_POINT('',(53.5,75.,-10.));
#900=DIRECTION('',(-0.5,0.,-0.866025404));
#901=VECTOR('',#900,1.5);
#902=LINE('',#899,#901);
#903=EDGE_CURVE('',#760,#875,#902,.T.);
#904=ORIENTED_EDGE('',*,*,#903,.F.);
#905=ORIENTED_EDGE('',*,*,#765,.T.);
#906=EDGE_LOOP('',(#897,#898,#904,#905));
#907=FACE_BOUND('',#906,.T.);
#908=ADVANCED_FACE('',(#907),#896,.T.);
#909=OVER_RIDING_STYLED_ITEM('',(#790),#908,#26);
#910=CARTESIAN_POINT('',(0.,75.,0.));
#911=DIRECTION('',(0.,1.,0.));
#912=DIRECTION('',(1.,0.,0.));
#913=AXIS2_PLACEMENT_3D('',#910,#911,#912);
#914=PLANE('',#913);
#915=ORIENTED_EDGE('',*,*,#773,.T.);
#916=ORIENTED_EDGE('',*,*,#903,.T.);
#917=ORIENTED_EDGE('',*,*,#880,.T.);
#918=ORIENTED_EDGE('',*,*,#855,.T.);
#919=ORIENTED_EDGE('',*,*,#830,.T.);
#920=ORIENTED_EDGE('',*,*,#805,.T.);
#921=EDGE_LOOP('',(#915,#916,#917,#918,#919,#920));
#922=FACE_BOUND('',#921,.T.);
#923=ADVANCED_FACE('',(#922),#914,.T.);
#924=OVER_RIDING_STYLED_ITEM('',(#790),#923,#26);
#925=CARTESIAN_POINT('',(0.,100.,-14.));
#926=DIRECTION('',(0.,0.,1.));
#927=DIRECTION('',(1.,0.,0.));
#928=AXIS2_PLACEMENT_3D('',#925,#926,#927);
#929=PLANE('',#928);
#930=ORIENTED_EDGE('',*,*,#309,.F.);
#931=ORIENTED_EDGE('',*,*,#178,.F.);
#932=CARTESIAN_POINT('',(-48.,95.,-14.));
#933=DIRECTION('',(0.,-1.,0.));
#934=VECTOR('',#933,90.);
#935=LINE('',#932,#934);
#936=EDGE_CURVE('',#167,#420,#935,.T.);
#937=ORIENTED_EDGE('',*,*,#936,.T.);
#938=ORIENTED_EDGE('',*,*,#425,.T.);
#939=EDGE_LOOP('',(#930,#931,#937,#938));
#940=FACE_BOUND('',#939,.T.);
#941=ADVANCED_FACE('',(#940),#929,.T.);
#942=CARTESIAN_POINT('',(-52.,100.,-10.));
#943=DIRECTION('',(0.,-1.,0.));
#944=DIRECTION('',(0.,0.,-1.));
#945=AXIS2_PLACEMENT_3D('',#942,#943,#944);
#946=CYLINDRICAL_SURFACE('',#945,8.);
#947=CARTESIAN_POINT('',(-52.,100.,-18.));
#948=VERTEX_POINT('',#947);
#949=CARTESIAN_POINT('',(-60.,100.,-10.));
#950=VERTEX_POINT('',#949);
#951=CARTESIAN_POINT('',(-52.,100.,-10.));
#952=DIRECTION('',(0.,1.,0.));
#953=DIRECTION('',(0.,-0.,1.));
#954=AXIS2_PLACEMENT_3D('',#951,#952,#953);
#955=CIRCLE('',#954,8.);
#956=EDGE_CURVE('',#948,#950,#955,.T.);
#957=ORIENTED_EDGE('',*,*,#956,.F.);
#958=CARTESIAN_POINT('',(-52.,0.,-18.));
#959=VERTEX_POINT('',#958);
#960=CARTESIAN_POINT('',(-52.,0.,-18.));
#961=DIRECTION('',(-0.,1.,-0.));
#962=VECTOR('',#961,100.);
#963=LINE('',#960,#962);
#964=EDGE_CURVE('',#959,#948,#963,.T.);
#965=ORIENTED_EDGE('',*,*,#964,.F.);
#966=CARTESIAN_POINT('',(-60.,0.,-10.));
#967=VERTEX_POINT('',#966);
#968=CARTESIAN_POINT('',(-52.,0.,-10.));
#969=DIRECTION('',(-0.,-1.,-0.));
#970=DIRECTION('',(0.,-0.,1.));
#971=AXIS2_PLACEMENT_3D('',#968,#969,#970);
#972=CIRCLE('',#971,8.);
#973=EDGE_CURVE('',#967,#959,#972,.T.);
#974=ORIENTED_EDGE('',*,*,#973,.F.);
#975=CARTESIAN_POINT('',(-60.,100.,-10.));
#976=DIRECTION('',(0.,-1.,0.));
#977=VECTOR('',#976,100.);
#978=LINE('',#975,#977);
#979=EDGE_CURVE('',#950,#967,#978,.T.);
#980=ORIENTED_EDGE('',*,*,#979,.F.);
#981=EDGE_LOOP('',(#957,#965,#974,#980));
#982=FACE_BOUND('',#981,.T.);
#983=ADVANCED_FACE('',(#982),#946,.T.);
#984=CARTESIAN_POINT('',(0.,100.,-18.));
#985=DIRECTION('',(0.,0.,1.));
#986=DIRECTION('',(1.,0.,0.));
#987=AXIS2_PLACEMENT_3D('',#984,#985,#986);
#988=PLANE('',#987);
#989=CARTESIAN_POINT('',(52.,100.,-18.));
#990=VERTEX_POINT('',#989);
#991=CARTESIAN_POINT('',(52.,100.,-18.));
#992=DIRECTION('',(-1.,0.,0.));
#993=VECTOR('',#992,104.);
#994=LINE('',#991,#993);
#995=EDGE_CURVE('',#990,#948,#994,.T.);
#996=ORIENTED_EDGE('',*,*,#995,.F.);
#997=CARTESIAN_POINT('',(52.,0.,-18.));
#998=VERTEX_POINT('',#997);
#999=CARTESIAN_POINT('',(52.,100.,-18.));
#1000=DIRECTION('',(0.,-1.,0.));
#1001=VECTOR('',#1000,100.);
#1002=LINE('',#999,#1001);
#1003=EDGE_CURVE('',#990,#998,#1002,.T.);
#1004=ORIENTED_EDGE('',*,*,#1003,.T.);
#1005=CARTESIAN_POINT('',(52.,0.,-18.));
#1006=DIRECTION('',(-1.,0.,0.));
#1007=VECTOR('',#1006,104.);
#1008=LINE('',#1005,#1007);
#1009=EDGE_CURVE('',#998,#959,#1008,.T.);
#1010=ORIENTED_EDGE('',*,*,#1009,.T.);
#1011=ORIENTED_EDGE('',*,*,#964,.T.);
#1012=EDGE_LOOP('',(#996,#1004,#1010,#1011));
#1013=FACE_BOUND('',#1012,.T.);
#1014=ADVANCED_FACE('',(#1013),#988,.F.);
#1015=CARTESIAN_POINT('',(52.,100.,-10.));
#1016=DIRECTION('',(0.,-1.,0.));
#1017=DIRECTION('',(0.,0.,-1.));
#1018=AXIS2_PLACEMENT_3D('',#1015,#1016,#1017);
#1019=CYLINDRICAL_SURFACE('',#1018,8.);
#1020=CARTESIAN_POINT('',(60.,100.,-10.));
#1021=VERTEX_POINT('',#1020);
#1022=CARTESIAN_POINT('',(52.,100.,-10.));
#1023=DIRECTION('',(0.,1.,0.));
#1024=DIRECTION('',(0.,-0.,1.));
#1025=AXIS2_PLACEMENT_3D('',#1022,#1023,#1024);
#1026=CIRCLE('',#1025,8.);
#1027=EDGE_CURVE('',#1021,#990,#1026,.T.);
#1028=ORIENTED_EDGE('',*,*,#1027,.F.);
#1029=CARTESIAN_POINT('',(60.,0.,-10.));
#1030=VERTEX_POINT('',#1029);
#1031=CARTESIAN_POINT('',(60.,0.,-10.));
#1032=DIRECTION('',(-0.,1.,-0.));
#1033=VECTOR('',#1032,100.);
#1034=LINE('',#1031,#1033);
#1035=EDGE_CURVE('',#1030,#1021,#1034,.T.);
#1036=ORIENTED_EDGE('',*,*,#1035,.F.);
#1037=CARTESIAN_POINT('',(52.,0.,-10.));
#1038=DIRECTION('',(-0.,-1.,-0.));
#1039=DIRECTION('',(0.,-0.,1.));
#1040=AXIS2_PLACEMENT_3D('',#1037,#1038,#1039);
#1041=CIRCLE('',#1040,8.);
#1042=EDGE_CURVE('',#998,#1030,#1041,.T.);
#1043=ORIENTED_EDGE('',*,*,#1042,.F.);
#1044=ORIENTED_EDGE('',*,*,#1003,.F.);
#1045=EDGE_LOOP('',(#1028,#1036,#1043,#1044));
#1046=FACE_BOUND('',#1045,.T.);
#1047=ADVANCED_FACE('',(#1046),#1019,.T.);
#1048=CARTESIAN_POINT('',(-52.,95.,-10.));
#1049=DIRECTION('',(0.,1.,0.));
#1050=DIRECTION('',(0.,-0.,1.));
#1051=AXIS2_PLACEMENT_3D('',#1048,#1049,#1050);
#1052=CYLINDRICAL_SURFACE('',#1051,6.);
#1053=CARTESIAN_POINT('',(-52.,100.,-16.));
#1054=VERTEX_POINT('',#1053);
#1055=CARTESIAN_POINT('',(-58.,100.,-10.));
#1056=VERTEX_POINT('',#1055);
#1057=CARTESIAN_POINT('',(-52.,100.,-10.));
#1058=DIRECTION('',(0.,1.,0.));
#1059=DIRECTION('',(0.,-0.,1.));
#1060=AXIS2_PLACEMENT_3D('',#1057,#1058,#1059);
#1061=CIRCLE('',#1060,6.);
#1062=EDGE_CURVE('',#1054,#1056,#1061,.T.);
#1063=ORIENTED_EDGE('',*,*,#1062,.T.);
#1064=CARTESIAN_POINT('',(-58.,95.,-10.));
#1065=DIRECTION('',(0.,1.,0.));
#1066=VECTOR('',#1065,5.);
#1067=LINE('',#1064,#1066);
#1068=EDGE_CURVE('',#109,#1056,#1067,.T.);
#1069=ORIENTED_EDGE('',*,*,#1068,.F.);
#1070=ORIENTED_EDGE('',*,*,#115,.F.);
#1071=CARTESIAN_POINT('',(-52.,95.,-16.));
#1072=DIRECTION('',(0.,1.,0.));
#1073=VECTOR('',#1072,5.);
#1074=LINE('',#1071,#1073);
#1075=EDGE_CURVE('',#101,#1054,#1074,.T.);
#1076=ORIENTED_EDGE('',*,*,#1075,.T.);
#1077=EDGE_LOOP('',(#1063,#1069,#1070,#1076));
#1078=FACE_BOUND('',#1077,.T.);
#1079=ADVANCED_FACE('',(#1078),#1052,.F.);
#1080=CARTESIAN_POINT('',(0.,95.,-16.));
#1081=DIRECTION('',(0.,0.,-1.));
#1082=DIRECTION('',(-1.,0.,0.));
#1083=AXIS2_PLACEMENT_3D('',#1080,#1081,#1082);
#1084=PLANE('',#1083);
#1085=CARTESIAN_POINT('',(52.,100.,-16.));
#1086=VERTEX_POINT('',#1085);
#1087=CARTESIAN_POINT('',(52.,100.,-16.));
#1088=DIRECTION('',(-1.,0.,0.));
#1089=VECTOR('',#1088,104.);
#1090=LINE('',#1087,#1089);
#1091=EDGE_CURVE('',#1086,#1054,#1090,.T.);
#1092=ORIENTED_EDGE('',*,*,#1091,.T.);
#1093=ORIENTED_EDGE('',*,*,#1075,.F.);
#1094=ORIENTED_EDGE('',*,*,#106,.F.);
#1095=CARTESIAN_POINT('',(52.,95.,-16.));
#1096=DIRECTION('',(0.,1.,0.));
#1097=VECTOR('',#1096,5.);
#1098=LINE('',#1095,#1097);
#1099=EDGE_CURVE('',#92,#1086,#1098,.T.);
#1100=ORIENTED_EDGE('',*,*,#1099,.T.);
#1101=EDGE_LOOP('',(#1092,#1093,#1094,#1100));
#1102=FACE_BOUND('',#1101,.T.);
#1103=ADVANCED_FACE('',(#1102),#1084,.F.);
#1104=CARTESIAN_POINT('',(52.,95.,-10.));
#1105=DIRECTION('',(0.,1.,0.));
#1106=DIRECTION('',(0.,-0.,1.));
#1107=AXIS2_PLACEMENT_3D('',#1104,#1105,#1106);
#1108=CYLINDRICAL_SURFACE('',#1107,6.);
#1109=CARTESIAN_POINT('',(58.,100.,-10.));
#1110=VERTEX_POINT('',#1109);
#1111=CARTESIAN_POINT('',(52.,100.,-10.));
#1112=DIRECTION('',(0.,1.,0.));
#1113=DIRECTION('',(0.,-0.,1.));
#1114=AXIS2_PLACEMENT_3D('',#1111,#1112,#1113);
#1115=CIRCLE('',#1114,6.);
#1116=EDGE_CURVE('',#1110,#1086,#1115,.T.);
#1117=ORIENTED_EDGE('',*,*,#1116,.T.);
#1118=ORIENTED_EDGE('',*,*,#1099,.F.);
#1119=ORIENTED_EDGE('',*,*,#98,.F.);
#1120=CARTESIAN_POINT('',(58.,95.,-10.));
#1121=DIRECTION('',(0.,1.,0.));
#1122=VECTOR('',#1121,5.);
#1123=LINE('',#1120,#1122);
#1124=EDGE_CURVE('',#84,#1110,#1123,.T.);
#1125=ORIENTED_EDGE('',*,*,#1124,.T.);
#1126=EDGE_LOOP('',(#1117,#1118,#1119,#1125));
#1127=FACE_BOUND('',#1126,.T.);
#1128=ADVANCED_FACE('',(#1127),#1108,.F.);
#1129=CARTESIAN_POINT('',(52.,5.,-10.));
#1130=DIRECTION('',(0.,-1.,0.));
#1131=DIRECTION('',(0.,0.,-1.));
#1132=AXIS2_PLACEMENT_3D('',#1129,#1130,#1131);
#1133=CYLINDRICAL_SURFACE('',#1132,6.);
#1134=CARTESIAN_POINT('',(52.,0.,-16.));
#1135=VERTEX_POINT('',#1134);
#1136=CARTESIAN_POINT('',(58.,0.,-10.));
#1137=VERTEX_POINT('',#1136);
#1138=CARTESIAN_POINT('',(52.,0.,-10.));
#1139=DIRECTION('',(0.,-1.,0.));
#1140=DIRECTION('',(0.,0.,-1.));
#1141=AXIS2_PLACEMENT_3D('',#1138,#1139,#1140);
#1142=CIRCLE('',#1141,6.);
#1143=EDGE_CURVE('',#1135,#1137,#1142,.T.);
#1144=ORIENTED_EDGE('',*,*,#1143,.T.);
#1145=CARTESIAN_POINT('',(58.,5.,-10.));
#1146=DIRECTION('',(0.,-1.,0.));
#1147=VECTOR('',#1146,5.);
#1148=LINE('',#1145,#1147);
#1149=EDGE_CURVE('',#502,#1137,#1148,.T.);
#1150=ORIENTED_EDGE('',*,*,#1149,.F.);
#1151=ORIENTED_EDGE('',*,*,#508,.F.);
#1152=CARTESIAN_POINT('',(52.,5.,-16.));
#1153=DIRECTION('',(0.,-1.,0.));
#1154=VECTOR('',#1153,5.);
#1155=LINE('',#1152,#1154);
#1156=EDGE_CURVE('',#494,#1135,#1155,.T.);
#1157=ORIENTED_EDGE('',*,*,#1156,.T.);
#1158=EDGE_LOOP('',(#1144,#1150,#1151,#1157));
#1159=FACE_BOUND('',#1158,.T.);
#1160=ADVANCED_FACE('',(#1159),#1133,.F.);
#1161=CARTESIAN_POINT('',(0.,5.,-16.));
#1162=DIRECTION('',(0.,0.,1.));
#1163=DIRECTION('',(1.,0.,0.));
#1164=AXIS2_PLACEMENT_3D('',#1161,#1162,#1163);
#1165=PLANE('',#1164);
#1166=CARTESIAN_POINT('',(-52.,0.,-16.));
#1167=VERTEX_POINT('',#1166);
#1168=CARTESIAN_POINT('',(52.,0.,-16.));
#1169=DIRECTION('',(-1.,0.,0.));
#1170=VECTOR('',#1169,104.);
#1171=LINE('',#1168,#1170);
#1172=EDGE_CURVE('',#1135,#1167,#1171,.T.);
#1173=ORIENTED_EDGE('',*,*,#1172,.F.);
#1174=ORIENTED_EDGE('',*,*,#1156,.F.);
#1175=ORIENTED_EDGE('',*,*,#499,.T.);
#1176=CARTESIAN_POINT('',(-52.,5.,-16.));
#1177=DIRECTION('',(0.,-1.,0.));
#1178=VECTOR('',#1177,5.);
#1179=LINE('',#1176,#1178);
#1180=EDGE_CURVE('',#485,#1167,#1179,.T.);
#1181=ORIENTED_EDGE('',*,*,#1180,.T.);
#1182=EDGE_LOOP('',(#1173,#1174,#1175,#1181));
#1183=FACE_BOUND('',#1182,.T.);
#1184=ADVANCED_FACE('',(#1183),#1165,.T.);
#1185=CARTESIAN_POINT('',(-52.,5.,-10.));
#1186=DIRECTION('',(0.,-1.,0.));
#1187=DIRECTION('',(0.,0.,-1.));
#1188=AXIS2_PLACEMENT_3D('',#1185,#1186,#1187);
#1189=CYLINDRICAL_SURFACE('',#1188,6.);
#1190=CARTESIAN_POINT('',(-58.,0.,-10.));
#1191=VERTEX_POINT('',#1190);
#1192=CARTESIAN_POINT('',(-52.,0.,-10.));
#1193=DIRECTION('',(0.,-1.,0.));
#1194=DIRECTION('',(0.,0.,-1.));
#1195=AXIS2_PLACEMENT_3D('',#1192,#1193,#1194);
#1196=CIRCLE('',#1195,6.);
#1197=EDGE_CURVE('',#1191,#1167,#1196,.T.);
#1198=ORIENTED_EDGE('',*,*,#1197,.T.);
#1199=ORIENTED_EDGE('',*,*,#1180,.F.);
#1200=ORIENTED_EDGE('',*,*,#491,.F.);
#1201=CARTESIAN_POINT('',(-58.,5.,-10.));
#1202=DIRECTION('',(0.,-1.,0.));
#1203=VECTOR('',#1202,5.);
#1204=LINE('',#1201,#1203);
#1205=EDGE_CURVE('',#477,#1191,#1204,.T.);
#1206=ORIENTED_EDGE('',*,*,#1205,.T.);
#1207=EDGE_LOOP('',(#1198,#1199,#1200,#1206));
#1208=FACE_BOUND('',#1207,.T.);
#1209=ADVANCED_FACE('',(#1208),#1189,.F.);
#1210=CARTESIAN_POINT('',(-58.,5.,0.));
#1211=DIRECTION('',(1.,0.,0.));
#1212=DIRECTION('',(0.,0.,-1.));
#1213=AXIS2_PLACEMENT_3D('',#1210,#1211,#1212);
#1214=PLANE('',#1213);
#1215=ORIENTED_EDGE('',*,*,#482,.T.);
#1216=CARTESIAN_POINT('',(-58.,0.,-0.2));
#1217=VERTEX_POINT('',#1216);
#1218=CARTESIAN_POINT('',(-58.,5.,-0.2));
#1219=DIRECTION('',(0.,-1.,0.));
#1220=VECTOR('',#1219,5.);
#1221=LINE('',#1218,#1220);
#1222=EDGE_CURVE('',#469,#1217,#1221,.T.);
#1223=ORIENTED_EDGE('',*,*,#1222,.T.);
#1224=CARTESIAN_POINT('',(-58.,0.,-10.));
#1225=DIRECTION('',(0.,0.,1.));
#1226=VECTOR('',#1225,9.8);
#1227=LINE('',#1224,#1226);
#1228=EDGE_CURVE('',#1191,#1217,#1227,.T.);
#1229=ORIENTED_EDGE('',*,*,#1228,.F.);
#1230=ORIENTED_EDGE('',*,*,#1205,.F.);
#1231=EDGE_LOOP('',(#1215,#1223,#1229,#1230));
#1232=FACE_BOUND('',#1231,.T.);
#1233=ADVANCED_FACE('',(#1232),#1214,.T.);
#1234=CARTESIAN_POINT('',(-56.,100.,0.));
#1235=DIRECTION('',(1.,0.,-0.));
#1236=DIRECTION('',(-0.,0.,-1.));
#1237=AXIS2_PLACEMENT_3D('',#1234,#1235,#1236);
#1238=PLANE('',#1237);
#1239=CARTESIAN_POINT('',(-56.,95.,-6.));
#1240=DIRECTION('',(0.,-1.,0.));
#1241=VECTOR('',#1240,90.);
#1242=LINE('',#1239,#1241);
#1243=EDGE_CURVE('',#142,#445,#1242,.T.);
#1244=ORIENTED_EDGE('',*,*,#1243,.F.);
#1245=ORIENTED_EDGE('',*,*,#147,.F.);
#1246=CARTESIAN_POINT('',(-56.,95.,3.));
#1247=DIRECTION('',(0.,-1.,0.));
#1248=VECTOR('',#1247,90.);
#1249=LINE('',#1246,#1248);
#1250=EDGE_CURVE('',#134,#453,#1249,.T.);
#1251=ORIENTED_EDGE('',*,*,#1250,.T.);
#1252=ORIENTED_EDGE('',*,*,#458,.T.);
#1253=EDGE_LOOP('',(#1244,#1245,#1251,#1252));
#1254=FACE_BOUND('',#1253,.T.);
#1255=ADVANCED_FACE('',(#1254),#1238,.T.);
#1256=CARTESIAN_POINT('',(56.,100.,0.));
#1257=DIRECTION('',(-1.,0.,0.));
#1258=DIRECTION('',(0.,0.,1.));
#1259=AXIS2_PLACEMENT_3D('',#1256,#1257,#1258);
#1260=PLANE('',#1259);
#1261=ORIENTED_EDGE('',*,*,#65,.F.);
#1262=ORIENTED_EDGE('',*,*,#356,.T.);
#1263=ORIENTED_EDGE('',*,*,#538,.T.);
#1264=CARTESIAN_POINT('',(56.,5.,3.));
#1265=DIRECTION('',(0.,1.,0.));
#1266=VECTOR('',#1265,90.);
#1267=LINE('',#1264,#1266);
#1268=EDGE_CURVE('',#527,#60,#1267,.T.);
#1269=ORIENTED_EDGE('',*,*,#1268,.T.);
#1270=EDGE_LOOP('',(#1261,#1262,#1263,#1269));
#1271=FACE_BOUND('',#1270,.T.);
#1272=ADVANCED_FACE('',(#1271),#1260,.T.);
#1273=CARTESIAN_POINT('',(58.,5.,0.));
#1274=DIRECTION('',(-1.,0.,0.));
#1275=DIRECTION('',(0.,0.,1.));
#1276=AXIS2_PLACEMENT_3D('',#1273,#1274,#1275);
#1277=PLANE('',#1276);
#1278=CARTESIAN_POINT('',(58.,0.,-0.2));
#1279=VERTEX_POINT('',#1278);
#1280=CARTESIAN_POINT('',(58.,5.,-0.2));
#1281=DIRECTION('',(0.,-1.,0.));
#1282=VECTOR('',#1281,5.);
#1283=LINE('',#1280,#1282);
#1284=EDGE_CURVE('',#511,#1279,#1283,.T.);
#1285=ORIENTED_EDGE('',*,*,#1284,.F.);
#1286=ORIENTED_EDGE('',*,*,#516,.T.);
#1287=ORIENTED_EDGE('',*,*,#1149,.T.);
#1288=CARTESIAN_POINT('',(58.,0.,-0.2));
#1289=DIRECTION('',(0.,0.,-1.));
#1290=VECTOR('',#1289,9.8);
#1291=LINE('',#1288,#1290);
#1292=EDGE_CURVE('',#1279,#1137,#1291,.T.);
#1293=ORIENTED_EDGE('',*,*,#1292,.F.);
#1294=EDGE_LOOP('',(#1285,#1286,#1287,#1293));
#1295=FACE_BOUND('',#1294,.T.);
#1296=ADVANCED_FACE('',(#1295),#1277,.T.);
#1297=CARTESIAN_POINT('',(-58.,95.,0.));
#1298=DIRECTION('',(-1.,0.,0.));
#1299=DIRECTION('',(0.,0.,1.));
#1300=AXIS2_PLACEMENT_3D('',#1297,#1298,#1299);
#1301=PLANE('',#1300);
#1302=CARTESIAN_POINT('',(-58.,100.,-0.2));
#1303=VERTEX_POINT('',#1302);
#1304=CARTESIAN_POINT('',(-58.,100.,-0.2));
#1305=DIRECTION('',(0.,-1.,0.));
#1306=VECTOR('',#1305,5.);
#1307=LINE('',#1304,#1306);
#1308=EDGE_CURVE('',#1303,#118,#1307,.T.);
#1309=ORIENTED_EDGE('',*,*,#1308,.T.);
#1310=ORIENTED_EDGE('',*,*,#123,.F.);
#1311=ORIENTED_EDGE('',*,*,#1068,.T.);
#1312=CARTESIAN_POINT('',(-58.,100.,-10.));
#1313=DIRECTION('',(0.,0.,1.));
#1314=VECTOR('',#1313,9.8);
#1315=LINE('',#1312,#1314);
#1316=EDGE_CURVE('',#1056,#1303,#1315,.T.);
#1317=ORIENTED_EDGE('',*,*,#1316,.T.);
#1318=EDGE_LOOP('',(#1309,#1310,#1311,#1317));
#1319=FACE_BOUND('',#1318,.T.);
#1320=ADVANCED_FACE('',(#1319),#1301,.F.);
#1321=CARTESIAN_POINT('',(58.,95.,0.));
#1322=DIRECTION('',(1.,0.,0.));
#1323=DIRECTION('',(0.,0.,-1.));
#1324=AXIS2_PLACEMENT_3D('',#1321,#1322,#1323);
#1325=PLANE('',#1324);
#1326=CARTESIAN_POINT('',(58.,100.,-0.2));
#1327=VERTEX_POINT('',#1326);
#1328=CARTESIAN_POINT('',(58.,100.,-0.2));
#1329=DIRECTION('',(0.,-1.,0.));
#1330=VECTOR('',#1329,5.);
#1331=LINE('',#1328,#1330);
#1332=EDGE_CURVE('',#1327,#76,#1331,.T.);
#1333=ORIENTED_EDGE('',*,*,#1332,.F.);
#1334=CARTESIAN_POINT('',(58.,100.,-0.2));
#1335=DIRECTION('',(0.,0.,-1.));
#1336=VECTOR('',#1335,9.8);
#1337=LINE('',#1334,#1336);
#1338=EDGE_CURVE('',#1327,#1110,#1337,.T.);
#1339=ORIENTED_EDGE('',*,*,#1338,.T.);
#1340=ORIENTED_EDGE('',*,*,#1124,.F.);
#1341=ORIENTED_EDGE('',*,*,#89,.F.);
#1342=EDGE_LOOP('',(#1333,#1339,#1340,#1341));
#1343=FACE_BOUND('',#1342,.T.);
#1344=ADVANCED_FACE('',(#1343),#1325,.F.);
#1345=CARTESIAN_POINT('',(0.,100.,0.));
#1346=DIRECTION('',(0.,1.,0.));
#1347=DIRECTION('',(0.,0.,1.));
#1348=AXIS2_PLACEMENT_3D('',#1345,#1346,#1347);
#1349=PLANE('',#1348);
#1350=ORIENTED_EDGE('',*,*,#1338,.F.);
#1351=CARTESIAN_POINT('',(60.,100.,-0.2));
#1352=VERTEX_POINT('',#1351);
#1353=CARTESIAN_POINT('',(58.,100.,-0.2));
#1354=DIRECTION('',(1.,0.,-0.));
#1355=VECTOR('',#1354,2.);
#1356=LINE('',#1353,#1355);
#1357=EDGE_CURVE('',#1327,#1352,#1356,.T.);
#1358=ORIENTED_EDGE('',*,*,#1357,.T.);
#1359=CARTESIAN_POINT('',(60.,100.,-0.2));
#1360=DIRECTION('',(0.,0.,-1.));
#1361=VECTOR('',#1360,9.8);
#1362=LINE('',#1359,#1361);
#1363=EDGE_CURVE('',#1352,#1021,#1362,.T.);
#1364=ORIENTED_EDGE('',*,*,#1363,.T.);
#1365=ORIENTED_EDGE('',*,*,#1027,.T.);
#1366=ORIENTED_EDGE('',*,*,#995,.T.);
#1367=ORIENTED_EDGE('',*,*,#956,.T.);
#1368=CARTESIAN_POINT('',(-60.,100.,-0.2));
#1369=VERTEX_POINT('',#1368);
#1370=CARTESIAN_POINT('',(-60.,100.,-10.));
#1371=DIRECTION('',(0.,0.,1.));
#1372=VECTOR('',#1371,9.8);
#1373=LINE('',#1370,#1372);
#1374=EDGE_CURVE('',#950,#1369,#1373,.T.);
#1375=ORIENTED_EDGE('',*,*,#1374,.T.);
#1376=CARTESIAN_POINT('',(-60.,100.,-0.2));
#1377=DIRECTION('',(1.,0.,0.));
#1378=VECTOR('',#1377,2.);
#1379=LINE('',#1376,#1378);
#1380=EDGE_CURVE('',#1369,#1303,#1379,.T.);
#1381=ORIENTED_EDGE('',*,*,#1380,.T.);
#1382=ORIENTED_EDGE('',*,*,#1316,.F.);
#1383=ORIENTED_EDGE('',*,*,#1062,.F.);
#1384=ORIENTED_EDGE('',*,*,#1091,.F.);
#1385=ORIENTED_EDGE('',*,*,#1116,.F.);
#1386=EDGE_LOOP('',(#1350,#1358,#1364,#1365,#1366,#1367,#1375,#1381,#1382,#1383,#1384,#1385));
#1387=FACE_BOUND('',#1386,.T.);
#1388=ADVANCED_FACE('',(#1387),#1349,.T.);
#1389=CARTESIAN_POINT('',(60.,100.,0.));
#1390=DIRECTION('',(-1.,0.,0.));
#1391=DIRECTION('',(0.,0.,1.));
#1392=AXIS2_PLACEMENT_3D('',#1389,#1390,#1391);
#1393=PLANE('',#1392);
#1394=CARTESIAN_POINT('',(60.,0.,-0.2));
#1395=VERTEX_POINT('',#1394);
#1396=CARTESIAN_POINT('',(60.,0.,-0.2));
#1397=DIRECTION('',(0.,1.,0.));
#1398=VECTOR('',#1397,100.);
#1399=LINE('',#1396,#1398);
#1400=EDGE_CURVE('',#1395,#1352,#1399,.T.);
#1401=ORIENTED_EDGE('',*,*,#1400,.F.);
#1402=CARTESIAN_POINT('',(60.,0.,-0.2));
#1403=DIRECTION('',(0.,0.,-1.));
#1404=VECTOR('',#1403,9.8);
#1405=LINE('',#1402,#1404);
#1406=EDGE_CURVE('',#1395,#1030,#1405,.T.);
#1407=ORIENTED_EDGE('',*,*,#1406,.T.);
#1408=ORIENTED_EDGE('',*,*,#1035,.T.);
#1409=ORIENTED_EDGE('',*,*,#1363,.F.);
#1410=EDGE_LOOP('',(#1401,#1407,#1408,#1409));
#1411=FACE_BOUND('',#1410,.T.);
#1412=ADVANCED_FACE('',(#1411),#1393,.F.);
#1413=CARTESIAN_POINT('',(-60.,100.,0.));
#1414=DIRECTION('',(1.,0.,-0.));
#1415=DIRECTION('',(-0.,0.,-1.));
#1416=AXIS2_PLACEMENT_3D('',#1413,#1414,#1415);
#1417=PLANE('',#1416);
#1418=CARTESIAN_POINT('',(-60.,0.,-0.2));
#1419=VERTEX_POINT('',#1418);
#1420=CARTESIAN_POINT('',(-60.,100.,-0.2));
#1421=DIRECTION('',(0.,-1.,0.));
#1422=VECTOR('',#1421,100.);
#1423=LINE('',#1420,#1422);
#1424=EDGE_CURVE('',#1369,#1419,#1423,.T.);
#1425=ORIENTED_EDGE('',*,*,#1424,.F.);
#1426=ORIENTED_EDGE('',*,*,#1374,.F.);
#1427=ORIENTED_EDGE('',*,*,#979,.T.);
#1428=CARTESIAN_POINT('',(-60.,0.,-10.));
#1429=DIRECTION('',(0.,0.,1.));
#1430=VECTOR('',#1429,9.8);
#1431=LINE('',#1428,#1430);
#1432=EDGE_CURVE('',#967,#1419,#1431,.T.);
#1433=ORIENTED_EDGE('',*,*,#1432,.T.);
#1434=EDGE_LOOP('',(#1425,#1426,#1427,#1433));
#1435=FACE_BOUND('',#1434,.T.);
#1436=ADVANCED_FACE('',(#1435),#1417,.F.);
#1437=CARTESIAN_POINT('',(0.,0.,0.));
#1438=DIRECTION('',(0.,1.,0.));
#1439=DIRECTION('',(0.,0.,1.));
#1440=AXIS2_PLACEMENT_3D('',#1437,#1438,#1439);
#1441=PLANE('',#1440);
#1442=CARTESIAN_POINT('',(58.,0.,-0.2));
#1443=DIRECTION('',(1.,0.,-0.));
#1444=VECTOR('',#1443,2.);
#1445=LINE('',#1442,#1444);
#1446=EDGE_CURVE('',#1279,#1395,#1445,.T.);
#1447=ORIENTED_EDGE('',*,*,#1446,.F.);
#1448=ORIENTED_EDGE('',*,*,#1292,.T.);
#1449=ORIENTED_EDGE('',*,*,#1143,.F.);
#1450=ORIENTED_EDGE('',*,*,#1172,.T.);
#1451=ORIENTED_EDGE('',*,*,#1197,.F.);
#1452=ORIENTED_EDGE('',*,*,#1228,.T.);
#1453=CARTESIAN_POINT('',(-60.,0.,-0.2));
#1454=DIRECTION('',(1.,0.,0.));
#1455=VECTOR('',#1454,2.);
#1456=LINE('',#1453,#1455);
#1457=EDGE_CURVE('',#1419,#1217,#1456,.T.);
#1458=ORIENTED_EDGE('',*,*,#1457,.F.);
#1459=ORIENTED_EDGE('',*,*,#1432,.F.);
#1460=ORIENTED_EDGE('',*,*,#973,.T.);
#1461=ORIENTED_EDGE('',*,*,#1009,.F.);
#1462=ORIENTED_EDGE('',*,*,#1042,.T.);
#1463=ORIENTED_EDGE('',*,*,#1406,.F.);
#1464=EDGE_LOOP('',(#1447,#1448,#1449,#1450,#1451,#1452,#1458,#1459,#1460,#1461,#1462,#1463));
#1465=FACE_BOUND('',#1464,.T.);
#1466=ADVANCED_FACE('',(#1465),#1441,.F.);
#1467=CARTESIAN_POINT('',(-58.,162.568826849,3.));
#1468=DIRECTION('',(0.,0.,1.));
#1469=DIRECTION('',(1.,0.,0.));
#1470=AXIS2_PLACEMENT_3D('',#1467,#1468,#1469);
#1471=PLANE('',#1470);
#1472=ORIENTED_EDGE('',*,*,#466,.F.);
#1473=ORIENTED_EDGE('',*,*,#1250,.F.);
#1474=ORIENTED_EDGE('',*,*,#139,.F.);
#1475=CARTESIAN_POINT('',(-58.,95.,3.));
#1476=DIRECTION('',(0.,-1.,0.));
#1477=VECTOR('',#1476,90.);
#1478=LINE('',#1475,#1477);
#1479=EDGE_CURVE('',#126,#461,#1478,.T.);
#1480=ORIENTED_EDGE('',*,*,#1479,.T.);
#1481=EDGE_LOOP('',(#1472,#1473,#1474,#1480));
#1482=FACE_BOUND('',#1481,.T.);
#1483=ADVANCED_FACE('',(#1482),#1471,.T.);
#1484=CARTESIAN_POINT('',(-58.,162.568826849,-0.2));
#1485=DIRECTION('',(-0.,0.,1.));
#1486=DIRECTION('',(1.,0.,0.));
#1487=AXIS2_PLACEMENT_3D('',#1484,#1485,#1486);
#1488=PLANE('',#1487);
#1489=ORIENTED_EDGE('',*,*,#1424,.T.);
#1490=ORIENTED_EDGE('',*,*,#1457,.T.);
#1491=ORIENTED_EDGE('',*,*,#1222,.F.);
#1492=CARTESIAN_POINT('',(-58.,95.,-0.2));
#1493=DIRECTION('',(0.,-1.,0.));
#1494=VECTOR('',#1493,90.);
#1495=LINE('',#1492,#1494);
#1496=EDGE_CURVE('',#118,#469,#1495,.T.);
#1497=ORIENTED_EDGE('',*,*,#1496,.F.);
#1498=ORIENTED_EDGE('',*,*,#1308,.F.);
#1499=ORIENTED_EDGE('',*,*,#1380,.F.);
#1500=EDGE_LOOP('',(#1489,#1490,#1491,#1497,#1498,#1499));
#1501=FACE_BOUND('',#1500,.T.);
#1502=ADVANCED_FACE('',(#1501),#1488,.T.);
#1503=CARTESIAN_POINT('',(-58.,162.568826849,0.));
#1504=DIRECTION('',(-1.,0.,0.));
#1505=DIRECTION('',(0.,0.,1.));
#1506=AXIS2_PLACEMENT_3D('',#1503,#1504,#1505);
#1507=PLANE('',#1506);
#1508=ORIENTED_EDGE('',*,*,#131,.F.);
#1509=ORIENTED_EDGE('',*,*,#1496,.T.);
#1510=ORIENTED_EDGE('',*,*,#474,.T.);
#1511=ORIENTED_EDGE('',*,*,#1479,.F.);
#1512=EDGE_LOOP('',(#1508,#1509,#1510,#1511));
#1513=FACE_BOUND('',#1512,.T.);
#1514=ADVANCED_FACE('',(#1513),#1507,.T.);
#1515=CARTESIAN_POINT('',(58.,162.568826849,-0.2));
#1516=DIRECTION('',(0.,0.,1.));
#1517=DIRECTION('',(1.,0.,-0.));
#1518=AXIS2_PLACEMENT_3D('',#1515,#1516,#1517);
#1519=PLANE('',#1518);
#1520=ORIENTED_EDGE('',*,*,#1284,.T.);
#1521=ORIENTED_EDGE('',*,*,#1446,.T.);
#1522=ORIENTED_EDGE('',*,*,#1400,.T.);
#1523=ORIENTED_EDGE('',*,*,#1357,.F.);
#1524=ORIENTED_EDGE('',*,*,#1332,.T.);
#1525=CARTESIAN_POINT('',(58.,95.,-0.2));
#1526=DIRECTION('',(0.,-1.,0.));
#1527=VECTOR('',#1526,90.);
#1528=LINE('',#1525,#1527);
#1529=EDGE_CURVE('',#76,#511,#1528,.T.);
#1530=ORIENTED_EDGE('',*,*,#1529,.T.);
#1531=EDGE_LOOP('',(#1520,#1521,#1522,#1523,#1524,#1530));
#1532=FACE_BOUND('',#1531,.T.);
#1533=ADVANCED_FACE('',(#1532),#1519,.T.);
#1534=CARTESIAN_POINT('',(58.,162.568826849,0.));
#1535=DIRECTION('',(1.,0.,0.));
#1536=DIRECTION('',(0.,0.,-1.));
#1537=AXIS2_PLACEMENT_3D('',#1534,#1535,#1536);
#1538=PLANE('',#1537);
#1539=ORIENTED_EDGE('',*,*,#81,.F.);
#1540=CARTESIAN_POINT('',(58.,95.,3.));
#1541=DIRECTION('',(0.,-1.,0.));
#1542=VECTOR('',#1541,90.);
#1543=LINE('',#1540,#1542);
#1544=EDGE_CURVE('',#68,#519,#1543,.T.);
#1545=ORIENTED_EDGE('',*,*,#1544,.T.);
#1546=ORIENTED_EDGE('',*,*,#524,.T.);
#1547=ORIENTED_EDGE('',*,*,#1529,.F.);
#1548=EDGE_LOOP('',(#1539,#1545,#1546,#1547));
#1549=FACE_BOUND('',#1548,.T.);
#1550=ADVANCED_FACE('',(#1549),#1538,.T.);
#1551=CARTESIAN_POINT('',(-58.,162.568826849,3.));
#1552=DIRECTION('',(0.,0.,1.));
#1553=DIRECTION('',(1.,0.,0.));
#1554=AXIS2_PLACEMENT_3D('',#1551,#1552,#1553);
#1555=PLANE('',#1554);
#1556=ORIENTED_EDGE('',*,*,#532,.F.);
#1557=ORIENTED_EDGE('',*,*,#1544,.F.);
#1558=ORIENTED_EDGE('',*,*,#73,.F.);
#1559=ORIENTED_EDGE('',*,*,#1268,.F.);
#1560=EDGE_LOOP('',(#1556,#1557,#1558,#1559));
#1561=FACE_BOUND('',#1560,.T.);
#1562=ADVANCED_FACE('',(#1561),#1555,.T.);
#1563=CARTESIAN_POINT('',(-48.,95.,-12.));
#1564=DIRECTION('',(-1.,0.,0.));
#1565=DIRECTION('',(0.,0.,1.));
#1566=AXIS2_PLACEMENT_3D('',#1563,#1564,#1565);
#1567=PLANE('',#1566);
#1568=ORIENTED_EDGE('',*,*,#433,.T.);
#1569=ORIENTED_EDGE('',*,*,#936,.F.);
#1570=ORIENTED_EDGE('',*,*,#172,.F.);
#1571=CARTESIAN_POINT('',(-48.,95.,-10.));
#1572=DIRECTION('',(0.,-1.,0.));
#1573=VECTOR('',#1572,90.);
#1574=LINE('',#1571,#1573);
#1575=EDGE_CURVE('',#158,#428,#1574,.T.);
#1576=ORIENTED_EDGE('',*,*,#1575,.T.);
#1577=EDGE_LOOP('',(#1568,#1569,#1570,#1576));
#1578=FACE_BOUND('',#1577,.T.);
#1579=ADVANCED_FACE('',(#1578),#1567,.F.);
#1580=CARTESIAN_POINT('',(-52.,95.,-10.));
#1581=DIRECTION('',(0.,-1.,0.));
#1582=DIRECTION('',(0.,0.,-1.));
#1583=AXIS2_PLACEMENT_3D('',#1580,#1581,#1582);
#1584=CYLINDRICAL_SURFACE('',#1583,4.);
#1585=ORIENTED_EDGE('',*,*,#442,.F.);
#1586=ORIENTED_EDGE('',*,*,#1575,.F.);
#1587=ORIENTED_EDGE('',*,*,#164,.T.);
#1588=CARTESIAN_POINT('',(-52.,95.,-6.));
#1589=DIRECTION('',(0.,-1.,0.));
#1590=VECTOR('',#1589,90.);
#1591=LINE('',#1588,#1590);
#1592=EDGE_CURVE('',#150,#436,#1591,.T.);
#1593=ORIENTED_EDGE('',*,*,#1592,.T.);
#1594=EDGE_LOOP('',(#1585,#1586,#1587,#1593));
#1595=FACE_BOUND('',#1594,.T.);
#1596=ADVANCED_FACE('',(#1595),#1584,.T.);
#1597=CARTESIAN_POINT('',(-54.,95.,-6.));
#1598=DIRECTION('',(0.,0.,1.));
#1599=DIRECTION('',(1.,0.,0.));
#1600=AXIS2_PLACEMENT_3D('',#1597,#1598,#1599);
#1601=PLANE('',#1600);
#1602=ORIENTED_EDGE('',*,*,#450,.F.);
#1603=ORIENTED_EDGE('',*,*,#1592,.F.);
#1604=ORIENTED_EDGE('',*,*,#155,.T.);
#1605=ORIENTED_EDGE('',*,*,#1243,.T.);
#1606=EDGE_LOOP('',(#1602,#1603,#1604,#1605));
#1607=FACE_BOUND('',#1606,.T.);
#1608=ADVANCED_FACE('',(#1607),#1601,.T.);
#1609=CARTESIAN_POINT('',(-50.875,25.,-10.649519053));
#1610=DIRECTION('',(0.866025404,0.,-0.5));
#1611=DIRECTION('',(-0.5,0.,-0.866025404));
#1612=AXIS2_PLACEMENT_3D('',#1609,#1610,#1611);
#1613=PLANE('',#1612);
#1614=ORIENTED_EDGE('',*,*,#552,.T.);
#1615=CARTESIAN_POINT('',(-50.5,25.,-10.));
#1616=VERTEX_POINT('',#1615);
#1617=CARTESIAN_POINT('',(-50.5,25.,-10.));
#1618=DIRECTION('',(0.,-1.,0.));
#1619=VECTOR('',#1618,20.);
#1620=LINE('',#1617,#1619);
#1621=EDGE_CURVE('',#1616,#547,#1620,.T.);
#1622=ORIENTED_EDGE('',*,*,#1621,.F.);
#1623=CARTESIAN_POINT('',(-51.25,25.,-11.299038106));
#1624=VERTEX_POINT('',#1623);
#1625=CARTESIAN_POINT('',(-51.25,25.,-11.299038106));
#1626=DIRECTION('',(0.5,0.,0.866025404));
#1627=VECTOR('',#1626,1.5);
#1628=LINE('',#1625,#1627);
#1629=EDGE_CURVE('',#1624,#1616,#1628,.T.);
#1630=ORIENTED_EDGE('',*,*,#1629,.F.);
#1631=CARTESIAN_POINT('',(-51.25,25.,-11.299038106));
#1632=DIRECTION('',(0.,-1.,0.));
#1633=VECTOR('',#1632,20.);
#1634=LINE('',#1631,#1633);
#1635=EDGE_CURVE('',#1624,#545,#1634,.T.);
#1636=ORIENTED_EDGE('',*,*,#1635,.T.);
#1637=EDGE_LOOP('',(#1614,#1622,#1630,#1636));
#1638=FACE_BOUND('',#1637,.T.);
#1639=ADVANCED_FACE('',(#1638),#1613,.F.);
#1640=CARTESIAN_POINT('',(-50.875,25.,-9.350480947));
#1641=DIRECTION('',(0.866025404,0.,0.5));
#1642=DIRECTION('',(0.5,0.,-0.866025404));
#1643=AXIS2_PLACEMENT_3D('',#1640,#1641,#1642);
#1644=PLANE('',#1643);
#1645=ORIENTED_EDGE('',*,*,#590,.T.);
#1646=CARTESIAN_POINT('',(-51.25,25.,-8.700961894));
#1647=VERTEX_POINT('',#1646);
#1648=CARTESIAN_POINT('',(-51.25,25.,-8.700961894));
#1649=DIRECTION('',(0.,-1.,0.));
#1650=VECTOR('',#1649,20.);
#1651=LINE('',#1648,#1650);
#1652=EDGE_CURVE('',#1647,#579,#1651,.T.);
#1653=ORIENTED_EDGE('',*,*,#1652,.F.);
#1654=CARTESIAN_POINT('',(-50.5,25.,-10.));
#1655=DIRECTION('',(-0.5,0.,0.866025404));
#1656=VECTOR('',#1655,1.5);
#1657=LINE('',#1654,#1656);
#1658=EDGE_CURVE('',#1616,#1647,#1657,.T.);
#1659=ORIENTED_EDGE('',*,*,#1658,.F.);
#1660=ORIENTED_EDGE('',*,*,#1621,.T.);
#1661=EDGE_LOOP('',(#1645,#1653,#1659,#1660));
#1662=FACE_BOUND('',#1661,.T.);
#1663=ADVANCED_FACE('',(#1662),#1644,.F.);
#1664=CARTESIAN_POINT('',(-52.,25.,-8.700961894));
#1665=DIRECTION('',(0.,0.,1.));
#1666=DIRECTION('',(1.,0.,-0.));
#1667=AXIS2_PLACEMENT_3D('',#1664,#1665,#1666);
#1668=PLANE('',#1667);
#1669=ORIENTED_EDGE('',*,*,#584,.T.);
#1670=CARTESIAN_POINT('',(-52.75,25.,-8.700961894));
#1671=VERTEX_POINT('',#1670);
#1672=CARTESIAN_POINT('',(-52.75,25.,-8.700961894));
#1673=DIRECTION('',(0.,-1.,0.));
#1674=VECTOR('',#1673,20.);
#1675=LINE('',#1672,#1674);
#1676=EDGE_CURVE('',#1671,#571,#1675,.T.);
#1677=ORIENTED_EDGE('',*,*,#1676,.F.);
#1678=CARTESIAN_POINT('',(-51.25,25.,-8.700961894));
#1679=DIRECTION('',(-1.,0.,0.));
#1680=VECTOR('',#1679,1.5);
#1681=LINE('',#1678,#1680);
#1682=EDGE_CURVE('',#1647,#1671,#1681,.T.);
#1683=ORIENTED_EDGE('',*,*,#1682,.F.);
#1684=ORIENTED_EDGE('',*,*,#1652,.T.);
#1685=EDGE_LOOP('',(#1669,#1677,#1683,#1684));
#1686=FACE_BOUND('',#1685,.T.);
#1687=ADVANCED_FACE('',(#1686),#1668,.F.);
#1688=CARTESIAN_POINT('',(-53.125,25.,-9.350480947));
#1689=DIRECTION('',(-0.866025404,0.,0.5));
#1690=DIRECTION('',(0.5,0.,0.866025404));
#1691=AXIS2_PLACEMENT_3D('',#1688,#1689,#1690);
#1692=PLANE('',#1691);
#1693=ORIENTED_EDGE('',*,*,#576,.T.);
#1694=CARTESIAN_POINT('',(-53.5,25.,-10.));
#1695=VERTEX_POINT('',#1694);
#1696=CARTESIAN_POINT('',(-53.5,25.,-10.));
#1697=DIRECTION('',(0.,-1.,0.));
#1698=VECTOR('',#1697,20.);
#1699=LINE('',#1696,#1698);
#1700=EDGE_CURVE('',#1695,#563,#1699,.T.);
#1701=ORIENTED_EDGE('',*,*,#1700,.F.);
#1702=CARTESIAN_POINT('',(-52.75,25.,-8.700961894));
#1703=DIRECTION('',(-0.5,0.,-0.866025404));
#1704=VECTOR('',#1703,1.5);
#1705=LINE('',#1702,#1704);
#1706=EDGE_CURVE('',#1671,#1695,#1705,.T.);
#1707=ORIENTED_EDGE('',*,*,#1706,.F.);
#1708=ORIENTED_EDGE('',*,*,#1676,.T.);
#1709=EDGE_LOOP('',(#1693,#1701,#1707,#1708));
#1710=FACE_BOUND('',#1709,.T.);
#1711=ADVANCED_FACE('',(#1710),#1692,.F.);
#1712=CARTESIAN_POINT('',(-53.125,25.,-10.649519053));
#1713=DIRECTION('',(-0.866025404,0.,-0.5));
#1714=DIRECTION('',(-0.5,0.,0.866025404));
#1715=AXIS2_PLACEMENT_3D('',#1712,#1713,#1714);
#1716=PLANE('',#1715);
#1717=ORIENTED_EDGE('',*,*,#568,.T.);
#1718=CARTESIAN_POINT('',(-52.75,25.,-11.299038106));
#1719=VERTEX_POINT('',#1718);
#1720=CARTESIAN_POINT('',(-52.75,25.,-11.299038106));
#1721=DIRECTION('',(0.,-1.,0.));
#1722=VECTOR('',#1721,20.);
#1723=LINE('',#1720,#1722);
#1724=EDGE_CURVE('',#1719,#555,#1723,.T.);
#1725=ORIENTED_EDGE('',*,*,#1724,.F.);
#1726=CARTESIAN_POINT('',(-53.5,25.,-10.));
#1727=DIRECTION('',(0.5,0.,-0.866025404));
#1728=VECTOR('',#1727,1.5);
#1729=LINE('',#1726,#1728);
#1730=EDGE_CURVE('',#1695,#1719,#1729,.T.);
#1731=ORIENTED_EDGE('',*,*,#1730,.F.);
#1732=ORIENTED_EDGE('',*,*,#1700,.T.);
#1733=EDGE_LOOP('',(#1717,#1725,#1731,#1732));
#1734=FACE_BOUND('',#1733,.T.);
#1735=ADVANCED_FACE('',(#1734),#1716,.F.);
#1736=CARTESIAN_POINT('',(-52.,25.,-11.299038106));
#1737=DIRECTION('',(-0.,0.,-1.));
#1738=DIRECTION('',(-1.,0.,0.));
#1739=AXIS2_PLACEMENT_3D('',#1736,#1737,#1738);
#1740=PLANE('',#1739);
#1741=ORIENTED_EDGE('',*,*,#560,.T.);
#1742=ORIENTED_EDGE('',*,*,#1635,.F.);
#1743=CARTESIAN_POINT('',(-52.75,25.,-11.299038106));
#1744=DIRECTION('',(1.,0.,-0.));
#1745=VECTOR('',#1744,1.5);
#1746=LINE('',#1743,#1745);
#1747=EDGE_CURVE('',#1719,#1624,#1746,.T.);
#1748=ORIENTED_EDGE('',*,*,#1747,.F.);
#1749=ORIENTED_EDGE('',*,*,#1724,.T.);
#1750=EDGE_LOOP('',(#1741,#1742,#1748,#1749));
#1751=FACE_BOUND('',#1750,.T.);
#1752=ADVANCED_FACE('',(#1751),#1740,.F.);
#1753=CARTESIAN_POINT('',(0.,25.,0.));
#1754=DIRECTION('',(0.,-1.,0.));
#1755=DIRECTION('',(1.,0.,0.));
#1756=AXIS2_PLACEMENT_3D('',#1753,#1754,#1755);
#1757=PLANE('',#1756);
#1758=ORIENTED_EDGE('',*,*,#1629,.T.);
#1759=ORIENTED_EDGE('',*,*,#1658,.T.);
#1760=ORIENTED_EDGE('',*,*,#1682,.T.);
#1761=ORIENTED_EDGE('',*,*,#1706,.T.);
#1762=ORIENTED_EDGE('',*,*,#1730,.T.);
#1763=ORIENTED_EDGE('',*,*,#1747,.T.);
#1764=EDGE_LOOP('',(#1758,#1759,#1760,#1761,#1762,#1763));
#1765=FACE_BOUND('',#1764,.T.);
#1766=ADVANCED_FACE('',(#1765),#1757,.T.);
#1767=CARTESIAN_POINT('',(-53.125,75.,-9.350480947));
#1768=DIRECTION('',(0.866025404,0.,-0.5));
#1769=DIRECTION('',(-0.5,0.,-0.866025404));
#1770=AXIS2_PLACEMENT_3D('',#1767,#1768,#1769);
#1771=PLANE('',#1770);
#1772=ORIENTED_EDGE('',*,*,#240,.F.);
#1773=CARTESIAN_POINT('',(-52.75,75.,-8.700961894));
#1774=VERTEX_POINT('',#1773);
#1775=CARTESIAN_POINT('',(-52.75,75.,-8.700961894));
#1776=DIRECTION('',(0.,1.,0.));
#1777=VECTOR('',#1776,20.);
#1778=LINE('',#1775,#1777);
#1779=EDGE_CURVE('',#1774,#233,#1778,.T.);
#1780=ORIENTED_EDGE('',*,*,#1779,.F.);
#1781=CARTESIAN_POINT('',(-53.5,75.,-10.));
#1782=VERTEX_POINT('',#1781);
#1783=CARTESIAN_POINT('',(-52.75,75.,-8.700961894));
#1784=DIRECTION('',(-0.5,0.,-0.866025404));
#1785=VECTOR('',#1784,1.5);
#1786=LINE('',#1783,#1785);
#1787=EDGE_CURVE('',#1774,#1782,#1786,.T.);
#1788=ORIENTED_EDGE('',*,*,#1787,.T.);
#1789=CARTESIAN_POINT('',(-53.5,75.,-10.));
#1790=DIRECTION('',(0.,1.,0.));
#1791=VECTOR('',#1790,20.);
#1792=LINE('',#1789,#1791);
#1793=EDGE_CURVE('',#1782,#235,#1792,.T.);
#1794=ORIENTED_EDGE('',*,*,#1793,.T.);
#1795=EDGE_LOOP('',(#1772,#1780,#1788,#1794));
#1796=FACE_BOUND('',#1795,.T.);
#1797=ADVANCED_FACE('',(#1796),#1771,.T.);
#1798=OVER_RIDING_STYLED_ITEM('',(#790),#1797,#26);
#1799=CARTESIAN_POINT('',(-52.,75.,-8.700961894));
#1800=DIRECTION('',(-0.,0.,-1.));
#1801=DIRECTION('',(-1.,0.,0.));
#1802=AXIS2_PLACEMENT_3D('',#1799,#1800,#1801);
#1803=PLANE('',#1802);
#1804=ORIENTED_EDGE('',*,*,#278,.F.);
#1805=CARTESIAN_POINT('',(-51.25,75.,-8.700961894));
#1806=VERTEX_POINT('',#1805);
#1807=CARTESIAN_POINT('',(-51.25,75.,-8.700961894));
#1808=DIRECTION('',(0.,1.,0.));
#1809=VECTOR('',#1808,20.);
#1810=LINE('',#1807,#1809);
#1811=EDGE_CURVE('',#1806,#267,#1810,.T.);
#1812=ORIENTED_EDGE('',*,*,#1811,.F.);
#1813=CARTESIAN_POINT('',(-51.25,75.,-8.700961894));
#1814=DIRECTION('',(-1.,0.,0.));
#1815=VECTOR('',#1814,1.5);
#1816=LINE('',#1813,#1815);
#1817=EDGE_CURVE('',#1806,#1774,#1816,.T.);
#1818=ORIENTED_EDGE('',*,*,#1817,.T.);
#1819=ORIENTED_EDGE('',*,*,#1779,.T.);
#1820=EDGE_LOOP('',(#1804,#1812,#1818,#1819));
#1821=FACE_BOUND('',#1820,.T.);
#1822=ADVANCED_FACE('',(#1821),#1803,.T.);
#1823=OVER_RIDING_STYLED_ITEM('',(#790),#1822,#26);
#1824=CARTESIAN_POINT('',(-50.875,75.,-9.350480947));
#1825=DIRECTION('',(-0.866025404,0.,-0.5));
#1826=DIRECTION('',(-0.5,0.,0.866025404));
#1827=AXIS2_PLACEMENT_3D('',#1824,#1825,#1826);
#1828=PLANE('',#1827);
#1829=ORIENTED_EDGE('',*,*,#272,.F.);
#1830=CARTESIAN_POINT('',(-50.5,75.,-10.));
#1831=VERTEX_POINT('',#1830);
#1832=CARTESIAN_POINT('',(-50.5,75.,-10.));
#1833=DIRECTION('',(0.,1.,0.));
#1834=VECTOR('',#1833,20.);
#1835=LINE('',#1832,#1834);
#1836=EDGE_CURVE('',#1831,#259,#1835,.T.);
#1837=ORIENTED_EDGE('',*,*,#1836,.F.);
#1838=CARTESIAN_POINT('',(-50.5,75.,-10.));
#1839=DIRECTION('',(-0.5,0.,0.866025404));
#1840=VECTOR('',#1839,1.5);
#1841=LINE('',#1838,#1840);
#1842=EDGE_CURVE('',#1831,#1806,#1841,.T.);
#1843=ORIENTED_EDGE('',*,*,#1842,.T.);
#1844=ORIENTED_EDGE('',*,*,#1811,.T.);
#1845=EDGE_LOOP('',(#1829,#1837,#1843,#1844));
#1846=FACE_BOUND('',#1845,.T.);
#1847=ADVANCED_FACE('',(#1846),#1828,.T.);
#1848=OVER_RIDING_STYLED_ITEM('',(#790),#1847,#26);
#1849=CARTESIAN_POINT('',(-50.875,75.,-10.649519053));
#1850=DIRECTION('',(-0.866025404,0.,0.5));
#1851=DIRECTION('',(0.5,0.,0.866025404));
#1852=AXIS2_PLACEMENT_3D('',#1849,#1850,#1851);
#1853=PLANE('',#1852);
#1854=ORIENTED_EDGE('',*,*,#264,.F.);
#1855=CARTESIAN_POINT('',(-51.25,75.,-11.299038106));
#1856=VERTEX_POINT('',#1855);
#1857=CARTESIAN_POINT('',(-51.25,75.,-11.299038106));
#1858=DIRECTION('',(0.,1.,0.));
#1859=VECTOR('',#1858,20.);
#1860=LINE('',#1857,#1859);
#1861=EDGE_CURVE('',#1856,#251,#1860,.T.);
#1862=ORIENTED_EDGE('',*,*,#1861,.F.);
#1863=CARTESIAN_POINT('',(-51.25,75.,-11.299038106));
#1864=DIRECTION('',(0.5,0.,0.866025404));
#1865=VECTOR('',#1864,1.5);
#1866=LINE('',#1863,#1865);
#1867=EDGE_CURVE('',#1856,#1831,#1866,.T.);
#1868=ORIENTED_EDGE('',*,*,#1867,.T.);
#1869=ORIENTED_EDGE('',*,*,#1836,.T.);
#1870=EDGE_LOOP('',(#1854,#1862,#1868,#1869));
#1871=FACE_BOUND('',#1870,.T.);
#1872=ADVANCED_FACE('',(#1871),#1853,.T.);
#1873=OVER_RIDING_STYLED_ITEM('',(#790),#1872,#26);
#1874=CARTESIAN_POINT('',(-52.,75.,-11.299038106));
#1875=DIRECTION('',(0.,0.,1.));
#1876=DIRECTION('',(1.,0.,-0.));
#1877=AXIS2_PLACEMENT_3D('',#1874,#1875,#1876);
#1878=PLANE('',#1877);
#1879=ORIENTED_EDGE('',*,*,#256,.F.);
#1880=CARTESIAN_POINT('',(-52.75,75.,-11.299038106));
#1881=VERTEX_POINT('',#1880);
#1882=CARTESIAN_POINT('',(-52.75,75.,-11.299038106));
#1883=DIRECTION('',(0.,1.,0.));
#1884=VECTOR('',#1883,20.);
#1885=LINE('',#1882,#1884);
#1886=EDGE_CURVE('',#1881,#243,#1885,.T.);
#1887=ORIENTED_EDGE('',*,*,#1886,.F.);
#1888=CARTESIAN_POINT('',(-52.75,75.,-11.299038106));
#1889=DIRECTION('',(1.,0.,-0.));
#1890=VECTOR('',#1889,1.5);
#1891=LINE('',#1888,#1890);
#1892=EDGE_CURVE('',#1881,#1856,#1891,.T.);
#1893=ORIENTED_EDGE('',*,*,#1892,.T.);
#1894=ORIENTED_EDGE('',*,*,#1861,.T.);
#1895=EDGE_LOOP('',(#1879,#1887,#1893,#1894));
#1896=FACE_BOUND('',#1895,.T.);
#1897=ADVANCED_FACE('',(#1896),#1878,.T.);
#1898=OVER_RIDING_STYLED_ITEM('',(#790),#1897,#26);
#1899=CARTESIAN_POINT('',(-53.125,75.,-10.649519053));
#1900=DIRECTION('',(0.866025404,0.,0.5));
#1901=DIRECTION('',(0.5,0.,-0.866025404));
#1902=AXIS2_PLACEMENT_3D('',#1899,#1900,#1901);
#1903=PLANE('',#1902);
#1904=ORIENTED_EDGE('',*,*,#248,.F.);
#1905=ORIENTED_EDGE('',*,*,#1793,.F.);
#1906=CARTESIAN_POINT('',(-53.5,75.,-10.));
#1907=DIRECTION('',(0.5,0.,-0.866025404));
#1908=VECTOR('',#1907,1.5);
#1909=LINE('',#1906,#1908);
#1910=EDGE_CURVE('',#1782,#1881,#1909,.T.);
#1911=ORIENTED_EDGE('',*,*,#1910,.T.);
#1912=ORIENTED_EDGE('',*,*,#1886,.T.);
#1913=EDGE_LOOP('',(#1904,#1905,#1911,#1912));
#1914=FACE_BOUND('',#1913,.T.);
#1915=ADVANCED_FACE('',(#1914),#1903,.T.);
#1916=OVER_RIDING_STYLED_ITEM('',(#790),#1915,#26);
#1917=CARTESIAN_POINT('',(0.,75.,0.));
#1918=DIRECTION('',(0.,1.,0.));
#1919=DIRECTION('',(-1.,0.,0.));
#1920=AXIS2_PLACEMENT_3D('',#1917,#1918,#1919);
#1921=PLANE('',#1920);
#1922=ORIENTED_EDGE('',*,*,#1787,.F.);
#1923=ORIENTED_EDGE('',*,*,#1817,.F.);
#1924=ORIENTED_EDGE('',*,*,#1842,.F.);
#1925=ORIENTED_EDGE('',*,*,#1867,.F.);
#1926=ORIENTED_EDGE('',*,*,#1892,.F.);
#1927=ORIENTED_EDGE('',*,*,#1910,.F.);
#1928=EDGE_LOOP('',(#1922,#1923,#1924,#1925,#1926,#1927));
#1929=FACE_BOUND('',#1928,.T.);
#1930=ADVANCED_FACE('',(#1929),#1921,.T.);
#1931=OVER_RIDING_STYLED_ITEM('',(#790),#1930,#26);
#1932=CLOSED_SHELL('',(#282,#313,#338,#362,#594,#625,#649,#673,#697,#721,#738,#752,#783,#815,#840,#865,#890,#908,#923,#941,#983,#1014,#1047,#1079,#1103,#1128,
#1160,#1184,#1209,#1233,#1255,#1272,#1296,#1320,#1344,#1388,#1412,#1436,#1466,#1483,#1502,#1514,#1533,#1550,#1562,#1579,#1596,#1608,#1639,#1663,#1687,
#1711,#1735,#1752,#1766,#1797,#1822,#1847,#1872,#1897,#1915,#1930));
#1933=MANIFOLD_SOLID_BREP('shell bottom',#1932);
#1934=DRAUGHTING_PRE_DEFINED_COLOUR('white');
#1935=FILL_AREA_STYLE_COLOUR('',#1934);
#1936=FILL_AREA_STYLE('',(#1935));
#1937=SURFACE_STYLE_FILL_AREA(#1936);
#1938=SURFACE_SIDE_STYLE('',(#1937));
#1939=SURFACE_STYLE_USAGE(.BOTH.,#1938);
#1940=PRESENTATION_STYLE_ASSIGNMENT((#1939));
#26=STYLED_ITEM('',(#1940),#1933);
#16=SHAPE_REPRESENTATION('shell bottom',(#15),#10);
#17=ADVANCED_BREP_SHAPE_REPRESENTATION('shell bottom',(#1933),#10);
#1948=SHAPE_REPRESENTATION_RELATIONSHIP('','',#16,#17);
#1949=CARTESIAN_POINT('',(0.,0.,0.));
#1950=DIRECTION('',(0.,0.,1.));
#1951=DIRECTION('',(1.,0.,0.));
#1952=AXIS2_PLACEMENT_3D('',#1949,#1950,#1951);
#1954=MAPPED_ITEM('',#1953,#1952);
#1953=REPRESENTATION_MAP(#1952,#16);
#1955=APPLICATION_CONTEXT('Managed model based 3d engineering');
#1956=APPLICATION_PROTOCOL_DEFINITION('international standard','ap242_managed_model_based_3d_engineering',2014,#1955);
#1957=PRODUCT_CONTEXT('',#1955,'mechanical');
#1958=PRODUCT_DEFINITION_CONTEXT('part definition',#1955,'design');
#24=PRODUCT('shell bottom','shell bottom','',(#1957));
#1959=PRODUCT_RELATED_PRODUCT_CATEGORY('part','',(#24));
#1960=PRODUCT_DEFINITION_FORMATION_WITH_SPECIFIED_SOURCE('','',#24,.NOT_KNOWN.);
#25=PRODUCT_DEFINITION('design','',#1960,#1958);
#23=PRODUCT_DEFINITION_SHAPE('','',#25);
#1961=SHAPE_DEFINITION_REPRESENTATION(#23,#16);
#11=DRAUGHTING_MODEL('',(#1954),#10);
#1962=DESCRIPTIVE_REPRESENTATION_ITEM('KEY','/Users/georgewhite/Library/Containers/com.shapr3d.shapr/Data/tmp/7DAE1292-CB6F-4C0C-B0AE-BCEEDD3E320B.tmp');
#1963=PROPERTY_DEFINITION('KEY','',#25);
#1964=REPRESENTATION('',(#1962),#10);
#1965=PROPERTY_DEFINITION_REPRESENTATION(#1963,#1964);
#1966=GENERAL_PROPERTY('','KEY','');
#1967=GENERAL_PROPERTY_ASSOCIATION('','',#1966,#1963);
#1=MECHANICAL_DESIGN_GEOMETRIC_PRESENTATION_REPRESENTATION('',(#791,#816,#841,#866,#891,#909,#924,#1798,#1823,#1848,#1873,#1898,#1916,#1931,#26),#10);
ENDSEC;
END-ISO-10303-21;
